<svg xmlns="http://www.w3.org/2000/svg" width="290.622" height="284.103" viewBox="0 0 290.622 284.103">
  <g id="Group_1159" data-name="Group 1159" transform="translate(0 -10.2)">
    <g id="Group_1160" data-name="Group 1160">
      <path id="Path_4170" data-name="Path 4170" d="M407.639,1349.378H383.215l-5.126-64.706h30.405Z" transform="translate(-316.727 -1076.176)" fill="#f3957b"/>
      <path id="Path_4171" data-name="Path 4171" d="M439.529,1634.636H390.208l2.245-19.481H417.8c10.761,0,21.729,8.722,21.729,19.481" transform="translate(-326.879 -1353.023)" fill="#edeeee"/>
      <path id="Path_4172" data-name="Path 4172" d="M542.621,1618.185a.358.358,0,0,1-.253-.611l3.758-3.757a.358.358,0,0,1,.506.506l-3.758,3.757a.357.357,0,0,1-.253.1" transform="translate(-454.257 -1351.815)" fill="#42536a"/>
      <path id="Path_4173" data-name="Path 4173" d="M571.71,1623.314a.358.358,0,0,1-.253-.611l3.758-3.757a.358.358,0,0,1,.506.506l-3.758,3.757a.357.357,0,0,1-.253.1" transform="translate(-478.625 -1356.111)" fill="#42536a"/>
      <path id="Path_4174" data-name="Path 4174" d="M741.544,1343.14l-23.616,4.16L703.89,1292.02l29.969-5.132Z" transform="translate(-589.652 -1078.033)" fill="#f3957b"/>
      <path id="Path_4175" data-name="Path 4175" d="M809.471,1634.636H762.4l2.694-19.481h24.9c10.761,0,22.178,8.722,22.178,19.481Z" transform="translate(-638.662 -1353.023)" fill="#f5f4f3"/>
      <path id="Path_4176" data-name="Path 4176" d="M917.576,1618.185a.358.358,0,0,1-.253-.611l3.758-3.757a.358.358,0,0,1,.506.506l-3.758,3.757a.357.357,0,0,1-.253.1" transform="translate(-768.358 -1351.815)" fill="#42536a"/>
      <path id="Path_4177" data-name="Path 4177" d="M943.9,1620.55a.358.358,0,0,1-.253-.611l3.758-3.757a.358.358,0,0,1,.506.506l-3.758,3.757a.357.357,0,0,1-.253.1" transform="translate(-790.407 -1353.796)" fill="#42536a"/>
      <path id="Path_4178" data-name="Path 4178" d="M330.109,629.334c-6.3,16.8-10.686,23.654-11.178,42.446-.213,8.115,1.5,30.506,3.954,54.029.41,3.922.14,26.477-3.808,56.229,10.439,0,33.562-1.1,44-1.1-2.32-16.341-3.485-56.973-3.485-56.973-.279-14.122-.456-27.723-.056-38.406,3.193,10.067,7.642,23.922,12.309,38.163,0,0,2.967,34.833,2.967,55.017,11.134,0,34.7-1.467,45.834-1.467-8.779-31.528-5.466-48.061-10.953-64.844-3.2-9.8-23.471-66.1-32.437-83.536-18.539.323-30.476.333-47.147.443" transform="translate(-267.155 -526.825)" fill="#e6ac8f"/>
      <path id="Path_4179" data-name="Path 4179" d="M310.747,580.693c-18.032,27.776-12.205,82.048-10.267,132l44.367.733-2.2-126.5Z" transform="translate(-249.659 -486.449)" fill="#f1f1f1"/>
      <path id="Path_4180" data-name="Path 4180" d="M600.074,646.212l7.333,121.735,45.834-1.1-4.033-38.867L617.98,648.229Z" transform="translate(-502.685 -541.335)" fill="#f1f1f1"/>
      <path id="Path_4181" data-name="Path 4181" d="M898.257,366.515s4.615-3.116,5.784-3.863a8.159,8.159,0,0,1,2.1-1.008c3.769-1.162,6.019,1.333,10.54,1.919,5.13.665,8.395-1.864,9.109-.753.5.773-.466,2.074-3.237,3.8h0c2.255-1.066,5.377-2.379,5.963-1.131.6,1.477-2.887,3.45-5.055,4.541,2.624-1.32,4.414-1.237,4.567-.459.241,1.224-1.555,2.721-5.09,4.331,2.752-.43,3.483-.124,3.451.6-.059,1.315-2.99,2.584-5.754,3.308a16.491,16.491,0,0,1-7.5.047h0c-3.516,2.87-8.633,7.122-8.633,7.122Z" transform="translate(-752.474 -302.696)" fill="#f3957b"/>
      <path id="Path_4182" data-name="Path 4182" d="M946.4,346.416c4.089-3.077,4.912-5.054,4.4-5.687-.855-1.064-5.422.135-11.965,3.88,2.061.692,5.5,1.115,7.562,1.807" transform="translate(-786.469 -285.119)" fill="#f3957b"/>
      <path id="Path_4183" data-name="Path 4183" d="M964.906,414.626a.356.356,0,0,1-.223-.078,6.386,6.386,0,0,0-4.308-1.382,6.217,6.217,0,0,0-3.346,1.253.358.358,0,1,1-.431-.572,6.937,6.937,0,0,1,3.731-1.4,7.134,7.134,0,0,1,4.8,1.538.358.358,0,0,1-.224.637" transform="translate(-801.227 -345.501)" fill="#42536a"/>
      <path id="Path_4184" data-name="Path 4184" d="M965.99,362.61a.357.357,0,0,1-.109-.017c-.593-.19-1.146-.394-1.68-.592a14.159,14.159,0,0,0-3.216-.917.358.358,0,1,1,.082-.711,14.656,14.656,0,0,1,3.382.956c.528.195,1.074.4,1.651.582a.358.358,0,0,1-.109.7" transform="translate(-804.756 -301.885)" fill="#42536a"/>
      <path id="Path_4185" data-name="Path 4185" d="M1018.486,392.511c-.311,0-.621-.014-.93-.041a.358.358,0,0,1,.064-.713,9.747,9.747,0,0,0,4.337-.6.358.358,0,0,1,.254.669,10.489,10.489,0,0,1-2.722.637c-.332.032-.667.048-1,.048" transform="translate(-852.138 -327.654)" fill="#42536a"/>
      <path id="Path_4186" data-name="Path 4186" d="M1026.14,412.392q-.466,0-.932-.041a.358.358,0,0,1,.064-.713,9.738,9.738,0,0,0,4.337-.6.358.358,0,1,1,.254.669,10.5,10.5,0,0,1-2.722.637c-.332.032-.666.048-1,.048" transform="translate(-858.549 -344.309)" fill="#42536a"/>
      <path id="Path_4187" data-name="Path 4187" d="M1021.181,437.832c-.311,0-.622-.014-.932-.042a.358.358,0,1,1,.064-.713,9.739,9.739,0,0,0,4.337-.6.358.358,0,1,1,.254.669,10.5,10.5,0,0,1-2.722.637q-.5.048-1,.048" transform="translate(-854.395 -365.62)" fill="#42536a"/>
      <path id="Path_4188" data-name="Path 4188" d="M272.855,310.625l-14.117,16.531S254.521,301.947,227.3,299.3c-.243-.024-.478-.095-.717-.142-1.411,1.979-4.281,3.335-7.594,3.335-3.8,0-6.936-1.264-8.036-3.728-.417.012-.833-.5-1.039-.489-31.167,1.344-60.83,26.8-58.046,45.8,1.653,11.277,36.894,17.093,36.894,17.093l3.249-7.454,51.23,5.29-.083-24.426s6.347,19.121,19.923,18.578c12.222-.489,17.845-20.411,17.845-20.411Z" transform="translate(-127.065 -249.871)" fill="#f1f1f1"/>
      <path id="Path_4189" data-name="Path 4189" d="M811.762,480.946a.358.358,0,0,1-.343-.255,35.493,35.493,0,0,0-1.546-4.242,15.341,15.341,0,0,1-.748-2,.358.358,0,0,1,.69-.192,14.5,14.5,0,0,0,.716,1.908,36.177,36.177,0,0,1,1.574,4.318.358.358,0,0,1-.343.461" transform="translate(-677.797 -397.069)" fill="#42536a"/>
      <path id="Path_4190" data-name="Path 4190" d="M281.275,502.1a.345.345,0,0,1-.065-.006c-4.322-.787-28.528-5.35-31.341-5.93a.358.358,0,0,1,.145-.7c2.811.579,27,5.14,31.325,5.928a.358.358,0,0,1-.064.71" transform="translate(-209.078 -415.042)" fill="#42536a"/>
      <path id="Path_4191" data-name="Path 4191" d="M520.831,298.637a10.372,10.372,0,0,1-7.365,3.178c-3.718,0-6.559-1.314-8.28-3.911a11.034,11.034,0,0,1-2.261.061l11.734,58.484,4.217.55,5.317-57.507c-1.034-.289-2.405-.62-3.361-.856" transform="translate(-421.303 -249.556)" fill="#9d9d9e"/>
      <path id="Path_4192" data-name="Path 4192" d="M487.373,430.286a.357.357,0,0,1-.3-.166l-9.44-14.844a.358.358,0,0,1,.6-.384l9.44,14.844a.358.358,0,0,1-.3.55" transform="translate(-400.067 -347.419)" fill="#42536a"/>
      <path id="Path_4193" data-name="Path 4193" d="M510.707,206.272h-2.552c-3.7-.857-5.23-6.891-5.23-9.474l.553-14.984a4.677,4.677,0,0,1,4.677-4.677h2.552a4.677,4.677,0,0,1,4.677,4.677v19.781a4.677,4.677,0,0,1-4.677,4.677" transform="translate(-421.303 -148.389)" fill="#f3957b"/>
      <path id="Path_4194" data-name="Path 4194" d="M600.627,169.781a.366.366,0,0,1-.092-.012l-9.069-2.4a.358.358,0,0,1,.183-.692l9.07,2.4a.358.358,0,0,1-.091.7" transform="translate(-495.251 -139.617)" fill="#8a8e93"/>
      <path id="Path_4195" data-name="Path 4195" d="M498.481,94.51c.524-.124,5.558-1.242,9.1,1.817,2.639,2.276,3.371,5.563,3.764,11.263.464,6.711-.2,10.788-1.93,12.364-2.739,2.49-12.441-.9-16.648-6.237A13.514,13.514,0,0,1,491.3,99.925c2.023-4.491,6.846-5.335,7.18-5.415" transform="translate(-410.532 -78.919)" fill="#f3957b"/>
      <path id="Path_4196" data-name="Path 4196" d="M616.971,162.918c-.04,0-.08,0-.121,0a2.413,2.413,0,0,1-1.784-1.064.358.358,0,0,1,.573-.428,1.761,1.761,0,0,0,1.253.779,1.988,1.988,0,0,0,1.653-1.022,6.2,6.2,0,0,0,.341-5.837,1.973,1.973,0,0,0-1.523-1.207,2,2,0,0,0-1.653,1.022,5.7,5.7,0,0,0-.9,2.876.358.358,0,1,1-.714-.042,6.416,6.416,0,0,1,1.029-3.241,2.391,2.391,0,0,1,4.4.257,6.9,6.9,0,0,1-.385,6.581,2.7,2.7,0,0,1-2.163,1.332" transform="translate(-514.429 -128.517)" fill="#8a8e93"/>
      <path id="Path_4197" data-name="Path 4197" d="M516.474,220.2a.36.36,0,0,1-.081-.009,24.05,24.05,0,0,1-11.788-7.41.358.358,0,1,1,.562-.443,23.229,23.229,0,0,0,11.387,7.155.358.358,0,0,1-.08.706" transform="translate(-422.646 -177.764)" fill="#42536a"/>
      <path id="Path_4198" data-name="Path 4198" d="M549.7,166.963a8.733,8.733,0,0,1,3.766-.661c.431.028-.607,3.424-1,3.2a8.755,8.755,0,0,1-2.762-2.54" transform="translate(-460.486 -139.299)" fill="#fff"/>
      <path id="Path_4199" data-name="Path 4199" d="M568.661,166.62a6.148,6.148,0,0,0-1.315-.224,3.432,3.432,0,0,0-1.008,3.2,6.193,6.193,0,0,0,1.3.551,8.213,8.213,0,0,0,5.084-.434,8.212,8.212,0,0,0-4.06-3.09" transform="translate(-474.365 -139.391)" fill="#43536a"/>
      <path id="Path_4200" data-name="Path 4200" d="M587.954,212.866a1.6,1.6,0,0,1-.982-.328,1.731,1.731,0,0,1-.611-1.529.358.358,0,1,1,.71.088,1.026,1.026,0,0,0,.338.875.962.962,0,0,0,1.148-.019.358.358,0,1,1,.422.578,1.738,1.738,0,0,1-1.024.336" transform="translate(-491.188 -176.5)" fill="#42536a"/>
      <path id="Path_4201" data-name="Path 4201" d="M614.476,185.929a.358.358,0,0,1-.206-.651c.656-.461.683-.72.675-.788s-.065-.132-.213-.281a3.136,3.136,0,0,1-.484-.582,2.956,2.956,0,0,1-.436-1.366.358.358,0,1,1,.713-.055,2.254,2.254,0,0,0,.328,1.04,2.479,2.479,0,0,0,.384.457,1.161,1.161,0,0,1,.42.707c.054.479-.265.955-.975,1.454a.354.354,0,0,1-.205.065" transform="translate(-514.192 -152.359)" fill="#42536a"/>
      <path id="Path_4202" data-name="Path 4202" d="M388.15,79.231a9.1,9.1,0,0,0-8.073-.527c-3.428-2.034-7.31-1.75-9.3-.539-3.757,2.287-5.2,5.321-7.48,9.2-1.627,2.76-5.308,5.886-6.969,8.562-1.895,3.052-3.094,9.649-4.47,13.031-.949,2.331-4.147,6.6-6.736,6.6a16.809,16.809,0,0,0,4.288,5.953,7.79,7.79,0,0,0,3.617-1.907c1.915-2.122,2.9-6.512,3.089-7.082.117.563-.72,6.65-1.64,8.5a6.32,6.32,0,0,1-2.5,2.639,16.678,16.678,0,0,0,3.817,2.169c4.311,1.615,8.607,3.216,13.943,1.2-6.19-5.437.417-12.452,1.521-17.863.886-4.344.929-12.483,2.126-15.514.714-1.808,3.387-.6,4.427-7.274l.821,2.943a18.257,18.257,0,0,0,5.907-.056c.205-.036.405-.077.6-.119a5.3,5.3,0,0,0,.382-2.214,5.383,5.383,0,0,0-1.2-3.137,4.976,4.976,0,0,1,2.494,2.033,4.848,4.848,0,0,1,.7,2.648,18.837,18.837,0,0,0,5.323-2.961,9.047,9.047,0,0,0-4.685-6.287" transform="translate(-289.111 -64.683)" fill="#976d73"/>
      <path id="Path_4203" data-name="Path 4203" d="M531.193,162.63a.355.355,0,0,1-.146-.031l-7.646-3.435a.358.358,0,0,1,.294-.653l7.645,3.435a.358.358,0,0,1-.147.684" transform="translate(-438.279 -132.759)" fill="#8a8e93"/>
      <path id="Path_4204" data-name="Path 4204" d="M510.6,164.192c1.281,1.957.979,4.421-.675,5.5s-4.034.374-5.315-1.583-.979-4.421.675-5.5,4.034-.374,5.315,1.583" transform="translate(-422.049 -135.794)" fill="#f3957b"/>
      <path id="Path_4205" data-name="Path 4205" d="M514.12,176.34a.357.357,0,0,1-.262-.113,2.945,2.945,0,0,1-.306-.391,2.708,2.708,0,0,1-.444-1.8,2.03,2.03,0,0,1,.89-1.488,1.928,1.928,0,0,1,.84-.3.358.358,0,1,1,.082.711,1.21,1.21,0,0,0-.53.191,1.326,1.326,0,0,0-.572.976,1.994,1.994,0,0,0,.332,1.325,2.141,2.141,0,0,0,.231.294.358.358,0,0,1-.262.6" transform="translate(-429.818 -144.285)" fill="#42536a"/>
      <path id="Path_4206" data-name="Path 4206" d="M573.112,163.043c-.04,0-.081,0-.121,0-1.7-.1-2.912-2.262-2.757-4.925s1.611-4.67,3.312-4.57,2.912,2.263,2.757,4.925a6.411,6.411,0,0,1-1.028,3.241,2.7,2.7,0,0,1-2.163,1.332m.318-8.786c-1.229,0-2.355,1.757-2.481,3.9-.128,2.186.827,4.1,2.084,4.169a1.988,1.988,0,0,0,1.653-1.022,5.691,5.691,0,0,0,.9-2.876l.357.021-.357-.021c.128-2.186-.827-4.1-2.084-4.169l-.075,0" transform="translate(-477.677 -128.622)" fill="#8a8e93"/>
      <path id="Path_4207" data-name="Path 4207" d="M603.693,181.229a.358.358,0,0,1,0-.716l1.758-.012h0a.358.358,0,0,1,0,.716l-1.758.012Z" transform="translate(-505.417 -151.207)" fill="#8a8e93"/>
      <path id="Path_4208" data-name="Path 4208" d="M542.586,569.832a.358.358,0,0,1-.3-.545l3.508-5.725a.358.358,0,1,1,.61.374l-3.508,5.725a.357.357,0,0,1-.305.171" transform="translate(-454.227 -471.957)" fill="#42536a"/>
      <path id="Path_4209" data-name="Path 4209" d="M530.369,562.289a.358.358,0,0,1-.3-.545l3.508-5.724a.358.358,0,1,1,.61.374l-3.508,5.724a.357.357,0,0,1-.305.171" transform="translate(-443.993 -465.637)" fill="#42536a"/>
      <path id="Path_4210" data-name="Path 4210" d="M476.038,566.516a3.718,3.718,0,0,1-3.145-5.695l10.542-16.8a1.817,1.817,0,0,1,2.5-.573l3.227,2.025a1.814,1.814,0,0,1,.573,2.5l-10.541,16.8a3.72,3.72,0,0,1-3.157,1.742m-1.59-1.174a3.009,3.009,0,0,0,4.141-.948l10.541-16.8a1.1,1.1,0,0,0-.347-1.516l-3.227-2.024a1.1,1.1,0,0,0-1.516.347L473.5,561.2a3.008,3.008,0,0,0,.948,4.141" transform="translate(-395.669 -455.018)" fill="#42536a"/>
      <path id="Path_4211" data-name="Path 4211" d="M555.752,448.1l-3.838-2.408,12.378-19.726,3.839,2.408Zm-2.851-2.634,2.626,1.647L567.144,428.6l-2.626-1.647Z" transform="translate(-462.341 -356.835)" fill="#42536a"/>
      <path id="Path_4212" data-name="Path 4212" d="M579.3,279.009a21.609,21.609,0,1,1-12.235-28,21.61,21.61,0,0,1,12.235,28" transform="translate(-450.324 -209.019)" fill="#f5f4f3"/>
      <path id="Path_4213" data-name="Path 4213" d="M557.249,291.267a21.965,21.965,0,1,1,20.478-13.951,21.857,21.857,0,0,1-20.478,13.951m-19.2-12.9a21.25,21.25,0,1,0-.563-16.812,21.167,21.167,0,0,0,.563,16.812" transform="translate(-448.415 -207.195)" fill="#42536a"/>
      <path id="Path_4214" data-name="Path 4214" d="M596.471,439.51a16.629,16.629,0,0,1-14.339-8.28.358.358,0,0,1,.619-.359,15.9,15.9,0,0,0,15.076,7.865.358.358,0,1,1,.061.713q-.711.061-1.417.061" transform="translate(-487.614 -360.794)" fill="#42536a"/>
      <path id="Path_4215" data-name="Path 4215" d="M760.8,346.8l-.039,0a.358.358,0,0,1-.317-.394,15.861,15.861,0,0,0-1.468-8.547.358.358,0,1,1,.646-.309,16.582,16.582,0,0,1,1.534,8.933.358.358,0,0,1-.355.319" transform="translate(-635.768 -282.597)" fill="#42536a"/>
      <path id="Path_4216" data-name="Path 4216" d="M676.915,287.809a.358.358,0,0,1-.289-.147,15.907,15.907,0,0,0-13.809-6.476.366.366,0,0,1-.379-.335.358.358,0,0,1,.335-.379A16.625,16.625,0,0,1,677.2,287.24a.358.358,0,0,1-.289.569" transform="translate(-554.926 -234.926)" fill="#42536a"/>
      <path id="Path_4217" data-name="Path 4217" d="M570.207,384.827a.358.358,0,0,1-.33-.219,16.712,16.712,0,0,1-1.3-6.977.358.358,0,0,1,.357-.346h.012a.357.357,0,0,1,.346.369,15.987,15.987,0,0,0,1.241,6.675.358.358,0,0,1-.191.469.362.362,0,0,1-.139.028" transform="translate(-476.296 -316.053)" fill="#42536a"/>
      <path id="Path_4218" data-name="Path 4218" d="M577.749,338.023c4.655,3.387,4.966,7.678,3.182,9.531s-6.182,1.781-9.645-2.819a33.535,33.535,0,0,1-5.373-11.641,30.741,30.741,0,0,1,11.836,4.929" transform="translate(-474.068 -279.034)" fill="#8a8e93"/>
      <path id="Path_4219" data-name="Path 4219" d="M688.8,353.225c-1.62,4.407-4.917,5.608-6.769,4.621s-2.775-4.454.062-8.2a27.352,27.352,0,0,1,7.937-6.811,25.075,25.075,0,0,1-1.229,10.386" transform="translate(-569.882 -287.198)" fill="#8a8e93"/>
      <path id="Path_4220" data-name="Path 4220" d="M658.018,297.085c.98,3.668-1,5.982-2.97,6.181s-4.469-1.674-4.149-5.461a20.463,20.463,0,0,1,2.769-8.171,18.777,18.777,0,0,1,4.35,7.45" transform="translate(-545.238 -242.629)" fill="#8a8e93"/>
      <path id="Path_4221" data-name="Path 4221" d="M678.925,376.1h-.01a.358.358,0,0,1-.348-.368c.07-2.428.8-5.018,2.61-9.237a57.187,57.187,0,0,1,5.629-8.807.358.358,0,1,1,.553.453,56.2,56.2,0,0,0-5.525,8.635c-1.77,4.129-2.485,6.646-2.552,8.975a.358.358,0,0,1-.358.348" transform="translate(-568.439 -299.53)" fill="#9d9d9e"/>
      <path id="Path_4222" data-name="Path 4222" d="M601.823,370.751a.358.358,0,0,1-.338-.241,35.9,35.9,0,0,0-7.1-12.234,35.47,35.47,0,0,0-7.587-6.407.358.358,0,1,1,.382-.605,36.165,36.165,0,0,1,7.74,6.536,36.618,36.618,0,0,1,7.243,12.476.358.358,0,0,1-.221.455.364.364,0,0,1-.117.019" transform="translate(-491.422 -294.21)" fill="#9d9d9e"/>
      <path id="Path_4223" data-name="Path 4223" d="M669.043,321.971h-.014a.357.357,0,0,1-.344-.371,111.012,111.012,0,0,0-.531-17.917.358.358,0,1,1,.71-.089,111.686,111.686,0,0,1,.536,18.034.358.358,0,0,1-.357.344" transform="translate(-559.713 -254.059)" fill="#9d9d9e"/>
      <path id="Path_4224" data-name="Path 4224" d="M407.668,534.186s23.727,5.466,23.363,8.423c-.174,1.413-4.065.683-5.373.4.943.751,2.935,2.151,2.336,3.63-.7,1.738-3.9.578-4.006.593,1.035.665,2.6,2.04,2.2,3.166-.528,1.465-2.5,1.444-3.865,1.042.089.229,1.641,1.762,1.281,2.646-.4.979-2.13,1.158-3.884.941-3.327-.687-19.252-3.646-19.252-3.646Z" transform="translate(-335.471 -447.49)" fill="#f3957b"/>
      <path id="Path_4225" data-name="Path 4225" d="M522.039,574.062a.357.357,0,0,1-.188-.053,17.1,17.1,0,0,0-6.125-2.314.358.358,0,1,1,.121-.705,17.808,17.808,0,0,1,6.381,2.411.358.358,0,0,1-.189.662" transform="translate(-431.777 -478.316)" fill="#42536a"/>
      <path id="Path_4226" data-name="Path 4226" d="M520.44,605.061a.358.358,0,0,1-.154-.035q-.222-.106-.456-.209a17.208,17.208,0,0,0-4.042-1.216.358.358,0,1,1,.121-.705,17.894,17.894,0,0,1,4.211,1.267q.243.108.476.219a.358.358,0,0,1-.155.681" transform="translate(-431.828 -505.044)" fill="#42536a"/>
      <path id="Path_4227" data-name="Path 4227" d="M518.645,635.026a.369.369,0,0,1-.116-.019,17.271,17.271,0,0,0-2.683-.685.358.358,0,0,1,.121-.705,18.049,18.049,0,0,1,2.795.713.358.358,0,0,1-.116.7" transform="translate(-431.877 -530.78)" fill="#42536a"/>
      <path id="Path_4228" data-name="Path 4228" d="M1023.669,132.079l-1.466-3.624a15.537,15.537,0,0,1-3.335-.029l-1.527,3.6-8.063-3.419,1.527-3.6a15.472,15.472,0,0,1-2.339-2.378l-3.624,1.466-3.283-8.119,3.624-1.466a15.5,15.5,0,0,1,.029-3.335l-3.6-1.527,3.419-8.063,3.6,1.527a15.521,15.521,0,0,1,2.378-2.339l-1.466-3.624,8.119-3.283,1.466,3.624a15.5,15.5,0,0,1,3.335.029l1.527-3.6,8.063,3.42-1.527,3.6a15.458,15.458,0,0,1,2.339,2.378l3.624-1.466,3.283,8.119-3.625,1.466a15.49,15.49,0,0,1-.029,3.335l3.6,1.527-3.42,8.063-3.6-1.527a15.465,15.465,0,0,1-2.378,2.339l1.466,3.624Zm-1.006-4.4,1.4,3.465,6.792-2.747-1.4-3.465.217-.165a14.753,14.753,0,0,0,2.638-2.595l.169-.215,3.442,1.46,2.86-6.745-3.442-1.46.037-.271a14.762,14.762,0,0,0,.032-3.7l-.032-.271,3.465-1.4-2.747-6.793-3.466,1.4-.165-.217a14.762,14.762,0,0,0-2.595-2.638l-.214-.169,1.46-3.442-6.745-2.86-1.46,3.442-.271-.037a14.708,14.708,0,0,0-3.7-.032l-.271.032-1.4-3.465-6.792,2.747,1.4,3.465-.217.166a14.786,14.786,0,0,0-2.638,2.594l-.169.215-3.442-1.46-2.86,6.745,3.442,1.459-.036.271a14.771,14.771,0,0,0-.032,3.7l.032.271-3.465,1.4,2.747,6.792,3.465-1.4.165.217a14.757,14.757,0,0,0,2.595,2.638l.215.169-1.46,3.442,6.745,2.86,1.46-3.442.27.036a14.747,14.747,0,0,0,3.7.032Zm-2-5.977a8.751,8.751,0,1,1,3.273-.642,8.709,8.709,0,0,1-3.273.642m0-16.75a8.033,8.033,0,1,0,3.127.641,8,8,0,0,0-3.127-.641m-3.139.257h0Z" transform="translate(-839.01 -78.631)" fill="red"/>
      <path id="Path_4229" data-name="Path 4229" d="M832.021,90.907l-.431-2.814a11.238,11.238,0,0,1-2.214-.543l-1.685,2.294-5.254-3.858,1.685-2.295a11.254,11.254,0,0,1-1.181-1.95l-2.814.431-.987-6.443,2.814-.431a11.248,11.248,0,0,1,.543-2.214L820.2,71.4l3.858-5.254,2.294,1.685a11.268,11.268,0,0,1,1.95-1.181l-.431-2.814,6.443-.987.431,2.814a11.242,11.242,0,0,1,2.214.543l1.685-2.295,5.254,3.858-1.685,2.294a11.265,11.265,0,0,1,1.181,1.95l2.814-.431.987,6.443-2.814.431a11.238,11.238,0,0,1-.543,2.214l2.294,1.685-3.858,5.254-2.294-1.685a11.254,11.254,0,0,1-1.95,1.181l.431,2.814Zm-2.9-4.218.255.1a10.549,10.549,0,0,0,2.568.63l.271.031.405,2.644,5.028-.771-.405-2.644.25-.111a10.551,10.551,0,0,0,2.262-1.37l.214-.17,2.155,1.583,3.011-4.1-2.155-1.582.1-.255a10.526,10.526,0,0,0,.63-2.568l.031-.272,2.644-.4-.771-5.029-2.643.405-.111-.25a10.543,10.543,0,0,0-1.37-2.262l-.17-.214,1.583-2.155-4.1-3.011-1.582,2.155-.255-.1a10.527,10.527,0,0,0-2.568-.63l-.271-.031-.405-2.643-5.028.771.405,2.643-.249.111a10.547,10.547,0,0,0-2.262,1.37l-.214.17-2.155-1.583-3.011,4.1,2.155,1.582-.1.255a10.545,10.545,0,0,0-.63,2.568l-.031.272-2.644.4.771,5.029,2.643-.405.111.249a10.558,10.558,0,0,0,1.37,2.262l.17.214-1.583,2.155,4.1,3.011Zm4.04-3.417a6.4,6.4,0,1,1,5.165-2.609,6.362,6.362,0,0,1-5.165,2.609m-4.572-9.758a5.682,5.682,0,1,0,7.943-1.217,5.689,5.689,0,0,0-7.943,1.217" transform="translate(-686.197 -52.648)" fill="red"/>
      <path id="Path_4230" data-name="Path 4230" d="M1354.923,660.2a.358.358,0,0,1-.214-.645c10.693-7.962,23.338-20.747,22.854-36.441-.645-20.954-23.639-35.928-64.745-42.164a.358.358,0,0,1,.108-.707c41.487,6.293,64.7,21.511,65.353,42.849.492,16-12.313,28.973-23.142,37.037a.356.356,0,0,1-.214.071" transform="translate(-1099.5 -486.071)" fill="#767569"/>
      <path id="Path_4231" data-name="Path 4231" d="M1347.4,659.337c5.241-7.794,3.154-15.8-1.075-17.754s-11.788,1.593-14.237,10.661c-2.438,9.026-.059,20.2-.059,20.2s9.767-4.774,15.371-13.109" transform="translate(-1114.977 -537.02)" fill="#8a8e93"/>
      <path id="Path_4232" data-name="Path 4232" d="M1355.576,637.9a.358.358,0,0,1-.324-.508l13.516-29.18a.358.358,0,0,1,.649.3l-13.517,29.18a.358.358,0,0,1-.325.208" transform="translate(-1135.273 -509.329)" fill="#767569"/>
      <path id="Path_4233" data-name="Path 4233" d="M1282.362,392.108c6.26,9.648,16.274,11.141,20.511,7.32s3.87-14.042-5.166-21.157c-8.995-7.083-22.724-9.773-22.724-9.773s.684,13.294,7.378,23.61" transform="translate(-1068.06 -308.693)" fill="#9d9d9e"/>
      <path id="Path_4234" data-name="Path 4234" d="M1345.7,446.563a.356.356,0,0,1-.266-.118L1313.294,410.8a.358.358,0,0,1,.531-.48l32.142,35.646a.358.358,0,0,1-.266.6" transform="translate(-1100.076 -343.628)" fill="#767569"/>
      <path id="Path_4235" data-name="Path 4235" d="M1127.448,535.011c8.073,2.678,14.546-1.087,15.227-5.252s-4.255-9.9-12.76-9.83c-8.467.067-17.638,4.857-17.638,4.857s6.538,7.36,15.171,10.224" transform="translate(-931.76 -435.547)" fill="#9d9d9e"/>
      <path id="Path_4236" data-name="Path 4236" d="M1181.777,559.619a.347.347,0,0,1-.059,0L1154,555.038a.358.358,0,0,1-.295-.411.354.354,0,0,1,.411-.295l27.713,4.576a.358.358,0,0,1-.058.711" transform="translate(-966.465 -464.362)" fill="#767569"/>
      <path id="Path_4237" data-name="Path 4237" d="M1595.761,528.206c-.407,7.612,4.377,12.318,8.139,11.923s7.55-6.017,5.482-13.354c-2.058-7.3-8.367-14.1-8.367-14.1s-4.818,7.392-5.254,15.532" transform="translate(-1336.756 -429.47)" fill="#9d9d9e"/>
      <path id="Path_4238" data-name="Path 4238" d="M1633.608,575.763a.358.358,0,0,1-.355-.32l-2.656-25.28a.358.358,0,1,1,.711-.075l2.656,25.28a.358.358,0,0,1-.318.393l-.038,0" transform="translate(-1365.957 -460.544)" fill="#767569"/>
      <path id="Path_4239" data-name="Path 4239" d="M503.887,1231.533c0,8.851-11.025,84.82-89.121,84.82-70.116,0-89.121-75.969-89.121-84.82s39.9-7.428,89.121-7.428,89.121-1.424,89.121,7.428" transform="translate(-272.794 -1025.368)" fill="#ef1e1b"/>
      <path id="Path_4240" data-name="Path 4240" d="M503.887,1187.582c0,8.851-39.9,16.027-89.121,16.027s-89.121-7.175-89.121-16.027,39.9-16.027,89.121-16.027,89.121,7.176,89.121,16.027" transform="translate(-272.794 -981.417)" fill="#2d3f5a"/>
      <path id="Path_4241" data-name="Path 4241" d="M412.919,1202.12c-23.826,0-46.228-1.669-63.082-4.7-9.858-1.773-26.4-5.649-26.4-11.685s16.539-9.912,26.4-11.685c16.854-3.031,39.256-4.7,63.082-4.7s46.228,1.669,63.081,4.7c9.859,1.773,26.4,5.649,26.4,11.685s-16.539,9.912-26.4,11.685c-16.853,3.031-39.255,4.7-63.081,4.7m0-32.054c-23.785,0-46.142,1.665-62.955,4.688-16.4,2.95-25.809,6.952-25.809,10.981s9.407,8.031,25.809,10.981c16.812,3.023,39.17,4.689,62.955,4.689s46.142-1.665,62.955-4.689c16.4-2.95,25.808-6.952,25.808-10.981s-9.407-8.031-25.808-10.981c-16.812-3.023-39.17-4.688-62.955-4.688" transform="translate(-270.947 -979.571)" fill="#42536a"/>
      <path id="Path_4242" data-name="Path 4242" d="M760.713,760.477l28.618-50.2a20.618,20.618,0,1,1,24.946,11.033l-14.388,40.365-10.558,30.457c-7.47.365-15.558.371-23.672.371-7.683,0-15.138-.175-22.251-.5l-.53-.243Z" transform="translate(-622.313 -570.498)" fill="#edeeee"/>
      <path id="Path_4243" data-name="Path 4243" d="M729.739,790.3a.358.358,0,0,1-.311-.535l46.361-81.321a20.976,20.976,0,1,1,25.626,11.338L776.51,789.652a.358.358,0,0,1-.674-.24l25.024-70.2.17-.054a20.267,20.267,0,1,0-24.514-10.841l.077.167-.091.16-46.452,81.48a.358.358,0,0,1-.311.181" transform="translate(-611.007 -568.683)" fill="#42536a"/>
      <path id="Path_4244" data-name="Path 4244" d="M496.538,1332.415c-28.991,0-56.284-2.55-73.009-6.822a.358.358,0,0,1,.177-.693c16.671,4.258,43.9,6.8,72.833,6.8,25.289,0,49.47-1.944,66.346-5.333a.358.358,0,1,1,.141.7c-16.919,3.4-41.153,5.347-66.487,5.347" transform="translate(-354.566 -1109.866)" fill="#42536a"/>
      <path id="Path_4245" data-name="Path 4245" d="M267.952,1169.3a13.333,13.333,0,0,1-1.8-.1c-23.009-3.193-39.945-33.634-44.146-53.2-4.729-22.031-3.881-38.719-1.152-57a.358.358,0,1,1,.708.106c-2.718,18.2-3.563,34.814,1.143,56.74,4.159,19.37,20.874,49.5,43.545,52.643,3.081.427,9.958-.535,17.945-2.512a.358.358,0,1,1,.172.695c-6.781,1.679-12.794,2.631-16.419,2.631" transform="translate(-183.153 -886.874)" fill="#767569"/>
      <path id="Path_4246" data-name="Path 4246" d="M72.3,1081.519c4.932,6.465,12.072,6.98,14.854,4.059s1.974-10.108-4.779-14.638c-6.722-4.51-16.545-5.67-16.545-5.67s1.2,9.335,6.47,16.249" transform="translate(-55.144 -892.382)" fill="#8a8e93"/>
      <path id="Path_4247" data-name="Path 4247" d="M115,1111.765a.358.358,0,0,1-.247-.1l-20.162-19.2a.358.358,0,1,1,.493-.519l20.162,19.2a.358.358,0,0,1-.247.617" transform="translate(-79.146 -914.647)" fill="#767569"/>
      <path id="Path_4248" data-name="Path 4248" d="M275.167,1092.606c-7.681,6.336-7.978,15.1-4.274,18.364s12.459,1.944,17.688-6.53c5.2-8.435,6.166-20.509,6.166-20.509s-11.367,1.9-19.58,8.674" transform="translate(-224.995 -908.015)" fill="#9d9d9e"/>
      <path id="Path_4249" data-name="Path 4249" d="M224.772,1152.7a.358.358,0,0,1-.268-.594l27.491-31.161a.358.358,0,0,1,.537.473l-27.49,31.161a.357.357,0,0,1-.268.121" transform="translate(-187.992 -938.922)" fill="#767569"/>
      <path id="Path_4250" data-name="Path 4250" d="M232.269,906.74c-4.614,5.739-3.517,12.128-.345,13.94s9.315-.458,11.833-7.378c2.507-6.889,1.394-15.777,1.394-15.777s-7.948,3.078-12.882,9.215" transform="translate(-191.976 -751.861)" fill="#9d9d9e"/>
      <path id="Path_4251" data-name="Path 4251" d="M232.662,950.509a.358.358,0,0,1-.31-.536l12.094-21.1a.358.358,0,0,1,.621.356l-12.094,21.1a.358.358,0,0,1-.311.18" transform="translate(-194.603 -777.973)" fill="#767569"/>
      <path id="Path_4252" data-name="Path 4252" d="M15.961,1349.53c8.935,4.395,17.042,1.061,18.5-3.659s-3.354-12.156-13.228-13.436C11.4,1331.161,0,1335.252,0,1335.252s6.408,9.579,15.961,14.278" transform="translate(0 -1115.981)" fill="#9d9d9e"/>
      <path id="Path_4253" data-name="Path 4253" d="M79.413,1374.055a.356.356,0,0,1-.105-.016l-31.727-9.777a.358.358,0,1,1,.211-.684l31.727,9.777a.358.358,0,0,1-.105.7" transform="translate(-39.647 -1142.262)" fill="#767569"/>
      <path id="Path_4254" data-name="Path 4254" d="M294.41,1367.124c-7.011,4.119-8.381,11.145-5.815,14.258s9.8,3.174,15.107-2.985c5.285-6.131,7.617-15.744,7.617-15.744s-9.412.066-16.909,4.47" transform="translate(-240.751 -1141.502)" fill="#8a8e93"/>
      <path id="Path_4255" data-name="Path 4255" d="M268.3,1406.046a.358.358,0,0,1-.228-.634l21.485-17.708a.358.358,0,1,1,.455.552l-21.484,17.708a.356.356,0,0,1-.227.082" transform="translate(-224.455 -1162.418)" fill="#767569"/>
      <path id="Path_4256" data-name="Path 4256" d="M443.75,1544c.156,8.13,5.611,12.766,9.582,12.054s7.567-6.986,4.8-14.632c-2.756-7.611-9.995-14.353-9.995-14.353s-4.553,8.237-4.386,16.931" transform="translate(-371.728 -1279.232)" fill="#8a8e93"/>
      <path id="Path_4257" data-name="Path 4257" d="M481.736,1594.438a.358.358,0,0,1-.352-.295l-4.914-27.4a.358.358,0,0,1,.7-.127l4.914,27.4a.358.358,0,0,1-.289.415.343.343,0,0,1-.064.006" transform="translate(-399.137 -1312.112)" fill="#767569"/>
      <path id="Path_4258" data-name="Path 4258" d="M200.472,1586.464c6.538,4.836,13.538,3.341,15.4-.24s-.92-10.257-8.668-12.728c-7.712-2.459-17.47-.836-17.47-.836s3.75,8.633,10.741,13.8" transform="translate(-158.939 -1316.986)" fill="#8a8e93"/>
      <path id="Path_4259" data-name="Path 4259" d="M250.251,1605.756a.357.357,0,0,1-.165-.04l-24.712-12.824a.358.358,0,1,1,.33-.635l24.712,12.824a.358.358,0,0,1-.165.676" transform="translate(-188.635 -1333.807)" fill="#767569"/>
      <path id="Path_4260" data-name="Path 4260" d="M1409.636,1030.088l-7.865-7.212-54.275,0-8.586,7.208c.038.008.079-.025.117-.025h-.126v109.5h70.85v-109.5h-.224c.036,0,.073.04.109.032" transform="translate(-1121.604 -856.866)" fill="#f5f4f3"/>
      <path id="Path_4261" data-name="Path 4261" d="M1450.589,1173.42a26.339,26.339,0,1,1-26.339-26.34,26.339,26.339,0,0,1,26.339,26.34" transform="translate(-1171.036 -960.914)" fill="#edeeee"/>
      <path id="Path_4262" data-name="Path 4262" d="M1511.751,1238.044c6.134,3.67,4.877,10.609,1.232,14.394s-10.722,5.469-14.431-.687c-4.3-7.141-3.908-16.971-3.908-16.971s10.015-.979,17.107,3.264" transform="translate(-1252.063 -1034.3)" fill="#2d3f5a"/>
      <path id="Path_4263" data-name="Path 4263" d="M1531.037,1274.5a.358.358,0,0,1-.338-.241,43.921,43.921,0,0,0-8.688-14.966,43.361,43.361,0,0,0-9.281-7.837.358.358,0,1,1,.382-.605,44.066,44.066,0,0,1,9.434,7.967,44.648,44.648,0,0,1,8.83,15.208.358.358,0,0,1-.338.475" transform="translate(-1267.081 -1047.795)" fill="#9d9d9e"/>
      <path id="Path_4264" data-name="Path 4264" d="M1417.288,1138.062h-71.566V1028.517l-.387-.074.387-.325v-.269h.32l8.557-7.183h.131l54.661.126,7.584,7.057h.314v.292l.327.3-.327.07Zm-70.851-.716h70.135V1028.453l-7.465-6.946-54.25-.125-8.42,7.069Z" transform="translate(-1126.994 -855.017)" fill="#42536a"/>
      <rect id="Rectangle_712" data-name="Rectangle 712" width="55.258" height="14.735" transform="translate(225.16 151.78)" fill="#eb6745"/>
      <path id="Path_4265" data-name="Path 4265" d="M1452.469,946.945H1396.5V931.494h55.973Zm-55.258-.716h54.542V932.21h-54.542Z" transform="translate(-1169.852 -780.317)" fill="#42536a"/>
      <rect id="Rectangle_713" data-name="Rectangle 713" width="21.457" height="52.554" transform="translate(243.85 237.144)" fill="#e6ac8f"/>
      <rect id="Rectangle_714" data-name="Rectangle 714" width="23.358" height="17.925" transform="translate(242.764 253.033)" fill="#f5f4f3"/>
      <path id="Path_4266" data-name="Path 4266" d="M1517.623,1526.109h-23.628a.358.358,0,0,1-.358-.358v-51.345a.358.358,0,0,1,.358-.358h23.628a.358.358,0,0,1,.358.358v51.345a.357.357,0,0,1-.358.358m-23.27-.715h22.912v-50.629h-22.912Z" transform="translate(-1251.227 -1234.818)" fill="#976d73"/>
      <rect id="Rectangle_715" data-name="Rectangle 715" width="26.345" height="9.642" transform="translate(241.406 230.897)" fill="#9d9d9e"/>
      <path id="Path_4267" data-name="Path 4267" d="M1490.625,1450.634a.358.358,0,0,1,0-.716l24.444-.135h0a.358.358,0,0,1,0,.716l-24.444.135Z" transform="translate(-1248.404 -1214.49)" fill="#767569"/>
      <path id="Path_4268" data-name="Path 4268" d="M1240.932,1518.593c-3.831,3.879-9.484,4.507-14.188-.139-3.5-3.459,9.085-18.777,13.875-14.046,4.506,4.451,4.145,10.307.313,14.185" transform="translate(-1027.141 -1259.497)" fill="#edeeee"/>
      <path id="Path_4269" data-name="Path 4269" d="M1227.648,1507.242c-3.627,3.671-9.146,4.173-12.7,1.283-.2-.163.414-1.531.414-1.531s-1.3.7-1.434.541c-3.034-3.507-2.629-9.109,1.035-12.818s9.26-4.182,12.8-1.192c.162.137-.523,1.441-.523,1.441s1.36-.631,1.526-.433c2.933,3.514,2.5,9.039-1.127,12.71" transform="translate(-1015.223 -1249.495)" fill="#fafaff"/>
      <path id="Path_4270" data-name="Path 4270" d="M1224.389,1517.634c.139.161.282.318.436.47.187.185.383.357.583.521l13.819-13.989c-.166-.2-.34-.392-.528-.577-.153-.151-.313-.293-.475-.43Z" transform="translate(-1025.677 -1259.597)" fill="#edeeee"/>
      <path id="Path_4271" data-name="Path 4271" d="M1328.858,1505.948l8.068-9.812a6.48,6.48,0,0,1,10.011,8.231l-8.068,9.812Z" transform="translate(-1113.191 -1251.346)" fill="#9d9d9e"/>
      <path id="Path_4272" data-name="Path 4272" d="M1289.651,1576.994l-8.068,9.812a6.481,6.481,0,0,1-10.011-8.232l8.068-9.812Z" transform="translate(-1063.973 -1314.16)" fill="#e6ac8f"/>
      <path id="Path_4273" data-name="Path 4273" d="M1378.613,1496.151a6.42,6.42,0,0,1,1.9,1.082,6.5,6.5,0,0,1,.89,9.121l-8.068,9.812-3.333-2.741,8.068-9.812a6.5,6.5,0,0,0,.54-7.463" transform="translate(-1147.66 -1253.333)" fill="#8a8e93"/>
      <path id="Path_4274" data-name="Path 4274" d="M1283.037,1612.406l8.068-9.812,3.333,2.741-8.068,9.812a6.5,6.5,0,0,1-9.122.89,6.42,6.42,0,0,1-1.43-1.658,6.5,6.5,0,0,0,7.218-1.972" transform="translate(-1068.76 -1342.501)" fill="#fa633e"/>
      <path id="Path_4275" data-name="Path 4275" d="M1247.212,1694.714l-10.671,6.892a6.481,6.481,0,0,0,7.032,10.887l10.671-6.893Z" transform="translate(-1033.378 -1419.67)" fill="#9d9d9e"/>
      <path id="Path_4276" data-name="Path 4276" d="M1324.592,1664.7l10.671-6.893a6.48,6.48,0,1,0-7.032-10.887l-10.671,6.892Z" transform="translate(-1103.727 -1378.772)" fill="#e6ac8f"/>
      <path id="Path_4277" data-name="Path 4277" d="M1234.652,1746.036a6.42,6.42,0,0,0,.857,2.015,6.5,6.5,0,0,0,8.96,1.927l10.671-6.893-2.341-3.625-10.671,6.893a6.5,6.5,0,0,1-7.476-.317" transform="translate(-1034.274 -1457.155)" fill="#8a8e93"/>
      <path id="Path_4278" data-name="Path 4278" d="M1357.134,1661.145l-10.671,6.892,2.341,3.625,10.671-6.893a6.5,6.5,0,0,0,1.927-8.96,6.422,6.422,0,0,0-1.484-1.61,6.5,6.5,0,0,1-2.785,6.945" transform="translate(-1127.939 -1385.731)" fill="#fa633e"/>
      <path id="Path_4279" data-name="Path 4279" d="M1094.571,1596.15l-12.688.611a6.48,6.48,0,1,0,.624,12.946l12.689-.611Z" transform="translate(-901.13 -1337.103)" fill="#9d9d9e"/>
      <path id="Path_4280" data-name="Path 4280" d="M1192.528,1605.9l12.688-.611a6.48,6.48,0,1,0-.624-12.946l-12.688.611Z" transform="translate(-998.464 -1333.908)" fill="#e6ac8f"/>
      <path id="Path_4281" data-name="Path 4281" d="M1075.99,1628.333a6.419,6.419,0,0,0-.269,2.173,6.5,6.5,0,0,0,6.785,6.161l12.688-.612-.208-4.31-12.689.611a6.5,6.5,0,0,1-6.308-4.024" transform="translate(-901.131 -1364.063)" fill="#8a8e93"/>
      <path id="Path_4282" data-name="Path 4282" d="M1207.157,1621.787l-12.689.611.208,4.31,12.689-.611a6.5,6.5,0,0,0,6.161-6.785,6.433,6.433,0,0,0-.476-2.137,6.5,6.5,0,0,1-5.892,4.612" transform="translate(-1000.612 -1354.716)" fill="#fa633e"/>
      <path id="Path_4283" data-name="Path 4283" d="M1155.775,1695.83c-5.558,1.52-11.062-.9-12.9-7.639-1.372-5.018,18.252-12.366,20.128-5.5,1.765,6.457-1.665,11.622-7.224,13.142" transform="translate(-957.33 -1407.26)" fill="#edeeee"/>
      <path id="Path_4284" data-name="Path 4284" d="M1153.1,1670.089c-5.261,1.438-10.576-1.026-12.292-5.548-.1-.255,1.189-1.181,1.189-1.181s-1.556-.044-1.6-.264c-.918-4.815,2.418-9.724,7.733-11.178s10.685,1.077,12.344,5.689c.076.211-1.241,1.041-1.241,1.041s1.578.142,1.625.412c.823,4.767-2.5,9.592-7.76,11.03" transform="translate(-955.192 -1383.476)" fill="#fafaff"/>
      <path id="Path_4285" data-name="Path 4285" d="M1141.2,1694.579c.042.22.089.441.15.66.073.268.161.53.258.785l20.047-5.48c-.046-.27-.1-.539-.177-.808-.06-.22-.131-.433-.207-.645Z" transform="translate(-955.991 -1414.961)" fill="#edeeee"/>
      <path id="Path_4286" data-name="Path 4286" d="M1612.021,1595.325l-2.54,2.591s-.119,28.025-.119,28.082c0,1.978,5.1,3.629,11.392,3.546,11.986-.158,11.628-3.647,11.628-3.647v-27.981l-2.739-2.591c-2.392,2.262-15.81,1.947-17.623,0" transform="translate(-1348.171 -1336.411)" fill="#ef1e1b"/>
      <path id="Path_4287" data-name="Path 4287" d="M1641.714,1590.85c0,.7-4.051,1.264-9.048,1.264s-9.048-.566-9.048-1.264,4.051-1.264,9.048-1.264,9.048.566,9.048,1.264" transform="translate(-1360.114 -1331.604)" fill="#2d3f5a"/>
      <path id="Path_4288" data-name="Path 4288" d="M1614.043,1587.195c-6.345,0-12.769-1.337-12.769-3.893v-29.464l5.01-4.323v-6.141h15.745v6.149l4.652,4.323v29.247c0,.037,0,.067,0,.105,0,2.6-6.509,4-12.633,4m-12.053-33.029V1583.3c0,1.534,4.844,3.177,12.053,3.177,7.129,0,11.917-1.7,11.917-3.281,0-.078.005-.138.005-.138v-28.9l-4.652-4.323v-5.745H1607v5.753Z" transform="translate(-1341.395 -1292.892)" fill="#42536a"/>
      <path id="Path_4289" data-name="Path 4289" d="M1729.593,1633.01v-15.045l-1.984.607v15.218Z" transform="translate(-1447.227 -1355.377)" fill="#fff"/>
      <path id="Path_4290" data-name="Path 4290" d="M1727.609,1722.854v9.77l1.984-.607v-9.9Z" transform="translate(-1447.227 -1442.623)" fill="#fff"/>
      <path id="Path_4291" data-name="Path 4291" d="M1664.687,1546.688h-4.79a.358.358,0,0,1-.358-.358v-30.735a.358.358,0,0,1,.358-.358h4.79a.358.358,0,0,1,.358.358v30.735a.358.358,0,0,1-.358.358m-4.432-.716h4.074v-30.02h-4.074Z" transform="translate(-1390.204 -1269.322)" fill="#ef1e1b"/>
      <path id="Path_4292" data-name="Path 4292" d="M1636.141,1492.493l-19.3.518.227,8.464h.008a.66.66,0,0,0-.006.085c.038,1.416,4.39,2.448,9.719,2.3s9.62-1.407,9.582-2.823a.7.7,0,0,0-.01-.084h.008Z" transform="translate(-1354.434 -1250.269)" fill="#42536a"/>
      <path id="Path_4293" data-name="Path 4293" d="M1636.139,1480.528c.038,1.416-4.252,2.68-9.582,2.823s-9.682-.889-9.72-2.3,4.252-2.68,9.582-2.823,9.682.889,9.72,2.3" transform="translate(-1354.433 -1238.304)" fill="#37475b"/>
      <path id="Path_4294" data-name="Path 4294" d="M1657.63,1396.829l-7.984.214-.411-15.3a3.993,3.993,0,0,1,7.984-.214Z" transform="translate(-1381.572 -1154.061)" fill="#42536a"/>
    </g>
  </g>
</svg>
