<svg xmlns="http://www.w3.org/2000/svg" width="166.724" height="168.885" viewBox="0 0 166.724 168.885">
  <g id="branchs" transform="translate(0.33 -0.544)">
    <path id="Path_14283" data-name="Path 14283" d="M125.8,155.682l6.08.73c5.221-15.422,8.735-31,11.184-41.62,1.342-5.733,2.354-10.819,3.09-15.3l.588,16.481,3.332,41.921,6.092-.324c7.534-73.723-1.613-91.758-1.613-91.758l-17.911-2.1a80.106,80.106,0,0,0-.947,10.006l-.483,5.886L130.2,115.8l-4.4,39.884Z" fill="#19468b"/>
    <path id="Path_14284" data-name="Path 14284" d="M125.8,155.682l6.08.73c5.221-15.422,8.735-31,11.184-41.62,1.342-5.733,2.354-10.819,3.09-15.3l.588,16.481,3.332,41.921,6.092-.324c7.5-75.018-1.613-91.77-1.613-91.77l-17.911-2.083a80.106,80.106,0,0,0-.947,10.006l-.483,5.886L130.2,115.8l-4.4,39.884Z" fill="#fff" opacity="0.11"/>
    <path id="Path_14285" data-name="Path 14285" d="M143.1,114.792c1.342-5.733,2.354-10.819,3.09-15.3a140.835,140.835,0,0,0-2-15.7s-1.507,20.454-1.095,31.008Z" opacity="0.2"/>
    <path id="Path_14286" data-name="Path 14286" d="M125.41,155.135l-1.018,7.611a.865.865,0,0,1-.588.706c-.812.283-2.46,1.324-3.12,1.442a34.987,34.987,0,0,1-3.578.235.869.869,0,0,0-.159,1.719l11.184,1.842a.865.865,0,0,0,1.024-.642l2.772-11.337a.871.871,0,0,0-.624-1.048l-4.8-1.271a.871.871,0,0,0-1.095.742h0Z" fill="#ff2d2d"/>
    <path id="Path_14287" data-name="Path 14287" d="M149.7,156.442l.441,7.652a.865.865,0,0,1-.371.83c-.712.483-1.566,1.366-2.172,1.654a35.173,35.173,0,0,1-3.4,1.148.877.877,0,0,0-.588.877.865.865,0,0,0,.9.824h.008l10.513-.542a.865.865,0,0,0,.824-.889l.588-11.684a.871.871,0,0,0-.872-.853H150.6a.871.871,0,0,0-.907.983h0Z" fill="#ff2d2d"/>
    <path id="Path_14288" data-name="Path 14288" d="M144.245,45.96c.706.247,8.747-6.628,7.393-7.116-2.684-.394-2.266-2.943-2.072-4.226a9.918,9.918,0,0,1,.683-2.72l-5.415,1.318a15.96,15.96,0,0,1,.341,2.3,7.953,7.953,0,0,1,0,1.177,1.919,1.919,0,0,1-2.354,1.7c-1.159.26.618,7.723,1.425,7.564Z" fill="#ffc3bd"/>
    <path id="Path_14289" data-name="Path 14289" d="M130.784,99.482a63.925,63.925,0,0,0,31.12,2.725c.165-8.464-2.943-32.609-2.943-32.609-.047-.924-.1-1.831-.147-2.743a14.549,14.549,0,0,1-.029-1.519,107.959,107.959,0,0,1,2.4-23.273,10.648,10.648,0,0,0-7.2-2.978l-.9-1.054L145.9,41.675l-3.178-4.409c-.347-.695-1.807.789-1.807.789l-5.5.3c-3.467,6.581,0,20.36,0,20.36,0,.429-.065.859-.1,1.3-1.242,15.469-4.526,39.466-4.526,39.466Z" fill="#407bff"/>
    <path id="Path_14290" data-name="Path 14290" d="M129.189,59.5c.159,1.177,3.29,6.8,10.477-1.642a2.853,2.853,0,0,0-2.09-4.468,3.92,3.92,0,0,0-.742-.041,42.9,42.9,0,0,0-.1-14.868,3.791,3.791,0,0,0-3.567.653,8.628,8.628,0,0,0-1.866,3.114A34.316,34.316,0,0,0,129.189,59.5h0Z" fill="#407bff"/>
    <path id="Path_14291" data-name="Path 14291" d="M141.126,52.688c-1.083,2.113-2.066,4.656-3.273,6.227-.818,1.066-3.449,1.477-4.473.588-.812-.695-.977-3.22.224-4.968a46.824,46.824,0,0,0,4.986-3.961c.848-.907.695-4.209,6.475-4.785a3.1,3.1,0,0,1,1.625,3.414,38.845,38.845,0,0,1-3.532,2.684,4.5,4.5,0,0,1-2.031.8h0Z" fill="#ff2d2d"/>
    <path id="Path_14292" data-name="Path 14292" d="M145.146,35.518a7.94,7.94,0,0,1,0,1.177,6.233,6.233,0,0,0,4.415-2.083,9.916,9.916,0,0,1,.683-2.72l-5.409,1.325a15.955,15.955,0,0,1,.312,2.3h0Z" opacity="0.2"/>
    <path id="Path_14293" data-name="Path 14293" d="M155.023,49.839l-5.615-.412a.394.394,0,0,1-.383-.394v-.065l.489-2.637a.518.518,0,0,1,.53-.394l5.609.412a.389.389,0,0,1,.383.389V46.8l-.489,2.643a.512.512,0,0,1-.524.395Z" fill="#19468b"/>
    <path id="Path_14294" data-name="Path 14294" d="M147.918,18.8s-6.475-.63-7.475,4.2a8.935,8.935,0,0,0,2.266,8.211L147.918,18.8Z" fill="#263238"/>
    <path id="Path_14295" data-name="Path 14295" d="M146.782,19.867c-4.438,0-5.886,2.354-6.2,6.934-.406,5.709.859,9.765,6.4,8.552,7.534-1.66,7.163-15.474-.2-15.486h0Z" fill="#ffc3bd"/>
    <path id="Path_14296" data-name="Path 14296" d="M143.345,26.33a9.629,9.629,0,0,1-1.583,1.589,1.212,1.212,0,0,0,1.071.677l.512-2.266Z" fill="#d4827d"/>
    <path id="Path_14297" data-name="Path 14297" d="M148.419,24.582a.159.159,0,0,0,.1-.035.171.171,0,0,0,.051-.236l0-.005a2.508,2.508,0,0,0-1.919-1.059.165.165,0,0,0-.182.165.171.171,0,0,0,.158.182h.006a2.148,2.148,0,0,1,1.648.912.183.183,0,0,0,.141.077h0Z" fill="#263238"/>
    <path id="Path_14298" data-name="Path 14298" d="M141.7,22.928a.148.148,0,0,0,.082,0,1.872,1.872,0,0,1,1.642-.053.177.177,0,0,0,.23-.088.171.171,0,0,0-.079-.228l0,0a2.231,2.231,0,0,0-1.954.065.177.177,0,0,0-.071.235.171.171,0,0,0,.153.071Z" fill="#263238"/>
    <path id="Path_14299" data-name="Path 14299" d="M151.62,27.354s-2.072-3.643-1.766-6.475c0,0-8.782-3.6-9.223,5.3,0,0-.848-7.9,6.769-8.093,9.418-.235,7.575,10.983,3.638,14.3.035.041,1.86-2.755.583-5.033h0Z" fill="#263238"/>
    <path id="Path_14300" data-name="Path 14300" d="M140.172,27.925c.73-1.142,5.533-.477,10.006.047v.177c1.059-1.613,2.26-1.807,3.143-.588-1.218-1.095-2.231-.5-3.078.883a12.7,12.7,0,0,1,.224,4.12c1.225-.753,2.072-2.4,2.943-4.12-.812,2.019-1.672,3.938-3.014,4.668a2.032,2.032,0,0,1-.071.406c-2.29,2.172-6.222,2.755-8.352,1.03-1.507-1.266-1.948-3.644-1.8-6.622h0Z" fill="#19468b"/>
    <path id="Path_14301" data-name="Path 14301" d="M145.74,26.042c-.041.359.065.683.306.73s.489-.206.553-.559-.059-.689-.3-.736-.488.2-.559.565h0Z" fill="#263238"/>
    <path id="Path_14302" data-name="Path 14302" d="M146.394,25.506l-.712-.453S145.935,25.789,146.394,25.506Z" fill="#263238"/>
    <path id="Path_14303" data-name="Path 14303" d="M141.732,25.506c-.041.359.065.689.3.73s.488-.2.588-.588-.071-.683-.312-.724-.506.2-.577.582Z" fill="#263238"/>
    <path id="Path_14304" data-name="Path 14304" d="M142.385,24.976l-.718-.459S141.926,25.253,142.385,24.976Z" fill="#263238"/>
    <path id="Path_14305" data-name="Path 14305" d="M154.087,28.649a3.373,3.373,0,0,1-1.683,1.989c-1.066.518-1.819-.371-1.713-1.489.1-1.012.771-2.5,1.931-2.566a1.525,1.525,0,0,1,1.466,2.066h0Z" fill="#ffc3bd"/>
    <path id="Path_14306" data-name="Path 14306" d="M152.521,29.267a6.79,6.79,0,0,0-6.38-7.84c-6.092-.971-5.8,4.591-5.8,4.591a7.466,7.466,0,0,1,3.031-7.652s.153-2.843,7.693-2.013c4.12.447,5.3,4.844,5.456,7.246.288,3.961-3.143,7.4-3.143,7.4.241.907-1.7,1.012-1.7,1.012a7.993,7.993,0,0,0,.842-2.749Z" fill="#19468b"/>
    <path id="Path_14307" data-name="Path 14307" d="M152.521,29.267a6.79,6.79,0,0,0-6.38-7.84c-6.092-.971-5.8,4.591-5.8,4.591a7.466,7.466,0,0,1,3.031-7.652s.153-2.843,7.693-2.013c4.12.447,5.3,4.844,5.456,7.246.288,3.961-3.143,7.4-3.143,7.4.241.907-1.7,1.012-1.7,1.012a7.993,7.993,0,0,0,.842-2.749h0Z" fill="#fff" opacity="0.06"/>
    <path id="Path_14308" data-name="Path 14308" d="M161.126,41.846s6.61,15.4,5.021,22.285-12.949-.8-12.949-.8l-.377-3.9,6.18.129-2.166-9.977c.282-2.978,3.19-6.628,4.291-7.74h0Z" fill="#407bff"/>
    <path id="Path_14309" data-name="Path 14309" d="M141.791,48.662l1.083-.029a.588.588,0,0,1,.588.588h0a.588.588,0,0,1-.306.53l.224,9.529a.677.677,0,0,1-.659.695h-.242a.689.689,0,0,1-.695-.665l-.23-9.529a.589.589,0,0,1,.236-1.118Z" fill="#407bff"/>
    <path id="Path_14310" data-name="Path 14310" d="M142.986,48.473l-1.295.041c-.059,0-.1.1-.1.218l.035,1.048c0,.118.053.212.112.212l1.295-.047c.059,0,.106-.094.1-.212L143.1,48.68c-.006-.112-.035-.206-.118-.206Z" fill="#263238"/>
    <path id="Path_14311" data-name="Path 14311" d="M141.314,48.738l2.048-.082-.024-.842-2.054.082Z" fill="#263238"/>
    <path id="Path_14312" data-name="Path 14312" d="M141.791,48.662l1.083-.029a.588.588,0,0,1,.588.588h0a.588.588,0,0,1-.306.53l.224,9.529a.677.677,0,0,1-.659.695h-.242a.689.689,0,0,1-.695-.665l-.23-9.529a.589.589,0,0,1,.236-1.118Z" fill="#fff" opacity="0.8"/>
    <path id="Path_14313" data-name="Path 14313" d="M142.479,54.242c.277,0,.5-.082.506-.171l.124,5.215a.371.371,0,0,1-.359.383h-.277a.388.388,0,0,1-.389-.371l-.124-5.215c0,.1.223.165.518.159h0Z" fill="#263238"/>
    <path id="Path_14314" data-name="Path 14314" d="M141.95,54.089c0,.094.235.159.518.153s.512-.082.506-.177-.23-.159-.518-.153-.506.088-.506.177h0Z" fill="#407bff"/>
    <path id="Path_14315" data-name="Path 14315" d="M141.95,54.089c0,.094.235.159.518.153s.512-.082.506-.177-.23-.159-.518-.153-.506.088-.506.177h0Z" opacity="0.3"/>
    <g id="Group_13236" data-name="Group 13236" opacity="0.8">
      <path id="Path_14316" data-name="Path 14316" d="M142.738,49.827c.077,3.161.153,6.3.23,9.459a.153.153,0,1,1-.306,0q-.106-4.709-.224-9.465a.153.153,0,0,1,.3,0v.006Z" fill="#fff"/>
    </g>
    <path id="Path_14317" data-name="Path 14317" d="M139.984,56.649c.488-.506,4.874-.418,5.651-.059.588.353,2.425,1.489,2.425,1.489l7.9.442.241,6.987-8.576-3.832a25.266,25.266,0,0,1-6.528-1.207c-.959-.512-1.607-3.314-1.118-3.82h0Z" fill="#ff2d2d"/>
    <path id="Path_14318" data-name="Path 14318" d="M158.99,59.592a4.168,4.168,0,0,1,1.566.518,32.588,32.588,0,0,1-2.943-6.61c.4,1.913.965,4.12,1.377,6.092Z" opacity="0.2"/>
    <path id="Path_14319" data-name="Path 14319" d="M136.523,70.688l20.5,1.154.2,1.936-20.848-1.254.147-1.836Z" fill="#19468b"/>
    <path id="Path_14320" data-name="Path 14320" d="M84.394,7.041A1.621,1.621,0,0,1,87.135,6.4l.07.077a3.882,3.882,0,0,1,.372,4.048,8.891,8.891,0,0,1-2.774,3.2,4.048,4.048,0,0,1-2.78,1.025,3.668,3.668,0,0,1-2.645-4.01c.064-1.1.416-2.159.455-3.254A4.484,4.484,0,0,0,78.955,4.4a2.261,2.261,0,0,1,1.179.756,1.87,1.87,0,0,0-1.1-1.672,3.2,3.2,0,0,1,2.953-.339,3.043,3.043,0,0,1,1.7,2.325,2.191,2.191,0,0,0,.275-2.082,2.063,2.063,0,0,0-1.672-1.172,2.3,2.3,0,0,1,2.838,2.69,14.038,14.038,0,0,1-.736,2.133h0Z" fill="#263238"/>
    <path id="Path_14321" data-name="Path 14321" d="M84.394,7.041A1.621,1.621,0,0,1,87.135,6.4l.07.077a3.882,3.882,0,0,1,.372,4.048,8.891,8.891,0,0,1-2.774,3.2,4.048,4.048,0,0,1-2.78,1.025,3.668,3.668,0,0,1-2.645-4.01c.064-1.1.416-2.159.455-3.254A4.484,4.484,0,0,0,78.955,4.4a2.261,2.261,0,0,1,1.179.756,1.87,1.87,0,0,0-1.1-1.672,3.2,3.2,0,0,1,2.953-.339,3.043,3.043,0,0,1,1.7,2.325,2.191,2.191,0,0,0,.275-2.082,2.063,2.063,0,0,0-1.672-1.172,2.3,2.3,0,0,1,2.838,2.69,14.038,14.038,0,0,1-.736,2.133h0Z" fill="#263238"/>
    <path id="Path_14322" data-name="Path 14322" d="M84.394,7.041A1.621,1.621,0,0,1,87.135,6.4l.07.077a3.882,3.882,0,0,1,.372,4.048,8.891,8.891,0,0,1-2.774,3.2,4.048,4.048,0,0,1-2.78,1.025,3.668,3.668,0,0,1-2.645-4.01c.064-1.1.416-2.159.455-3.254A4.484,4.484,0,0,0,78.955,4.4a2.261,2.261,0,0,1,1.179.756,1.87,1.87,0,0,0-1.1-1.672,3.2,3.2,0,0,1,2.953-.339,3.043,3.043,0,0,1,1.7,2.325,2.191,2.191,0,0,0,.275-2.082,2.063,2.063,0,0,0-1.672-1.172,2.3,2.3,0,0,1,2.838,2.69,14.038,14.038,0,0,1-.736,2.133h0Z" opacity="0.2"/>
    <path id="Path_14323" data-name="Path 14323" d="M90.44,164.675l4.682.262.173-5.073-4.682-.262-.173,5.073Z" fill="#ffc3bd"/>
    <path id="Path_14324" data-name="Path 14324" d="M95.43,163.971l-5.272-.09a.4.4,0,0,0-.4.314l-.993,4.183a.7.7,0,0,0,.531.832h0a.575.575,0,0,0,.147,0c1.851,0,2.754-.1,5.086-.058,1.435,0,5.124.237,7.129.275s2.268-1.922,1.46-2.114c-3.632-.865-5.765-1.992-6.892-3.062a1.146,1.146,0,0,0-.794-.282h0Z" fill="#263238"/>
    <path id="Path_14325" data-name="Path 14325" d="M95.3,159.121l-.083,2.357-4.682-.288.083-2.331,4.682.263Z" opacity="0.2"/>
    <path id="Path_14326" data-name="Path 14326" d="M103.86,62.75c.948,5.643-.724,33.1-2.517,45.217-2.4,16.084-5.221,52.205-5.221,52.205l-6.258-.48s-.891-38.177.641-51.1c-.442-16.654-1.742-45.787-1.742-45.787l15.1-.058Z" fill="#ff2d2d"/>
    <path id="Path_14327" data-name="Path 14327" d="M103.86,62.75c.948,5.643-.724,33.1-2.517,45.217-2.4,16.084-5.221,52.205-5.221,52.205l-6.258-.48s-.891-38.177.641-51.1c-.442-16.654-1.742-45.787-1.742-45.787l15.1-.058Z" opacity="0.2"/>
    <path id="Path_14328" data-name="Path 14328" d="M89.46,80.929c-.147-4.221,2.908-7.924,3.978.071.641,5.08-1.057,13.932-3.2,20.164C90,94.65,89.723,87.38,89.46,80.929Z" opacity="0.2"/>
    <path id="Path_14329" data-name="Path 14329" d="M56.03,153.542l3.555,2.261,3.19-5.137L59.226,148.4l-3.2,5.137Z" fill="#ffc3bd"/>
    <path id="Path_14330" data-name="Path 14330" d="M60.13,155.72l-3.907-3.594a.339.339,0,0,0-.48,0h0l-3.2,2.818a.8.8,0,0,0,0,1.132h0c1.377,1.236,2.1,1.755,3.843,3.344,1.05.974,2.319,2.344,3.773,3.7s2.793-.09,2.3-.781c-2.21-3.119-1.749-4.2-1.992-5.855a1.281,1.281,0,0,0-.333-.762h0Z" fill="#263238"/>
    <path id="Path_14331" data-name="Path 14331" d="M62.775,150.666l-1.435,2.306-3.593-2.37,1.473-2.2,3.555,2.261Z" opacity="0.2"/>
    <path id="Path_14332" data-name="Path 14332" d="M94.527,69.233s-5.906,35.647-9.326,49.1c-2.472,9.7-22.419,33.8-22.419,33.8l-4.843-2.889s7.533-19.217,17.891-31.906c.641-15.059-.641-39.887,5.329-48.041l13.368-.064Z" fill="#ff2d2d"/>
    <path id="Path_14333" data-name="Path 14333" d="M94.515,69.126s-5.906,35.647-9.326,49.1c-2.472,9.7-22.419,33.8-22.419,33.8l-4.843-2.889s7.533-19.216,17.891-31.906c.641-15.059-.641-39.887,5.329-48.041l13.368-.064Z" opacity="0.2"/>
    <path id="Path_14334" data-name="Path 14334" d="M100.926,35.4c.416,3.017.961,5.957,1.589,8.923s1.339,5.9,2.229,8.833l.16.551.211.641q.209.6.461,1.179c.333.762.724,1.486,1.083,2.184a46.154,46.154,0,0,0,2.5,3.952,61.49,61.49,0,0,0,5.855,7.046,1.286,1.286,0,0,0,2.018-1.6c-1.569-2.46-3.119-5-4.484-7.52-.7-1.281-1.345-2.562-1.922-3.843-.275-.64-.532-1.281-.749-1.922-.109-.308-.2-.641-.288-.922l-.115-.455-.122-.506c-.641-2.831-1.2-5.714-1.749-8.6s-1.012-5.816-1.486-8.692a2.608,2.608,0,0,0-5.157.788l-.039-.038Z" fill="#c6d8ff"/>
    <path id="Path_14335" data-name="Path 14335" d="M116.274,66.517l3.549,2.268-4.208,2.428a5.46,5.46,0,0,1-1.281-4l1.941-.7Z" fill="#ffb7af"/>
    <path id="Path_14336" data-name="Path 14336" d="M119.823,72.987l-2,.532a1.044,1.044,0,0,1-1.172-.487l-1.038-1.819,4.208-2.428.743,2.934a1.044,1.044,0,0,1-.743,1.268h0Z" fill="#ffb7af"/>
    <path id="Path_14337" data-name="Path 14337" d="M105.737,32.619c.916-.25,3.369,8.366,3.369,8.366l-6.713,6.239s-2.069-8.9-2.947-11.844c-.916-3.049,3.863-4.778,6.29-2.761h0Z" fill="#ff2d2d"/>
    <path id="Path_14338" data-name="Path 14338" d="M106.762,34.963c.07,9.41-1.755,16.744-2.562,23.22-.1.82-.262,3.536.538,9.2a137.077,137.077,0,0,1,.929,14.021l-29.561-1.87c.973-12.683,7.2-20.35,7.193-22.1,0-5.265-.576-10.633-2.863-20.933a4.413,4.413,0,0,1,3.35-5.252,3.947,3.947,0,0,1,.4-.064c1.236-.167,2.613-.314,4.01-.384a65.642,65.642,0,0,1,9.391-.038c2.2.2,4.561.557,6.245.846a3.5,3.5,0,0,1,2.934,3.356h0Z" fill="#ff2d2d"/>
    <path id="Path_14339" data-name="Path 14339" d="M87.327,45.436l6.124.058a.423.423,0,0,0,.448-.4v-.04l-.288-2.908a.557.557,0,0,0-.544-.468l-6.117-.064A.416.416,0,0,0,86.5,42v.073l.288,2.914a.57.57,0,0,0,.538.448h0Z" fill="#bfd5ff"/>
    <path id="Path_14340" data-name="Path 14340" d="M97.563,30.768s3.331,2.415-.333,8.27A120.751,120.751,0,0,0,88.179,30.8l9.384-.032Z" fill="#fff" opacity="0.4"/>
    <path id="Path_14341" data-name="Path 14341" d="M85.675,63.942h-.557c-.109,0-.2-.064-.192-.128l.256-2.409c0-.064.109-.128.218-.128h.564c.109,0,.192.058.186.128l-.25,2.4a.2.2,0,0,1-.224.135h0Z" fill="#407bff"/>
    <path id="Path_14342" data-name="Path 14342" d="M102.387,63.884h-.557c-.115,0-.2-.058-.192-.128l.256-2.408c0-.07.1-.122.211-.128h.564c.109,0,.2.051.186.128l-.25,2.4a.205.205,0,0,1-.218.141h0Z" fill="#407bff"/>
    <path id="Path_14343" data-name="Path 14343" d="M94.047,63.916h-.564c-.109,0-.2-.051-.192-.128l.256-2.4c0-.07.109-.128.218-.122h.564c.109,0,.192.064.186.128l-.25,2.408c-.013.058-.109.116-.218.116Z" fill="#407bff"/>
    <path id="Path_14344" data-name="Path 14344" d="M87.526,70.373,99.12,72.295a.91.91,0,0,0,1.012-.641l4.759-17.506a.711.711,0,0,0-.583-.916L92.714,51.31a.922.922,0,0,0-1.012.641L86.956,69.457a.711.711,0,0,0,.57.916Z" fill="#263238"/>
    <path id="Path_14345" data-name="Path 14345" d="M96.769,53.443l2.774.455a1.159,1.159,0,0,0,1.281-.82l.436-1.614-4.772-.781-.442,1.608a.9.9,0,0,0,.724,1.153h0Z" fill="#263238"/>
    <path id="Path_14346" data-name="Path 14346" d="M96.769,53.443l2.774.455a1.159,1.159,0,0,0,1.281-.82l.436-1.614-4.772-.781-.442,1.608a.9.9,0,0,0,.724,1.153h0Z" fill="#bfd5ff"/>
    <path id="Path_14347" data-name="Path 14347" d="M92.2,51.3l.551.09a.922.922,0,0,0-1.018.641L86.956,69.515a.724.724,0,0,0,.583.922l-.544-.09a.717.717,0,0,1-.583-.922L91.2,51.957a.91.91,0,0,1,1-.653Z" fill="#263238"/>
    <path id="Path_14348" data-name="Path 14348" d="M92.2,51.3l.551.09a.922.922,0,0,0-1.018.641L86.956,69.515a.724.724,0,0,0,.583.922l-.544-.09a.717.717,0,0,1-.583-.922L91.2,51.957a.91.91,0,0,1,1-.653Z" fill="#fff" opacity="0.7"/>
    <path id="Path_14349" data-name="Path 14349" d="M78.36,37.205c-.974,2.325-1.845,4.638-2.665,7.014-.4,1.179-.8,2.357-1.147,3.606a32.356,32.356,0,0,0-.922,3.888A9.984,9.984,0,0,0,73.5,52.95a5.881,5.881,0,0,0,.058.948,3.541,3.541,0,0,0,.1.365l.058.231a2.773,2.773,0,0,0,.122.288l.077.147v.122l.064.1c.4.544.737,1.108,1.172,1.627a23.058,23.058,0,0,0,2.722,2.979A17.443,17.443,0,0,0,81.2,62.142,12.7,12.7,0,0,0,83.119,63c.333.109.673.218,1.019.308l.538.109c.205.038.352.058.641.09l.372-2.562a1.753,1.753,0,0,0-.269-.134l-.339-.173c-.224-.115-.455-.256-.679-.4a13.981,13.981,0,0,1-1.326-.961,18.578,18.578,0,0,1-2.306-2.345c-.339-.448-.7-.865-1.012-1.358s-.641-.916-.922-1.377-.557-.993-.846-1.473h0a1.676,1.676,0,0,0,.077.179.16.16,0,0,0,.032.115l.032.147a4.029,4.029,0,0,1,.109-.6c.237-.98.6-2.133.993-3.248s.794-2.255,1.223-3.382c.852-2.255,1.736-4.548,2.607-6.79l-4.7-1.947Z" fill="#c6d8ff"/>
    <path id="Path_14350" data-name="Path 14350" d="M83.836,63.25l4.6,1.761.73-4.433s-2.684-.641-4.337.641l-.993,2.031Z" fill="#ffb7af"/>
    <path id="Path_14351" data-name="Path 14351" d="M91.235,64.646l.641-1.608a1.281,1.281,0,0,0-.7-1.633l-2-.826-.73,4.433,1.243.391a1.281,1.281,0,0,0,1.544-.756Z" fill="#ffb7af"/>
    <path id="Path_14352" data-name="Path 14352" d="M88.557,33.7c1.281,5.458-7.315,14.6-7.315,14.6l-6.963-7.475s3.357-6.867,7.623-8.968c2.979-1.46,6.092-.564,6.655,1.839h0Z" fill="#ff2d2d"/>
    <path id="Path_14353" data-name="Path 14353" d="M89.07,20.237c.6,3.011,1.217,8.545-.891,10.563a29.582,29.582,0,0,1,8.776,5.618c2.364-4.164.641-5.656.641-5.656-3.369-.788-3.292-3.286-2.716-5.63l-5.81-4.894Z" fill="#ffb7af"/>
    <path id="Path_14354" data-name="Path 14354" d="M89.7,20.769a12.633,12.633,0,0,0,1.281,5.176c.551,1.108,2.063,1.6,3.587,1.717a8.2,8.2,0,0,1,.288-2.562L89.7,20.769Z" opacity="0.2"/>
    <path id="Path_14355" data-name="Path 14355" d="M84.246,16.471c1.486,4.836,1.967,6.912,5.067,8.846,4.618,2.9,10.249.051,10.249-5.124,0-4.65-2.409-11.773-7.655-12.587a6.886,6.886,0,0,0-7.687,8.865h.026Z" fill="#ffb7af"/>
    <path id="Path_14356" data-name="Path 14356" d="M87.423,6.625c3.235-2.972,6.8-1.781,8.679-.8a7.6,7.6,0,0,1,3.8,4.843,2.766,2.766,0,0,1-1.576,3.2,8.11,8.11,0,0,0-1.806-2.5A5.7,5.7,0,0,0,92.3,10.6a21.14,21.14,0,0,1-3.408,5.515,6.462,6.462,0,0,1-5.47,2.332,8.372,8.372,0,0,1-1.236-8.507c1.268-2.786,5.24-3.312,5.24-3.312h0Z" fill="#263238"/>
    <path id="Path_14357" data-name="Path 14357" d="M83.151,19.2a3.632,3.632,0,0,0,1.8,2.191c1.147.589,1.986-.372,1.883-1.589-.09-1.1-.794-2.736-2.056-2.825a1.659,1.659,0,0,0-1.729,1.586v0a1.627,1.627,0,0,0,.1.634Z" fill="#ffb7af"/>
    <path id="Path_14358" data-name="Path 14358" d="M91.76,16.233c.1.4.384.673.641.641s.391-.436.3-.833a.751.751,0,0,0-.641-.641C91.8,15.4,91.67,15.8,91.76,16.233Z" fill="#263238"/>
    <path id="Path_14359" data-name="Path 14359" d="M96.276,15.132c.09.4.378.673.641.608s.4-.429.3-.833-.378-.673-.641-.641-.4.461-.3.865Z" fill="#263238"/>
    <path id="Path_14360" data-name="Path 14360" d="M96.468,14.344l.9-.506S97.045,14.709,96.468,14.344Z" fill="#263238"/>
    <path id="Path_14361" data-name="Path 14361" d="M95.283,16.1a11.08,11.08,0,0,0,2.024,2.216,1.781,1.781,0,0,1-1.358.6L95.283,16.1Z" fill="#d4827d"/>
    <path id="Path_14362" data-name="Path 14362" d="M94.937,20.461a.128.128,0,0,0,.045-.128.122.122,0,0,0-.147-.083,3.254,3.254,0,0,1-2.9-.532.122.122,0,0,0-.16.179,3.414,3.414,0,0,0,3.119.576l.038-.013Z" fill="#263238"/>
    <path id="Path_14363" data-name="Path 14363" d="M90.389,14.914a.391.391,0,0,0,.077-.1,1.922,1.922,0,0,1,1.313-1.14.243.243,0,0,0,.205-.275.25.25,0,0,0-.282-.2,2.4,2.4,0,0,0-1.678,1.422.247.247,0,0,0,.365.295h0Z" fill="#263238"/>
    <path id="Path_14364" data-name="Path 14364" d="M97.563,13.184l.032-.032a.243.243,0,0,0,0-.339,2.389,2.389,0,0,0-2.076-.641.243.243,0,0,0-.179.288.25.25,0,0,0,.295.179,1.922,1.922,0,0,1,1.659.519.231.231,0,0,0,.269.025Z" fill="#263238"/>
    <path id="Path_14365" data-name="Path 14365" d="M91.952,15.414l.9-.506S92.535,15.779,91.952,15.414Z" fill="#263238"/>
    <path id="Path_14366" data-name="Path 14366" d="M36.536,164.7h4.657l.2-10.771H36.735Z" fill="#ff887b"/>
    <path id="Path_14367" data-name="Path 14367" d="M41.149,164.167H36.056a.38.38,0,0,0-.38.317l-.822,4.121a.7.7,0,0,0,.555.815h.005a.468.468,0,0,0,.131,0c1.831-.031,4.477-.143,6.78-.143,2.7,0,2.914.149,6.07.149,1.911,0,2.391-1.93,1.588-2.1-3.661-.8-4.526-.878-7.714-2.827a2.236,2.236,0,0,0-1.121-.33h0Z" fill="#263238"/>
    <path id="Path_14368" data-name="Path 14368" d="M41.392,153.938l-.106,5.554H36.635l.1-5.554h4.657Z" opacity="0.2"/>
    <path id="Path_14369" data-name="Path 14369" d="M41.765,164.012a.106.106,0,0,1-.081-.062.1.1,0,0,1,.044-.134l.006,0c.205-.112,2.03-1.046,2.59-.728a.336.336,0,0,1,.181.28.579.579,0,0,1-.187.529,1.693,1.693,0,0,1-1.115.286,8.022,8.022,0,0,1-1.438-.168h0Zm.336-.156a2.838,2.838,0,0,0,2.042-.125.373.373,0,0,0,.125-.349.131.131,0,0,0-.068-.118.573.573,0,0,0-.205-.037,5.847,5.847,0,0,0-1.893.629h0Z" fill="#263238"/>
    <path id="Path_14370" data-name="Path 14370" d="M41.7,164.005a.131.131,0,0,1-.05-.1,3.111,3.111,0,0,1,.672-1.768.76.76,0,0,1,.623-.181c.305,0,.417.181.417.3.093.523-.965,1.513-1.525,1.762H41.8l-.093-.012Zm.766-1.694a2.49,2.49,0,0,0-.554,1.413c.554-.336,1.245-1.115,1.245-1.426,0,0,0-.118-.218-.118H42.88a.542.542,0,0,0-.411.131h0Z" fill="#263238"/>
    <path id="Path_14371" data-name="Path 14371" d="M2.523,161.067l4.439,1.388,3.4-10.223-4.439-1.388-3.4,10.223Z" fill="#ff887b"/>
    <path id="Path_14372" data-name="Path 14372" d="M7.08,161.938l-4.856-1.513a.38.38,0,0,0-.461.187L-.248,164.3a.71.71,0,0,0,.286.953l.125.05c1.756.51,4.315,1.2,6.519,1.868,2.565.8,2.733,1.009,5.747,1.949,1.824.567,2.858-1.127,2.142-1.532-3.256-1.868-4.053-2.192-6.519-4.981a2.2,2.2,0,0,0-.971-.666h0Z" fill="#263238"/>
    <path id="Path_14373" data-name="Path 14373" d="M10.361,152.238l-1.974,5.933-4.439-1.389,1.974-5.934Z" opacity="0.2"/>
    <path id="Path_14374" data-name="Path 14374" d="M7.721,161.938a.093.093,0,0,1-.062-.081.1.1,0,0,1,.078-.117h.009c.231-.044,2.254-.392,2.69.075a.349.349,0,0,1,.093.324.579.579,0,0,1-.342.448,1.688,1.688,0,0,1-1.146-.056,7.637,7.637,0,0,1-1.32-.592Zm.361-.05c.921.473,1.656.654,1.992.492a.361.361,0,0,0,.218-.3.125.125,0,0,0,0-.131.674.674,0,0,0-.187-.1,5.987,5.987,0,0,0-2.024.087v-.05Z" fill="#263238"/>
    <path id="Path_14375" data-name="Path 14375" d="M7.659,161.938a.106.106,0,0,1,0-.106,2.992,2.992,0,0,1,1.164-1.488.771.771,0,0,1,.623,0c.28.118.336.3.305.411-.068.529-1.37,1.152-1.98,1.245H7.727l-.068-.062ZM8.9,160.55a2.534,2.534,0,0,0-.971,1.19c.623-.162,1.557-.691,1.6-1,0-.031,0-.124-.174-.187H9.3a.567.567,0,0,0-.4-.006H8.9Z" fill="#263238"/>
    <path id="Path_14376" data-name="Path 14376" d="M53.813,74.512l-1.457-4.719-4.053,1.3,2.079,5.074s4.277,1.1,3.431-1.65h0Z" fill="#ff887b"/>
    <path id="Path_14377" data-name="Path 14377" d="M51.459,74.425l2.354.087,2.353,3.524a1.643,1.643,0,0,1,.224,1.32l-.561,2.322A1.65,1.65,0,0,1,54,82.923l-1.058-.137A1.65,1.65,0,0,1,51.5,81.218l-.112-2.023s-2.173-4.147.068-4.769h0Z" fill="#ff887b"/>
    <path id="Path_14378" data-name="Path 14378" d="M35.39,26.5c.623,4.265,1.314,4.122,1.868,8.4s1.133,8.573,1.613,12.782l.081.778.062.511a3.268,3.268,0,0,0,.075.535c.112.7.243,1.276.38,1.868.262,1.189.554,2.26.853,3.343.623,2.16,3.561,9.613,4.221,11.711,1.083,3.455,1.208,2.914,2.341,6.344a2.266,2.266,0,0,0,2.864,1.438l.037-.013,3.443-1.2A2.266,2.266,0,0,0,54.606,70.1l0-.008c-1.17-3.318-1.307-2.733-2.354-6.083-.623-2.036-3.524-9.439-4.059-11.443-.268-1.009-.517-2-.716-2.976-.093-.467-.181-.94-.231-1.32v-.56l-.075-.834c-.374-4.408-.38-3.038-.784-7.365l-.623-6.494c-.33-3.53-3.2-6.849-6.718-6.432L35.39,26.5Z" fill="#407bff"/>
    <path id="Path_14379" data-name="Path 14379" d="M35.39,26.5c.623,4.265,1.314,4.122,1.868,8.4s1.133,8.573,1.613,12.782l.081.778.062.511a3.268,3.268,0,0,0,.075.535c.112.7.243,1.276.38,1.868.262,1.189.554,2.26.853,3.343.623,2.16,3.561,9.613,4.221,11.711,1.083,3.455,1.208,2.914,2.341,6.344a2.266,2.266,0,0,0,2.864,1.438l.037-.013,3.443-1.2A2.266,2.266,0,0,0,54.606,70.1l0-.008c-1.17-3.318-1.307-2.733-2.354-6.083-.623-2.036-3.524-9.439-4.059-11.443-.268-1.009-.517-2-.716-2.976-.093-.467-.181-.94-.231-1.32v-.56l-.075-.834c-.374-4.408-.38-3.038-.784-7.365l-.623-6.494c-.33-3.53-3.2-6.849-6.718-6.432L35.39,26.5Z" fill="#fff" opacity="0.6"/>
    <path id="Path_14380" data-name="Path 14380" d="M44.381,67.645l-1.052,54.584-.28,33.291a1.675,1.675,0,0,1-1.563,1.725H35.951a1.65,1.65,0,0,1-1.557-1.594c-.66-7.471-3.306-19.3-2.123-33.272,0,0-3.972-36.64-4.215-47.822l.9-9.962L44.38,67.645Z" fill="#407bff"/>
    <path id="Path_14381" data-name="Path 14381" d="M31.592,78.173a156.545,156.545,0,0,1-.934,24.17s-1.345-11-2.092-17.022l3.026-7.147Z" opacity="0.2"/>
    <path id="Path_14382" data-name="Path 14382" d="M34.749,68.031,23.037,123.7,11.769,156.129a1.476,1.476,0,0,1-1.826,1.009q-.049-.014-.1-.032l-5.778-2.123a1.774,1.774,0,0,1-.959-2.054C4.739,145.813,6.152,134,11.557,121.8c0,0,3.231-35.314,7.571-54.2l15.621.43Z" fill="#407bff"/>
    <path id="Path_14383" data-name="Path 14383" d="M22.876,25.295s.187-.068.579-.168V28.04L34.3,30.008l3.144-1.967V25.208l.573.087,1.743,1.3s3.736,8.062,4.6,28.092l.293,15.142H16.2l6.681-44.535Z" fill="#407bff"/>
    <path id="Path_14384" data-name="Path 14384" d="M27.632,23.763c.946-2.939.747-7.154.429-9.787l6.369,6.295a7.627,7.627,0,0,0-.4,3.5,1.245,1.245,0,0,0,1.1,1.071l2.708.847.318,2.1-1.631.423-2.2,1.8-5.3-1.8-5.678-2.621a10.664,10.664,0,0,1,2.646-.5,2.31,2.31,0,0,0,1.643-1.326h0Z" fill="#ff887b"/>
    <path id="Path_14385" data-name="Path 14385" d="M30.652,17.027l3.667,3.592a8.611,8.611,0,0,0-.349,2.042,5.5,5.5,0,0,1-3.8-3.443c-.312-1.046.081-2.1.479-2.191h0Z" opacity="0.2"/>
    <path id="Path_14386" data-name="Path 14386" d="M27.1,9.213c.274,4.838.193,7.658,2.621,10.148,3.649,3.736,9.632,1.544,10.8-3.263,1.058-4.358.423-11.518-4.3-13.455A6.587,6.587,0,0,0,27.6,6.174l-.008.02a6.513,6.513,0,0,0-.486,3.02Z" fill="#ff887b"/>
    <path id="Path_14387" data-name="Path 14387" d="M34.78,10.49c.037.392.274.691.529.666s.436-.355.4-.753-.274-.685-.529-.66-.436.355-.4.747Z" fill="#263238"/>
    <path id="Path_14388" data-name="Path 14388" d="M39.207,10.16c.037.392.274.691.529.666s.436-.361.4-.748-.274-.7-.529-.672-.43.361-.4.754Z" fill="#263238"/>
    <path id="Path_14389" data-name="Path 14389" d="M33.055,8.665a.3.3,0,0,1-.112-.044.249.249,0,0,1,0-.33,2.316,2.316,0,0,1,2.036-.548.233.233,0,0,1-.125.448,1.824,1.824,0,0,0-1.606.448.212.212,0,0,1-.193.025h0Z" fill="#263238"/>
    <path id="Path_14390" data-name="Path 14390" d="M40.888,8.348a.237.237,0,0,1-.224,0,1.824,1.824,0,0,0-1.65-.143.231.231,0,0,1-.311-.1h0a.237.237,0,0,1,.1-.311,2.322,2.322,0,0,1,2.111.149.224.224,0,0,1,.088.3h0a.206.206,0,0,1-.112.1Z" fill="#263238"/>
    <path id="Path_14391" data-name="Path 14391" d="M26.449,12.052l.218.218.722-.722a3.425,3.425,0,0,1,2.434-1.008h2.229a2.385,2.385,0,0,0,4.769-.068.386.386,0,0,1,.486,0,2.434,2.434,0,1,0,0-.349.691.691,0,0,0-.523,0,2.385,2.385,0,0,0-4.751.112h-2.21a3.736,3.736,0,0,0-2.652,1.1l-.722.722Zm11.157-1.669A2.092,2.092,0,1,1,39.7,12.476h0a2.092,2.092,0,0,1-2.092-2.092h0Zm-5.267,0a2.092,2.092,0,1,1,2.092,2.092,2.092,2.092,0,0,1-2.092-2.092h0Z" fill="#ff2d2d"/>
    <path id="Path_14392" data-name="Path 14392" d="M28.747,8.061a5.6,5.6,0,0,1-.031,3.736A1.8,1.8,0,0,0,28,11.6a.878.878,0,0,0-.809.336,1.245,1.245,0,0,0-.037,1.027c.374,1.532.791,3.057,1.245,4.564a14.812,14.812,0,0,1-4.209-9.146c1.432-.112,3.119-.2,4.557-.324Z" fill="#263238"/>
    <path id="Path_14393" data-name="Path 14393" d="M24.743,13.714A4.644,4.644,0,0,0,27.6,15.757c1.575.342,2.279-1.077,1.768-2.522-.455-1.3-1.824-3.044-3.368-2.752a2.051,2.051,0,0,0-1.258,3.231Z" fill="#ff887b"/>
    <path id="Path_14394" data-name="Path 14394" d="M37.308,10.4a13.434,13.434,0,0,0,2.316,2.964,2.266,2.266,0,0,1-1.787.691Z" fill="#ba4d3c"/>
    <path id="Path_14395" data-name="Path 14395" d="M24.3,25.046s.093,5.417,6.456,7.253l4.838,2.976,3.026-4.115s1.177-3.113-1.924-6.357l-.672-.05a10.28,10.28,0,0,1-1.7,5.255c-.361.548-8.293-4.906-8.766-5.236l-1.258.274Z" fill="#407bff"/>
    <g id="Group_13237" data-name="Group 13237" opacity="0.4">
      <path id="Path_14396" data-name="Path 14396" d="M25.553,24.772l8.959,8.455.349-.623a11.586,11.586,0,0,0,1.158-7.839,10.279,10.279,0,0,1-1.7,5.255c-.361.548-8.293-4.919-8.766-5.248Z" fill="#fff"/>
    </g>
    <path id="Path_14397" data-name="Path 14397" d="M36.019,24.76s4.028,1.7,5.51,12.589,2.017,31.317,1.613,40.862-.94,15.727,2.017,15.322c0,0,.268-15.322,0-32.375s1.476-36.086-9.14-36.4Z" fill="#407bff"/>
    <path id="Path_14398" data-name="Path 14398" d="M36.019,24.76s4.028,1.7,5.51,12.589,2.017,31.317,1.613,40.862-.94,15.727,2.017,15.322c0,0,.268-15.322,0-32.375s1.476-36.086-9.14-36.4Z" fill="#fff" opacity="0.7"/>
    <path id="Path_14399" data-name="Path 14399" d="M23.922,24.76s4.838,2.683,5.373,19.712.361,49.285-5.373,49.808-12.01-2.7-12.01-2.7.411-6.176,1.482-14c.891-6.531,2.41-14.214,3-20.409.679-7.166-3.225-26.884-.716-28.858s8.243-3.555,8.243-3.555h0Z" fill="#407bff"/>
    <path id="Path_14400" data-name="Path 14400" d="M23.922,24.76s4.838,2.683,5.373,19.712.361,49.285-5.373,49.808-12.01-2.7-12.01-2.7.411-6.176,1.482-14c.891-6.531,2.41-14.214,3-20.409.679-7.166-3.225-26.884-.716-28.858s8.243-3.555,8.243-3.555h0Z" fill="#fff" opacity="0.7"/>
    <path id="Path_14401" data-name="Path 14401" d="M24.154,73.149l-3.95-.568a2.036,2.036,0,0,1-1.725-2.3h0l.11-.764L26.6,70.664l-.105.733a2.036,2.036,0,0,1-2.277,1.761l-.063-.009h0Z" fill="#407bff"/>
    <path id="Path_14402" data-name="Path 14402" d="M24.154,73.149l-3.95-.568a2.036,2.036,0,0,1-1.725-2.3h0l.11-.764L26.6,70.664l-.105.733a2.036,2.036,0,0,1-2.277,1.761l-.063-.009h0Z" fill="#ff2d2d"/>
    <g id="Group_13238" data-name="Group 13238" opacity="0.4">
      <path id="Path_14403" data-name="Path 14403" d="M36.243,51.824a26.771,26.771,0,0,0-15.422-4.856A59.571,59.571,0,0,1,17.77,68.3c5.105,2.061,10.086,3.356,15.6,2.957a54.138,54.138,0,0,0,2.871-19.438h0ZM33.2,70.471c-4.981.38-9.507-.816-14.139-2.683a53.843,53.843,0,0,0,2.758-19.3,24.282,24.282,0,0,1,13.978,4.4,49.921,49.921,0,0,1-2.6,17.582h0Z" fill="#fff"/>
    </g>
    <path id="Path_14404" data-name="Path 14404" d="M33.192,70.471c-4.981.38-9.495-.816-14.133-2.683a53.843,53.843,0,0,0,2.758-19.3,24.219,24.219,0,0,1,13.971,4.4,49.664,49.664,0,0,1-2.6,17.582h0Z" opacity="0.7"/>
    <path id="Path_14405" data-name="Path 14405" d="M28.772,60.03c-.286.7-.865,1.438-1.245,2.185l-.181.037a3.916,3.916,0,0,1-2.627-.5A7.223,7.223,0,0,1,23.125,60a11.207,11.207,0,0,1,4.638-6.326c.093-.056.187.044.268.118a.86.86,0,0,1,.162.286c.231.56.461,1.089.666,1.669a2.441,2.441,0,0,1,.249,1.675,5.6,5.6,0,0,1-.336,2.609h0Z" fill="#fff"/>
    <path id="Path_14406" data-name="Path 14406" d="M26.717,64.289c.056,1.868,0,1.787-.567,2.49a1.656,1.656,0,0,1-1.694.691,2.436,2.436,0,0,0,.305-.081,41.428,41.428,0,0,1-2.086-6.774,4.66,4.66,0,0,1,.112-.467h.087a6.562,6.562,0,0,0,1.631,1.8,3.388,3.388,0,0,0,2.609.523l.087.05c-.355.187-.5,1.208-.486,1.768h0Z" fill="#fff"/>
    <path id="Path_14407" data-name="Path 14407" d="M24.488,67.452a2.71,2.71,0,0,1-.324.056,4.833,4.833,0,0,1-1.812-.131c-1.637-1.177-1.426-2.528-1.3-3.81A5.778,5.778,0,0,1,22.409,60.4v.249a29.508,29.508,0,0,0,2.08,6.8h0Z" fill="#fff"/>
    <path id="Path_14408" data-name="Path 14408" d="M22.963,60.142a.354.354,0,0,0-.068.069.069.069,0,0,1,0-.031c.019.037.044-.075.068-.037Z" fill="#fff"/>
    <path id="Path_14409" data-name="Path 14409" d="M34.363,60.491l-.081.174c-1.712,3.511-2.989,6.313-3.325,6.637v.031c-.349.205-.5-.448-.4-1.146s.33-1.4.448-2.017a4.588,4.588,0,0,0-.349-2.764A8.947,8.947,0,0,1,31.9,54.327a4.14,4.14,0,0,1,2.185,2.329c.374,1.133.922,2.447.28,3.835h0Z" fill="#fff"/>
    <path id="Path_14410" data-name="Path 14410" d="M33.248,67.464a1.071,1.071,0,0,1-.486.735.461.461,0,0,1-.429,0c-.162-.05-.342-.1-.567-.181a.623.623,0,0,1-.33-.206.716.716,0,0,1-.118-.511c.392-.367,1.463-3.113,3.312-6.7-.436,2.241-.368,4.383-1.382,6.861h0Z" fill="#fff"/>
    <path id="Path_14411" data-name="Path 14411" d="M30.969,59.277a10.658,10.658,0,0,1-1.245-.38,11.912,11.912,0,0,1-1.868.4,5.566,5.566,0,0,0,.056-.623l.268-.068a2.276,2.276,0,0,0,1.445-2.024,39.973,39.973,0,0,0,.511-4.526,1.245,1.245,0,0,0-.155-.623c0-.293-.231-.461-.374-.772s0-.429.162-.486.623.2.809.51a.429.429,0,0,1,.607.014l.015.017a.585.585,0,0,1,.187.579c-.087.224-.243.255-.274.517a.909.909,0,0,0-.162.467,37.79,37.79,0,0,1-.623,4.358c-.174.94-.05,1.762.436,1.949l.168.062a3.59,3.59,0,0,1,.037.623h0Z" fill="#fff"/>
    <path id="Path_14412" data-name="Path 14412" d="M11.544,51.737l5.473,3.549,3.219-.591a1.638,1.638,0,0,1,1.083.174l2.03,1.108a1.625,1.625,0,0,1,.834,1.2l.149,1.052a1.619,1.619,0,0,1-.2,1.046l-.535.946a1.631,1.631,0,0,1-1.606.809l-3.96-.442a1.581,1.581,0,0,1-.847-.355l-2.2-1.781L8.064,54.943l3.48-3.206Z" fill="#ff887b"/>
    <path id="Path_14413" data-name="Path 14413" d="M13.151,57.185a1.581,1.581,0,0,1-1.905.666,14.1,14.1,0,0,1-7.34-5.828C1.134,47.149,10.2,33.594,13.2,30.4a9.4,9.4,0,0,1,7.073-3.268c4.981-.393,3.231,3.692.623,8.567S11.37,46.85,10.872,48.251c-.318.9,2.223,2.7,4.084,3.879a1.575,1.575,0,0,1,.274,2.447,13.261,13.261,0,0,0-2.079,2.608h0Z" fill="#407bff"/>
    <path id="Path_14414" data-name="Path 14414" d="M13.151,57.185a1.581,1.581,0,0,1-1.905.666,14.1,14.1,0,0,1-7.34-5.828C1.134,47.149,10.2,33.594,13.2,30.4a9.4,9.4,0,0,1,7.073-3.268c4.981-.393,3.231,3.692.623,8.567S11.37,46.85,10.872,48.251c-.318.9,2.223,2.7,4.084,3.879a1.575,1.575,0,0,1,.274,2.447,13.261,13.261,0,0,0-2.079,2.608h0Z" fill="#fff" opacity="0.7"/>
    <path id="Path_14415" data-name="Path 14415" d="M36.143,16.161a3.262,3.262,0,0,1-2.092-1.513.112.112,0,0,1,.04-.153l0,0a.131.131,0,0,1,.156.05,3.113,3.113,0,0,0,2.36,1.476.106.106,0,0,1,.106.118.112.112,0,0,1-.112.112,2.753,2.753,0,0,1-.461-.087h0Z" fill="#263238"/>
    <path id="Path_14416" data-name="Path 14416" d="M33.1,8.074a4.567,4.567,0,0,0,3.536-3.991C38.322,4.494,39.418,6,40.29,7.5a.834.834,0,0,0,1.245.243,1.3,1.3,0,0,0,.318-1.189,3.737,3.737,0,0,0-.542-1.189c-.324-.536-.654-1.077-1.015-1.594a5.56,5.56,0,0,0-4.651-2.409h-.125a7.256,7.256,0,0,0-8.592,1.413,10.584,10.584,0,0,0-3.592,6.649L33.1,8.074Z" fill="#263238"/>
    <path id="Path_14417" data-name="Path 14417" d="M23.025,42.89a.2.2,0,0,0,.229-.164v-.01a.212.212,0,0,0-.075-.193l-.76-.567a4.358,4.358,0,0,1-1.6-4.694l2.241-8.032a2.771,2.771,0,0,1,5.379.193L30.1,37.592a4.358,4.358,0,0,1-1.918,4.564l-.8.523a.2.2,0,0,0-.053.276l0,0a.205.205,0,0,0,.286.05h0l.8-.517a4.788,4.788,0,0,0,2.086-4.981l-1.694-8.187a3.175,3.175,0,0,0-6.17-.218l-2.259,8.044a4.775,4.775,0,0,0,1.762,5.13l.766.567a.143.143,0,0,0,.112.044h0Z" fill="#263238"/>
    <path id="Path_14418" data-name="Path 14418" d="M22.4,30.955a.193.193,0,0,0,.224-.137,3.287,3.287,0,0,1,6.146.212.205.205,0,0,0,.4-.068,3.692,3.692,0,0,0-6.918-.268.205.205,0,0,0,.131.255l.012.006Z" fill="#263238"/>
    <path id="Path_14419" data-name="Path 14419" d="M25.814,27.206a.2.2,0,0,0,.218-.174c.106-1,.542-2.777,1.551-3.113a.205.205,0,1,0-.131-.386c-1.463.473-1.774,3.113-1.8,3.443a.193.193,0,0,0,.149.228l.013,0h0Z" fill="#263238"/>
    <path id="Path_14420" data-name="Path 14420" d="M27.035,42.828c0,.386.181.7.436.71s.467-.293.479-.672-.174-.71-.429-.716-.473.292-.486.678Z" fill="#263238"/>
    <path id="Path_14421" data-name="Path 14421" d="M22.6,42.672c0,.386.181.7.436.716s.467-.3.479-.685-.181-.7-.436-.71-.473.293-.479.679Z" fill="#263238"/>
    <path id="Path_14422" data-name="Path 14422" d="M34.867,36.022c.044.878.554,1.575,1.108,1.538s1-.748.965-1.644-.554-1.569-1.108-1.538-1.009.766-.965,1.644Z" fill="#263238"/>
    <path id="Path_14423" data-name="Path 14423" d="M36.635,36.066h.044a.205.205,0,0,0,.224-.181c.442-3.418-.5-9.4-2.353-11.649a.205.205,0,0,0-.28-.075.212.212,0,0,0-.075.286.143.143,0,0,0,.044.044c1.781,2.2,2.7,7.969,2.266,11.331a.205.205,0,0,0,.131.243Z" fill="#263238"/>
    <path id="Path_14424" data-name="Path 14424" d="M34.257,36c0,.741.429,1.351.971,1.357s.99-.623,1-1.351-.436-1.351-.977-1.351-1,.6-1,1.345Z" fill="#fff"/>
    <path id="Path_14425" data-name="Path 14425" d="M34.2,36.054c0,.921.38,1.669.8,1.662s.748-.772.729-1.7-.38-1.669-.8-1.662-.747.772-.722,1.7Z" fill="#263238"/>
  </g>
</svg>
