<svg xmlns="http://www.w3.org/2000/svg" width="21.562" height="21.098"><path data-name="Path 4026" d="M17.16 2.615V.604a.604.604 0 1 0-1.207 0v2.011a.604.604 0 0 0 1.207 0Z" fill="#19468b"/><path data-name="Path 4027" d="M2.676 2.615V.604a.604.604 0 0 0-1.207 0v2.011a.604.604 0 0 0 1.207 0Z" fill="#19468b"/><path data-name="Path 4028" d="M7.504 2.615V.604a.604.604 0 1 0-1.207 0v2.011a.604.604 0 0 0 1.207 0Z" fill="#19468b"/><path data-name="Path 4029" d="M12.332 2.615V.604a.604.604 0 1 0-1.207 0v2.011a.604.604 0 0 0 1.207 0Z" fill="#19468b"/><path data-name="Path 4030" d="M17.789 1.609v1.006a1.232 1.232 0 1 1-2.465 0V1.609h-2.363v1.006a1.232 1.232 0 1 1-2.465 0V1.609H8.132v1.006a1.232 1.232 0 0 1-2.465 0V1.609H3.304v1.006a1.232 1.232 0 0 1-2.465 0V1.609H0v16.9h11.844a5.624 5.624 0 0 1 .488-4.641 6.871 6.871 0 0 1 1.591-1.674 7.624 7.624 0 0 1 2.25-1.016 3.8 3.8 0 0 1 1.012-.088 5.617 5.617 0 0 1 1.322.157V1.609Z" fill="#19468b"/><path data-name="Path 4031" d="M17.187 12.346a4.376 4.376 0 1 0 4.376 4.376 4.376 4.376 0 0 0-4.376-4.376Zm.284 7.813v-.483a.284.284 0 1 0-.569 0v.481a3.45 3.45 0 0 1-3.153-3.153h.481a.284.284 0 1 0 0-.569h-.481a3.45 3.45 0 0 1 3.153-3.153v.481a.284.284 0 0 0 .569 0v-.481a3.45 3.45 0 0 1 3.153 3.153h-.481a.284.284 0 1 0 0 .569h.481a3.45 3.45 0 0 1-3.153 3.153Z" fill="#19468b"/><path data-name="Path 4032" d="M16.963 17.188a.539.539 0 0 0 .808-.139l1.562-2.4-2.382 1.716a.54.54 0 0 0 .012.82Z" fill="#19468b"/></svg>