<svg id="Group_1199" data-name="Group 1199" xmlns="http://www.w3.org/2000/svg" xmlns:xlink="http://www.w3.org/1999/xlink" width="459.727" height="264.213" viewBox="0 0 459.727 264.213">
  <defs>
    <clipPath id="clip-path">
      <rect id="Rectangle_734" data-name="Rectangle 734" width="459.727" height="264.213" fill="none"/>
    </clipPath>
    <clipPath id="clip-path-2">
      <rect id="Rectangle_733" data-name="Rectangle 733" width="459.726" height="264.212" fill="none"/>
    </clipPath>
    <clipPath id="clip-path-3">
      <rect id="Rectangle_720" data-name="Rectangle 720" width="76.273" height="45.487" fill="none"/>
    </clipPath>
    <clipPath id="clip-path-4">
      <rect id="Rectangle_721" data-name="Rectangle 721" width="33.09" height="46.742" fill="none"/>
    </clipPath>
    <clipPath id="clip-path-5">
      <rect id="Rectangle_722" data-name="Rectangle 722" width="47.638" height="57.621" fill="none"/>
    </clipPath>
    <clipPath id="clip-path-6">
      <rect id="Rectangle_723" data-name="Rectangle 723" width="25.754" height="54.803" fill="none"/>
    </clipPath>
    <clipPath id="clip-path-7">
      <rect id="Rectangle_724" data-name="Rectangle 724" width="131.531" height="132.367" fill="none"/>
    </clipPath>
    <clipPath id="clip-path-8">
      <rect id="Rectangle_725" data-name="Rectangle 725" width="146.574" height="81.631" fill="none"/>
    </clipPath>
    <clipPath id="clip-path-9">
      <rect id="Rectangle_726" data-name="Rectangle 726" width="169.298" height="105.08" fill="none"/>
    </clipPath>
    <clipPath id="clip-path-10">
      <rect id="Rectangle_727" data-name="Rectangle 727" width="51.172" height="43.902" fill="none"/>
    </clipPath>
    <clipPath id="clip-path-11">
      <rect id="Rectangle_731" data-name="Rectangle 731" width="19.632" height="1.293" fill="none"/>
    </clipPath>
    <clipPath id="clip-path-12">
      <rect id="Rectangle_732" data-name="Rectangle 732" width="18.8" height="10.128" fill="none"/>
    </clipPath>
  </defs>
  <g id="Group_1198" data-name="Group 1198" clip-path="url(#clip-path)">
    <g id="Group_1197" data-name="Group 1197" transform="translate(0 0.001)">
      <g id="Group_1196" data-name="Group 1196" clip-path="url(#clip-path-2)">
        <g id="Group_1168" data-name="Group 1168" transform="translate(280.274 107.855)" opacity="0.32">
          <g id="Group_1167" data-name="Group 1167">
            <g id="Group_1166" data-name="Group 1166" clip-path="url(#clip-path-3)">
              <path id="Path_4295" data-name="Path 4295" d="M1636.341,675.185s24.513-49.247,67.346-45.257c0,0,8.305.9,8.91,10.419s-15.46,5.823-26.219,7.073-37.44,10.99-50.038,27.765" transform="translate(-1636.341 -629.698)" fill="#e4ebf6"/>
            </g>
          </g>
        </g>
        <g id="Group_1171" data-name="Group 1171" transform="translate(294.386 90.864)" opacity="0.32">
          <g id="Group_1170" data-name="Group 1170">
            <g id="Group_1169" data-name="Group 1169" clip-path="url(#clip-path-4)">
              <path id="Path_4296" data-name="Path 4296" d="M1718.741,577.239s-1.28-35.422,24.2-46.346a6.769,6.769,0,0,1,8.25,3.156c3.272,5.2-6.96,8.054-12.666,12.073s-17.813,17.744-19.781,31.117" transform="translate(-1718.731 -530.497)" fill="#e4ebf6"/>
            </g>
          </g>
        </g>
        <g id="Group_1174" data-name="Group 1174" transform="translate(240.343 15.435)" opacity="0.16">
          <g id="Group_1173" data-name="Group 1173">
            <g id="Group_1172" data-name="Group 1172" clip-path="url(#clip-path-5)">
              <path id="Path_4297" data-name="Path 4297" d="M1403.209,147.745s2.4-46.087,36.69-57.337c0,0,6.691-2.084,10.339,5.038s-9.949,9.648-17.809,14.208-25.135,20.972-29.22,38.091" transform="translate(-1403.209 -90.123)" fill="#566273"/>
            </g>
          </g>
        </g>
        <g id="Group_1177" data-name="Group 1177" transform="translate(235.772 10.129)" opacity="0.16">
          <g id="Group_1176" data-name="Group 1176">
            <g id="Group_1175" data-name="Group 1175" clip-path="url(#clip-path-6)">
              <path id="Path_4298" data-name="Path 4298" d="M1378.786,113.94s-10.307-35.942,13-53.6c0,0,4.577-3.36,9.249,1.135s-5.08,10.014-9.9,15.578-13.73,22.691-12.349,36.883" transform="translate(-1376.516 -59.137)" fill="#566273"/>
            </g>
          </g>
        </g>
        <g id="Group_1180" data-name="Group 1180" transform="translate(40.579 79.061)" opacity="0.16">
          <g id="Group_1179" data-name="Group 1179">
            <g id="Group_1178" data-name="Group 1178" clip-path="url(#clip-path-7)">
              <path id="Path_4299" data-name="Path 4299" d="M333.395,473.49s9.874,31.4,3.94,32.828-8.49-35.762-8.49-35.762-31.464-11.021-43-8.587c0,0,22.207,29.261,16.093,29.178s-30.626-29.469-30.626-29.469-31.175-2.258-33.9,16.4,6.273,26.832,10.927,27.46,33.6-2.983,33.3.874-19.153,12.079-30.479,9.9c0,0,15.626,28.465,31.257,25.192s19.348-13.63,29.046-15.477,17.168,0,12.591,3.184-21.356,3.26-28.454,10.878-13,12.483,2.046,13.864,41.173-3.446,45.086-15.354l.489-1.489a5.98,5.98,0,0,1-.489,1.489c2.9,1.281,7.867,8.38,11.382,13.86.52.941,1.319,2.235,2.486,3.982h0c.483.795.872,1.446,1.141,1.9,6.734,12.4,6.682,35.121,6.682,35.121l3.238.495C371.9,570.6,357.485,553.4,357.485,553.4c-9.673-13.834-10.836-26.705-10.836-26.705s26.334-19,10.576-39.036c0,0-12.127-12.031-23.829-14.166" transform="translate(-236.915 -461.593)" fill="#566273"/>
            </g>
          </g>
        </g>
        <g id="Group_1183" data-name="Group 1183" transform="translate(72.825 168.99)" opacity="0.32">
          <g id="Group_1182" data-name="Group 1182">
            <g id="Group_1181" data-name="Group 1181" clip-path="url(#clip-path-8)">
              <path id="Path_4300" data-name="Path 4300" d="M482.037,991.992s23.945,13.079,21.236,17.385-25.631-16.5-25.631-16.5-25.061,11.69-30.524,19.856c0,0,30.051,4.625,26.366,8.131s-35.18.146-35.18.146-19.847,16.774-10.728,29.539,19.173,12.434,22.3,10.1,18.272-21.324,20.314-18.838-4.444,18.376-12.436,23.657c0,0,25.678,7.975,33.094-3.076s3.667-19.42,8.375-26.166,10.213-9.985,9.324-5.413-10.83,14.371-10.668,23.065-.551,15.041,9.2,7.12,22.513-26.007,17.988-35.419l-.566-1.177a5,5,0,0,1,.566,1.177c2.462-.918,9.5.448,14.748,1.689.851.262,2.071.572,3.771.941h0c.745.2,1.35.36,1.772.476,11.143,3.518,24.187,17.165,24.187,17.165l2.211-1.587c-10.923-16.469-29.4-18.391-29.4-18.391-13.716-2.667-21.815-9.705-21.815-9.705s4.735-26.7-16.172-29.546c0,0-14.138-.159-22.33,5.365" transform="translate(-425.181 -986.626)" fill="#e9eef6"/>
            </g>
          </g>
        </g>
        <g id="Group_1186" data-name="Group 1186" transform="translate(254.93 136.613)" opacity="0.16">
          <g id="Group_1185" data-name="Group 1185">
            <g id="Group_1184" data-name="Group 1184" clip-path="url(#clip-path-9)">
              <path id="Path_4301" data-name="Path 4301" d="M1657.21,844.753c4.817-21.354-29.823-32.213-29.823-32.213s-38.717,21.345-45.361,18.825,29.529-24.712,29.529-24.712C1600.1,799.1,1561.5,797.6,1561.5,797.6s-18.226,39.158-24.047,35.082,17.909-33.848,17.909-33.848c-13.539-2.682-31.651,5.164-31.651,5.164-25.368,14.962-4.8,46.761-4.8,46.761s-6.61,13.434-22.818,24.279h0a50.907,50.907,0,0,0-7.725,5.594l3.186,1.686q1.068-1.073,2.172-2.012a.021.021,0,0,1,.014-.011l.032-.027c.478-.376,1.162-.91,2-1.555l0,0s0,0,0,0c1.98-1.388,3.382-2.446,4.335-3.241l.008-.008c6.077-4.431,14.4-9.991,18.063-10.141a6.974,6.974,0,0,1,.09-1.82c-.029.58-.058,1.186-.09,1.82-.722,14.557,25.516,30.93,42.355,35.856s12.481-2.858,7.976-14.132-22.614-18.512-26.236-23.915,5.219-4.21,14.935,1.927,9.428,18.932,24.965,29.145,44.265-13.927,44.265-13.927c-13.149-2.476-30.111-19.419-28.832-23.721s31.068,11.957,36.36,13.263,18.413-3.7,23.23-25.057" transform="translate(-1488.371 -797.598)" fill="#566273"/>
            </g>
          </g>
        </g>
        <path id="Path_4302" data-name="Path 4302" d="M1931.013,323.293c3.336,8.79,31.926,31.873,31.926,31.873s9.319-7.571,17.949-15.725c6.459-6.035,12.495-12.39,13.925-16.149,3.388-8.735-.212-21.231-12.707-23.348-12.442-2.119-19.166,10.907-19.166,10.907s-6.724-13.026-19.219-10.907a16.991,16.991,0,0,0-5.718,2.013c-7.783,4.34-9.742,14.136-6.989,21.336" transform="translate(-1599.29 -248.377)" fill="#da3a2c"/>
        <path id="Path_4303" data-name="Path 4303" d="M1899.206,397.362l-2.948-15.482-1.287,6.614h-17.377v-1.046h16.515l2.16-11.1,3.083,16.19,1.387-5.466h3l2.047-9.531,2.621,14.533,1.377-5.565h6.2l2.281-7.478,2,13.095,1.6-5.616h5.129l1.505-8.211,3.237,12.919,1.172-4.707h6.632l.347,3.922,3.652-14.279,2.4,10.395h10.786v1.046H1945.1l-1.62-7.017-4.1,16.042-.8-9.062h-4.857l-1.987,7.977-3.081-12.3-.792,4.322h-5.211l-2.7,9.469-2.026-13.291-1.166,3.821H1910.6l-2.357,9.521-2.549-14.137-1.112,5.179h-3.032Z" transform="translate(-1555.998 -311.725)" fill="#fff"/>
        <path id="Path_4304" data-name="Path 4304" d="M753.068,316.58c4.855,5.362,14.909,15.649,26.573,22.9L764.8,353.093s-21.787-10.251-28.311-25.868a7.018,7.018,0,0,1,3.262-8.929l5.9-3.052a6.169,6.169,0,0,1,7.413,1.335" transform="translate(-609.897 -260.676)" fill="#c95d43"/>
        <path id="Path_4305" data-name="Path 4305" d="M1097.084,276.479s1.995-35.43-45.515-33.573-60.542,37.137-60.542,37.137Z" transform="translate(-821.283 -201.243)" fill="#da3626"/>
        <path id="Path_4306" data-name="Path 4306" d="M844.114,74.772S822.011,7.162,774.036.087a8.008,8.008,0,0,0-7.8,3.5l-5.168,7.733a8.386,8.386,0,0,0,3.917,12.487c13.152,5.081,35.727,20.208,50.728,65.21Z" transform="translate(-629.53 -0.003)" fill="#c95d43"/>
        <path id="Path_4307" data-name="Path 4307" d="M1569.567,155.059s18.007-55.079,57.08-61.185a7.09,7.09,0,0,1,6.969,3.087l3.315,4.96a7.964,7.964,0,0,1-3.548,11.776c-10.906,4.565-28.622,17.336-40.524,53.042Z" transform="translate(-1300.73 -77.726)" fill="#c95d43"/>
        <path id="Path_4308" data-name="Path 4308" d="M1022.593,398.076c-.982,59.054-33.227,130.227-67.04,130.227-3.438,0-8.966.577-12.285,0-70.926-12.308-111.688-151.6-72.662-186.6,32.253-28.927,68.417-16.778,68.417-16.778,48.269-14.278,72.271,7.067,80.356,40.6a109.651,109.651,0,0,1,2.164,11.943q.339,2.68.568,5.426a151.412,151.412,0,0,1,.481,15.189" transform="translate(-708.94 -265.537)" fill="#da3a2c"/>
        <path id="Path_4309" data-name="Path 4309" d="M956.653,302.365s-22.085-14.47-46.688-7.043-33.226,43.232-33.226,43.232,5.837,9.224,23.013-10.737,56.9-25.452,56.9-25.452" transform="translate(-726.57 -242.983)" fill="#d3322a"/>
        <path id="Path_4310" data-name="Path 4310" d="M1048.2,367.979s15-6.963,22.427,1.857,2.321,45.493,16.711,64.526,18.1,25.068,18.568,38.994a68.7,68.7,0,0,0-13-40.077c-14.053-19.3-11.428-61.517-14.545-70.251s8.726-12.129,8.726-12.129-14.3-4.392-22.653,0-16.237,17.081-16.237,17.081" transform="translate(-868.663 -289.178)" fill="#d3322a"/>
        <path id="Path_4311" data-name="Path 4311" d="M1137.378,789.167c-1.064,1.283,18.811-30.109,15.878-47.373l3.861,5.285s1.306,16.712-19.739,42.089" transform="translate(-942.533 -614.739)" fill="#d3322a"/>
        <path id="Path_4312" data-name="Path 4312" d="M1224.306,519.692s7.118,6.852,24.449,8.687,26,8.643,29.091,21.642c0,0-4.874-17.1-23.907-17.1s-29.632-6.963-29.632-6.963Z" transform="translate(-1014.605 -430.679)" fill="#d3322a"/>
        <path id="Path_4313" data-name="Path 4313" d="M1577.538,595.666c-2.867,1.163-6.027,3.933-8.6,9.919-2.537,5.913-25.485,24.516-28.536,40.8a47.709,47.709,0,0,1-14.029,25.64c6.8-6.863,8.077-11.615,10.83-27.937a29.856,29.856,0,0,1,1.671-5.9,44.058,44.058,0,0,1,2.641-5.51,91.79,91.79,0,0,1,9.048-12.776c.941-1.151,1.872-2.266,2.775-3.342,4-4.766,7.431-8.772,8.481-11.641,3.417-9.335,9.718-17.066,13.555-21.2a109.686,109.686,0,0,1,2.164,11.943" transform="translate(-1264.935 -483.743)" fill="#d3322a"/>
        <path id="Path_4314" data-name="Path 4314" d="M1436.968,876.866c-1.154.074,24.158-4.844,31.477-14.547l-.829,4.466s-7.815,8.618-30.648,10.081" transform="translate(-1190.811 -714.621)" fill="#d3322a"/>
        <path id="Path_4315" data-name="Path 4315" d="M1500.632,752.333s-6.515,2.138-17.9-1.938-18.857-2.431-24.709,4.762c0,0,8.2-9.22,20.1-3.484s20.624,4.578,20.624,4.578Z" transform="translate(-1208.289 -620.056)" fill="#d3322a"/>
        <path id="Path_4316" data-name="Path 4316" d="M1537.7,395.064s-10.96-18.259-22.982-19.278-16.709,1.223-15.486,6.521,10.761,3.558,17.4,9.012,23.875,13.649,21.066,3.745" transform="translate(-1242.286 -311.224)" fill="#d3322a"/>
        <g id="Group_1189" data-name="Group 1189" transform="translate(189.236 205.028)" opacity="0.5">
          <g id="Group_1188" data-name="Group 1188">
            <g id="Group_1187" data-name="Group 1187" clip-path="url(#clip-path-10)">
              <path id="Path_4317" data-name="Path 4317" d="M1104.833,1200.969s12.484,31.221,29.311,37.18,23.347,1.49,21.579-5.363-9.55-3.8-20.315-13.966-30.034-30.3-30.576-17.851" transform="translate(-1104.833 -1197.029)" fill="#c8542b"/>
            </g>
          </g>
        </g>
        <path id="Path_4318" data-name="Path 4318" d="M717.79,797.208a12.8,12.8,0,0,1-7.526-2.673c-6.838-4.927-13.292-16.447-19.184-34.239a177.127,177.127,0,0,1-6.155-23.886l-.371-2.711c.024.118,3.1,13.02,7.442,26.136,3.991,12.049,10.486,27.663,18.76,33.625,3.51,2.529,7.114,3.147,10.711,1.837,14.783-5.383,12.027-53.649,12-54.136l.984-.094a193.392,193.392,0,0,1-.426,25.412,80.614,80.614,0,0,1-3.565,18.747c-2.137,6.146-5.07,9.935-8.716,11.263a11.49,11.49,0,0,1-3.952.72" transform="translate(-567.304 -608.031)" fill="#bcc5b6"/>
        <path id="Path_4319" data-name="Path 4319" d="M555.2,988.133a1.653,1.653,0,0,1,.851.259,12.1,12.1,0,0,0,2.493.254c.616-.1.472.682.018,1.063-.152.127-.849.041-1.054.087a16.024,16.024,0,0,1,2.181,5.163s.613,1.957-1.335.993c-1.3-.645-1.457-1.393-3.278-2.332s-3.059-2.642-2.923-4.149l-.525-1.627,2.44-1.6Z" transform="translate(-457.146 -817.317)" fill="#d9e6e9"/>
        <path id="Path_4320" data-name="Path 4320" d="M504.367,661.848s-10.826,7.568-15.925,29.276c-1.546,6.582,10.127,29.07,10.127,29.07s3.078-.742,3.481-2.811c0,0-3.3-18.294-4.316-21.519-.565-1.787,10.584-11.827,12.027-16.846s-5.395-17.17-5.395-17.17" transform="translate(-404.665 -548.487)" fill="#d9e6e9"/>
        <path id="Path_4321" data-name="Path 4321" d="M497.5,1480.246s.451,7.273,1.858,7.377c.187.014,7.136.014,7.136.014l8.871-.051a2.879,2.879,0,0,0-2.651-2.589c-2.593-.452-6.933-2.274-8.5-5.7-1.653-3.605-6.71.952-6.71.952" transform="translate(-412.285 -1224.77)" fill="#18385e"/>
        <path id="Path_4322" data-name="Path 4322" d="M494.511,1060.1a18.493,18.493,0,0,0,4.8.9,17.627,17.627,0,0,0,4.483-.64,122.72,122.72,0,0,1,3.3-15.728c1.465-5.67,3.557-12.961,6.533-22.02,8.228-25.037,10.731-39.684,10.959-41.071.012-.073.017-.109.017-.109l-.027-.012-25.3-11.107s3.127,34.507-.862,47.752a55.825,55.825,0,0,0-1.448,6.346c-2.519,14.387-2.461,35.688-2.461,35.688" transform="translate(-409.811 -804.119)" fill="#2f3f58"/>
        <path id="Path_4323" data-name="Path 4323" d="M508.88,1024.412l10.126,20.222c1.465-5.67,3.557-12.961,6.533-22.02,8.228-25.037,10.731-39.684,10.959-41.071,0-.041-.005-.08-.01-.121l-25.3-11.107s3.127,34.507-.862,47.752a55.785,55.785,0,0,0-1.448,6.346" transform="translate(-421.718 -804.118)" fill="#273b60"/>
        <path id="Path_4324" data-name="Path 4324" d="M612.854,1480.246s.451,7.273,1.858,7.377c.187.014,7.136.014,7.136.014l8.871-.051a2.878,2.878,0,0,0-2.651-2.589c-2.593-.452-6.933-2.274-8.5-5.7-1.652-3.605-6.71.952-6.71.952" transform="translate(-507.884 -1224.77)" fill="#18385e"/>
        <path id="Path_4325" data-name="Path 4325" d="M566.456,975.062a360.131,360.131,0,0,1-3.54,49.816c-3.869,27.455-2.557,39.109-2.557,39.109a26.352,26.352,0,0,1-3.731.949,16.922,16.922,0,0,1-5.535-.641s-5.538-27.465-3.95-41.207-7.583-47.155-7.583-47.155Z" transform="translate(-447.143 -808.053)" fill="#2f3f58"/>
        <path id="Path_4326" data-name="Path 4326" d="M602.738,617.651a4.689,4.689,0,0,0,.016.548l-5.958,1.111-4.937-3.236a10.633,10.633,0,0,0,.573-1.424q.064-.193.128-.409a17.465,17.465,0,0,0,.636-3.077,18.6,18.6,0,0,0,.063-3.619c0-.063-.01-.126-.016-.191s-.014-.159-.027-.3c-.061-.644-.187-2-.192-2.036l2.064.909.42.186s.426.088,1.064.246c.619.155,1.44.381,2.266.66A7.359,7.359,0,0,1,602,608.744a1.188,1.188,0,0,1,.175.31c.018.049.037.1.053.153a14.427,14.427,0,0,1,.493,3.462c.037.738.049,1.49.051,2.191,0,.738-.01,1.42-.018,1.977-.006.318-.01.593-.012.815" transform="translate(-490.485 -501.391)" fill="#f3ab9b"/>
        <path id="Path_4327" data-name="Path 4327" d="M529.683,713.772c-.1,11.8-.888,39.415-1.469,39.975-6.146,5.933-33.187-1.627-34.62-8.165s5.449-83.822,15.948-86.908c1.409-.414,6.785,1.016,10.4,2.078a6.816,6.816,0,0,1,4.6,4.563c.585,1.923,1.287,4.494,1.849,7.354.146.739.4,2.961.7,5.995.3,2.959.645,6.692.987,10.571.379,4.284.751,8.748,1.051,12.545.223,2.867.407,5.353.513,7.1.045.719.055,2.475.035,4.894" transform="translate(-408.895 -545.796)" fill="#eff1f1"/>
        <path id="Path_4328" data-name="Path 4328" d="M610.906,617.022a28.569,28.569,0,0,1-7.6-3.878h0a6.4,6.4,0,0,1-1.286-1.371c-.029-.045-.055-.088-.082-.132-.554-.933.116-1.3,1.341-1.359.153-.008.314-.01.483-.008l1,.44,2.013.884,3.411,1.5.456.2s.014.075.043.214c-.088.016-.177.033-.271.047a14.421,14.421,0,0,1,.493,3.462" transform="translate(-498.672 -505.745)" fill="#da3a2c"/>
        <path id="Path_4329" data-name="Path 4329" d="M594.3,540.733s-.275.085-.746.2l-.053.012c-.147.037-.314.075-.5.116-.041.008-.084.016-.126.027-.234.051-.491.1-.768.151-.088.016-.177.033-.271.047a13.509,13.509,0,0,1-7.108-.416h0a5.586,5.586,0,0,1-1.856-1.247,4.878,4.878,0,0,1-.762-1.013,5.646,5.646,0,0,1-.53-1.249c-1.983-6.718-4.7-10.81,2.066-13.231,6.058-2.168,8.373-.66,9.657,1.172.153.216.289.436.416.654,1.206,2.083,3.319,13.728.579,14.773" transform="translate(-480.104 -433.474)" fill="#f3ab9b"/>
        <path id="Path_4330" data-name="Path 4330" d="M570.773,507.568s-.685,7.816-2.3,7.477-3.082-.591-2.846,1.765.031,5.68-3.811,6.135c-4.965.588-10.836-13.072-9.467-15.5,3.948-7.019,24.132-8.435,18.425.127" transform="translate(-457.574 -415.729)" fill="#18385e"/>
        <path id="Path_4331" data-name="Path 4331" d="M892.6,636.779a14.493,14.493,0,1,1,14.493,14.493A14.493,14.493,0,0,1,892.6,636.779" transform="translate(-739.713 -515.701)" fill="#fdfaf8"/>
        <path id="Path_4332" data-name="Path 4332" d="M917.1,666.472a9.191,9.191,0,1,1,9.191,9.191,9.191,9.191,0,0,1-9.191-9.191" transform="translate(-760.019 -544.702)" fill="#bcc5b6"/>
        <path id="Path_4333" data-name="Path 4333" d="M643.266,602.91l-.354-.463c.013-.013,1.075-1.087.444-4.046-.653-3.064-4.512-9.365-4.55-9.428l.423-.26c.161.262,3.942,6.437,4.613,9.584.689,3.234-.513,4.548-.575,4.612" transform="translate(-529.39 -487.878)" fill="#bcc5b6"/>
        <path id="Path_4334" data-name="Path 4334" d="M627.685,775c-6.322-2-14.091-12.908-14.091-12.908l13.1,2.336c.3,2.959.645,6.692.987,10.571" transform="translate(-508.497 -631.559)" fill="#d9e6e9"/>
        <path id="Path_4335" data-name="Path 4335" d="M940.633,720.417a1.659,1.659,0,0,1,.282-.846,12.043,12.043,0,0,0,.424-2.358c-.125-1.032.637-.822.932.044.064.188.047.686.088.893a16.014,16.014,0,0,1,5.225-2.043s1.975-.561.958,1.365c-.68,1.287-1.434,1.421-2.421,3.219s-2.726,2.991-4.23,2.814l-1.642.482-1.538-2.489Z" transform="translate(-777.926 -593.389)" fill="#f3ab9b"/>
        <path id="Path_4336" data-name="Path 4336" d="M600.55,689.483s-13.667,17.476,28.343,22.648c6.719.827,30.522-10.385,30.522-10.385s-.66-3.1-2.719-3.565c0,0-22.468,2.373-24.185,3.605-1.524,1.094-18.181-11.139-23.166-12.723a12.206,12.206,0,0,0-8.794.419" transform="translate(-495.927 -570.536)" fill="#eff1f1"/>
        <path id="Path_4337" data-name="Path 4337" d="M634.962,585.263a.869.869,0,1,1,.869.87.869.869,0,0,1-.869-.87" transform="translate(-526.205 -484.298)" fill="#18385e"/>
        <path id="Path_4338" data-name="Path 4338" d="M657.414,630.312a3.317,3.317,0,0,0,.815-2.827,20.92,20.92,0,0,0-1.52-4.948.5.5,0,0,1,.573-.278s1.9,3.889,1.694,5.914a8.338,8.338,0,0,1-1.126,3.26Z" transform="translate(-544.227 -515.673)" fill="#18385e"/>
        <path id="Path_4339" data-name="Path 4339" d="M598.586,644.072c-.139-.058-7.991-3.581-8.91-3.278s-2.063,3.108-2.063,3.108l13.4,3.9s-.665-2.991-2.431-3.735" transform="translate(-486.967 -531.024)" fill="#d9e6e9"/>
        <path id="Path_4340" data-name="Path 4340" d="M1625.832,1162.989v52.99a8.39,8.39,0,0,1-16.781,0v-52.99Z" transform="translate(-1333.452 -963.792)" fill="#e5c3ac"/>
        <path id="Path_4341" data-name="Path 4341" d="M1627.871,1360.481h0a6.234,6.234,0,0,0,6.234-6.234V1330.17h-12.468v24.077a6.234,6.234,0,0,0,6.234,6.234" transform="translate(-1343.881 -1102.338)" fill="#8c4349"/>
        <path id="Path_4342" data-name="Path 4342" d="M1475.932,1162.989v52.99a8.39,8.39,0,0,1-16.781,0v-52.99Z" transform="translate(-1209.227 -963.792)" fill="#e5c3ac"/>
        <path id="Path_4343" data-name="Path 4343" d="M1477.971,1360.481h0a6.234,6.234,0,0,0,6.234-6.234V1330.17h-12.468v24.077a6.234,6.234,0,0,0,6.234,6.234" transform="translate(-1219.656 -1102.338)" fill="#8c4349"/>
        <rect id="Rectangle_728" data-name="Rectangle 728" width="76.151" height="2.358" transform="translate(242.962 253.339)" fill="#2f3f58"/>
        <rect id="Rectangle_729" data-name="Rectangle 729" width="2.377" height="8.22" transform="translate(316.736 255.268)" fill="#2f3f58"/>
        <rect id="Rectangle_730" data-name="Rectangle 730" width="2.507" height="10.148" transform="translate(242.962 253.339)" fill="#2f3f58"/>
        <path id="Path_4344" data-name="Path 4344" d="M1475.932,1162.989v1.754a46.551,46.551,0,0,0-8.391-.678,50.6,50.6,0,0,0-8.389.654v-1.73Z" transform="translate(-1209.227 -963.792)" fill="#828483"/>
        <path id="Path_4345" data-name="Path 4345" d="M1471.654,1159.023h-16.926a.813.813,0,1,1,0-1.626h16.926a.813.813,0,0,1,0,1.626" transform="translate(-1204.887 -959.157)" fill="#e5c3ac"/>
        <path id="Path_4346" data-name="Path 4346" d="M1625.832,1162.989v1.754a46.553,46.553,0,0,0-8.391-.678,50.594,50.594,0,0,0-8.389.654v-1.73Z" transform="translate(-1333.452 -963.792)" fill="#828483"/>
        <path id="Path_4347" data-name="Path 4347" d="M1621.552,1159.023h-16.925a.813.813,0,1,1,0-1.626h16.925a.813.813,0,1,1,0,1.626" transform="translate(-1329.111 -959.157)" fill="#e5c3ac"/>
        <path id="Path_4348" data-name="Path 4348" d="M1825.035,940.633a5.517,5.517,0,0,1,9.947-1.318,5,5,0,0,1,.745,2.508c.135,5.276-10.27,25.7-11.651,27.5-2.514,3.288-17.691,11.2-17.691,11.2l-3.225-.47a23.889,23.889,0,0,0,3.711-3.031c3.9-3.893,9.584-10.222,10.625-11.1,1.787-1.5,4.879-16.748,7.539-25.291" transform="translate(-1494.312 -776.284)" fill="#cc7d59"/>
        <path id="Path_4349" data-name="Path 4349" d="M1870.94,808.4c-.084-.339,7.362,3.365,7.74,3.784,3.492,3.874,2.5,8.929.5,8.977-1.282.031-1.033,2.162-1.033,2.162l-14.277-6.04s1.719-10.024,7.072-8.883" transform="translate(-1544.623 -669.865)" fill="#b85752"/>
        <path id="Path_4350" data-name="Path 4350" d="M1894.847,786.5s-.51-5.562,5.7-5.562a7.3,7.3,0,0,0-2.857,1.532s3.964-2.327,8.277,1.249,4.285,8.14,5.066,10.142c1.93,4.952,9.014,4.111,8.5,12.993-.322,5.531-21.033,11.058-20.032,15.612,0,0-7.743-8.591-.2-13.984,2.908-2.08,3.269-6.98,3.042-7.841s-7.491-14.141-7.491-14.141" transform="translate(-1570.287 -647.175)" fill="#b85752"/>
        <path id="Path_4351" data-name="Path 4351" d="M1996.8,1138.276l3.09-.454a36.525,36.525,0,0,0,11.935-23.659,27.558,27.558,0,0,0,.074-4.763.832.832,0,0,1,.108-.525s0,0,0,0c.332-.509,1.16-1.786,2.28-3.6,1.1-1.789,2.994-5.171,5.073-8.967,3.746-6.835,8.107-15.01,9.6-17.614,4.766-8.3,2.469-13.878,2.469-13.878s-13.3-1.314-16.939-4.5l-1.312,2.022s-2.881,12.754-2.744,12.813q-.213.65-.432,1.325a221.792,221.792,0,0,0-6.314,22.93,37.914,37.914,0,0,0-1,9.907,17.362,17.362,0,0,1-.235,3.629c-1.287,9.153-5.659,25.343-5.659,25.343" transform="translate(-1654.788 -878.698)" fill="#2f3f58"/>
        <path id="Path_4352" data-name="Path 4352" d="M1958.966,1503.636h12.89a7.074,7.074,0,0,0-.364-3.455c-.645-1.43-1.565-1.476-.118-3.717-.819.843-3.452,1.192-5.315.941-.228.37-1.472,2.854-2.235,3.4-.842.605-4.6.39-4.858,2.829" transform="translate(-1623.432 -1240.149)" fill="#273b60"/>
        <path id="Path_4353" data-name="Path 4353" d="M2073.906,1076.467c1.126,6.21,3.786,16.544,9.358,19.834,3.746-6.835,8.106-15.01,9.6-17.614,4.766-8.3,2.469-13.878,2.469-13.878s-13.3-1.314-16.939-4.5l-1.312,2.023s-2.881,12.753-2.745,12.813q-.213.65-.432,1.325" transform="translate(-1718.685 -878.697)" fill="#273b60"/>
        <path id="Path_4354" data-name="Path 4354" d="M2126.472,1052.753l-.043-2.411c4.8.606,16.561-5.74,16.561-5.74s5.025,3.342,5.713,12.886c.335,4.659,2.459,24.361,2.694,30.244.086,2.132.114,3.654.124,4.262a.01.01,0,0,0,0,.006.837.837,0,0,0,.2.5,27.549,27.549,0,0,1,2.6,3.989c7.33,13.636,3.5,32.166,3.5,32.166l-1.7-.433s-6.2-19.208-10.248-27.517a17.4,17.4,0,0,0-1.834-3.14,37.905,37.905,0,0,1-4.712-8.771,229.425,229.425,0,0,1-7.969-23.88c-.146.027-4.887-12.158-4.887-12.158" transform="translate(-1762.212 -865.683)" fill="#2f3f58"/>
        <path id="Path_4355" data-name="Path 4355" d="M1925.838,908.927c7.529-2.867,1.04-13.1.616-12.849-1.108-.069-3.738-1.632-6.369-5.033l-.252.288-4.194,4.852s1.329,1.476,2.482,2.941c1.383,1.759,4.055,3.074,4.016,3.51-.342.356,1.693,7.056,3.7,6.291" transform="translate(-1587.527 -738.426)" fill="#f3ab9b"/>
        <path id="Path_4356" data-name="Path 4356" d="M1910.912,950.4a39.538,39.538,0,0,0-2.117,5.084c-.737,2.36-2.579,9.865-2.579,9.865s3.8,4.337,9.088,4.084c0,0,2.843-4.45,1.842-8.469s-6.233-10.565-6.233-10.565" transform="translate(-1579.717 -787.615)" fill="#d9e6e9"/>
        <path id="Path_4357" data-name="Path 4357" d="M1915.642,900.265a19.455,19.455,0,0,0,1.565,1.811c2.006-2.65,2.933-4.331,3.127-6.11Z" transform="translate(-1587.529 -742.505)" fill="#cc7d59"/>
        <path id="Path_4358" data-name="Path 4358" d="M1875.036,856.323s7.28-4.051,4.688-8.546-3.4-8.045-8.157-5.649-4.664,4.628-4.163,6.339,5.672,8.794,7.633,7.856" transform="translate(-1547.362 -697.249)" fill="#f3ab9b"/>
        <path id="Path_4359" data-name="Path 4359" d="M1861.1,842.9c.333-2,1.347-2.187,2.054-2.053a5.823,5.823,0,0,1,7.081-2.711,9.915,9.915,0,0,0,5.738,3.447s-.845,1.572-4.326,2.545a5.95,5.95,0,0,1-3.434-.275,19.429,19.429,0,0,0,4.941,1.862c-4.587.42-8.952-3.774-9.4-4.223a6.524,6.524,0,0,0-.36,3.005c.3,1.352,1.5,3.8.769,4.117,0,0-3.559-2.722-3.058-5.715" transform="translate(-1542.29 -694.303)" fill="#b85752"/>
        <path id="Path_4360" data-name="Path 4360" d="M2249.882,1503.185h12.89a7.078,7.078,0,0,0-.365-3.455c-.645-1.43-1.656-2.08-1.414-3.81a4.64,4.64,0,0,1-4.017,1.537,14.142,14.142,0,0,1-2.237,2.9c-.842.605-4.6.39-4.858,2.829" transform="translate(-1864.52 -1239.698)" fill="#273b60"/>
        <path id="Path_4361" data-name="Path 4361" d="M1936.665,938.077a31.35,31.35,0,0,0,6.367,1.154c3.39.37,6.889.622,8.722,1.354a11.645,11.645,0,0,1,2.445,1.335v0a.763.763,0,0,1,.072.054,7.848,7.848,0,0,1,1.01.873,5.523,5.523,0,0,1,1.182,1.755c.672,1.661-.218,6.265-.788,8.782a2.287,2.287,0,0,0,1.171,2.537q1.933,1,3.8,1.845l.2.088c-.012-.256-.016-.51-.016-.758a23.438,23.438,0,0,1,.218-3.182,13.326,13.326,0,0,0,2.537,5.1c17.3,6.941,29.383,3.924,29.185.466-.682-12.005-8.778-22.216-8.778-22.216-15.1-17.558-45.641-22.18-45.641-22.18s-1.463-.176-3.228,1.945c-2.539,3.055-2.665,3.852-2.665,3.852s-.67,15.489,4.21,17.192" transform="translate(-1601.437 -758.349)" fill="#eff1f1"/>
        <path id="Path_4362" data-name="Path 4362" d="M1994.364,967.714c3.389.37,6.889.623,8.722,1.354a35.741,35.741,0,0,0-4.533-19.614s-3.446,14.024-4.188,18.259" transform="translate(-1652.767 -786.832)" fill="#d9e6e9"/>
        <path id="Path_4363" data-name="Path 4363" d="M2066.268,1087.719a2.287,2.287,0,0,0,1.17,2.538q1.933,1,3.8,1.845c.066-.212.126-.434.18-.67a11.675,11.675,0,0,0,.219-3.181c-.288-5.314-3.908-9.338-5.763-11.067a5.526,5.526,0,0,1,1.183,1.755c.672,1.661-.218,6.265-.788,8.782" transform="translate(-1712.029 -892.682)" fill="#d9e6e9"/>
        <path id="Path_4364" data-name="Path 4364" d="M1938.5,906.506s-1.368-1.831-2.267-1.777c0,0-3.6,5.238-3.626,7.573,0,0,4.534-6.033,5.893-5.8" transform="translate(-1601.587 -749.766)" fill="#d9e6e9"/>
        <path id="Path_4365" data-name="Path 4365" d="M1763.4,1191.057s1.933.034,2.35-.026a12.359,12.359,0,0,1,1.507-.256,6.431,6.431,0,0,1,1.547.26,1.137,1.137,0,0,0,.23.022h3.205a1.919,1.919,0,0,0,.674-.719c.152-.245.172-.828.518-1.021,1.941-1.083-3.225-.47-3.225-.47a19.946,19.946,0,0,0-3.543.165c-.533.4-3.385,1.892-3.264,2.046" transform="translate(-1461.36 -985.077)" fill="#cc7d59"/>
        <path id="Path_4366" data-name="Path 4366" d="M1799.691,1196.1a14.9,14.9,0,0,0-2.5.933l-.565.356s-.327-.365.188-.77a2.472,2.472,0,0,0,1.045-1.556c.025-.717,2.246-.091,1.834,1.036" transform="translate(-1488.812 -990.12)" fill="#cc7d59"/>
        <path id="Path_4367" data-name="Path 4367" d="M1710.838,932.492l13.007,51.369a8.39,8.39,0,0,1-16.267,4.119l-13.008-51.369Z" transform="translate(-1404.323 -772.774)" fill="#e5c3ac"/>
        <path id="Path_4368" data-name="Path 4368" d="M1761.293,1142.409h0a6.234,6.234,0,0,0,4.513-7.573l-5.186-20.479-12.811.2,5.91,23.341a6.234,6.234,0,0,0,7.573,4.513" transform="translate(-1448.442 -923.489)" fill="#8c4349"/>
        <path id="Path_4369" data-name="Path 4369" d="M1710.838,932.492l.431,1.7a46.549,46.549,0,0,0-8.3,1.4,50.6,50.6,0,0,0-7.972,2.693l-.425-1.677Z" transform="translate(-1404.323 -772.774)" fill="#828483"/>
        <path id="Path_4370" data-name="Path 4370" d="M1706.561,928.44l-16.407,4.155a.813.813,0,1,1-.4-1.577l16.408-4.154a.813.813,0,1,1,.4,1.576" transform="translate(-1399.822 -768.09)" fill="#e5c3ac"/>
        <path id="Path_4371" data-name="Path 4371" d="M1841.036,1235.819a7.891,7.891,0,0,1-2.476,1.514c-1.07.264-2.285,3.327-2.48,3.764s1.021-.194,1.507-.94.818-1.037.96-.875a5.713,5.713,0,0,1-.9,3.339c-.811,1.134-1.3,2.139-.713,2.074s4.051-.908,4.765-3.014.19-2.181,1.829-4.348-2.5-1.514-2.5-1.514" transform="translate(-1521.577 -1024.071)" fill="#f3ab9b"/>
        <path id="Path_4372" data-name="Path 4372" d="M1883.691,936.811s8.495.839,9.175,6.359-8.144,28-9.407,30.036c-2.3,3.706-15.849,16.41-15.849,16.41l-2.5-1.513s9.61-16.269,11.1-17.791c2.336-2.39,4.6-31.588,7.481-33.5" transform="translate(-1545.654 -776.354)" fill="#f3ab9b"/>
        <path id="Path_4373" data-name="Path 4373" d="M1946.572,943.569s-.873-14.231,10.02-10.79S1954.9,960.7,1954.9,960.7s-6.393-.316-8.66-5.894Z" transform="translate(-1612.887 -772.568)" fill="#eff1f1"/>
        <path id="Path_4374" data-name="Path 4374" d="M1067.53,1207.2l15.211,0,8.046,0a5.7,5.7,0,0,0,5.676-5.681l-.018-56.205a5.692,5.692,0,0,0-5.679-5.676l-7.135,0-16.121,0a5.694,5.694,0,0,0-5.676,5.68l.016,56.205a5.7,5.7,0,0,0,5.68,5.677" transform="translate(-879.962 -944.431)" fill="#e5c3ac"/>
        <path id="Path_4375" data-name="Path 4375" d="M1070.745,1333.58c.034,0,.067.005.1.008a2.775,2.775,0,0,0-1.178,4.258l3.63,4.742a2.772,2.772,0,1,0,4.4-3.369l-.646-.844a2.757,2.757,0,0,0,.531-.625c.022.032.041.064.065.094l1.816,2.372,1.814,2.371a2.772,2.772,0,0,0,4.4-3.369l-1.815-2.371-.659-.86.476.328a1.81,1.81,0,0,1,2.341,1.528l1.816,2.372,1.815,2.371a2.779,2.779,0,0,0,3.886.516,2.748,2.748,0,0,0,.861-1.115,2.77,2.77,0,0,0,4.6-2.932l-1.141-2.76-1.141-2.759a2.749,2.749,0,0,0-1.175-1.335,2.794,2.794,0,0,0-.22-1.873,2.773,2.773,0,0,0,3.564-2.791l-.151-2.983h0l-.151-2.982a2.778,2.778,0,0,0-1.75-2.434l.737-1.766,1.151-2.755a2.772,2.772,0,0,0-5.115-2.137l-1.151,2.755-.3.724a2.778,2.778,0,0,0-1.959-2.02l-2.88-.788-2.881-.788a2.752,2.752,0,0,0-.738-.095,2.77,2.77,0,0,0-3.777-4.04l-4.6,3.8a4.825,4.825,0,0,0-.576,5.846,2.741,2.741,0,0,0-2.186,1.177l1.047-4.375a2.772,2.772,0,0,0-5.391-1.29l-.695,2.905-.695,2.9a2.77,2.77,0,0,0,5.251,1.709,2.748,2.748,0,0,0,.476,1.31c-.081-.019-.162-.035-.246-.047a2.781,2.781,0,0,0-3.121,2.372l-.4,2.959-.4,2.958a2.779,2.779,0,0,0,2.371,3.121m22.792-4.906-1.27-.876a2.669,2.669,0,0,0,1.032-1l.051,1.017a2.751,2.751,0,0,0,.186.86m-18.842-3.642,1.558,2.036a.941.941,0,1,1-1.084,1.06,2.778,2.778,0,0,0-1.039,1.141l.543-3.979c.012-.086.018-.172.022-.258m6.3-9.416-.719-.5.7-.577a2.736,2.736,0,0,0,.02,1.073m-2.913,4.725,2.184,1.506a.747.747,0,0,1,.105,1.485Zm-.024,7.781a2.74,2.74,0,0,0,2.532-.98l.059.746a2.79,2.79,0,0,0-2.089.63,2.747,2.747,0,0,0-.5-.4m7.553-9.692-.008.006a1.6,1.6,0,1,1-1.519,2.753c.012-.017.026-.033.039-.05a2.779,2.779,0,0,0,.021-3.111Zm1.291,6.263.576.752a2.777,2.777,0,0,0-1.408.678l-.2-2.564c-.007-.089-.019-.176-.034-.262Zm3.521,9.778a4.189,4.189,0,0,1-3.6-2.722l-.875-.6a2.782,2.782,0,0,0,.312-.759c.03.023.059.047.09.069l4.917,3.391c.061.042.124.079.188.116a2.751,2.751,0,0,0,.133,1.686l.314.759Zm-10.944-1.056a2.747,2.747,0,0,0-.768.217l.153-.641Zm-7.348-.007a2.8,2.8,0,0,0,1.133-.832l-.041.17-.214.893a2.8,2.8,0,0,0-.878-.231m18.968-14.568a2.781,2.781,0,0,0,1.692,2.774c.084.035.169.065.254.091,0,.048,0,.1,0,.143l.095,1.88c-.008-.011-.014-.023-.023-.033l-1.815-2.371-1.5-1.965a2.792,2.792,0,0,0,1.3-.52" transform="translate(-884.03 -1083.628)" fill="#605675"/>
        <path id="Path_4376" data-name="Path 4376" d="M1058.659,1118.793l21.6-.007,12.26,0a1.105,1.105,0,0,0,1.1-1.1v-5.293a1.107,1.107,0,0,0-1.1-1.1l-12.243,0h0l-21.618.006a1.107,1.107,0,0,0-1.1,1.1l0,5.293a1.107,1.107,0,0,0,1.1,1.1" transform="translate(-876.414 -920.94)" fill="#2f3f58"/>
        <path id="Path_4377" data-name="Path 4377" d="M459.029,1534.429H.7a.7.7,0,0,0,0,1.394H459.029a.7.7,0,0,0,0-1.394" transform="translate(0 -1271.611)" fill="#2f3f58"/>
        <path id="Path_4378" data-name="Path 4378" d="M860.7,1490.133a4.115,4.115,0,0,0,4.1,4.1h19.364a4.1,4.1,0,0,0,0-8.2H864.8a4.112,4.112,0,0,0-4.1,4.1" transform="translate(-713.281 -1231.505)" fill="#2f3f58"/>
        <path id="Path_4379" data-name="Path 4379" d="M919.022,1490.133a4.112,4.112,0,0,0,4.1,4.1H932.5a4.1,4.1,0,0,0,0-8.2h-9.376a4.111,4.111,0,0,0-4.1,4.1" transform="translate(-761.611 -1231.505)" fill="#2b415b"/>
        <g id="Group_1192" data-name="Group 1192" transform="translate(150.614 255.438)" opacity="0.4">
          <g id="Group_1191" data-name="Group 1191">
            <g id="Group_1190" data-name="Group 1190" clip-path="url(#clip-path-11)">
              <path id="Path_4380" data-name="Path 4380" d="M879.917,1492.635h18.47a.583.583,0,0,0,.581-.581v-.131a.583.583,0,0,0-.581-.581h-18.47a.583.583,0,0,0-.581.581v.131a.583.583,0,0,0,.581.581" transform="translate(-879.336 -1491.342)" fill="#f5f8fe"/>
            </g>
          </g>
        </g>
        <path id="Path_4381" data-name="Path 4381" d="M954.958,1430.568a4.363,4.363,0,0,0,1.939,5.834l18.353,9.2a4.347,4.347,0,0,0,3.895-7.772l-18.353-9.2a4.36,4.36,0,0,0-5.834,1.938" transform="translate(-791.012 -1183.554)" fill="#c8542b"/>
        <path id="Path_4382" data-name="Path 4382" d="M1010.233,1459.794a4.36,4.36,0,0,0,1.938,5.834l8.887,4.453a4.347,4.347,0,0,0,3.895-7.772l-8.887-4.453a4.359,4.359,0,0,0-5.832,1.938" transform="translate(-836.82 -1207.774)" fill="#da3a2c"/>
        <g id="Group_1195" data-name="Group 1195" transform="translate(168.083 245.718)" opacity="0.5">
          <g id="Group_1194" data-name="Group 1194">
            <g id="Group_1193" data-name="Group 1193" clip-path="url(#clip-path-12)">
              <path id="Path_4383" data-name="Path 4383" d="M981.667,1435.881l17.506,8.773a.618.618,0,0,0,.827-.275l.062-.124a.618.618,0,0,0-.275-.827l-17.506-8.773a.618.618,0,0,0-.827.275l-.062.124a.618.618,0,0,0,.275.827" transform="translate(-981.327 -1434.59)" fill="#f2f3f3"/>
            </g>
          </g>
        </g>
      </g>
    </g>
  </g>
</svg>
