<svg xmlns="http://www.w3.org/2000/svg" width="21.643" height="16.655"><path data-name="Path 4023" d="m21.003 4.756-2.219-.446V.796a.8.8 0 0 0-.8-.8H.799a.8.8 0 0 0-.8.8v10.526a.8.8 0 0 0 .8.8h.38l-.04.2a.789.789 0 0 0 .118.6.8.8 0 0 0 .506.34l16.852 3.383a.851.851 0 0 0 .159.015.8.8 0 0 0 .781-.64L21.628 5.7a.8.8 0 0 0-.625-.94ZM19.164 15.94a.4.4 0 0 1-.39.32.437.437 0 0 1-.078-.008L1.844 12.866a.388.388 0 0 1-.254-.169.394.394 0 0 1-.058-.3l.086-.436 1.078-5.37 17.635 3.542Zm2.073-10.32-.232 1.149L3.372 3.227l.229-1.149a.4.4 0 0 1 .39-.32.431.431 0 0 1 .081.008l14.469 2.907h.005l2.378.479a.4.4 0 0 1 .312.468Z" fill="#19468b"/></svg>