<svg data-name="Group 951" xmlns="http://www.w3.org/2000/svg" width="20" height="20"><path data-name="Path 3612" d="M5 4a1 1 0 0 1-1-1V1a1 1 0 1 1 2 0v2a1 1 0 0 1-1 1Zm10 0a1 1 0 0 1-1-1V1a1 1 0 0 1 2 0v2a1 1 0 0 1-1 1Z" fill="#19468b"/><path data-name="Path 3613" d="M17 2h-1v1a1 1 0 0 1-2 0V2H6v1a1 1 0 0 1-2 0V2H3a3 3 0 0 0-3 3v2h20V5a3 3 0 0 0-3-3Z" fill="#19468b"/><circle data-name="Ellipse 37" cx="1" cy="1" r="1" transform="translate(4 10)" fill="#bfd5ff"/><circle data-name="Ellipse 38" cx="1" cy="1" r="1" transform="translate(4 14)" fill="#bfd5ff"/><circle data-name="Ellipse 39" cx="1" cy="1" r="1" transform="translate(9 10)" fill="#bfd5ff"/><circle data-name="Ellipse 40" cx="1" cy="1" r="1" transform="translate(9 14)" fill="#bfd5ff"/><circle data-name="Ellipse 41" cx="1" cy="1" r="1" transform="translate(14 10)" fill="#bfd5ff"/><circle data-name="Ellipse 42" cx="1" cy="1" r="1" transform="translate(14 14)" fill="#bfd5ff"/><path data-name="Path 3614" d="M0 7v10a3 3 0 0 0 3 3h14a3 3 0 0 0 3-3V7Zm5 9a1 1 0 1 1 1-1 1 1 0 0 1-1 1Zm0-4a1 1 0 1 1 1-1 1 1 0 0 1-1 1Zm5 4a1 1 0 1 1 1-1 1 1 0 0 1-1 1Zm0-4a1 1 0 1 1 1-1 1 1 0 0 1-1 1Zm5 4a1 1 0 1 1 1-1 1 1 0 0 1-1 1Zm0-4a1 1 0 1 1 1-1 1 1 0 0 1-1 1Z" fill="#3c70d7"/></svg>