<svg xmlns="http://www.w3.org/2000/svg" width="191.284" height="170.117" viewBox="0 0 191.284 170.117">
  <g id="gym" transform="translate(-0.037 0.286)">
    <g id="Group_13239" data-name="Group 13239">
      <path id="Path_14426" data-name="Path 14426" d="M83.572,54.811,85.4,53.757l9.96-52.109C95.694-.092,94.723-.787,93.187.1L13.213,46.215a7.972,7.972,0,0,0-3.379,4.752L.064,102.084a1.426,1.426,0,0,0,.669,1.5l22.414,12.972L106.8,68.284,83.572,54.812Z" fill="#455a64"/>
      <path id="Path_14427" data-name="Path 14427" d="M10.835,51.609,1.091,102.628,86.566,53.607l9.8-51.32C96.7.551,95.725-.145,94.192.741L14.218,46.857a7.972,7.972,0,0,0-3.384,4.752h0Z" fill="#263238"/>
      <path id="Path_14428" data-name="Path 14428" d="M84.728,54.333,1.074,102.628,23.8,115.755l83.65-48.3L84.728,54.333Z" fill="#37474f"/>
      <path id="Path_14429" data-name="Path 14429" d="M95.547,1.737l-80.6,46.449c-1.771,1.019-2.321,2.657-2.006,4.845l8.751,61.05c.314,2.174,2.046,3.45,3.813,2.427l79.881-46.094a6.119,6.119,0,0,0,2.635-5.788L99.312,3.832c-.31-2.175-2-3.113-3.764-2.095h0Z" fill="#455a64"/>
      <path id="Path_14430" data-name="Path 14430" d="M100.981,3.159a2.493,2.493,0,0,0-2.174.27l-79.881,46.1a5.35,5.35,0,0,0-2.037,2.338l-2.578-1.094a4.862,4.862,0,0,1,2.4-2.179l79.876-46.1a2.445,2.445,0,0,1,2.259-.23l2.134.895Z" fill="#407bff"/>
      <path id="Path_14431" data-name="Path 14431" d="M100.981,3.159a2.493,2.493,0,0,0-2.174.27l-79.881,46.1a5.35,5.35,0,0,0-2.037,2.338l-2.578-1.094a4.862,4.862,0,0,1,2.4-2.179l79.876-46.1a2.445,2.445,0,0,1,2.259-.23l2.134.895Z" opacity="0.1"/>
      <path id="Path_14432" data-name="Path 14432" d="M24.28,117.181a2.8,2.8,0,0,1-1.55-2.343L14.076,54.382a6.232,6.232,0,0,1,.235-3.605l2.578,1.094c-.066.142-.128.288-.19.443s-.089.239-.128.359a.187.187,0,0,0,0,.053c-.049.137-.089.279-.124.416a4.34,4.34,0,0,0-.093.443,2.844,2.844,0,0,0-.044.332,5.031,5.031,0,0,0,0,1.413L25,116.1a2.8,2.8,0,0,0,1.572,2.361l-2.29-1.285Z" fill="#407bff"/>
      <path id="Path_14433" data-name="Path 14433" d="M26.57,118.466l-.128-.053-2.161-1.227a2.791,2.791,0,0,1-1.55-2.343L14.076,54.386a6.245,6.245,0,0,1,.23-3.609l2.214.93a5.439,5.439,0,0,0-.3,3.02l.089.593L25,116.114a2.012,2.012,0,0,0,.04.226.95.95,0,0,0,.027.12.981.981,0,0,0,.04.164.529.529,0,0,0,.044.164l.053.155a1.325,1.325,0,0,0,.075.182c.027.062.053.12.084.177s.058.111.089.164a2.657,2.657,0,0,0,.319.443l.115.12.128.115a2.113,2.113,0,0,0,.558.323h0Z" opacity="0.3"/>
      <path id="Path_14434" data-name="Path 14434" d="M98.807,3.434,18.2,49.878C16.433,50.9,15.888,52.535,16.2,54.75l8.791,61.382c.31,2.179,2,3.1,3.765,2.095l79.885-46.121a6.175,6.175,0,0,0,2.657-5.788l-8.7-60.789c-.332-2.179-2.02-3.113-3.787-2.094Z" fill="#407bff"/>
      <path id="Path_14435" data-name="Path 14435" d="M98.807,3.434,18.2,49.878C16.433,50.9,15.888,52.535,16.2,54.75l8.791,61.382c.31,2.179,2,3.1,3.765,2.095l79.885-46.121a6.175,6.175,0,0,0,2.657-5.788l-8.7-60.789c-.332-2.179-2.02-3.113-3.787-2.094Z" opacity="0.2"/>
      <path id="Path_14436" data-name="Path 14436" d="M103.944,71.742l-71.3,41.143c-.917.531-1.771.044-1.953-1.085L22.256,52.885a3.193,3.193,0,0,1,1.364-3l71.3-41.143c.917-.531,1.771-.044,1.949,1.085l8.437,58.925a3.175,3.175,0,0,1-1.364,2.994h0Z" fill="#263238"/>
      <path id="Path_14437" data-name="Path 14437" d="M22.256,52.885l8.437,58.925.027.133,71.3-41.148a3.166,3.166,0,0,0,1.364-3L94.927,8.739l-71.3,41.143a3.193,3.193,0,0,0-1.368,3h0Z" fill="#407bff"/>
      <path id="Path_14438" data-name="Path 14438" d="M22.256,52.885l8.437,58.925.027.133,71.3-41.148a3.166,3.166,0,0,0,1.364-3L94.927,8.739l-71.3,41.143a3.193,3.193,0,0,0-1.368,3h0Z" fill="#fff" opacity="0.85"/>
      <path id="Path_14439" data-name="Path 14439" d="M24.723,85.843a1.594,1.594,0,0,1-.686,1.506c-.443.266-.886.022-.983-.545a1.6,1.6,0,0,1,.709-1.51c.443-.266.886-.022.961.549h0Z" fill="#263238"/>
      <path id="Path_14440" data-name="Path 14440" d="M22.433,76.007a1.249,1.249,0,0,0-.536,1.174l.753,5.248a.5.5,0,0,0,.762.443,1.249,1.249,0,0,0,.536-1.174L23.2,76.45c-.084-.456-.425-.646-.762-.443Z" fill="#263238"/>
      <path id="Path_14441" data-name="Path 14441" d="M81.7,82.509l-9.845,5.682-2.3,1.329L54.081,98.443C55.179,88.7,57,75.037,58.953,70.666l21.7.443,1.045,11.4Z" fill="#455a64"/>
      <path id="Path_14442" data-name="Path 14442" d="M78,76.437A13.335,13.335,0,0,1,72.124,83.7l-.27,4.513-2.3,1.328.647-6.785s5.646-2.3,7.8-6.32Z" fill="#37474f"/>
      <path id="Path_14443" data-name="Path 14443" d="M73.156,41.313a9.818,9.818,0,0,1,7.746-.979c4.057-2.325,7.622-1.869,11.041-1.351.846.128,3.649-.279,4.181.2a2.817,2.817,0,0,1,.713,1.652l-1.705,4.54c-2.963.589-4.672,1.329-8.915,1.984-3.344.527-5.483.855-5.85,2.436a26.214,26.214,0,0,1-7.21-8.485h0Z" fill="#ffa8a7"/>
      <path id="Path_14444" data-name="Path 14444" d="M98.28,43.717a3.712,3.712,0,0,0,.514-2.7c-.1-1.811-.412-5.372-.682-6.935A44.118,44.118,0,0,0,97,28.434c-.669-2.064-.443-3.348-1.373-4.748s-5.43-2.431-6.417-.372c-.554,1.183,1.475,1.771,1.532,2.657,0,0-1.585,1.24-.443,1.665.886.337,1.745.479,2.011,3.282.235,2.476-.593,5.235-.593,8.977,0,1.541.775,6.076.775,6.076,1.9-.513,4.535-.677,5.793-2.254h0Z" fill="#ffa8a7"/>
      <path id="Path_14445" data-name="Path 14445" d="M90.432,27.273c.133.487,2.369.886,2.87.788a.779.779,0,0,0,.616-.483l1.537.469.058-1.28-4.978-.239a2.184,2.184,0,0,0-.1.744h0Z" fill="#f28f8f"/>
      <path id="Path_14446" data-name="Path 14446" d="M95.131,40.741s-.306-1.621-3.37-2.719c0,.3-.049.642-.049.917a6.9,6.9,0,0,1,3.419,1.8Z" fill="#f28f8f"/>
      <path id="Path_14447" data-name="Path 14447" d="M89.431,22.207a2.657,2.657,0,0,0-4.451-1.183l-.049.058a.38.38,0,0,0-.058.062,5.35,5.35,0,0,0-1.151,4.535.73.73,0,0,0,.071.23,2.657,2.657,0,0,0,3.171,1.652,2.835,2.835,0,0,0,.549-.217,2.493,2.493,0,0,0,.678-.487A5.337,5.337,0,0,0,89.449,22.2l-.018.009Z" fill="#ff2d2d"/>
      <path id="Path_14448" data-name="Path 14448" d="M86.752,21.507a5.337,5.337,0,0,0-1.258,4.659c.394,1.484,1.6,1.811,2.688.726a5.337,5.337,0,0,0,1.258-4.659c-.394-1.484-1.6-1.811-2.688-.726Z" fill="#cc1313"/>
      <path id="Path_14449" data-name="Path 14449" d="M97.089,25.5h-.022l-9.088-2.533a.633.633,0,0,0-.638.221,2.046,2.046,0,0,0-.487,1.772.651.651,0,0,0,.443.509l9.1,2.551a.642.642,0,0,0,.629-.226,2.046,2.046,0,0,0,.483-1.771.66.66,0,0,0-.416-.523h0Z" fill="#920000"/>
      <path id="Path_14450" data-name="Path 14450" d="M95.977,27.517c.151.571.611.7,1.032.279a2.046,2.046,0,0,0,.483-1.771.562.562,0,0,0-1.032-.279,2.046,2.046,0,0,0-.483,1.771Z" fill="#455a64"/>
      <path id="Path_14451" data-name="Path 14451" d="M95.791,23.987c-.421-1.222-.279-1.475-1.293-1.7s-1.023-1.063-2.033-.943a10.391,10.391,0,0,1-2.214.323A2.092,2.092,0,0,0,88.479,22.7a4.106,4.106,0,0,0-.354,2.365c.058.686.762,1.537,2.214,1.909s2.927.691,3.233,0c.239-.549.022-1.019.093-1.329a1.271,1.271,0,0,1,.7-.859l.713.195.713-.992Z" fill="#ffa8a7"/>
      <path id="Path_14452" data-name="Path 14452" d="M100.246,25.188A2.657,2.657,0,0,0,95.8,24l-.053.053-.058.062a5.376,5.376,0,0,0-1.147,4.539.74.74,0,0,0,.075.23,2.657,2.657,0,0,0,3.171,1.648,2.835,2.835,0,0,0,1.222-.7,5.314,5.314,0,0,0,1.262-4.659.062.062,0,0,1-.022.013h0Z" fill="#cc1313"/>
      <path id="Path_14453" data-name="Path 14453" d="M97.563,24.488A5.337,5.337,0,0,0,96.3,29.147c.4,1.484,1.6,1.811,2.688.726a5.345,5.345,0,0,0,1.263-4.66c-.4-1.488-1.6-1.811-2.693-.726h0Z" fill="#ff2d2d"/>
      <path id="Path_14454" data-name="Path 14454" d="M92.23,30.444c-.226-.735-1.643-1.665-2.52-2.139a2.6,2.6,0,0,1-1.435-1.665.886.886,0,0,1,.155-.771,3.351,3.351,0,0,1,.673-.443l.957-.5c.363-.195.709-.443,1.058-.664a1.192,1.192,0,0,1,.27-.137.368.368,0,0,1,.3.035c.345.244.3.912.16,1.249a2.954,2.954,0,0,1-.66.846,1.878,1.878,0,0,0-.549.762c-.053.279.3.492.5.585a5.99,5.99,0,0,0,1.2.412c.536.106-.266,1.918-.107,2.436h0Z" fill="#ffa8a7"/>
      <path id="Path_14455" data-name="Path 14455" d="M79.564,48.128a8.86,8.86,0,0,0-8.087-7.011l-5.957-.1s-1.537.257-4.194.815-4.03,1.811-4.265,3.928a12.535,12.535,0,0,0,.381,4.584l.585,4.061s2.055,5.651,2.214,7.816a18.3,18.3,0,0,1-1.3,8.446c7.839,3.446,15.146,4.535,21.218.16.912-5.283,1.081-13.193-.6-22.7Z" fill="#ffa8a7"/>
      <path id="Path_14456" data-name="Path 14456" d="M81.167,53.5c-.718-8.335-8.012-12.192-8.012-12.192L68.213,40.3l-6.971,1.55s1.741,8.654-3.2,12.551c0,0,.368,1.541,1.213,4.721a16.5,16.5,0,0,1-1.1,12.489s2.17,2.143,10.4,2.724,12.113-3.224,12.113-3.224a96.884,96.884,0,0,0,.5-17.6Z" fill="#407bff"/>
      <path id="Path_14457" data-name="Path 14457" d="M67.018,74.2A5.284,5.284,0,0,0,67.9,71.92c-.044-1.089-4.079-1.559-4.823-1.988s-.479-3.946-.753-6.78-2.046-7.529-2.923-9.788l.195-.6A7.684,7.684,0,0,1,58.058,54.4s.368,1.541,1.213,4.721a16.5,16.5,0,0,1-1.1,12.489c-.013,0,1.909,1.869,8.849,2.587Z" opacity="0.1"/>
      <path id="Path_14458" data-name="Path 14458" d="M61.242,41.853s-3.4-.885-5.638.443c-1.842,1.09-2.843,2.4-3.707,5.035a22.094,22.094,0,0,0-3.884,3.933c-2.037,2.786-3.543,6.036-4.681,7.821-.62.965-1.444,1.891-1.231,3.282.084.54.443.85,1.067,1.448l6.245-1.741c1.834-2,5.9-4.872,8.415-8.118l.217.443a7.9,7.9,0,0,0,3.707-6.231c.3-5.141-.509-6.315-.509-6.315Z" fill="#ffa8a7"/>
      <path id="Path_14459" data-name="Path 14459" d="M42.478,63.1a37.945,37.945,0,0,0,3.986,4.181,55.973,55.973,0,0,0,6.643,4.327c1.878,1.081,2.591,1.612,4.039,2.476a12.749,12.749,0,0,0,5.806,1.909,4.748,4.748,0,0,0,4.026-2.847c.527-1.023-1.129-1.678-3.357-2.037A8.645,8.645,0,0,1,59.613,69.7c-.443-.248-.443-.554-.27-1.05a6.2,6.2,0,0,0,.279-1.085c-.106-.075-.642,0-1.258.487-.744.6-1.368.744-3.136-1.067-1.829-1.878-2.573-3.725-4.965-5.757S42.478,63.1,42.478,63.1h0Z" fill="#ffa8a7"/>
      <path id="Path_14460" data-name="Path 14460" d="M59.347,52.61c.044-.673.035-1,.035-1a25.991,25.991,0,0,1-1.555,2.33l.217.443a6.777,6.777,0,0,0,1.329-1.041,3.427,3.427,0,0,1-.027-.735Z" fill="#f28f8f"/>
      <path id="Path_14461" data-name="Path 14461" d="M50.255,61.215a4.659,4.659,0,0,0-3.64-.328s1.519-1.519,4.455-.412l-.815.74Z" fill="#f28f8f"/>
      <path id="Path_14462" data-name="Path 14462" d="M63.413,23.164a2.746,2.746,0,0,0-1.9,1.9c-.332,1.094-.142,3.162.545,5.873a22.34,22.34,0,0,0,1.935,5.146,2.068,2.068,0,0,0,1.209.952l-.1-3.215-.133-2.245a9.2,9.2,0,0,0,1.577-3.587,5.751,5.751,0,0,0-.253-2.919l-2.883-1.9Z" fill="#37474f"/>
      <path id="Path_14463" data-name="Path 14463" d="M63.559,23.881l-2.392-.491a1.329,1.329,0,0,1,1.484-1.05,1.258,1.258,0,0,1,.911,1.528l0,.013h0Z" fill="#37474f"/>
      <path id="Path_14464" data-name="Path 14464" d="M63.621,23.265l-1.771-1.652a1.293,1.293,0,0,1,1.807-.133,1.249,1.249,0,0,1-.016,1.766l-.019.019h0Z" fill="#37474f"/>
      <path id="Path_14465" data-name="Path 14465" d="M68.43,26.981A5.235,5.235,0,1,0,73.616,21.7a5.235,5.235,0,0,0-5.186,5.284h0Z" fill="#37474f"/>
      <path id="Path_14466" data-name="Path 14466" d="M65.056,31.215c-.54.474-.988-.74-1.444-1.209a1.59,1.59,0,0,0-2.657.443c-.709,1.546.673,3.809,1.816,4.252a1.625,1.625,0,0,0,1.643-.186l.044,6.825c.784,1.528,3.875,3.5,7.4,2.9,1.51-.257.806-2.1,0-3.131l-.031-2.516a12.917,12.917,0,0,0,2.71.115c1.479-.244,2.241-1.364,2.657-2.967a27.372,27.372,0,0,0-.062-11.887c-1.661-1.271-7.4-1.023-10.859,1.2.306,4.442-.682,5.7-1.218,6.165h0Z" fill="#ffa8a7"/>
      <path id="Path_14467" data-name="Path 14467" d="M77.956,20.325a.266.266,0,0,0-.213-.164.368.368,0,0,0-.2.089,9.419,9.419,0,0,1-1.329.886,4.7,4.7,0,0,0,0-1.771c-.066-.363-.177-1.209-.629-1.293-.266-.053-.5.173-.7.359-1.794,1.7-4.159.934-6.333,1.019-1.82.066-4.012.824-4.823,2.6a1.658,1.658,0,0,0,.314,2.214,5.177,5.177,0,0,0,2.214.815c3.632.607,8.857,2.068,11.515-1.329a2.684,2.684,0,0,0,.549-1.771,3.685,3.685,0,0,0-.372-1.616l.009-.031Z" fill="#37474f"/>
      <path id="Path_14468" data-name="Path 14468" d="M71.831,38.607a25.313,25.313,0,0,1-4.464-1.236,5.37,5.37,0,0,1-2.006-1.515,2.9,2.9,0,0,0,1.191,2.055c1.771,1.329,5.292,1.772,5.292,1.772l-.013-1.076Z" fill="#f28f8f"/>
      <path id="Path_14469" data-name="Path 14469" d="M70.928,29.962a.673.673,0,0,1-.651.691.682.682,0,0,1-.669-.686.664.664,0,0,1,1.329,0l-.009,0Z" fill="#263238"/>
      <path id="Path_14470" data-name="Path 14470" d="M70.561,27.947l-1.47.669a.85.85,0,0,1,.416-1.1.788.788,0,0,1,1.041.4l.013.031h0Z" fill="#263238"/>
      <path id="Path_14471" data-name="Path 14471" d="M71.017,34.2l2.657.965a1.386,1.386,0,0,1-1.744.895l-.027-.009a1.475,1.475,0,0,1-.886-1.851h0Z" fill="#b16668"/>
      <path id="Path_14472" data-name="Path 14472" d="M71.88,36.056a1.329,1.329,0,0,0,.731.049,1.276,1.276,0,0,0-1.284-1.218,1.329,1.329,0,0,0-.354.058A1.43,1.43,0,0,0,71.88,36.056Z" fill="#f28f8f"/>
      <path id="Path_14473" data-name="Path 14473" d="M76.942,28.385l-1.532-.554a.788.788,0,0,1,.989-.515l.03.01a.859.859,0,0,1,.514,1.058Z" fill="#263238"/>
      <path id="Path_14474" data-name="Path 14474" d="M76.6,29.767a.66.66,0,1,1-.669-.682A.678.678,0,0,1,76.6,29.767Z" fill="#263238"/>
      <path id="Path_14475" data-name="Path 14475" d="M72.979,29.032l.407,4.185,2.214-.753Z" fill="#f28f8f"/>
    </g>
    <g id="Group_13240" data-name="Group 13240">
      <path id="Path_14476" data-name="Path 14476" d="M191.288,120.481l-83.512,48.167L65.375,144.3l83.513-48.167,42.4,24.345Z" fill="#ff2d2d"/>
      <path id="Path_14477" data-name="Path 14477" d="M191.288,120.481l-83.512,48.167L65.375,144.3l83.513-48.167,42.4,24.345Z" fill="#fff" opacity="0.7"/>
      <path id="Path_14478" data-name="Path 14478" d="M191.288,120.481v1.183L107.775,169.83v-1.182l83.512-48.167Z" fill="#ff2d2d"/>
      <path id="Path_14479" data-name="Path 14479" d="M191.288,120.481v1.183L107.775,169.83v-1.182l83.512-48.167Z" fill="#fff" opacity="0.5"/>
      <path id="Path_14480" data-name="Path 14480" d="M107.775,168.648,65.374,144.3v1.183l42.4,24.345v-1.182Z" fill="#ff2d2d"/>
      <path id="Path_14481" data-name="Path 14481" d="M107.775,168.648,65.374,144.3v1.183l42.4,24.345v-1.182Z" fill="#fff" opacity="0.4"/>
    </g>
    <g id="Group_13241" data-name="Group 13241">
      <path id="Path_14482" data-name="Path 14482" d="M113.356,158.32l-.943-.545c-.642-.372-.642-.97,0-1.329l2.108-1.218-6.581-3.8-2.108,1.218a2.591,2.591,0,0,1-2.325,0l-.943-.549a.7.7,0,0,1,0-1.329l6.395-3.733a2.551,2.551,0,0,1,2.321,0l.948.545c.642.372.642.97,0,1.329l-2.33,1.329,6.581,3.8,2.33-1.329a2.578,2.578,0,0,1,2.321,0l.948.549a.7.7,0,0,1,0,1.329l-6.4,3.689a2.56,2.56,0,0,1-2.326.044h0Z" opacity="0.1"/>
      <path id="Path_14483" data-name="Path 14483" d="M110.122,145.419V145.4a3.313,3.313,0,0,0-5-2.852H105.1l-.08.053a.608.608,0,0,0-.089.058,6.683,6.683,0,0,0-2.843,5.106v.337a3.3,3.3,0,0,0,4.026,2.923,3.037,3.037,0,0,0,.974-.372,6.643,6.643,0,0,0,3.012-5.213s.018-.009.018-.018h0Z" fill="#455a64"/>
      <path id="Path_14484" data-name="Path 14484" d="M107.1,143.714a6.643,6.643,0,0,0-3.011,5.213c0,1.922,1.351,2.7,3.011,1.74a6.643,6.643,0,0,0,3.011-5.213C110.123,143.532,108.759,142.753,107.1,143.714Z" fill="#37474f"/>
      <path id="Path_14485" data-name="Path 14485" d="M116.256,150.215h-.022l-7.741-4.513a.943.943,0,0,0-1,.075,3.073,3.073,0,0,0-1.391,2.4.965.965,0,0,0,.443.885l7.741,4.486a.961.961,0,0,0,1-.084,3.069,3.069,0,0,0,1.386-2.4.992.992,0,0,0-.408-.85Z" fill="#263238"/>
      <path id="Path_14486" data-name="Path 14486" d="M113.869,152.7c0,.886.62,1.244,1.386.8a3.069,3.069,0,0,0,1.386-2.4c0-.886-.62-1.244-1.386-.8A3.069,3.069,0,0,0,113.869,152.7Z" fill="#455a64"/>
      <path id="Path_14487" data-name="Path 14487" d="M120.14,151.212a3.313,3.313,0,0,0-3.308-3.317h0a3.278,3.278,0,0,0-1.678.443h-.022l-.08.049-.093.058a6.687,6.687,0,0,0-2.839,5.106v.341a3.3,3.3,0,0,0,4.03,2.923,2.941,2.941,0,0,0,.974-.372,6.643,6.643,0,0,0,3.011-5.213A.019.019,0,0,0,120.14,151.212Z" fill="#455a64"/>
      <path id="Path_14488" data-name="Path 14488" d="M117.133,149.506a6.643,6.643,0,0,0-3.011,5.217c0,1.918,1.329,2.7,3.011,1.736a6.643,6.643,0,0,0,3.011-5.213C120.144,149.324,118.794,148.549,117.133,149.506Z" fill="#37474f"/>
    </g>
    <g id="Group_13242" data-name="Group 13242">
      <path id="Path_14489" data-name="Path 14489" d="M57.784,135.445a12.805,12.805,0,0,0-.917-2.365c-.04-.089-.084-.173-.124-.261a4.845,4.845,0,0,1,.062-4.57c.031-.049.058-.1.084-.146a5.235,5.235,0,0,0,.709-2.693,3.189,3.189,0,0,0-1.537-2.547,5.583,5.583,0,0,0-.713-.346,1.218,1.218,0,0,1-.775-1.129v-1.373h-4.46v1.4a1.227,1.227,0,0,1-.784,1.125,4.868,4.868,0,0,0-.718.341,3.18,3.18,0,0,0-1.555,2.533,5.2,5.2,0,0,0,.686,2.7l.075.137a4.872,4.872,0,0,1,.04,4.584c-.044.084-.089.168-.128.257a12.4,12.4,0,0,0-.934,2.361,10.957,10.957,0,0,0-.217,2.4l-.027,6.492a2.83,2.83,0,0,0,1.656,2.33,7.79,7.79,0,0,0,3.224.943,9.8,9.8,0,0,0,1.612,0,7.759,7.759,0,0,0,3.211-.917,2.822,2.822,0,0,0,1.678-2.316v-4.694c0-.585.027-1.2.027-1.807a10.947,10.947,0,0,0-.176-2.431h0Z" fill="#455a64"/>
      <path id="Path_14490" data-name="Path 14490" d="M56.8,128.249c.031-.049.058-.1.084-.146a5.164,5.164,0,0,0,.691-2.281,4.159,4.159,0,0,1-.443.926,8.858,8.858,0,0,1-2.011,2.095,3.787,3.787,0,0,0-1.709,2.316,2.842,2.842,0,0,0,1.329,2.392,24.612,24.612,0,0,1,2.338,1.643,5.669,5.669,0,0,1,.779.97c-.031-.244-.066-.483-.115-.718a12.81,12.81,0,0,0-.917-2.365c-.04-.089-.084-.173-.124-.261a4.845,4.845,0,0,1,.1-4.57h0Z" fill="#37474f"/>
      <path id="Path_14491" data-name="Path 14491" d="M49.365,121.534v.748a1.51,1.51,0,0,0,.886,1.244,4.747,4.747,0,0,0,4.287,0,2.033,2.033,0,0,0,.669-.576,1.143,1.143,0,0,0,.221-.655v-.761a.775.775,0,0,0-.022-.2,1.621,1.621,0,0,0-.859-1.041l-.044-.022a4.739,4.739,0,0,0-4.243,0,1.621,1.621,0,0,0-.886,1.027A.886.886,0,0,0,49.365,121.534Z" fill="#ff2d2d"/>
      <path id="Path_14492" data-name="Path 14492" d="M49.364,121.784v.748a1.51,1.51,0,0,0,.886,1.244,4.747,4.747,0,0,0,4.287,0,2.033,2.033,0,0,0,.669-.576,1.143,1.143,0,0,0,.221-.655v-.761a.775.775,0,0,0-.022-.2,1.621,1.621,0,0,0-.859-1.041l-.044-.022a4.739,4.739,0,0,0-4.243,0,1.621,1.621,0,0,0-.886,1.027.886.886,0,0,0-.009.239Z" opacity="0.1"/>
      <path id="Path_14493" data-name="Path 14493" d="M54.553,122.784c1.182-.678,1.187-1.772,0-2.476a4.734,4.734,0,0,0-4.287,0c-1.187.678-1.191,1.771,0,2.471a4.735,4.735,0,0,0,4.287,0h0Z" opacity="0.2"/>
      <path id="Path_14494" data-name="Path 14494" d="M49.365,120.658v.443a.885.885,0,0,0,.022.213,1.639,1.639,0,0,0,.859,1.036,4.242,4.242,0,0,0,1.9.509,4.473,4.473,0,0,0,2.392-.5,2.028,2.028,0,0,0,.673-.576,1.182,1.182,0,0,0,.2-.443.811.811,0,0,0,.022-.208v-.465a1.5,1.5,0,0,0-.886-1.24c-.053-.031-.106-.062-.164-.089a4.757,4.757,0,0,0-4.123.071,1.51,1.51,0,0,0-.89,1.244h0Z" fill="#ff2d2d"/>
      <path id="Path_14495" data-name="Path 14495" d="M49.378,121.084v.443a.885.885,0,0,0,.022.213,1.639,1.639,0,0,0,.859,1.036,4.242,4.242,0,0,0,1.9.509,4.473,4.473,0,0,0,2.392-.5,2.028,2.028,0,0,0,.673-.576,1.182,1.182,0,0,0,.2-.443.811.811,0,0,0,.022-.208V121.1a1.5,1.5,0,0,0-.886-1.24c-.053-.031-.106-.062-.164-.089a4.757,4.757,0,0,0-4.123.071,1.51,1.51,0,0,0-.89,1.244h0Z" opacity="0.1"/>
      <path id="Path_14496" data-name="Path 14496" d="M49.365,120.644c0,.961,1.351,1.745,3.025,1.771s3.034-.771,3.038-1.732-1.351-1.745-3.025-1.771-3.034.771-3.038,1.732Z" fill="#ff2d2d"/>
      <path id="Path_14497" data-name="Path 14497" d="M51.353,118.855v1.572a.382.382,0,0,0,0,.071.571.571,0,0,0,.3.359,1.427,1.427,0,0,0,.655.177,1.5,1.5,0,0,0,.828-.173.646.646,0,0,0,.23-.2.377.377,0,0,0,.071-.155.391.391,0,0,0,0-.071v-1.572a.527.527,0,0,0-.306-.443l-.053-.027a1.652,1.652,0,0,0-1.43.022.523.523,0,0,0-.3.439h0Z" fill="#ff2d2d"/>
      <path id="Path_14498" data-name="Path 14498" d="M51.365,119.011v1.572a.382.382,0,0,0,0,.071.571.571,0,0,0,.3.359,1.427,1.427,0,0,0,.655.177,1.5,1.5,0,0,0,.828-.173.646.646,0,0,0,.23-.2.377.377,0,0,0,.071-.155.391.391,0,0,0,0-.071V119.02a.527.527,0,0,0-.306-.443l-.053-.027a1.652,1.652,0,0,0-1.43.022.523.523,0,0,0-.3.439h0Z" opacity="0.1"/>
      <path id="Path_14499" data-name="Path 14499" d="M51.353,118.851c0,.332.469.607,1.05.607s1.05-.266,1.05-.6-.443-.607-1.045-.607-1.054.266-1.054.6Z" fill="#ff2d2d"/>
      <path id="Path_14500" data-name="Path 14500" d="M52.031,118.855c0,.115.164.213.372.213s.372-.093.372-.213-.164-.213-.372-.213S52.031,118.735,52.031,118.855Z" fill="#ff2d2d"/>
      <path id="Path_14501" data-name="Path 14501" d="M52.036,118.855c0,.115.164.213.372.213s.372-.093.372-.213-.164-.213-.372-.213S52.036,118.735,52.036,118.855Z" opacity="0.3"/>
    </g>
    <g id="Group_13245" data-name="Group 13245">
      <path id="Path_14502" data-name="Path 14502" d="M160.889,113.966c-.3,1.182-.16,2.445-.5,3.614a6.851,6.851,0,0,1-3.428,3.773c-6.036,3.392-13.68,1.771-20.275,3.893-2.042.66-4.185,1.957-4.584,4.066a4.651,4.651,0,0,0,1.577,4.141,10.7,10.7,0,0,0,4.048,2.152c5.877,1.94,12.219,1.741,18.339.8a36.921,36.921,0,0,0,14.9-6.448c3.543-2.679,6.129-7.02,5.5-11.4-.571-3.986-4.3-6.935-7.941-8.282-2.883-1.067-6.856.638-7.639,3.7h0Z" opacity="0.1"/>
      <g id="Group_13244" data-name="Group 13244">
        <path id="Path_14503" data-name="Path 14503" d="M166.172,31.25a9.037,9.037,0,0,1,7.157-.885c4.429-1.528,6.643-1.249,10.186-1.253.793,0,3.375-.252,3.862.195a2.574,2.574,0,0,1,.66,1.523l-1.577,4.2c-2.737.54-4.314,1.209-8.237,1.829-3.1.492-5.066.788-5.408,2.254a24.3,24.3,0,0,1-6.643-7.861h0Z" fill="#ffc3bd"/>
        <path id="Path_14504" data-name="Path 14504" d="M189.4,33.474a3.437,3.437,0,0,0,.479-2.493c-.1-1.674-.709-4.872-.961-6.3-.4-2.307-.85-3.7-1.178-5.54-.35-1.975-.142-3.012-.85-4.575-.647-1.426-4.978-1.851-5.872.049-.514,1.094,1.364,1.643,1.417,2.476,0,0-1.714-.536-1.355.518.443,1.267,2.059,1.191,2.254,2.812.279,2.281,0,6.081,0,9.539,0,1.426.718,5.616.718,5.616,1.749-.5,4.18-.647,5.349-2.1Z" fill="#ffc3bd"/>
        <path id="Path_14505" data-name="Path 14505" d="M186.638,19.142l.66-2.09-5.833-1.112c.443.394.93.748.957,1.174,0,0-1.714-.536-1.355.518a1.771,1.771,0,0,0,.487.722,13.25,13.25,0,0,0,1.771.864c1.058.323,1.864.221,2.263-.4a9.275,9.275,0,0,1,1.05.323h0Z" fill="#e5afaa"/>
        <path id="Path_14506" data-name="Path 14506" d="M183.32,29.063a4.9,4.9,0,0,1,3.264,1.329s-.221-1.643-3.26-2.179v.815l0,.035Z" fill="#e5afaa"/>
        <g id="Group_13243" data-name="Group 13243">
          <path id="Path_14507" data-name="Path 14507" d="M181.212,13.6A2.454,2.454,0,0,0,177.1,12.5a.5.5,0,0,0-.049.049L177,12.61a4.969,4.969,0,0,0-1.063,4.194v.022a.7.7,0,0,0,.066.213,2.453,2.453,0,0,0,2.932,1.523,2.786,2.786,0,0,0,.5-.2,2.24,2.24,0,0,0,.624-.443,4.929,4.929,0,0,0,1.165-4.3l-.014-.018Z" fill="#455a64"/>
          <path id="Path_14508" data-name="Path 14508" d="M178.737,12.951a4.92,4.92,0,0,0-1.165,4.318,1.359,1.359,0,0,0,2.484.673,4.929,4.929,0,0,0,1.165-4.3C180.854,12.247,179.742,11.955,178.737,12.951Z" fill="#37474f"/>
          <path id="Path_14509" data-name="Path 14509" d="M188.289,16.64h-.022L179.852,14.3a.585.585,0,0,0-.589.2,1.878,1.878,0,0,0-.443,1.652.593.593,0,0,0,.394.474l8.415,2.338a.6.6,0,0,0,.58-.208,1.887,1.887,0,0,0,.443-1.656.6.6,0,0,0-.363-.465Z" fill="#263238"/>
          <path id="Path_14510" data-name="Path 14510" d="M187.262,18.5a.518.518,0,0,0,.952.261,1.887,1.887,0,0,0,.443-1.656c-.142-.527-.567-.642-.952-.257a1.878,1.878,0,0,0-.443,1.652h0Z" fill="#455a64"/>
          <path id="Path_14511" data-name="Path 14511" d="M187.089,15.241c-.385-1.129-.257-1.364-1.2-1.568s-.943-.983-1.878-.886-1.639.443-2.055.3-1.249.328-1.634.952A3.813,3.813,0,0,0,180,16.22c.053.633.722,1.386,2.011,1.913s3.162,1.329,3.57.252l-.531-.146a1.833,1.833,0,0,1,.726-2.307l.655.182.655-.873Z" fill="#ffc3bd"/>
          <path id="Path_14512" data-name="Path 14512" d="M191.2,16.348a2.453,2.453,0,0,0-3-1.736,2.418,2.418,0,0,0-1.112.647l-.044.053-.058.058a4.947,4.947,0,0,0-1.058,4.194v.027c.022.071.044.142.071.213a2.454,2.454,0,0,0,2.932,1.523,2.542,2.542,0,0,0,.5-.195,2.346,2.346,0,0,0,.629-.443,4.916,4.916,0,0,0,1.147-4.3.062.062,0,0,0-.009-.035h0Z" fill="#455a64"/>
          <path id="Path_14513" data-name="Path 14513" d="M188.728,15.7a4.929,4.929,0,0,0-1.16,4.3,1.357,1.357,0,0,0,2.484.669,4.916,4.916,0,0,0,1.16-4.291c-.363-1.382-1.475-1.683-2.484-.682h0Z" fill="#37474f"/>
        </g>
        <path id="Path_14514" data-name="Path 14514" d="M136.531,129.449c-.146.049-.168.885-.035,1.174a4.428,4.428,0,0,0,2.95,1.7,23.3,23.3,0,0,0,5.585-.066,50.971,50.971,0,0,1,5.722.509,4.6,4.6,0,0,0,3.742-.779,1.174,1.174,0,0,0,.261-.921c-.031-.74-.1-.886-.186-.886l-18.038-.726Z" fill="#920000"/>
        <path id="Path_14515" data-name="Path 14515" d="M154.281,127.987q.053.221.093.443a7.529,7.529,0,0,1,.164,2.267,2.064,2.064,0,0,1-1.328,1.014,6.99,6.99,0,0,1-3.778.075,26.345,26.345,0,0,0-4.429-.275,27.645,27.645,0,0,1-3.871.195,9.3,9.3,0,0,1-2.852-.585c-.766-.328-1.546-.744-1.732-1.532A2.591,2.591,0,0,1,137.988,127a10.054,10.054,0,0,1,4.779-.885,8.583,8.583,0,0,0,3.72-.655,16.468,16.468,0,0,1,1.741-.992,4.429,4.429,0,0,1,1.329-.062c.988-.022,1.975-.044,2.958-.053h.806c.531.044.629,1.882.691,2.237.053.283.062.58.137.855.04.181.088.363.133.544h0Z" fill="#ff2d2d"/>
        <path id="Path_14516" data-name="Path 14516" d="M145.552,125.817a3.264,3.264,0,0,0-1.183,2.037c.027.558-.952.607-.979.049a2.933,2.933,0,0,1,.855-1.864,2.125,2.125,0,0,1,1.306-.221Z" fill="#cc1313"/>
        <path id="Path_14517" data-name="Path 14517" d="M143.285,126.1a2.3,2.3,0,0,0-.952,1.771c0,.412-.885.376-.855-.035a3.029,3.029,0,0,1,.779-1.723c.27-.173.939-.177,1.027-.013Z" fill="#cc1313"/>
        <path id="Path_14518" data-name="Path 14518" d="M163.307,112.629a3.939,3.939,0,0,0,.093,2.883,6.275,6.275,0,0,0,2.179,2.71,10.982,10.982,0,0,1,1.931,2.245,9.615,9.615,0,0,0,2.015,2.418,3.937,3.937,0,0,0,3.18.164c.828-.368,1.1-.686,1.023-2.015s-4.123-1.705-4.123-1.705l-6.3-6.7Z" fill="#920000"/>
        <path id="Path_14519" data-name="Path 14519" d="M173.1,117.106c.341.124.443.775.518,2.068.062.979.5,2.409-.837,3.051a3.293,3.293,0,0,1-3.583-.686c-.939-1.134-1.581-2.135-2.923-3.516-1.16-1.2-2.352-1.585-2.91-4.017a2.013,2.013,0,0,1,1.364-2.657c1.439-.647,3.437.885,4.478,1.6.841.558,3.547,4.035,3.893,4.154Z" fill="#ff2d2d"/>
        <path id="Path_14520" data-name="Path 14520" d="M169.206,112.881l-.195-.062a3.756,3.756,0,0,0-3.1,2.135c-.19.443.421.758.771.416a4.017,4.017,0,0,1,3.1-2.126,1.686,1.686,0,0,0-.576-.363h0Z" fill="#cc1313"/>
        <path id="Path_14521" data-name="Path 14521" d="M170.167,113.607a3.733,3.733,0,0,0-2.914,2.113c-.186.443.421.757.771.416a3.849,3.849,0,0,1,2.6-2.02,5.675,5.675,0,0,0-.452-.509h0Z" fill="#cc1313"/>
        <path id="Path_14522" data-name="Path 14522" d="M172.776,88.452c-.226-4.765.292-13.114.239-18.977,1.51-5.159.443-7.334-.886-9.881a46.612,46.612,0,0,0-3.33-5.607l-3.1,13.061-4.973,5.288s2.963,15.363,3.694,18.676c.62,2.817,3.986,26.311,3.986,26.311.314,1.532,3.88,1.727,4.726.642.239-5.213,1.191-20.04,1.2-21.7a17.178,17.178,0,0,0-1.559-7.812h0Z" fill="#37474f"/>
        <path id="Path_14523" data-name="Path 14523" d="M151.141,65.037s-1.971,28.229-1.971,33.831c0,2.144-1.169,26.408-1.169,26.408,0,.633.589,1.1,2.046,1.041,2.077-.093,3.255-.479,3.339-.885.062-.288,3.246-13.6,4.07-17.95a32.976,32.976,0,0,0,.345-9.836c1.174-6.245,3.543-19.854,4.1-24.323.483-3.822-10.757-8.286-10.757-8.286h0Z" fill="#37474f"/>
        <path id="Path_14524" data-name="Path 14524" d="M151.836,54.86c-1,6.081-1.187,7.972-1.927,15.766-.576,6.067-.93,23.605-.957,26.054s-.492,17.578-.492,17.578,4.575,1.723,7.485.443c0,0,1.289-5.27,1.847-7.662a25.715,25.715,0,0,0,.385-9.5L161.5,76.9s2.657,14.827,3.446,19.044l1.555,8.313a10.329,10.329,0,0,0,3.884.616,6.333,6.333,0,0,0,3.685-1.369s.39-5.589.4-7.48a16.43,16.43,0,0,0-1.523-7.657l.42-18.907a11.439,11.439,0,0,0,.443-6.643c-1.187-4.105-4.805-10.279-4.805-10.279l-17.17,2.321Z" fill="#37474f"/>
        <path id="Path_14525" data-name="Path 14525" d="M161.5,76.933l1.329-4.907s4.114-.328,6.3-3.166c-.7,1.329-1.373,2.91-5.084,4.322l-1.3,5.009,1.922,16.36Z" fill="#263238"/>
        <path id="Path_14526" data-name="Path 14526" d="M172.82,36.906c-.279-1.98-.983-4.38-2.887-5.2s-5.337-.5-5.337-.5c-.27.885-3.543,2.059-5.182.5-1.577.332-3.512.691-5.633,1.209-1.683.407-2.657,6.78-3.778,8.857-1.3,2.414.354,4.872,2.011,6.156,0,0-.044,3.853-.173,6.958,2.905,2.436,8.33,3.1,12.524,2.006,3.158-.824,4.4-1.807,4.659-3.034.208-.957.766-4.057,1.227-5.727,1.063-3.87,2.941-8.587,2.569-11.222h0Z" fill="#ffc3bd"/>
        <path id="Path_14527" data-name="Path 14527" d="M169.932,31.7c-1.909-.819-5.341-.5-5.341-.5-.27.886-3.543,2.059-5.182.5-1.577.332-3.512.691-5.633,1.209-1.683.407-3.516,4.473-4.455,8.627a6.357,6.357,0,0,0,2.577,6.28s.049,1.125.066,2.56a20.6,20.6,0,0,0,12.879,1.355,16.006,16.006,0,0,0,4.973-1.829c.106-.319.217-.824.93-2.879s2.445-7.485,2.073-10.12c-.279-1.98-.983-4.38-2.887-5.2h0Z" fill="#407bff"/>
        <path id="Path_14528" data-name="Path 14528" d="M153.776,32.911c-2.555-.173-5.372.6-6.506,5.624-.885,1.271-2.276,2.781-3.543,4.717-1.417,2.214-2.214,4.11-3.543,6.532-1.289,2.578-.713,3.353.558,4.535,1.164,1.085,8.277,5.757,8.7,6.3s0,5.824.766,6.577a16.211,16.211,0,0,1,.341-1.7,15.916,15.916,0,0,1,1.771-3.826,5.552,5.552,0,0,0,1.036-3.543c-.1-.7-1.094-1.182-1.771-1.838-1.794-1.714-5.195-5.058-5.195-5.058l8.2-9.212c1.417-1.834,2.227-7.436-.815-9.11Z" fill="#ffc3bd"/>
        <path id="Path_14529" data-name="Path 14529" d="M146.407,51.237a10.4,10.4,0,0,1-2.374,1.683,5.611,5.611,0,0,0,2.79-1.187l-.416-.5Z" opacity="0.1"/>
        <path id="Path_14530" data-name="Path 14530" d="M152.674,12.969v-.031a2.254,2.254,0,0,1,.479-1.718,2.755,2.755,0,0,1,1.156-.585c1.138-.359,2.276-.718,3.428-1.032a17.239,17.239,0,0,1,6.67-.748,7.735,7.735,0,0,1,5.651,3.282,2.657,2.657,0,0,1,.469,1.094c.022.266-.084.5-.071.775.04.828.443,1.634.549,2.453a19.129,19.129,0,0,1,.128,2.657c0,3.676-8.64,5.691-8.583,8.211q-2.152-2.857-4.3-5.722c0-.23-.607-.833-.74-1.032-.257-.376-.483-.779-.718-1.169-.726-1.218-1.953-1.86-2.8-2.958a6.338,6.338,0,0,1-1.32-3.476h0Z" fill="#263238"/>
        <path id="Path_14531" data-name="Path 14531" d="M154.317,19.386s-1.568,2.122-1.386,2.361a3.463,3.463,0,0,0,1.107.527l.279-2.888Z" fill="#ed847e"/>
        <path id="Path_14532" data-name="Path 14532" d="M159.117,12.654c-1.461.664-3.986,1.9-4.872,7.051-.885,5.288.235,7.188.943,7.919.479.492,3.038.775,4.4.443,1.7-.443,5.408-2.046,7.228-4.712,2.148-3.144,2.75-7.427.509-9.216a8.707,8.707,0,0,0-8.206-1.484h0Z" fill="#ffc3bd"/>
        <path id="Path_14533" data-name="Path 14533" d="M158.891,27.761l-.066,4.265c1.444,1.9,6.776,1.581,6.51-.757l.1-4.455Z" fill="#ffc3bd"/>
        <path id="Path_14534" data-name="Path 14534" d="M155.34,27.721a7.392,7.392,0,0,0,3.543.443l.031-.961a9.588,9.588,0,0,1-1.718.479,5.984,5.984,0,0,1-1.856.04h0Z" fill="#e5afaa"/>
        <path id="Path_14535" data-name="Path 14535" d="M158.5,12.468a5.7,5.7,0,0,0-1.705.886,2.29,2.29,0,0,0-.625.731,1.723,1.723,0,0,0-.155.855,2.276,2.276,0,0,0,1.253,1.9,2.241,2.241,0,0,0-.443,1.834,4.473,4.473,0,0,0,1.231,1.949.332.332,0,0,0,.106.084.292.292,0,0,0,.235-.062c.925-.562,1.528-1.572,2.781-1.1,1.639.62,1.661,2.241.611,3.632a2.214,2.214,0,0,1-1.6,1.014,1.236,1.236,0,0,1-1.023-.345s.137,3.1,2.427,4.256c0,0,2.347.837,3.849-.049.934-1.585,2.489-2.6,3.543-3.986,2.79-3.68,5.221-9.885-.593-12.073-.2-.075-.4-.146-.607-.208a12.622,12.622,0,0,0-8.6.443c-.226.071-.456.168-.682.239h0Z" fill="#263238"/>
        <path id="Path_14536" data-name="Path 14536" d="M177,30.409a6.408,6.408,0,0,1-6.413-6.4V13.54A6.413,6.413,0,0,1,177,19.948V30.409Z" fill="#263238"/>
        <path id="Path_14537" data-name="Path 14537" d="M157.869,22.5a1.231,1.231,0,0,1-.694-1.6l.008-.02a1.267,1.267,0,0,1,1.643-.673Z" fill="#263238"/>
        <path id="Path_14538" data-name="Path 14538" d="M170.083,13.332a1.085,1.085,0,0,0,1.528-.135l.013-.016a1.116,1.116,0,0,0-.168-1.559Z" fill="#263238"/>
      </g>
    </g>
  </g>
</svg>
