<svg xmlns="http://www.w3.org/2000/svg" width="20.165" height="18.42"><path data-name="Path 4022" d="M20.053 9.651 10.619.217a.758.758 0 0 0-1.073 0L6.105 3.658v-.944a.379.379 0 0 0-.379-.379h-1.9a.379.379 0 0 0-.379.379v3.607l-3.33 3.33a.379.379 0 0 0 .268.647h1.739v7.737a.379.379 0 0 0 .379.379h4.549a.379.379 0 0 0 .379-.379v-4.684a.379.379 0 0 1 .379-.379h4.552a.379.379 0 0 1 .379.379v4.684a.379.379 0 0 0 .379.379h4.548a.379.379 0 0 0 .379-.379v-7.732h1.739a.379.379 0 0 0 .268-.647Z" fill="#19468b"/></svg>