<svg xmlns="http://www.w3.org/2000/svg" width="188.571" height="170.001" viewBox="0 0 188.571 170.001">
  <g id="medical-chkup" transform="translate(-0.278 0.091)">
    <ellipse id="Ellipse_61" data-name="Ellipse 61" cx="94.286" cy="56.431" rx="94.286" ry="56.431" transform="translate(0.279 57.048)" fill="#fafafa"/>
    <path id="Path_14539" data-name="Path 14539" d="M145.915,50.623l-1.175,39.8s10.495-2.6,19.9-.994,11.653,3.8,11.653,3.8l-6.07-58.555-21.7.66s-2.6,3.567-2.6,15.29h0Z" fill="#e0e0e0"/>
    <path id="Path_14540" data-name="Path 14540" d="M173.881,140.509a6.851,6.851,0,0,0,1.237,4.264,3.608,3.608,0,0,0,3.872,1.237,4.668,4.668,0,0,0,3.328-3.369,10.839,10.839,0,0,0-.322-4.783l-8.115,2.651Z" fill="#263238"/>
    <path id="Path_14541" data-name="Path 14541" d="M177.943,106a100.37,100.37,0,0,0-2.585-9.9s-1.649-13.967-2.375-25.859c-.355-5.719-.227-9.571-3.637-16.21L149.5,59.4c-.243,3.043-2.107,23.789-1.192,41.673.755,14.684,1.736,21.6,1.839,24.053.054,1.39.029,2.313-.029,4.243a4.117,4.117,0,0,1-.874,1.893A6.436,6.436,0,0,1,147.527,133a14.69,14.69,0,0,1-4.169,2.651,3.949,3.949,0,0,0-.981.482,1.237,1.237,0,0,0-.528.932,1.526,1.526,0,0,0,.882,1.2,6.653,6.653,0,0,0,5.34.181c1.748-.565,3.369-1.493,5.126-2.029a18.138,18.138,0,0,0,3.62-1.179,1.86,1.86,0,0,0,.87-.854,2.205,2.205,0,0,0,.087-1.039,25.093,25.093,0,0,1-.247-3.559c.033-1.464.239-4.177.35-5.641.091-1.237,1.522-12.206,1.3-17.678a37.823,37.823,0,0,1,.161-5.01l1.761-19.43c.825,3.249,3.8,12.651,4.734,16.948,1.138,5.253,3.06,11.909,5.439,21.517.668,2.705,1.889,6.058,2.2,7.691s.713,6.713,1.621,9c1.381,3.472,5.295,3.46,5.649.445.305-2.561-1.336-9.579-1.4-11.261s-.1-13.472-1.4-20.362h0Z" fill="#c8856a"/>
    <path id="Path_14542" data-name="Path 14542" d="M179.959,128.538c.326,2.062.606,3.625.825,4.816.61,2.037.849,3.023,1.192,4.342a7.8,7.8,0,0,1-.153,5.258c-.9,1.724-4.536,3.5-6.449,1.282-1.563-1.806-1.5-2.668-1.493-5.361v-2.321a15.765,15.765,0,0,0-.445-4.4c-.206-.87,0-2.2-.177-3.122-.181-1-.256-1.439.054-1.6,0,0,.161,1.287.359,2.214.186.854.33,1.715.5,2.569.21,1.052.392,2.107.689,3.142.033.111.087.247.2.264s.231-.161.239-.305a.639.639,0,0,1,.148-.474,1.728,1.728,0,0,1,.52-.318,5.046,5.046,0,0,1,1.15-.309,4.946,4.946,0,0,1,1.7-.07.94.94,0,0,1,.466.2,3.037,3.037,0,0,1,.268.371c.082.087.231.136.317.054a.289.289,0,0,0,.074-.181,3.293,3.293,0,0,0,.021-.726c-.045-1.348-.136-2.668-.309-4a19.656,19.656,0,0,1-.289-3.183,4.074,4.074,0,0,1,.586,1.86Z" fill="#37474f"/>
    <path id="Path_14543" data-name="Path 14543" d="M158.892,134.789l-20.206,4.458a1.592,1.592,0,0,0,.161,1.431c.738.944,3.229,2.218,6.309,1.835a11.138,11.138,0,0,0,5.893-2.618,8.449,8.449,0,0,1,1.905-1.175,10.4,10.4,0,0,1,2.594-.458,13.845,13.845,0,0,0,2.041-.586,4.23,4.23,0,0,0,1.357-.738,5.719,5.719,0,0,0,.095-1.163c-.041-.289-.087-.7-.149-.986h0Z" fill="#263238"/>
    <path id="Path_14544" data-name="Path 14544" d="M154.249,132.794a6.383,6.383,0,0,1,2.334-1.538,1.373,1.373,0,0,0,.944-1.5c0-.074.59-.029.684.074a1.076,1.076,0,0,1,.268.73c.049.631.124.928.223,1.583a9.634,9.634,0,0,1,.334,3.629c-.907,1.216-3.711,1.8-5.2,2-2.342.317-4.231,2.392-6,3.01a10.662,10.662,0,0,1-7.649-.132c-1.423-.755-2.223-2.008-1.052-2.911.713-.553,4.771-2.759,5.5-3.175.577-.334,1.13-.726,1.7-1.08a.866.866,0,0,1,.305-.144.9.9,0,0,1,.388.041,10.668,10.668,0,0,1,2.062.755.961.961,0,0,1,.548.52c.124.433-.7,1.2-.2,1.34s1.212-.487,1.567-.689a10.911,10.911,0,0,0,3.208-2.474c.013-.014.027-.028.041-.041h0Z" fill="#37474f"/>
    <path id="Path_14545" data-name="Path 14545" d="M149.54,52.953l-.21,2.21a213.04,213.04,0,0,0-1.885,33.347c.6,14.511.849,43.479.849,43.479a8.992,8.992,0,0,0,5.752,1.538,15.259,15.259,0,0,0,4.845-.961s1.064-20.375,1.278-24.568a45.466,45.466,0,0,0-.107-5.361,38.353,38.353,0,0,1,.074-6.7l1.014-12.392s3.753,17.166,4.124,19.253c1.814,10.449,6.928,29.418,6.928,29.418a13.8,13.8,0,0,0,5.241.066c2.759-.532,3.381-1.971,3.381-1.971s-1.855-20.733-2.288-24.968c-.577-5.662-1.109-8.293-1.5-10.614-.462-2.726-.685-13.006-1-18.968-.214-4.082-.363-7.179-.825-10.177-.944-6.26-3.711-10.033-4.775-12.338L170.278,52c-3.1,2.738-14.907,4.445-20.738.948h0Z" fill="#455a64"/>
    <path id="Path_14546" data-name="Path 14546" d="M161.168,83.529l-2.94-11.695s-3.814-.8-5.69-3.064c0,0,.412,2.858,4.375,4.317l2.779,10.218.52,12.008.957-11.785Z" fill="#37474f"/>
    <g id="Group_13248" data-name="Group 13248">
      <path id="Path_14547" data-name="Path 14547" d="M175.316,17.478c.961-1.856,1.728-4.317,0-5.979.759-2.062,1.286-4.7-.825-6.09a4.972,4.972,0,0,0-3.41-5.13,4.844,4.844,0,0,0-5.542,1.274l1.439.676c.214,1.835.845,3.616,2.54,4.536-.68,2.124-.3,3.893,1.843,4.87a5.537,5.537,0,0,0,.3,6.47,4.39,4.39,0,0,0,.751,4.771c-1.237,1.489-.507,3.584.891,4.726a3.711,3.711,0,0,0-1.08,2.969A2.524,2.524,0,0,0,174.565,33c-.664-.532-.73-.895-.383-1.905s.948-2.218,0-3.336c.936-1.6,1.831-3.418.713-5.117.837-1.662,1.464-3.46.421-5.167h0Z" fill="#263238"/>
      <path id="Path_14548" data-name="Path 14548" d="M166.426,1.989c.511-.874,1.649-.524,2.585.264s1.8,2.136,1.282,2.887c-.874,1.22-4.359-2.3-3.868-3.151Z" fill="#407bff"/>
      <path id="Path_14549" data-name="Path 14549" d="M131.969,33.659c1.769,1.538,7.917,5.975,7.917,5.975s5.126-6.676,6.185-8.107c3.064-4.091,5.406-6.956,9.134-6.853L156.69,35.25C153.882,38.9,146.6,45.407,143.552,48.6c-1.6,1.674-3.526,1.39-5.183.359-3.464-2.165-11.113-11.472-11.113-11.472l4.714-3.827Z" fill="#c8856a"/>
      <path id="Path_14550" data-name="Path 14550" d="M154.653,24.521a7.4,7.4,0,0,0-5.155,2.561c-1.4,1.443-9.711,12.408-9.711,12.408l-2.994-2.177a10.433,10.433,0,0,1-1.818,5.006c-1.649,2.218-2.953,1.394-2.953,1.394a64.042,64.042,0,0,0,4.655,4.734c1.456,1.167,3.262,2.062,4.746,1.8s1.959-.676,5.464-4.227S156.974,35.84,156.974,35.84l-2.321-11.32Z" fill="#f0f0f0"/>
      <path id="Path_14551" data-name="Path 14551" d="M139.788,39.489a9.484,9.484,0,0,1,3.154,3.979,7.592,7.592,0,0,0-2.676-4.61l-.478.631Z" fill="#e0e0e0"/>
      <path id="Path_14552" data-name="Path 14552" d="M133.9,35.2c-2.264-1.806-3.625-3.3-3.637-5.509s.289-3.348.107-3.843-1.889-2.61-2.367-3.641-.965-.936-1.856-1.307c-1.076-.445-5.389-1.443-5.418-1.109a1.8,1.8,0,0,0,.887,1.959,19.7,19.7,0,0,0,3.113,1.118s-.746.907-1.105,1.291-.289.7.231,1.942c0,0-.586.256-.668.713a2.676,2.676,0,0,0,.239,1.336,1.237,1.237,0,0,0-.544.569,4.094,4.094,0,0,0,.606,2.326,14.023,14.023,0,0,0,.6,3.34,3.8,3.8,0,0,0,1.913,2.062,26.265,26.265,0,0,1,2.635,2.573s7.332-2.165,5.262-3.819h0Z" fill="#c8856a"/>
      <path id="Path_14553" data-name="Path 14553" d="M129.132,26.29a4.124,4.124,0,0,1-1.592-2.14c-.247-.866-.462-1.843-.746-1.852-.482,0-1.394.928-1.118,2.371.264,1.377.932,2.99.981,3.39a6.239,6.239,0,0,1-.573,2.062,3.81,3.81,0,0,0,1.3,4.169,3.534,3.534,0,0,1-1.781-1.926c-.676-1.526.231-3.076.412-3.814s.214-.887-.247-2.148-.969-2.614,0-3.86,1.427-.647,1.6-.239.491,3.056,1.765,3.988Z" fill="#af6152"/>
      <path id="Path_14554" data-name="Path 14554" d="M124.732,22.871l.895.437-.285.235a1.163,1.163,0,0,0-1.237.087Z" fill="#af6152"/>
      <path id="Path_14555" data-name="Path 14555" d="M123.842,26.1c.157.412.722,1.674.825,1.93s.6.169.882-.322a1.839,1.839,0,0,0,.28-1.324,1.992,1.992,0,0,1-.07,1.423c-.338.643-.8.726-1.08.643s-.482-1.468-.837-2.35Z" fill="#af6152"/>
      <path id="Path_14556" data-name="Path 14556" d="M123.429,28.153c.111.313.338.713.672,1.575.19.5.293.825.6.779a1.35,1.35,0,0,0,.763-1.3,4.469,4.469,0,0,0-.251-1.031l.243-.107a3.522,3.522,0,0,1,.264,1.649c-.124.73-.825,1.307-1.142,1.118s-.412-.47-.664-1.192-.487-1.489-.487-1.489Z" fill="#af6152"/>
      <path id="Path_14557" data-name="Path 14557" d="M124.473,30.582c.049.21-.058.689-.412.705a.759.759,0,0,1-.573-.239.643.643,0,0,0,.614.412c.412-.025.623-.462.689-.825l-.318-.053Z" fill="#af6152"/>
      <path id="Path_14558" data-name="Path 14558" d="M166.113,23.956l5.674,1.513c1.13.384-.144,7.047.169,14.676.326,7.835.606,20.478.606,20.478s-3.369,1.806-12.886,2.062c-5.954.161-11.439-3.138-11.439-3.138l1.093-9.072V42.429s-3.34-4.066-1.464-8.717,8.371-10.693,8.371-10.693l2.915.14,6.961.8Z" fill="#407bff"/>
      <path id="Path_14559" data-name="Path 14559" d="M166.113,23.956l5.674,1.513c1.13.384-.144,7.047.169,14.676.326,7.835.606,20.478.606,20.478s-3.369,1.806-12.886,2.062c-5.954.161-11.439-3.138-11.439-3.138l1.093-9.072V42.429s-3.34-4.066-1.464-8.717,8.371-10.693,8.371-10.693l2.915.14,6.961.8Z" fill="#fff" opacity="0.7"/>
      <path id="Path_14560" data-name="Path 14560" d="M166.809,41.11a6.321,6.321,0,0,1-5.559,2.738,6.235,6.235,0,0,1-5-3.031s.651,3.926,5.361,4.012,5.2-3.719,5.2-3.719h0Z" fill="#407bff" opacity="0.3"/>
      <path id="Path_14561" data-name="Path 14561" d="M159.37,23.4c-2.342,1.955-5.992,4.585-8.156,7.422-4.371,5.715-4.948,10.9-5.3,17.55-.07-9.93-1.649-15.451,10.309-25.719a17.428,17.428,0,0,1,2.981-2.243l.165,2.99Z" fill="#fafafa"/>
      <g id="Group_13246" data-name="Group 13246">
        <path id="Path_14562" data-name="Path 14562" d="M152.166,9.742C147.8,1.029,156.455-.806,161.873.13c5.7.981,11.076,4.845,9.356,12.3-.746,3.22-2.61,5.592-4.082,8.359L152.166,9.742Z" fill="#263238"/>
        <path id="Path_14563" data-name="Path 14563" d="M169.04,10.806a2.159,2.159,0,0,0-2.738,1.237c-1.171.8-1.732-.759-1.971-1.5-.874-2.726-.445-4.688-2.746-5.476-1.055-.363-2.029.5-2.965,1.114a2.235,2.235,0,0,1-1.79.466,19.125,19.125,0,0,1-2.185-1.237c-1.526-.771-2.021,1.089-2.35,3.093a25.315,25.315,0,0,0-.115,4.886c.318,5.361,1.175,7.241,3.249,8.247a6.651,6.651,0,0,0,3.851.33l.144,2.309a17.645,17.645,0,0,0-2.887,8.453,33.9,33.9,0,0,0,6.6-3.831c4.124-3.447,4.2-5.567,4.2-5.567l-.454-6.956a1.9,1.9,0,0,0,2.594-.577c1.439-1.881,1.373-4.289-.437-4.994h0Z" fill="#c8856a"/>
        <path id="Path_14564" data-name="Path 14564" d="M159.3,21.993c1.728-.334,4.87-1.423,5.361-2.887a2.754,2.754,0,0,1-1.183,2.235c-1.089.9-4.124,1.555-4.124,1.555l-.054-.9Z" fill="#af6152"/>
      </g>
      <path id="Path_14565" data-name="Path 14565" d="M159.486,16.863l-1.773.586a.915.915,0,0,0,1.127.638l.036-.011a.977.977,0,0,0,.61-1.212h0Z" fill="#af6152"/>
      <path id="Path_14566" data-name="Path 14566" d="M153.391,9.123l1.786-.548a.9.9,0,0,0-1.094-.648l-.044.012a.977.977,0,0,0-.647,1.183Z" fill="#263238"/>
      <path id="Path_14567" data-name="Path 14567" d="M161.779,9.424l-1.649-.849a.9.9,0,0,1,1.188-.437l.05.025a.981.981,0,0,1,.412,1.262Z" fill="#263238"/>
      <path id="Path_14568" data-name="Path 14568" d="M153.531,12.191a.759.759,0,1,0,.792-.759.771.771,0,0,0-.792.75v.009Z" fill="#263238"/>
      <path id="Path_14569" data-name="Path 14569" d="M159.416,12.451a.759.759,0,1,0,.792-.759.775.775,0,0,0-.792.758h0Z" fill="#263238"/>
      <path id="Path_14570" data-name="Path 14570" d="M150.674,10.018a1.336,1.336,0,0,0,.256.771.582.582,0,0,1,.107.276,13.338,13.338,0,0,0,.26,2.115A2.087,2.087,0,0,0,153.4,14.74a3.269,3.269,0,0,0,.775-.054h.062a2.321,2.321,0,0,0,.647-.243l.041-.021.054-.037.074-.045.066-.045.07-.058.07-.058a.934.934,0,0,0,.132-.124,3.373,3.373,0,0,0,.573-.825c.383-.734.383-1.765.924-1.872h.136c.717,0,.553,1.142.895,1.955a2.533,2.533,0,0,0,2.552,1.678h.371a3.544,3.544,0,0,0,.387-.049l.12-.029.12-.033h.07a2.337,2.337,0,0,0,.445-.2l.148-.1a1.873,1.873,0,0,0,.26-.218,2.685,2.685,0,0,0,.52-.75,13.534,13.534,0,0,0,.532-2.087.94.94,0,0,1,.136-.3,1.464,1.464,0,0,0,.384-.738.619.619,0,0,0-.413-.656l-.379-.054a11.122,11.122,0,0,0-3.773,0c-1.237.309-1.649.689-2.334.668s-.994-.412-2.095-.825a10.137,10.137,0,0,0-3.509-.235l-.359.033c-.181-.025-.42.268-.433.6h0Zm7.835.878a1.2,1.2,0,0,1,.363-.276l.062-.033h.037l.173-.078.161-.062a4.586,4.586,0,0,1,.524-.153l.206-.045q.264-.049.532-.074h.124a2.987,2.987,0,0,1,2.115.449c.247.239.082,1.332-.058,1.884v.041a.149.149,0,0,0,0,.041.9.9,0,0,1-.062.227,1.313,1.313,0,0,0-.045.136,2.432,2.432,0,0,1-.091.231l-.037.078a.247.247,0,0,1-.021.049.457.457,0,0,0-.029.054l-.037.066a.412.412,0,0,1-.041.07l-.107.157a1.913,1.913,0,0,1-1.691.767,2.128,2.128,0,0,1-1.691-.705,2.334,2.334,0,0,1-.487-1.138,2.506,2.506,0,0,1,.07-1.687h.028Zm-6.746-.676a1.158,1.158,0,0,1,.3-.173L152.2,10h.252l.268-.041h.614a5.2,5.2,0,0,1,.524.058,2.934,2.934,0,0,1,1.831.874,2.844,2.844,0,0,1-.074,1.67,3.265,3.265,0,0,1-.14.412V13a.4.4,0,0,1,0,.041v.029l-.025.049-.054.1-.054.087a.074.074,0,0,1-.021.029l-.037.062-.037.049a1.979,1.979,0,0,1-1.818.783,1.9,1.9,0,0,1-.858-.231,2.279,2.279,0,0,1-.953-1.831c-.091-.635-.144-1.72.136-1.955h.013Z" fill="#37474f"/>
      <path id="Path_14571" data-name="Path 14571" d="M163.428,9.915l3.658,1.13a3.239,3.239,0,0,0-.685.825L163.449,11l-.021-1.089Z" fill="#37474f"/>
      <path id="Path_14572" data-name="Path 14572" d="M157.292,11.432l-.412,4.779-2.606-.825L157,11.333a.586.586,0,0,1,.3.1h0Z" fill="#af6152"/>
      <path id="Path_14573" data-name="Path 14573" d="M167.251,22.088c-.173,2.474-1.109,6.008-1.344,12.713s1.81,58.406,1.81,58.406,7.1.9,12.329-2.082c0,0-1.856-21.331-5.88-38.894-1.043-4.536.862-10.2,1.237-16.338a25.851,25.851,0,0,0-1.282-9.855,43.433,43.433,0,0,1-4.948-1.946,6.086,6.086,0,0,1-1.922-2h0Z" fill="#fafafa"/>
      <path id="Path_14574" data-name="Path 14574" d="M167.589,23.35a5.393,5.393,0,0,0,1.344,1.155,40.328,40.328,0,0,0,4.833,1.913,26.029,26.029,0,0,1,1.179,9.459c-.136,2.21-.478,4.379-.8,6.441-.569,3.612-1.109,7.031-.412,10,3.711,16.206,5.6,35.875,5.843,38.531a20.187,20.187,0,0,1-9.3,2c-.932,0-1.67-.049-2.095-.087-.19-4.858-2.016-51.66-1.794-57.965a77.517,77.517,0,0,1,.965-9.732c.095-.631.186-1.212.256-1.748m-.338-1.237c-.173,2.474-1.109,6.008-1.344,12.713s1.81,58.406,1.81,58.406a22.271,22.271,0,0,0,2.54.128,20.457,20.457,0,0,0,9.789-2.21s-1.856-21.331-5.88-38.894c-1.043-4.536.862-10.2,1.237-16.338a25.852,25.852,0,0,0-1.282-9.855,43.433,43.433,0,0,1-4.948-1.946,6.087,6.087,0,0,1-1.917-2h0Z" fill="#ebebeb"/>
      <g id="Group_13247" data-name="Group 13247">
        <path id="Path_14575" data-name="Path 14575" d="M150.233,57.868a4.3,4.3,0,0,1,.862.033c.318.041.61.1.932.111s.672,0,1.01,0h1.419a10.561,10.561,0,0,0,2.627-.52c.272-.091.54-.194.825-.305.12-.054.264-.157.227-.285a.276.276,0,0,0-.169-.14c-.384-.169-.8-.268-1.2-.412a2.474,2.474,0,0,1-1.064-.652c-.194-.223-.524-.891-.247-1.167.21-.206.746,0,.986.037a8.981,8.981,0,0,0,1.55.243c.561.029,1.126-.037,1.687,0a5.773,5.773,0,0,1,2.119.482c.631.276,1.237.656,1.872.878,1.237.412,3.035-.049,4.623-.586a93.4,93.4,0,0,0,8.849-3.926l-3.406-12.371c-1.393-3.3-1.934-11.546-.268-12.981A7.821,7.821,0,0,1,179.5,28.6c1.27,1.373,2.119,4.742,3.864,11,1.237,4.453,2.239,8.639,2.973,12.738.825,4.557-.825,6.111-4.919,7.031-6.853,1.53-12.214,2.948-14.948,3.154h-.14c-1.344.111-2.684.3-4.029.412-.689.062-1.394.054-2.062.157a4.429,4.429,0,0,1-2.594-.268c-1.006-.487-1.748-1.538-2.858-1.7a6.719,6.719,0,0,1-1-.111c-.561-.169-.907-.689-1.377-1.006a5.363,5.363,0,0,0-.965-.412l-1.072-.454a5.145,5.145,0,0,1-.759-.367.655.655,0,0,1-.2-.169c-.343-.462.54-.713.816-.734h0Z" fill="#c8856a"/>
        <path id="Path_14576" data-name="Path 14576" d="M173.032,25.7c5.15,1.052,5.773,1.311,7.146,3.5,1.683,2.639,2.887,8.3,4.8,15.546a63.691,63.691,0,0,1,1.876,9.736,4.383,4.383,0,0,1-3.3,4.6c-2.887.722-6.75,1.542-6.75,1.542s.825-5.567-1.81-8.053l1.955-.99-4.165-12.63s-2.652-9.645.243-13.249h0Z" fill="#f0f0f0"/>
        <path id="Path_14577" data-name="Path 14577" d="M176.962,51.58a9.649,9.649,0,0,1,5.093.165s-1.332-1.538-5.41-1.237l.318,1.072Z" fill="#e0e0e0"/>
      </g>
      <path id="Path_14578" data-name="Path 14578" d="M170.731,24.781a7.157,7.157,0,0,1-2.792-2.239c-.4-.754-.367-1.118-.73-1.113l.045.7a51.346,51.346,0,0,0-1.616,11.958c-.066,4.049.355,9.262.355,9.262,1.217-2.866,2.5-6.845,2.5-6.845l-1.546-3.711c.985-3.67,3.1-6.058,3.781-8.012h0Z" fill="#f0f0f0"/>
      <path id="Path_14579" data-name="Path 14579" d="M163.135,27.473l-.305-.351a27.491,27.491,0,0,0,5.658-7.534,9.258,9.258,0,0,0,.095-4.354l.458-.082a9.491,9.491,0,0,1-.12,4.61,27.517,27.517,0,0,1-5.785,7.711Z" fill="#455a64"/>
      <path id="Path_14580" data-name="Path 14580" d="M156.966,22.076l-.445.825a.866.866,0,0,0-.412-.194c.136-.268.268-.507.383-.713a3.6,3.6,0,0,0,.474.083h0Z" fill="#455a64"/>
      <path id="Path_14581" data-name="Path 14581" d="M169.065,13.787a1.064,1.064,0,1,0-1.134,1.513s.412,0,.548.614a4.076,4.076,0,0,1,.12,1.175.623.623,0,0,0,.75-.165,6.614,6.614,0,0,0-.285-3.138Z" fill="#37474f"/>
      <path id="Path_14582" data-name="Path 14582" d="M140.262,48.673a15.059,15.059,0,0,1-6.012-1.237c-3.678-1.6-9.851-6.288-9.851-19.682h.928c0,9.534,3.3,16.222,9.295,18.828,5.563,2.421,11.781.726,14.812-2.1,2.845-2.647,3.522-5.682,4.124-8.363a15.081,15.081,0,0,1,1.237-3.934l.825.454a14.349,14.349,0,0,0-1.159,3.682c-.6,2.7-1.34,6-4.392,8.849a14.831,14.831,0,0,1-9.806,3.5h0Z" fill="#ff2d2d"/>
      <path id="Path_14583" data-name="Path 14583" d="M140.262,48.673a15.059,15.059,0,0,1-6.012-1.237c-3.678-1.6-9.851-6.288-9.851-19.682h.928c0,9.534,3.3,16.222,9.295,18.828,5.563,2.421,11.781.726,14.812-2.1,2.845-2.647,3.522-5.682,4.124-8.363a15.081,15.081,0,0,1,1.237-3.934l.825.454a14.349,14.349,0,0,0-1.159,3.682c-.6,2.7-1.34,6-4.392,8.849a14.831,14.831,0,0,1-9.806,3.5h0Z" fill="#fff" opacity="0.3"/>
      <path id="Path_14584" data-name="Path 14584" d="M165.849,24.937a44.3,44.3,0,0,1-3.9,4.124,27.67,27.67,0,0,1-5.4,3.567,3.183,3.183,0,0,1-1.134.285,1.039,1.039,0,0,1-.309-.041c-.322-.107-1.295-.412-1-5.872a18.359,18.359,0,0,1,1.715-4.189.256.256,0,0,1,.268-.087.866.866,0,0,1,.412.194c.115.1.181.218.124.322a18.479,18.479,0,0,0-1.6,3.81c-.148,2.783.078,4.7.384,4.948a2.271,2.271,0,0,0,1.237-.412,32.934,32.934,0,0,0,4.676-3.225,44.6,44.6,0,0,0,3.777-4c.276-.26.928.342.751.573Z" fill="#ff2d2d"/>
      <path id="Path_14585" data-name="Path 14585" d="M165.849,24.937a44.3,44.3,0,0,1-3.9,4.124,27.67,27.67,0,0,1-5.4,3.567,3.183,3.183,0,0,1-1.134.285,1.039,1.039,0,0,1-.309-.041c-.322-.107-1.295-.412-1-5.872a18.359,18.359,0,0,1,1.715-4.189.256.256,0,0,1,.268-.087.866.866,0,0,1,.412.194c.115.1.181.218.124.322a18.479,18.479,0,0,0-1.6,3.81c-.148,2.783.078,4.7.384,4.948a2.271,2.271,0,0,0,1.237-.412,32.934,32.934,0,0,0,4.676-3.225,44.6,44.6,0,0,0,3.777-4c.276-.26.928.342.751.573Z" fill="#fff" opacity="0.3"/>
      <path id="Path_14586" data-name="Path 14586" d="M127.19,26.162a3.122,3.122,0,0,0-1.3-2.474.825.825,0,0,0-.854-.066l-1.035.6a1.167,1.167,0,0,0-.449,1.056,3.126,3.126,0,0,0,1.307,2.474.825.825,0,0,0,.849.066l1.035-.6a1.155,1.155,0,0,0,.449-1.056h0Z" fill="#263238"/>
      <ellipse id="Ellipse_62" data-name="Ellipse 62" cx="1.134" cy="2" rx="1.134" ry="2" transform="translate(122.921 24.807) rotate(-22.973)" fill="#263238"/>
      <path id="Path_14587" data-name="Path 14587" d="M126.576,27.494a5.723,5.723,0,0,0-2.388-4.561,1.534,1.534,0,0,0-1.563-.128l-.664.384a2.121,2.121,0,0,0-.825,1.93,5.718,5.718,0,0,0,2.388,4.561,1.514,1.514,0,0,0,1.559.124l.664-.379a2.123,2.123,0,0,0,.829-1.93h0Z" fill="#37474f"/>
      <path id="Path_14588" data-name="Path 14588" d="M125.9,27.885c0,1.761-1.072,2.569-2.388,1.806a5.729,5.729,0,0,1-2.388-4.561c0-1.757,1.068-2.569,2.388-1.806a5.7,5.7,0,0,1,2.388,4.561Z" fill="#455a64"/>
      <path id="Path_14589" data-name="Path 14589" d="M125.384,27.568c0,1.369-.825,2-1.856,1.4a4.432,4.432,0,0,1-1.86-3.546c0-1.369.825-2,1.86-1.406a4.419,4.419,0,0,1,1.856,3.551Z" fill="#e0e0e0"/>
      <path id="Path_14590" data-name="Path 14590" d="M127.553,24.149c-.247-.866-.462-1.843-.746-1.852-.482,0-1.394.928-1.117,2.371.264,1.377.932,2.99.981,3.39l2.474-1.769a4.124,4.124,0,0,1-1.592-2.14Z" fill="#c8856a"/>
    </g>
    <g id="Group_13249" data-name="Group 13249">
      <path id="Path_14591" data-name="Path 14591" d="M53.741,140.534a1.719,1.719,0,0,1-.5,1.835,9.384,9.384,0,0,1-6.458.891,11.7,11.7,0,0,1-5.983-2.643c-1.2-1.047-2.887-2.532-4.289-2.915a9.132,9.132,0,0,1-3.113-1.406c-.4-.4-.227-2.062-.227-2.062l20.572,6.3Z" fill="#455a64"/>
      <path id="Path_14592" data-name="Path 14592" d="M34.867,127.915a.5.5,0,0,0-.5.359c-.128.449-.326,1.777-.586,2.515a12.267,12.267,0,0,0-.581,4.02c.12.866,2.239,1.6,3.588,2.173a18.063,18.063,0,0,1,4.309,2.887,13.442,13.442,0,0,0,6.511,2.713c2.441.148,5.233-.383,5.93-1.373.866-1.237,1.53-2.664-1.979-4.433-.664-.334-2.977-1.794-3.765-2.322-2.128-1.418-3.608-2.693-4.474-5.01a.965.965,0,0,0-1.171-.825,25.934,25.934,0,0,0-3.6.379c-.5.177-1.2.375-1.237.944a1.649,1.649,0,0,0,.095.581c.037.12.062.276-.054.338s-.243-.029-.334-.111a8.812,8.812,0,0,1-.9-1.13,3.179,3.179,0,0,0-.536-.569,6.861,6.861,0,0,1-.594-.412c-.214-.214-.128-.458-.12-.726h0Z" fill="#407bff"/>
      <path id="Path_14593" data-name="Path 14593" d="M34.867,127.915a.5.5,0,0,0-.5.359c-.128.449-.326,1.777-.586,2.515a12.267,12.267,0,0,0-.581,4.02c.12.866,2.239,1.6,3.588,2.173a18.063,18.063,0,0,1,4.309,2.887,13.442,13.442,0,0,0,6.511,2.713c2.441.148,5.233-.383,5.93-1.373.866-1.237,1.53-2.664-1.979-4.433-.664-.334-2.977-1.794-3.765-2.322-2.128-1.418-3.608-2.693-4.474-5.01a.965.965,0,0,0-1.171-.825,25.934,25.934,0,0,0-3.6.379c-.5.177-1.2.375-1.237.944a1.649,1.649,0,0,0,.095.581c.037.12.062.276-.054.338s-.243-.029-.334-.111a8.812,8.812,0,0,1-.9-1.13,3.179,3.179,0,0,0-.536-.569,6.861,6.861,0,0,1-.594-.412c-.214-.214-.128-.458-.12-.726h0Z" fill="#fff" opacity="0.9"/>
      <path id="Path_14594" data-name="Path 14594" d="M41.094,139.87a23.836,23.836,0,0,0-1.88-1.476s4.091,2.643,5.876,1.691a1.33,1.33,0,0,0,.676-1.757c-.009-.272,4.025-1.889,5.105-1.934.289.173.532.309.685.388,3.509,1.769,2.845,3.212,1.979,4.433-.7.99-2.738,1.649-5.888,1.443a13.743,13.743,0,0,1-6.552-2.788h0Z" fill="#407bff" opacity="0.8"/>
      <path id="Path_14595" data-name="Path 14595" d="M41.094,139.87a23.836,23.836,0,0,0-1.88-1.476s4.091,2.643,5.876,1.691a1.33,1.33,0,0,0,.676-1.757c-.009-.272,4.025-1.889,5.105-1.934.289.173.532.309.685.388,3.509,1.769,2.845,3.212,1.979,4.433-.7.99-2.738,1.649-5.888,1.443a13.743,13.743,0,0,1-6.552-2.788h0Z" fill="#fff" opacity="0.8"/>
      <path id="Path_14596" data-name="Path 14596" d="M45.522,137.527c2.19.969,1.208,1.287.573,1.328s-4.28-2.231-6.474-4.049c-2.289-1.9-3.678-3.9-4.536-4.594-.318-.264-.656-.577-.957-.874.091-.445.165-.854.227-1.064a.5.5,0,0,1,.5-.359c0,.268-.078.511.128.726a6.871,6.871,0,0,0,.594.412,3.178,3.178,0,0,1,.536.569,8.815,8.815,0,0,0,.9,1.13,29.445,29.445,0,0,0,8.5,6.775h0Z" fill="#407bff"/>
      <path id="Path_14597" data-name="Path 14597" d="M45.955,138.542a.256.256,0,0,1-.14-.054.194.194,0,0,1-.015-.274l.015-.015c.68-.664,3.8-2.14,5.439-1.864a.21.21,0,0,1,.186.232v0a.218.218,0,0,1-.26.165c-1.534-.256-4.5,1.216-5.039,1.744a.235.235,0,0,1-.186.062h0Z" fill="#fafafa"/>
      <path id="Path_14598" data-name="Path 14598" d="M44.071,137.309a.256.256,0,0,1-.14-.054.194.194,0,0,1-.015-.274l.015-.015c.685-.664,3.8-2.14,5.443-1.864a.21.21,0,0,1,.182.235v0a.218.218,0,0,1-.256.161c-1.534-.251-4.5,1.216-5.039,1.744a.239.239,0,0,1-.19.062h0Z" fill="#fafafa"/>
      <path id="Path_14599" data-name="Path 14599" d="M42.195,136.138a.252.252,0,0,1-.136-.058.19.19,0,0,1-.016-.268l.016-.016c.685-.668,3.8-2.144,5.443-1.864a.206.206,0,0,1,.182.228v.008a.214.214,0,0,1-.254.165h0c-1.534-.256-4.5,1.216-5.043,1.74a.218.218,0,0,1-.19.066h0Z" fill="#fafafa"/>
      <path id="Path_14600" data-name="Path 14600" d="M40.446,134.822a.218.218,0,0,1-.14-.054.194.194,0,0,1-.015-.274l.015-.015c.685-.664,3.806-2.14,5.443-1.86a.2.2,0,0,1,.183.219c0,.005,0,.011,0,.016a.214.214,0,0,1-.256.161c-1.534-.252-4.5,1.216-5.043,1.744a.227.227,0,0,1-.186.062h0Z" fill="#fafafa"/>
      <path id="Path_14601" data-name="Path 14601" d="M38.747,133.515a.235.235,0,0,1-.136-.054.194.194,0,0,1-.015-.274l.015-.015a9.294,9.294,0,0,1,5.823-1.856.206.206,0,0,1,.182.228v.007a.218.218,0,0,1-.256.165,8.96,8.96,0,0,0-5.418,1.732.223.223,0,0,1-.194.066h0Z" fill="#fafafa"/>
      <path id="Path_14602" data-name="Path 14602" d="M16.266,144.612a7.035,7.035,0,0,1-1.814,4.086,4.1,4.1,0,0,1-4.284.532c-1.629-.569-3.678-1.757-3.992-3.472a8.189,8.189,0,0,1,.441-4.536l9.649,3.39Z" fill="#455a64"/>
      <path id="Path_14603" data-name="Path 14603" d="M11,129.841c-.689-.058-1.142,2.474-1.79,4.977-.693,2.689-1.86,3.67-2.474,5.868-.684,2.507-.623,3.682.384,5.41s4.948,3.847,7.208,1.917c1.831-1.579,2.095-3.583,2.2-6.185a50.438,50.438,0,0,1,.487-6.565c.322-1.905.676-3.748.1-4.049-.074.276-.153.627-.231.9-.058.21-.227,1.237-.614,1.2a3.3,3.3,0,0,1,.066-.726.763.763,0,0,0-.128-.652,1.617,1.617,0,0,0-.734-.375c-.664-.2-1.332-.392-2.012-.54-.342-.074-.68-.136-1.027-.181a3.3,3.3,0,0,0-.874-.033.565.565,0,0,0-.412.206.627.627,0,0,0-.062.289,1.567,1.567,0,0,1-.14.515c-.029.074-.107.157-.2.124a.161.161,0,0,1-.1-.169c.029-.313.1-.532.157-.891.025-.165.082-.388.1-.553s.066-.318.1-.482Z" fill="#407bff"/>
      <path id="Path_14604" data-name="Path 14604" d="M11,129.841c-.689-.058-1.142,2.474-1.79,4.977-.693,2.689-1.86,3.67-2.474,5.868-.684,2.507-.623,3.682.384,5.41s4.948,3.847,7.208,1.917c1.831-1.579,2.095-3.583,2.2-6.185a50.438,50.438,0,0,1,.487-6.565c.322-1.905.676-3.748.1-4.049-.074.276-.153.627-.231.9-.058.21-.227,1.237-.614,1.2a3.3,3.3,0,0,1,.066-.726.763.763,0,0,0-.128-.652,1.617,1.617,0,0,0-.734-.375c-.664-.2-1.332-.392-2.012-.54-.342-.074-.68-.136-1.027-.181a3.3,3.3,0,0,0-.874-.033.565.565,0,0,0-.412.206.627.627,0,0,0-.062.289,1.567,1.567,0,0,1-.14.515c-.029.074-.107.157-.2.124a.161.161,0,0,1-.1-.169c.029-.313.1-.532.157-.891.025-.165.082-.388.1-.553s.066-.318.1-.482Z" fill="#fff" opacity="0.9"/>
      <path id="Path_14605" data-name="Path 14605" d="M6.983,139.977c-.1.359-.75,2.759.07,3.328s1.583-1.237,1.583-1.237a10.822,10.822,0,0,1,5.315,1.344c-.2.375.161,1.761,1.06,1.608s1.513-2.915,1.522-2.953c-.107,2.474-.412,4.42-2.186,5.95-2.243,1.93-6.185-.194-7.208-1.917s-1.068-2.887-.384-5.41a7.265,7.265,0,0,1,.227-.713h0Z" fill="#407bff"/>
      <path id="Path_14606" data-name="Path 14606" d="M6.983,139.977c-.1.359-.75,2.759.07,3.328s1.583-1.237,1.583-1.237a10.822,10.822,0,0,1,5.315,1.344c-.2.375.161,1.761,1.06,1.608s1.513-2.915,1.522-2.953c-.107,2.474-.412,4.42-2.186,5.95-2.243,1.93-6.185-.194-7.208-1.917s-1.068-2.887-.384-5.41a7.265,7.265,0,0,1,.227-.713h0Z" fill="#fff" opacity="0.8"/>
      <path id="Path_14607" data-name="Path 14607" d="M8.872,142.261c-.1.928-1.237.445-1.179-.878s1.307-4.3,1.513-6.565c.648-2.5,1.1-5.035,1.79-4.977a.857.857,0,0,0,0,.095l-.218,1.291a5.508,5.508,0,0,0-.095.553c-.2,1.893-.907,5.509-1.287,7.212a23.386,23.386,0,0,0-.524,3.27h0Z" fill="#407bff"/>
      <path id="Path_14608" data-name="Path 14608" d="M13.585,143.346a22.94,22.94,0,0,0,.981-3.187c.413-1.687,1.353-5.2,2-7.01a3.711,3.711,0,0,0,.342-1.027c.07-.251.144-.573.214-.825a.078.078,0,0,1,.021-.054c.412.223.338,1.237.144,2.532-.161.734-.412,1.649-.726,2.713-.8,2.128-1.01,5.361-1.521,6.6s-1.773,1.122-1.46.26Z" fill="#407bff"/>
      <path id="Path_14609" data-name="Path 14609" d="M14.014,143.49a.24.24,0,0,1-.091-.033,10.54,10.54,0,0,0-5.237-1.2.28.28,0,0,1-.3-.186c-.029-.111.066-.206.2-.214a11.013,11.013,0,0,1,5.6,1.278.19.19,0,0,1,.082.284.264.264,0,0,1-.26.066h0Z" fill="#fafafa"/>
      <path id="Path_14610" data-name="Path 14610" d="M14.781,141.556l-.082-.029a12.937,12.937,0,0,0-5.864-1.336A.285.285,0,0,1,8.546,140a.2.2,0,0,1,.2-.21h.017a13.5,13.5,0,0,1,6.186,1.414c.124.066.165.19.095.28a.264.264,0,0,1-.26.074h0Z" fill="#fafafa"/>
      <path id="Path_14611" data-name="Path 14611" d="M9.206,138.295a.268.268,0,0,1-.2-.161c-.033-.111.049-.214.186-.231a11.277,11.277,0,0,1,6.185,1.369.185.185,0,0,1,.082.28.293.293,0,0,1-.35.033A10.993,10.993,0,0,0,9.313,138.3a.339.339,0,0,1-.107-.008h0Z" fill="#fafafa"/>
      <path id="Path_14612" data-name="Path 14612" d="M9.544,136.513a.272.272,0,0,1-.2-.161c-.037-.111.041-.214.177-.231a10.156,10.156,0,0,1,6.317,1.373c.115.074.144.2.062.28a.3.3,0,0,1-.359,0A9.694,9.694,0,0,0,9.655,136.5a.256.256,0,0,1-.111.013Z" fill="#fafafa"/>
      <path id="Path_14613" data-name="Path 14613" d="M9.953,134.513a.272.272,0,0,1-.2-.161c-.037-.107.041-.21.173-.231a10.64,10.64,0,0,1,6.359,1.431.186.186,0,0,1,.066.285.293.293,0,0,1-.355,0,10.227,10.227,0,0,0-5.926-1.34.359.359,0,0,1-.115.016h0Z" fill="#fafafa"/>
      <path id="Path_14614" data-name="Path 14614" d="M15.927,59.151c-1.72,17.777-3.01,42.007-3.01,42.007A85.86,85.86,0,0,0,11,111.466c-.825,7.01-1.608,20.205-1.608,20.205s4.874,2.738,8.886,1.476c0,0,4.264-18.672,6.458-26.927,2.062-7.814,5.361-22.634,5.361-22.634l1.794,14.738s-.367,5.072-.281,8.627c.1,4.124,1.649,23.047,1.649,23.047s6.672,2.808,10.87-.289c0,0,.544-25.941.746-30.927.412-9.74-.412-28.647-.528-41.236l-28.415,1.6Z" fill="#407bff"/>
      <path id="Path_14615" data-name="Path 14615" d="M15.927,59.151c-1.72,17.777-3.01,42.007-3.01,42.007A85.86,85.86,0,0,0,11,111.466c-.825,7.01-1.608,20.205-1.608,20.205s4.874,2.738,8.886,1.476c0,0,4.264-18.672,6.458-26.927,2.062-7.814,5.361-22.634,5.361-22.634l1.794,14.738s-.367,5.072-.281,8.627c.1,4.124,1.649,23.047,1.649,23.047s6.672,2.808,10.87-.289c0,0,.544-25.941.746-30.927.412-9.74-.412-28.647-.528-41.236l-28.415,1.6Z" fill="#fff" opacity="0.3"/>
      <path id="Path_14616" data-name="Path 14616" d="M30.092,83.554l1.913-9.719s4.845-.619,7.361-2.8c0,0-1.649,2.911-6.227,3.983L31.255,83.6l.631,14.721L30.092,83.554Z" fill="#407bff" opacity="0.6"/>
    </g>
    <g id="Group_13253" data-name="Group 13253">
      <path id="Path_14617" data-name="Path 14617" d="M61.163,64.441a16.284,16.284,0,0,1-4.8-3.8A30.176,30.176,0,0,0,53.7,58.021c-1.563-1.435-3.188-2.8-4.8-4.189-2.326-2.008-2.705-2.775-4.124-6.272C44.1,45.885,39.9,35.869,39.9,35.869l-.767-11.583c3.753-.412,5.567,1.476,7.323,5.22,1.926,4.1,5.773,15.575,5.773,15.575,1.678,1.905,3.8,4.816,5.451,6.742.75.874,1.538,1.736,2.334,2.569A5.884,5.884,0,0,0,62.4,55.926a17.164,17.164,0,0,0,3.1.553c1.724.293,3.348,1.34,5.1,1.46.367.025.8.033,1.006.334s-.115.767-.474,1.047a2.272,2.272,0,0,1-.862.412,8.112,8.112,0,0,1-2.994.1c-.252-.025-.59,0-.631.256-.029.177.128.322.272.412,1.649,1.13,3.814,1.1,5.732,1.683.367.111.8.342.788.73,0,.318-.313.532-.59.693l-2.062,1.2a7.1,7.1,0,0,1-1.468.713,6.979,6.979,0,0,1-1.683.107,16.648,16.648,0,0,0-1.649.351A2.5,2.5,0,0,1,65,65.876a15.982,15.982,0,0,1-2.087-.627,16.556,16.556,0,0,1-1.752-.808h0Z" fill="#ffa8a7"/>
      <path id="Path_14618" data-name="Path 14618" d="M38.925,24.319a6.659,6.659,0,0,1,4.062,1.118c1.237.907,1.955,1.443,3.62,4.928s5.818,14.693,5.818,14.693L59.1,53.411s-1.1-.181-3.076,1.509a7.5,7.5,0,0,0-2.144,3.254s-5.3-4.284-6.185-5.088a13.167,13.167,0,0,1-3.089-3.654c-1.439-2.742-4.66-10.107-4.66-10.107L38.925,24.319Z" fill="#455a64"/>
      <path id="Path_14619" data-name="Path 14619" d="M38.648,23.853c3.2.144,4.783.825,6.3,2.887a26.972,26.972,0,0,1,3.031,6.33c1.245,3.216,3.385,9.142,3.385,9.142A7.554,7.554,0,0,1,47.778,45.8c-2.92,1.588-4.594,1.113-4.594,1.113l-3.538-7.422-1-15.641Z" fill="#407bff"/>
      <path id="Path_14620" data-name="Path 14620" d="M38.648,23.853c3.2.144,4.783.825,6.3,2.887a26.972,26.972,0,0,1,3.031,6.33c1.245,3.216,3.385,9.142,3.385,9.142A7.554,7.554,0,0,1,47.778,45.8c-2.92,1.588-4.594,1.113-4.594,1.113l-3.538-7.422-1-15.641Z" fill="#fff" opacity="0.3"/>
      <path id="Path_14621" data-name="Path 14621" d="M60.7,58.45a7.476,7.476,0,0,0,5.035,1.311,3.637,3.637,0,0,1-4.992-1.239L60.7,58.45Z" fill="#f28f8f"/>
      <path id="Path_14622" data-name="Path 14622" d="M16.076,26.385s-3.163,2.524-1.8,8.886a92.669,92.669,0,0,1,1.748,12.593c.169,3.344-.412,14.6-.412,14.6,4.948,6.132,26.1,4.948,28.82-.487,0,0,.693-22.1-1.084-29.69-1.006-4.309-3.1-7.175-4.7-8.42L32.1,23.131l-6.515-.194-9.5,3.447Z" fill="#407bff"/>
      <path id="Path_14623" data-name="Path 14623" d="M16.076,26.385s-3.163,2.524-1.8,8.886a92.669,92.669,0,0,1,1.748,12.593c.169,3.344-.412,14.6-.412,14.6,4.948,6.132,26.1,4.948,28.82-.487,0,0,.693-22.1-1.084-29.69-1.006-4.309-3.1-7.175-4.7-8.42L32.1,23.131l-6.515-.194-9.5,3.447Z" fill="#fff" opacity="0.7"/>
      <path id="Path_14624" data-name="Path 14624" d="M25.581,22.937,22.574,24.03a34.933,34.933,0,0,0,3.183,5.3,19.1,19.1,0,0,0,7.422,5.361c1.3-3.3,1.757-5.5,1.493-7.888a14.315,14.315,0,0,0-.891-3.48l-1.695-.194-6.507-.19Z" fill="#455a64"/>
      <g id="Group_13250" data-name="Group 13250">
        <path id="Path_14625" data-name="Path 14625" d="M24.224,3.845A3.2,3.2,0,0,0,21.75,5.523c-.536.849-1,2.437-.115,7.167a18.8,18.8,0,0,0,1.806,5.3,2.3,2.3,0,0,0,1.237,1.167l.2-3.559.07-2.474a9.978,9.978,0,0,0,2.062-3.806,6.322,6.322,0,0,0,0-3.249L24.224,3.845Z" fill="#37474f"/>
        <path id="Path_14626" data-name="Path 14626" d="M23.729,3.923c.511-1.971,3.241-4.124,8.148-4,4.02.115,6.251,1.687,7.451,4.124a7.526,7.526,0,0,1,.037,5.394L26.851,7.581,23.729,3.923Z" fill="#37474f"/>
        <path id="Path_14627" data-name="Path 14627" d="M21.548,16.34A2.51,2.51,0,0,0,24.278,16l-.355,7.925a7.481,7.481,0,0,0,2.734,2.75c3.051,2.021,8.746,1.5,5.827-3.237l.128-1.67a11.631,11.631,0,0,0,2.218.107c1.649-.124,2.779-1.332,3.41-3.06a24.744,24.744,0,0,0,.936-11.233,3.794,3.794,0,0,0-1.167-2.3c-3.014-2.767-6.779-1.237-9.591-.412a5.155,5.155,0,0,1-3.431-.293c.866,1.13,1.237,2.181.87,7.233a3.15,3.15,0,0,1-.779.858c-.639.47-1.014-.911-1.472-1.476a2.062,2.062,0,0,0-3.258.474A3.381,3.381,0,0,0,21.5,16.312l.046.027h0Z" fill="#ffa8a7"/>
        <path id="Path_14628" data-name="Path 14628" d="M31.061,9.02,29.2,9.655a1.035,1.035,0,0,1,.627-1.282.965.965,0,0,1,1.223.6q.007.022.014.044h0Z" fill="#37474f"/>
        <path id="Path_14629" data-name="Path 14629" d="M37.894,9.676l-1.852-.709a.953.953,0,0,1,1.2-.606l.034.012a1.047,1.047,0,0,1,.615,1.3Z" fill="#37474f"/>
        <path id="Path_14630" data-name="Path 14630" d="M29.878,10.9a.8.8,0,1,0,.836-.762H30.7a.8.8,0,0,0-.825.763Z" fill="#263238"/>
        <path id="Path_14631" data-name="Path 14631" d="M35.844,11.09a.8.8,0,1,0,.84-.766h-.015a.734.734,0,0,0-.825.767h0Z" fill="#263238"/>
        <path id="Path_14632" data-name="Path 14632" d="M32.95,9.358l.243,5.142,2.767-.771a11.958,11.958,0,0,0-3.01-4.371Z" fill="#f28f8f"/>
        <path id="Path_14633" data-name="Path 14633" d="M25.84,11.424c.062,3.5,1.237,3.777,2.474,4.02,1.649.318,2.474-.548,5.414-.458a6.676,6.676,0,0,1,3.332,1.047c.738.334,1.353.26,1.649-.412a11.649,11.649,0,0,0,.68-3.761,28.225,28.225,0,0,1-.318,5.728,6.166,6.166,0,0,1-1.868,3.765c-1.291,1.027-3.93,1.377-7.2.553s-4.47-2.226-4.829-3.4c-1.13-3.818-.586-5.571-.994-6.293s1.654-.792,1.654-.792h0Z" fill="#37474f"/>
        <path id="Path_14634" data-name="Path 14634" d="M33.317,16.022c-1.678-.082-2.235.206-2.35,1.353-.165,1.649-.1,2.2.524,2.305.738.124,1.282.181,1.32-.285a1.819,1.819,0,0,0-.074-1.056c-.252-.322-.157-.367.581-.326s.722.165.495.388c-.165.161-.165.726-.173,1.052s.066.495,1.126.412c.928-.062.8-.825.825-2.223.008-.94-.371-1.522-2.272-1.621h0Z" fill="#ffa8a7"/>
        <path id="Path_14635" data-name="Path 14635" d="M31.721,16.232l2.722.458a1.353,1.353,0,0,1-1.5,1.183l-.056-.008a1.439,1.439,0,0,1-1.163-1.633Z" fill="#b16668"/>
        <path id="Path_14636" data-name="Path 14636" d="M32.067,16.657a1.28,1.28,0,0,0-.334,0,1.418,1.418,0,0,0,1.15,1.188,1.238,1.238,0,0,0,.441,0A1.262,1.262,0,0,0,32.067,16.657Z" fill="#f28f8f"/>
      </g>
      <path id="Path_14637" data-name="Path 14637" d="M36.739,35.147c2.569-.14,6.392-.635,6.392-.635l-.252-1.526s-3.823.495-6.392.635l.252,1.526Z" fill="#407bff"/>
      <path id="Path_14638" data-name="Path 14638" d="M54.961,45.332l-17.88,4.581-6.6,20.21.35.445,17.026-4.7,7.452-20.09-.35-.449Z" fill="#ff2d2d"/>
      <path id="Path_14639" data-name="Path 14639" d="M37.432,50.359l-6.6,20.21-.35-.445,6.6-20.21.35.445Z" opacity="0.35"/>
      <path id="Path_14640" data-name="Path 14640" d="M55.312,45.782l-17.88,4.577-6.6,20.21,17.026-4.7,7.451-20.09Z" opacity="0.25"/>
      <g id="Group_13251" data-name="Group 13251" opacity="0.1">
        <path id="Path_14641" data-name="Path 14641" d="M49.716,49.543l.2-.68c.115-.371-.92-.264-2.309.247l-3.216.672c-1.389.511-2.688.866-2.8,1.237l-.2.68Z"/>
      </g>
      <path id="Path_14642" data-name="Path 14642" d="M51.023,46.508c.07-.235-.33-.223-.895-.124l-1.031.252s.5-.969-1.922-.536c-2.664.474-2.833,1.765-2.833,1.765a11.483,11.483,0,0,1-1.291.346c-.887.2-1,.363-1.089.6l-.169.412,9.113-2.33s.045-.153.115-.384Z" fill="#263238"/>
      <path id="Path_14643" data-name="Path 14643" d="M49.976,47.749c-.849.3-1.208.449-1.381,1.031-.2.66-.252.936-.252.936L43.58,51.122s.334-.965.412-1.291-.515-.384-1.348-.082l.264-.825,7.328-1.868-.26.693Z" fill="#37474f"/>
      <path id="Path_14644" data-name="Path 14644" d="M49.951,49.576s.091-.305.206-.68-.924-.264-2.313.247l-3.212.672c-1.39.511-2.693.866-2.8,1.237l-.206.68,8.33-2.157Z" fill="#37474f"/>
      <path id="Path_14645" data-name="Path 14645" d="M8.307,36.273c1.769-6.874,3.963-8.635,7.641-9.4,3.691,5.893,1.505,14.573,1.505,14.573L14.592,51.477c.68.6,10.6,6.783,12.416,7.422a5.125,5.125,0,0,0,2.569-.21,11.234,11.234,0,0,1,4.726-.239l-.8,2.425c2.709.981,5.6.961,8.437,1.056.272,0,.6.054.709.305a.6.6,0,0,1-.247.643,2.689,2.689,0,0,0-.557.478c-.214.318-.132.746-.194,1.126a2.969,2.969,0,0,1-.887,1.431,6.9,6.9,0,0,1-1.431,1.278,9.917,9.917,0,0,1-6.387.75,21.6,21.6,0,0,1-3.9-1.237c-1.192-.474-8.462-2.8-9.328-3.126-6.392-2.429-14.911-5.084-15.36-8.156s1.982-11.529,3.945-19.15h0Z" fill="#ffa8a7"/>
      <path id="Path_14646" data-name="Path 14646" d="M16.047,26.677a14.3,14.3,0,0,1,2.359,8.944,25.175,25.175,0,0,1-.957,6.437C16.9,44.314,14.777,51.3,14.777,51.3l9.179,6a5.536,5.536,0,0,0-2.5,2.507c-1.126,1.992-1.031,3.658-.482,4.177,0,0-2.2-.631-5.513-1.786a78.605,78.605,0,0,1-9.138-4.025,3.841,3.841,0,0,1-2.177-3.4,47.781,47.781,0,0,1,1.649-9.447c1.336-5.278,3.159-12.944,4.651-15.36s5.6-3.291,5.6-3.291Z" fill="#455a64"/>
      <path id="Path_14647" data-name="Path 14647" d="M16.777,26.129c-4.948,1.452-6.078,2.21-7.422,5.959a148.959,148.959,0,0,0-4.1,14.927c2.177,2.144,6.862,2.519,10.111,2.528l2.375-7.991c.755-3.266,3.311-10.288-.965-15.422h0Z" fill="#407bff"/>
      <g id="Group_13252" data-name="Group 13252" opacity="0.3">
        <path id="Path_14648" data-name="Path 14648" d="M16.777,26.129c-4.948,1.452-6.078,2.21-7.422,5.959a148.959,148.959,0,0,0-4.1,14.927c2.177,2.144,6.862,2.519,10.111,2.528l2.375-7.991c.755-3.266,3.311-10.288-.965-15.422h0Z" fill="#fff"/>
      </g>
    </g>
    <g id="Group_13260" data-name="Group 13260">
      <path id="Path_14649" data-name="Path 14649" d="M125.949,111.528l1.781,8.837,1.732,1,1.715-.99,1.8-8.845-3.513-2.029-3.513,2.029Z" fill="#455a64"/>
      <path id="Path_14650" data-name="Path 14650" d="M129.462,121.363v-7.806l-3.513-2.029,1.781,8.837,1.732,1Z" fill="#37474f"/>
      <path id="Path_14651" data-name="Path 14651" d="M125.949,111.528l1.15,5.707,2.363,1.365,2.35-1.361,1.163-5.711-3.513-2.029-3.513,2.029Z" opacity="0.2"/>
      <path id="Path_14652" data-name="Path 14652" d="M101.1,97.178l1.781,8.837,1.732,1,1.715-.99,1.8-8.845-3.513-2.029L101.1,97.178Z" fill="#455a64"/>
      <path id="Path_14653" data-name="Path 14653" d="M104.609,107.013V99.207L101.1,97.178l1.781,8.837,1.732,1Z" fill="#37474f"/>
      <path id="Path_14654" data-name="Path 14654" d="M101.1,97.178l1.151,5.707,2.363,1.365,2.35-1.361,1.163-5.711-3.513-2.029L101.1,97.178Z" opacity="0.2"/>
      <path id="Path_14655" data-name="Path 14655" d="M107.232,93.2V74.663l-7.1-4.1V97.3l7.1-4.1Z" fill="#407bff"/>
      <path id="Path_14656" data-name="Path 14656" d="M107.232,93.2V74.663l-7.1-4.1V97.3l7.1-4.1Z" opacity="0.5"/>
      <path id="Path_14657" data-name="Path 14657" d="M97.508,66.016l4.5-2.6,31.953,18.449-4.5,2.6L97.509,66.016Z" fill="#407bff"/>
      <g id="Group_13254" data-name="Group 13254" opacity="0.4">
        <path id="Path_14658" data-name="Path 14658" d="M97.508,66.016l4.5-2.6,31.953,18.449-4.5,2.6L97.509,66.016Z" fill="#fff"/>
      </g>
      <path id="Path_14659" data-name="Path 14659" d="M129.462,84.465v32.8l4.5-2.6v-32.8l-4.5,2.6Z" fill="#407bff"/>
      <path id="Path_14660" data-name="Path 14660" d="M97.5,66.016V98.811l31.958,18.453V84.469L97.5,66.016Zm29.335,46.7L100.127,97.3V70.561L126.84,85.979Z" fill="#407bff"/>
      <path id="Path_14661" data-name="Path 14661" d="M97.5,66.016V98.811l31.958,18.453V84.469L97.5,66.016Zm29.335,46.7L100.127,97.3V70.561L126.84,85.979Z" opacity="0.3"/>
      <path id="Path_14662" data-name="Path 14662" d="M104.63,94.7l-4.5,2.6L126.84,112.72v-5.2L104.63,94.7Z" fill="#407bff"/>
      <path id="Path_14663" data-name="Path 14663" d="M104.63,94.7l-4.5,2.6L126.84,112.72v-5.2L104.63,94.7Z" opacity="0.5"/>
      <path id="Path_14664" data-name="Path 14664" d="M104.63,94.7l-4.5,2.6V70.565l4.5,2.6,0,21.538Z" fill="#407bff"/>
      <path id="Path_14665" data-name="Path 14665" d="M104.63,94.7l-4.5,2.6V70.565l4.5,2.6,0,21.538Z" opacity="0.4"/>
      <path id="Path_14666" data-name="Path 14666" d="M93.034,88.824,64.12,105.516a4.173,4.173,0,0,0-1.893,3.274v6.02a4.173,4.173,0,0,0,1.893,3.278l30.032,17.373a4.194,4.194,0,0,0,3.785,0l28.91-16.692a4.19,4.19,0,0,0,1.893-3.278v-6.016a4.2,4.2,0,0,0-1.893-3.278L96.812,88.824a4.194,4.194,0,0,0-3.777,0h0Z" fill="#455a64"/>
      <path id="Path_14667" data-name="Path 14667" d="M126.856,106.2,96.82,88.825a4.194,4.194,0,0,0-3.785,0L64.12,105.517a1.15,1.15,0,0,0,0,2.181l30.032,17.381a4.193,4.193,0,0,0,3.785,0l28.91-16.7a1.153,1.153,0,0,0,.008-2.185h0Z"/>
      <path id="Path_14668" data-name="Path 14668" d="M62.227,114.811V108.79c0-1.2.825-1.695,1.893-1.093l30.032,17.381a4.185,4.185,0,0,1,1.893,3.274v6.017c0,1.208-.849,1.695-1.893,1.093l-30.04-17.373a4.173,4.173,0,0,1-1.884-3.278Z" fill="#263238"/>
      <path id="Path_14669" data-name="Path 14669" d="M96.053,134.369v-6.016a4.173,4.173,0,0,1,1.893-3.274l28.91-16.7c1.043-.6,1.893-.111,1.893,1.093v6.016a4.189,4.189,0,0,1-1.893,3.278l-28.91,16.692c-1.047.6-1.893.115-1.893-1.093h0Z" fill="#37474f"/>
      <path id="Path_14670" data-name="Path 14670" d="M93.034,77.616,64.12,94.3a4.181,4.181,0,0,0-1.893,3.278V103.6a4.173,4.173,0,0,0,1.893,3.274l30.032,17.377a4.194,4.194,0,0,0,3.785,0l28.91-16.7a4.185,4.185,0,0,0,1.893-3.274V98.267a4.186,4.186,0,0,0-1.893-3.278L96.82,77.616a4.194,4.194,0,0,0-3.785,0h0Z" fill="#455a64"/>
      <path id="Path_14671" data-name="Path 14671" d="M126.856,94.989,96.82,77.616a4.194,4.194,0,0,0-3.785,0L64.12,94.3a1.153,1.153,0,0,0,0,2.186l30.032,17.377a4.169,4.169,0,0,0,3.785,0l28.919-16.7a1.145,1.145,0,0,0,0-2.173h0Z" fill="#455a64"/>
      <path id="Path_14672" data-name="Path 14672" d="M62.227,103.6V97.574c0-1.208.825-1.695,1.893-1.093l30.032,17.385a4.19,4.19,0,0,1,1.893,3.278v6.016c0,1.2-.849,1.695-1.893,1.093l-30.04-17.377a4.173,4.173,0,0,1-1.885-3.274h0Z" fill="#263238"/>
      <path id="Path_14673" data-name="Path 14673" d="M96.053,123.161v-6.016a4.181,4.181,0,0,1,1.893-3.278l28.91-16.7c1.043-.6,1.893-.115,1.893,1.093v6.016a4.186,4.186,0,0,1-1.893,3.274l-28.91,16.709c-1.047.6-1.893.124-1.893-1.093h0Z" fill="#37474f"/>
      <path id="Path_14674" data-name="Path 14674" d="M94.226,51.51l3.3,1.913a5.018,5.018,0,0,1,2.181,3.262l2.99,22.333a3.517,3.517,0,0,1-1.6,3.258L72.181,98.968a4.181,4.181,0,0,1-3.785,0l-3.3-1.913A4.977,4.977,0,0,1,62.916,93.8l-2.99-22.337a3.526,3.526,0,0,1,1.6-3.262L90.441,51.51a4.194,4.194,0,0,1,3.785,0h0Z" fill="#455a64"/>
      <path id="Path_14675" data-name="Path 14675" d="M65.048,97.05l3.344,1.909c1.047.6,1.769.115,1.608-1.08L67.027,75.562A5.006,5.006,0,0,0,64.846,72.3l-3.3-1.913c-1.043-.6-1.765-.124-1.608,1.076L62.883,93.8a4.948,4.948,0,0,0,2.165,3.249h0Z" fill="#263238"/>
      <path id="Path_14676" data-name="Path 14676" d="M61.53,68.2,90.441,51.51a4.194,4.194,0,0,1,3.785,0l3.3,1.913a1.153,1.153,0,0,1,0,2.186L68.615,72.3a4.169,4.169,0,0,1-3.785,0l-3.3-1.913a1.154,1.154,0,0,1,0-2.185h0Z" fill="#455a64"/>
      <path id="Path_14677" data-name="Path 14677" d="M97.541,55.608,68.631,72.3a3.546,3.546,0,0,0-1.6,3.262L70,97.879a1.359,1.359,0,0,0,2.181,1.072l28.91-16.693A3.517,3.517,0,0,0,102.7,79L99.723,56.685a1.36,1.36,0,0,0-2.181-1.076h0Z" fill="#37474f"/>
      <g id="Group_13257" data-name="Group 13257">
        <path id="Path_14678" data-name="Path 14678" d="M111.529,130.938l2.647.21-.021-1.872-1.992.639-.635,1.023Z"/>
        <path id="Path_14679" data-name="Path 14679" d="M111.1,125.784s-.775,1.427-1.014,1.876,1.06,2.812,1.439,3.3l.635-1.023a9.206,9.206,0,0,1,.309,2.28,9.443,9.443,0,0,0,.614,3.645,12.205,12.205,0,0,0,5.485,5c2.417,1.241,4.123,1.295,5.059,1.089a1.8,1.8,0,0,0,1.579-1.431c.115-.705-14.107-14.734-14.107-14.734h0Z" fill="#263238"/>
        <path id="Path_14680" data-name="Path 14680" d="M120.028,123.862l.412-.825c.462.2-.062,1.456.095,2.849a24.3,24.3,0,0,0,1.39,6.045c1.427,3.443,2.985,5.913,3.62,7.455.825,2.062-2.788,3.018-6.7.911-1.942-1.043-5.01-3.711-5.456-5.361s-.194-3.761-.59-4.99-1.7-2.887-1.711-4.165a7.89,7.89,0,0,1,1.456-3.014c.635-.969,1.41-2.548,1.934-2.144l-.206.553a3.282,3.282,0,0,0,1.707,2.6c.754.511,3.113,1.7,4.045.083h0Z" fill="#407bff"/>
        <path id="Path_14681" data-name="Path 14681" d="M120.028,123.862l.412-.825c.462.2-.062,1.456.095,2.849a24.3,24.3,0,0,0,1.39,6.045c1.427,3.443,2.985,5.913,3.62,7.455.825,2.062-2.788,3.018-6.7.911-1.942-1.043-5.01-3.711-5.456-5.361s-.194-3.761-.59-4.99-1.7-2.887-1.711-4.165a7.89,7.89,0,0,1,1.456-3.014c.635-.969,1.41-2.548,1.934-2.144l-.206.553a3.282,3.282,0,0,0,1.707,2.6c.754.511,3.113,1.7,4.045.083h0Z" opacity="0.4"/>
        <path id="Path_14682" data-name="Path 14682" d="M117.265,124.423a2.455,2.455,0,0,0,2.388-.115h.025a2.14,2.14,0,0,0-.247,1.876c.326,1.175,2.087,9.224,2.087,9.224s-1.934-6.866-2.313-8.165c-.561-1.917-.866-2.256-1.942-2.808l0-.012Z" opacity="0.15"/>
        <path id="Path_14683" data-name="Path 14683" d="M117.533,126.464a.268.268,0,0,1-.368.093l0,0a.272.272,0,1,1,.373-.094l0,0Z" opacity="0.15"/>
        <path id="Path_14684" data-name="Path 14684" d="M118.106,128.328a.272.272,0,0,1-.374.092h0a.276.276,0,0,1-.091-.375.272.272,0,0,1,.375-.087h0a.268.268,0,0,1,.093.367l0,0h0Z" opacity="0.15"/>
        <path id="Path_14685" data-name="Path 14685" d="M118.675,130.192a.272.272,0,1,1-.094-.373l0,0a.268.268,0,0,1,.093.367Z" opacity="0.15"/>
        <path id="Path_14686" data-name="Path 14686" d="M119.248,132.056a.272.272,0,1,1-.091-.374h0a.272.272,0,0,1,.091.374Z" opacity="0.15"/>
        <path id="Path_14687" data-name="Path 14687" d="M119.817,133.919a.272.272,0,1,1,.03-.29.272.272,0,0,1-.03.29Z" opacity="0.15"/>
        <path id="Path_14688" data-name="Path 14688" d="M117.244,126.439a.107.107,0,0,1-.049-.062.1.1,0,0,1,.059-.134l.007,0a4.459,4.459,0,0,1,3.3.2.107.107,0,0,1,.045.144.111.111,0,0,1-.148.045,4.327,4.327,0,0,0-3.113-.19.115.115,0,0,1-.1,0h0Z" fill="#263238"/>
        <path id="Path_14689" data-name="Path 14689" d="M117.821,128.278a.111.111,0,0,1,0-.2,4.469,4.469,0,0,1,3.3.2.107.107,0,0,1,.041.144.111.111,0,0,1-.148.045,4.294,4.294,0,0,0-3.113-.186.132.132,0,0,1-.078-.008h0Z" fill="#263238"/>
        <path id="Path_14690" data-name="Path 14690" d="M118.39,130.15a.116.116,0,0,1-.049-.058.111.111,0,0,1,.066-.14,4.492,4.492,0,0,1,3.3.2.109.109,0,0,1-.1.191l0,0a4.342,4.342,0,0,0-3.117-.194.132.132,0,0,1-.091,0h0Z" fill="#263238"/>
        <path id="Path_14691" data-name="Path 14691" d="M118.963,132.01a.1.1,0,0,1-.049-.058.107.107,0,0,1,.061-.139l0,0a4.489,4.489,0,0,1,3.3.2.109.109,0,0,1-.107.19h0a4.342,4.342,0,0,0-3.113-.186.091.091,0,0,1-.1-.008h0Z" fill="#263238"/>
        <path id="Path_14692" data-name="Path 14692" d="M119.533,133.862a.136.136,0,0,1-.049-.058.111.111,0,0,1,.07-.14,4.489,4.489,0,0,1,3.3.2.111.111,0,0,1-.107.194,4.329,4.329,0,0,0-3.113-.19.1.1,0,0,1-.1-.008h0Z" fill="#263238"/>
        <path id="Path_14693" data-name="Path 14693" d="M126.184,147.783l2.363-1.427-1.146-1.563-1.295,1.74.078,1.25Z"/>
        <path id="Path_14694" data-name="Path 14694" d="M122.716,143.684s.2,1.674.276,2.2,2.594,1.732,3.192,1.9l-.078-1.237a9.77,9.77,0,0,1,1.649,1.74,9.723,9.723,0,0,0,2.722,2.705,12.646,12.646,0,0,0,7.645.907c2.787-.412,4.255-1.386,4.948-2.132a1.842,1.842,0,0,0,.47-2.165c-.326-.668-20.824-3.918-20.824-3.918h0Z" fill="#263238"/>
        <path id="Path_14695" data-name="Path 14695" d="M129.091,136.674l-.144-.965c.507-.107.825,1.27,1.8,2.35a25.238,25.238,0,0,0,4.82,4.268c3.3,2.062,6.09,3.187,7.559,4.124,1.967,1.237-.532,4.231-5.105,4.812-2.268.289-6.466-.1-7.835-1.237s-2.437-3.06-3.513-3.86-3.183-1.414-3.959-2.474a8.3,8.3,0,0,1-.594-3.423c-.049-1.2-.346-3.006.342-2.981l.157.594a3.423,3.423,0,0,0,3.014,1.163c.936-.021,3.65-.441,3.46-2.371h0Z" fill="#407bff"/>
        <path id="Path_14696" data-name="Path 14696" d="M129.091,136.674l-.144-.965c.507-.107.825,1.27,1.8,2.35a25.238,25.238,0,0,0,4.82,4.268c3.3,2.062,6.09,3.187,7.559,4.124,1.967,1.237-.532,4.231-5.105,4.812-2.268.289-6.466-.1-7.835-1.237s-2.437-3.06-3.513-3.86-3.183-1.414-3.959-2.474a8.3,8.3,0,0,1-.594-3.423c-.049-1.2-.346-3.006.342-2.981l.157.594a3.423,3.423,0,0,0,3.014,1.163c.936-.021,3.65-.441,3.46-2.371h0Z" opacity="0.3"/>
        <path id="Path_14697" data-name="Path 14697" d="M127.1,138.81a2.5,2.5,0,0,0,1.946-1.538v-.025a2.231,2.231,0,0,0,.924,1.732c.986.8,7.332,6.532,7.332,6.532s-5.769-4.639-6.862-5.493c-1.649-1.287-2.095-1.386-3.336-1.2l0-.008Z" opacity="0.15"/>
        <path id="Path_14698" data-name="Path 14698" d="M128.555,140.377a.28.28,0,1,1-.1-.192A.28.28,0,0,1,128.555,140.377Z" opacity="0.15"/>
        <path id="Path_14699" data-name="Path 14699" d="M130.163,141.606a.281.281,0,1,1-.3-.26h0A.285.285,0,0,1,130.163,141.606Z" opacity="0.15"/>
        <path id="Path_14700" data-name="Path 14700" d="M131.771,142.835a.28.28,0,1,1-.3-.26.285.285,0,0,1,.3.26Z" opacity="0.15"/>
        <path id="Path_14701" data-name="Path 14701" d="M133.38,144.063a.28.28,0,1,1-.3-.26.289.289,0,0,1,.3.26Z" opacity="0.15"/>
        <path id="Path_14702" data-name="Path 14702" d="M134.975,145.3a.281.281,0,0,1-.561.041h0a.276.276,0,0,1,.25-.3h.01a.28.28,0,0,1,.3.258h0Z" opacity="0.15"/>
        <path id="Path_14703" data-name="Path 14703" d="M128.287,140.509a.115.115,0,0,1-.107-.177,4.622,4.622,0,0,1,2.887-1.814.112.112,0,1,1,.029.222h0a4.525,4.525,0,0,0-2.742,1.724.127.127,0,0,1-.062.045Z" fill="#263238"/>
        <path id="Path_14704" data-name="Path 14704" d="M129.891,141.734a.1.1,0,0,1-.074,0,.107.107,0,0,1-.035-.147l.006-.009a4.608,4.608,0,0,1,2.887-1.814.112.112,0,1,1,.025.223,4.525,4.525,0,0,0-2.742,1.724.127.127,0,0,1-.066.025Z" fill="#263238"/>
        <path id="Path_14705" data-name="Path 14705" d="M131.5,142.971a.134.134,0,0,1-.078,0,.115.115,0,0,1-.029-.161h0A4.657,4.657,0,0,1,134.282,141a.111.111,0,0,1,.124.1v0a.116.116,0,0,1-.1.128,4.508,4.508,0,0,0-2.742,1.72.115.115,0,0,1-.062.029h0Z" fill="#263238"/>
        <path id="Path_14706" data-name="Path 14706" d="M133.111,144.2a.124.124,0,0,1-.078-.021.111.111,0,0,1-.03-.155v0a4.638,4.638,0,0,1,2.887-1.818.115.115,0,0,1,.025.227,4.527,4.527,0,0,0-2.742,1.719.116.116,0,0,1-.062.049h0Z" fill="#263238"/>
        <path id="Path_14707" data-name="Path 14707" d="M134.72,145.428a.107.107,0,0,1-.078-.021.115.115,0,0,1-.029-.157,4.638,4.638,0,0,1,2.887-1.818.115.115,0,0,1,.025.227,4.527,4.527,0,0,0-2.742,1.72.115.115,0,0,1-.062.049Z" fill="#263238"/>
        <path id="Path_14708" data-name="Path 14708" d="M124.93,122.423c.511-3.014,1.287-7.629,1.765-10.721.759-4.915,1.266-10.033.384-12.235-.825-2.087-5.192-4.788-9.777-7.546s-13.443-7.357-13.443-7.357l-23.4,4.082c.557,4.189.788,6.243,2.887,9.979,2.041,3.612,4.895,5.909,10.474,8.8,5.006,2.59,10.94,5.361,12.251,6.029,1.649.825,3.212,1.48,3.988,4.062a44.273,44.273,0,0,0,4.853,11.9c3.567,5.884,6.75,11.113,6.75,11.113s5.7.614,8.763-3.88c.012.017-2.635-6.907-5.5-14.222h0Z" fill="#263238"/>
        <path id="Path_14709" data-name="Path 14709" d="M124.93,122.423c.367-1.9.722-3.8,1.052-5.7s.66-3.806.969-5.715a56.285,56.285,0,0,0,.627-5.773c.049-.969.074-1.938.029-2.907a9.242,9.242,0,0,0-.528-2.845,9.111,9.111,0,0,1,.383,2.849c0,.961-.033,1.926-.111,2.887-.153,1.922-.412,3.835-.689,5.744l-.9,5.724q-.441,2.87-.833,5.74h0Z" fill="#263238"/>
        <path id="Path_14710" data-name="Path 14710" d="M84.626,91l15.257.124,1.361,2.775c-1.439,3.146-2.961,3.1-6.185,3.13a62.342,62.342,0,0,0-7.7.751s16.948,10.309,20.206,12.148,5.443,5.192,7.171,12c1.386,5.456,6.833,14.132,9.975,18.408a10.907,10.907,0,0,1-3.027.21s-3.184-5.229-6.751-11.113a44.153,44.153,0,0,1-4.854-11.9c-.775-2.581-2.326-3.225-3.988-4.062-1.311-.66-7.245-3.439-12.251-6.029-5.579-2.887-8.433-5.183-10.474-8.8a18.717,18.717,0,0,1-2.408-6.664L84.626,91Z"/>
        <path id="Path_14711" data-name="Path 14711" d="M124.254,120.691c-2.689-6.874-5.4-13.674-6.161-15.125-1.621-3.084-15.311-11.62-15.744-11.888l.631-.924a9.071,9.071,0,0,0,1.291-3.579,9.616,9.616,0,0,1-.565,4.053c2.107,1.369,7.46,4.841,9.6,6.321,2.7,1.86,5.567,4.124,6.771,7.344.874,2.4,3.093,10.012,4.173,13.8h0Z"/>
        <path id="Path_14712" data-name="Path 14712" d="M120.13,138.266l1.291,2.4s6.825,1,9.187-3.979l-.944-2.379c-1.109,2.808-6.185,4.655-9.534,3.959h0Z"/>
        <g id="Group_13255" data-name="Group 13255">
          <path id="Path_14713" data-name="Path 14713" d="M129.809,46.219a2.264,2.264,0,0,0-1.163.169,7.468,7.468,0,0,0-1.216.705c-.6.412-1.806,1.538-2.651,2.107a4.24,4.24,0,0,1-1.711.9c-.218.025-.676,0-.412-.305a9.3,9.3,0,0,0,.948-1.237,1.909,1.909,0,0,0,.21-1.513.648.648,0,0,0-.28-.367c-.2-.107-.309,0-.433.124a3.621,3.621,0,0,1-.412.363c-.305.239-.606.478-.907.726-1.753,1.427-4.144,2.928-4.977,5.08a13.463,13.463,0,0,0-.825,4.124c-.144,2.4-1.093,9.093-1.093,9.093s-4.977-2.5-8.247-4.371c-3.625-2.062-5.451-3.328-8.086-3.732a9.583,9.583,0,0,0-4.755.619l9.53,12.119s6.8,2.812,11.389,4.536c3.967,1.5,5.571,1.328,6.412.14,1.295-1.831,2.21-1.9,1.051-12.428-.082-.746-.091-1.5-.132-2.247-.025-1.559-.326-2.623.854-3.435a34.7,34.7,0,0,0,4.383-3.472c.614-.569.755-1.311,1.237-1.983a2.928,2.928,0,0,0,.627-1.043c.058-.363-.082-.755.049-1.105.087-.239.26-.412.338-.689a4.085,4.085,0,0,1,.5-1.575c.2-.243.52-.454.495-.767s-.268-.412-.511-.495a1.8,1.8,0,0,0-.214-.041h0Z" fill="#ffb7af"/>
          <path id="Path_14714" data-name="Path 14714" d="M114.869,66.181a14.7,14.7,0,0,0,.33,5.691s-2-3.233-1.319-6.186Z" fill="#b16668"/>
          <path id="Path_14715" data-name="Path 14715" d="M95.191,57.74a14.956,14.956,0,0,1,6.7,1.237c2.268.9,12.882,7.072,12.882,7.072s.26-1.13.445-2.519c.672.874,1.431,1.513,3.8,1.876,2.635.412,3.266-1.175,3.266-1.175s.466,3.46.577,7.253c.087,2.887-.825,5.806-5.183,5.245-.8-.1-3.922-1.072-6.672-1.889s-8.923-3.051-8.923-3.051L95.191,57.74Z" fill="#407bff"/>
          <path id="Path_14716" data-name="Path 14716" d="M95.191,57.74a14.956,14.956,0,0,1,6.7,1.237c2.268.9,12.882,7.072,12.882,7.072s.26-1.13.445-2.519c.672.874,1.431,1.513,3.8,1.876,2.635.412,3.266-1.175,3.266-1.175s.466,3.46.577,7.253c.087,2.887-.825,5.806-5.183,5.245-.8-.1-3.922-1.072-6.672-1.889s-8.923-3.051-8.923-3.051L95.191,57.74Z" fill="#fff" opacity="0.15"/>
          <path id="Path_14717" data-name="Path 14717" d="M114.77,66.05c-.392,2.169-.6,4.631.412,6.42-1.414-1.068-1.761-3.711-1.464-7.01Z" opacity="0.15"/>
          <path id="Path_14718" data-name="Path 14718" d="M122.031,51.11a8.528,8.528,0,0,1-2.334,4.1,3.658,3.658,0,0,0,1.889-1.489,3.354,3.354,0,0,0,.445-2.61h0Z" fill="#f28f8f"/>
        </g>
        <g id="Group_13256" data-name="Group 13256">
          <path id="Path_14719" data-name="Path 14719" d="M83.055,58.986l-6.87,3.777c-.342,2-.342,10.569.569,17.274a45.771,45.771,0,0,0,4.507,14.107,22.614,22.614,0,0,0,16.218-.8c7.74-3.357,7.963-7.95,7.963-7.95l-1.765-4.647s-1.7-13.233-4.058-17.67-4.429-5.332-4.429-5.332l-4.948.445-7.187.8Z" fill="#407bff"/>
          <path id="Path_14720" data-name="Path 14720" d="M83.055,58.986l-6.87,3.777c-.342,2-.342,10.569.569,17.274a45.771,45.771,0,0,0,4.507,14.107,22.614,22.614,0,0,0,16.218-.8c7.74-3.357,7.963-7.95,7.963-7.95l-1.765-4.647s-1.7-13.233-4.058-17.67-4.429-5.332-4.429-5.332l-4.948.445-7.187.8Z" fill="#fff" opacity="0.3"/>
        </g>
        <path id="Path_14721" data-name="Path 14721" d="M93.488,45.242c1.979-1.612.986-4.635-.074-6.495-1.353-2.305-4.61-3.418-7.3-3.084-5.666.705-8.091,2.969-8.825,7.052-.957,5.319,3.3,9.484,4.573,12.259l.206-3.406c1.311-.247,2.408.054,3.616-.532a30.589,30.589,0,0,0,7.8-5.794h0Z" fill="#37474f"/>
        <path id="Path_14722" data-name="Path 14722" d="M82.985,38.986c.111,1.134.412,3.827-1.043,5.385a11.285,11.285,0,0,1,.466,3.814,2.115,2.115,0,0,1-.214.8.924.924,0,0,1-.631.491c-.367.066-.54-.144-.685-.412a9.575,9.575,0,0,0-.664-1.019,2.186,2.186,0,0,0-.371-.383,1.821,1.821,0,0,0-2.936.911,3.517,3.517,0,0,0,2.317,4.165c1.9.507,2.416-.75,2.416-.75l.553,7.53c.825,1.876,5.893,5.53,9.9,6.791,1.266-2.812.392-6.52-.895-7.583l-.136-2.474a6.322,6.322,0,0,0,2.887-.61A4.358,4.358,0,0,0,96.106,52a25.677,25.677,0,0,0-1.043-10.462,8.709,8.709,0,0,0-2.755-4.095c.07.466-.19,1.687-2.132,2.2-2.437.614-5.344-.095-7.192-.656h0Z" fill="#ffb7af"/>
        <path id="Path_14723" data-name="Path 14723" d="M91.059,56.231a17,17,0,0,1-5.612-.722,7.67,7.67,0,0,1-2.68-1.819A5.287,5.287,0,0,0,84.725,56.1c2.495,1.53,6.392,1.237,6.392,1.237l-.058-1.1Z" fill="#f28f8f"/>
        <path id="Path_14724" data-name="Path 14724" d="M88.226,46.054a.783.783,0,0,1-.655.894h-.009a.792.792,0,0,1-.87-.7.775.775,0,1,1,1.534-.194Z" fill="#263238"/>
        <path id="Path_14725" data-name="Path 14725" d="M87.678,43.555,85.9,44.52a1.064,1.064,0,0,1,.412-1.414.994.994,0,0,1,1.343.414l.018.035Z" fill="#263238"/>
        <path id="Path_14726" data-name="Path 14726" d="M89.306,50.6l2.309.272a1.146,1.146,0,0,1-1.228,1.059l-.034,0A1.237,1.237,0,0,1,89.306,50.6Z" fill="#f28f8f"/>
        <path id="Path_14727" data-name="Path 14727" d="M90.853,51.872a1.8,1.8,0,0,0-1.509-.911,1.2,1.2,0,0,0,1.023.965,1.13,1.13,0,0,0,.487-.054Z" fill="#ffa8a7"/>
        <path id="Path_14728" data-name="Path 14728" d="M94.618,43.374,92.7,42.838a.957.957,0,0,1,1.164-.69l.036.01a1.019,1.019,0,0,1,.718,1.216h0Z" fill="#263238"/>
        <path id="Path_14729" data-name="Path 14729" d="M94.445,45.283a.779.779,0,1,1-.878-.705.792.792,0,0,1,.877.7v.01Z" fill="#263238"/>
        <path id="Path_14730" data-name="Path 14730" d="M91.03,49.2l2.424-1.146c-.412-1.6-2.792-3.777-3.905-4.3Z" fill="#f28f8f"/>
        <path id="Path_14731" data-name="Path 14731" d="M92.09,66.305S91,64.037,90.507,62.882c-.309-.482-4.9-2.219-6.643-3.546a5.422,5.422,0,0,1-1.814-1.93l.272,2.313s2.9,6.412,9.769,6.585h0Z" fill="#e0e0e0"/>
        <path id="Path_14732" data-name="Path 14732" d="M90.507,62.883c-.614-.672-3.942,2.668-4.359,3.571a18.453,18.453,0,0,1-4.606-3.3c-1.649-1.649-1.744-2.276-1.744-2.276s.59-1.583.825-2.309c.359-1.068.664-2.313,1.3-2.668l.107,1.423c.635.92,1.761,1.649,3.711,2.837,2.948,1.732,4.495,2.165,4.767,2.722h0Z" fill="#f5f5f5"/>
        <path id="Path_14733" data-name="Path 14733" d="M91.2,58.722l-.136-2.474a6.729,6.729,0,0,0,.734-.021c1.629,0,4.437,6.045,4.709,7.4-.94-.932-2.586-2.062-3.035-.792-.359,2.676-1.377,3.489-1.377,3.489s.825-4.519-.895-7.6h0Z" fill="#e0e0e0"/>
      </g>
      <path id="Path_14734" data-name="Path 14734" d="M85.439,134.917l1.781,8.837,1.728,1,1.72-.99,1.794-8.845-3.513-2.029-3.509,2.029Z" fill="#455a64"/>
      <path id="Path_14735" data-name="Path 14735" d="M88.948,144.752v-7.806l-3.509-2.029,1.781,8.837Z" fill="#37474f"/>
      <path id="Path_14736" data-name="Path 14736" d="M85.439,134.917l1.15,5.707,2.359,1.365,2.355-1.361,1.159-5.711-3.513-2.029-3.509,2.029Z" opacity="0.2"/>
      <path id="Path_14737" data-name="Path 14737" d="M60.586,120.567l1.781,8.837,1.732,1,1.715-.994,1.794-8.845L64.1,118.538l-3.513,2.029Z" fill="#455a64"/>
      <path id="Path_14738" data-name="Path 14738" d="M64.1,130.406V122.6l-3.513-2.029,1.781,8.837,1.732,1Z" fill="#37474f"/>
      <path id="Path_14739" data-name="Path 14739" d="M60.586,120.567l1.15,5.707,2.363,1.365,2.35-1.361,1.159-5.711L64.1,118.538Z" opacity="0.2"/>
      <path id="Path_14740" data-name="Path 14740" d="M56.994,89.405l4.5-2.6,31.954,18.449-4.5,2.6L56.994,89.405Z" fill="#407bff"/>
      <g id="Group_13258" data-name="Group 13258" opacity="0.4">
        <path id="Path_14741" data-name="Path 14741" d="M56.994,89.405l4.5-2.6,31.954,18.449-4.5,2.6L56.994,89.405Z" fill="#fff"/>
      </g>
      <path id="Path_14742" data-name="Path 14742" d="M88.952,107.854v32.8l4.5-2.6v-32.8l-4.5,2.6Z" fill="#407bff"/>
      <path id="Path_14743" data-name="Path 14743" d="M56.994,89.405V122.2l31.954,18.453V107.858L56.994,89.405Zm29.323,46.7L59.609,120.691V93.949l26.708,15.422Z" fill="#407bff"/>
      <path id="Path_14744" data-name="Path 14744" d="M56.994,89.405V122.2l31.954,18.453V107.858L56.994,89.405Zm29.323,46.7L59.609,120.691V93.949l26.708,15.422Z" opacity="0.3"/>
      <path id="Path_14745" data-name="Path 14745" d="M64.12,118.089l-4.5,2.6,26.712,15.418v-5.2l-22.21-12.82Z" fill="#407bff"/>
      <path id="Path_14746" data-name="Path 14746" d="M64.12,118.089l-4.5,2.6,26.712,15.418v-5.2l-22.21-12.82Z" opacity="0.5"/>
      <path id="Path_14747" data-name="Path 14747" d="M64.12,118.089l-4.507,2.6V93.954l4.5,2.6.008,21.537Z" fill="#407bff"/>
      <path id="Path_14748" data-name="Path 14748" d="M64.12,118.089l-4.507,2.6V93.954l4.5,2.6.008,21.537Z" opacity="0.5"/>
      <g id="Group_13259" data-name="Group 13259">
        <path id="Path_14749" data-name="Path 14749" d="M107.863,88.614c-1.361.157-2.7.412-4.045.656a19.942,19.942,0,0,1-4.173.309c-.058,0-.136-.029-.132-.087a.107.107,0,0,1,.045-.066,16.2,16.2,0,0,0,1.567-1.324,1.876,1.876,0,0,0,.47-1.893.363.363,0,0,0-.083-.124c-.111-.1-.289-.049-.412,0a13.668,13.668,0,0,1-1.208.664,10.644,10.644,0,0,1-1.357.445,15.633,15.633,0,0,0-1.695.412,6.127,6.127,0,0,0-2,1.291,3.58,3.58,0,0,1-1.7.986c-1.443.355-2.524.375-5.666.128a75.041,75.041,0,0,1-7.789-.977L80,75.381c0-6.68-1.6-11.459-3.489-12.626a9.9,9.9,0,0,0-3.027,2.656c-1.06,1.546-1.278,4.239-2,10.721-.507,4.6-.709,10.907-.775,15.076-.074,4.639,1.81,5.909,6,6.156A72.991,72.991,0,0,0,87.959,97c1.344-.124,9.963-.243,11.377-.548a5.773,5.773,0,0,0,3.192-1.79c.206-.235.412-.487.59-.726a1.869,1.869,0,0,1,.532-.532c.177-.095.367-.161.54-.264a1.612,1.612,0,0,0,.746-1.175c.111-.676.825-.887,1.381-1.1a33.444,33.444,0,0,0,3.447-1.423.128.128,0,0,0,.066-.066.177.177,0,0,0,0-.1c-.2-.821-1.353-.734-1.967-.664h0Z" fill="#ffb7af"/>
        <path id="Path_14750" data-name="Path 14750" d="M76.6,62.524c-2.186,1.208-4.181,2.363-5.526,4.59s-1.715,6.342-1.386,14.754c.285,7.2.569,11.068.689,12.268s1.163,3.035,4.124,3.3a42.972,42.972,0,0,0,5.959.021s-.573-5.2,1.629-8.082l-2.272-.412.454-15.006c.1-2.033-.19-8.767-3.67-11.431h0Z" fill="#407bff"/>
        <path id="Path_14751" data-name="Path 14751" d="M76.6,62.524c-2.186,1.208-4.181,2.363-5.526,4.59s-1.715,6.342-1.386,14.754c.285,7.2.569,11.068.689,12.268s1.163,3.035,4.124,3.3a42.972,42.972,0,0,0,5.959.021s-.573-5.2,1.629-8.082l-2.272-.412.454-15.006c.1-2.033-.19-8.767-3.67-11.431h0Z" fill="#fff" opacity="0.15"/>
        <path id="Path_14752" data-name="Path 14752" d="M79.835,88.948c-2.247-.173-5.361.214-6.676,1.451,0,0,.825-2.2,6.709-2.548l-.033,1.1Z" opacity="0.15"/>
      </g>
    </g>
    <path id="Path_14753" data-name="Path 14753" d="M57.6,126.477l-4.672-6.59,4.247-6.61,4.656-2.689,1.023,1.443L66.7,109.8l8.016,4.627v7.67l4.878-1.249,4.247,11.517-4.672,2.693,4.672,6.589-4.247,6.61-4.651,2.684-1.023-1.435-3.856,2.223L62.05,147.1v-7.666l-4.878,1.245-4.247-11.517,4.672-2.688Z" fill="#ff2d2d"/>
    <path id="Path_14754" data-name="Path 14754" d="M57.6,126.477l-4.672-6.59,4.247-6.61,4.656-2.689,1.023,1.443L66.7,109.8l8.016,4.627v7.67l4.878-1.249,4.247,11.517-4.672,2.693,4.672,6.589-4.247,6.61-4.651,2.684-1.023-1.435-3.856,2.223L62.05,147.1v-7.666l-4.878,1.245-4.247-11.517,4.672-2.688Z" fill="#fff" opacity="0.8"/>
    <path id="Path_14755" data-name="Path 14755" d="M62.85,112.031l-.8.453v7.67l-4.878-6.878,4.656-2.689,1.023,1.443Z" fill="#ff2d2d" opacity="0.5"/>
    <path id="Path_14756" data-name="Path 14756" d="M79.6,120.848l-4.651,2.684-4.878,1.249,4.651-2.684,4.878-1.249Z" fill="#ff2d2d" opacity="0.3"/>
    <path id="Path_14757" data-name="Path 14757" d="M74.717,114.427l-4.651,2.689v7.666l4.651-2.684v-7.67Z" fill="#ff2d2d" opacity="0.5"/>
    <path id="Path_14758" data-name="Path 14758" d="M79.6,120.848l-4.651,2.684,4.247,11.517,4.651-2.684L79.6,120.848Z" fill="#ff2d2d" opacity="0.5"/>
    <path id="Path_14759" data-name="Path 14759" d="M73.62,136.476l5.571-1.427,4.652,6.6-4.651,2.684-5.571-7.855Z" fill="#ff2d2d" opacity="0.5"/>
    <path id="Path_14760" data-name="Path 14760" d="M83.843,141.647l-4.651,2.684-4.247,6.61,4.651-2.684,4.247-6.61Z" fill="#ff2d2d" opacity="0.65"/>
    <path id="Path_14761" data-name="Path 14761" d="M70.066,151.729l3.855-2.223-3.856-5.443v7.666Z" fill="#ff2d2d" opacity="0.65"/>
    <path id="Path_14762" data-name="Path 14762" d="M52.924,129.165l5.571-1.423-.9-1.266Z" fill="#ff2d2d" opacity="0.5"/>
    <path id="Path_14763" data-name="Path 14763" d="M60.458,127.981l-5.893-8.309,3.064-4.767,5.051,7.125.775-.449v-7.447l5.979,3.456v8.342l5.307-1.357,3.5,9.48-5.031,1.287-.775.449,5.893,8.3-3.064,4.767-5.052-7.121-.775.445v7.447l-5.979-3.456v-8.342L58.149,139.2l-3.5-9.484,5.031-1.287.775-.445Z" fill="#fafafa"/>
    <path id="Path_14764" data-name="Path 14764" d="M69.435,142.187l5.307,7.484.52-.825-5.051-7.121ZM54.652,129.713l-.862.218,3.584,9.7,5.307-1.357v8.367l6.754,3.9v-.895l-5.98-3.456v-8.359L58.149,139.2l-3.5-9.484Zm5.806-1.732-5.893-8.309,3.064-4.779-.256-.359-3.584,5.575,5.893,8.3Zm2.223-5.95.775-.449v-7.447l-.775-.445v8.342Zm9.752,13.76,5.893-1.517-.087-.227-5.031,1.286-.776.458Z" fill="#ff2d2d"/>
    <path id="Path_14765" data-name="Path 14765" d="M69.439,142.187l5.307,7.484.52-.825-5.051-7.121-.775.462ZM54.656,129.713l-.862.218,3.584,9.7,5.307-1.357v8.367l6.754,3.9v-.895L63.46,146.2v-8.359L58.153,139.2l-3.5-9.484Zm5.806-1.732-5.893-8.309,3.064-4.779-.256-.359-3.584,5.575,5.893,8.3Zm2.223-5.95.775-.449v-7.447l-.775-.445v8.342Zm9.752,13.76,5.893-1.517-.087-.227-5.031,1.286-.776.458Z" fill="#fff" opacity="0.7"/>
    <path id="Path_14766" data-name="Path 14766" d="M63.456,146.179l-.775.449v-8.342l.775-.449Z" fill="#ff2d2d" opacity="0.35"/>
    <path id="Path_14767" data-name="Path 14767" d="M58.145,139.2l-.775.445-3.579-9.711.858-.218Z" fill="#ff2d2d" opacity="0.35"/>
    <path id="Path_14768" data-name="Path 14768" d="M69.435,142.187l.775-.445,5.051,7.121-.52.808-5.307-7.484Z" fill="#ff2d2d" opacity="0.35"/>
    <path id="Path_14769" data-name="Path 14769" d="M54.565,119.672l-.771.449,3.579-5.575.256.359-3.064,4.767Z" fill="#ff2d2d" opacity="0.35"/>
    <path id="Path_14770" data-name="Path 14770" d="M62.681,122.031l.775-.449v-7.447l-.775-.445v8.342Z" fill="#ff2d2d" opacity="0.35"/>
    <path id="Path_14771" data-name="Path 14771" d="M72.433,135.792l.775-.45,5.031-1.286.087.227-5.893,1.509Z" fill="#ff2d2d" opacity="0.35"/>
    <path id="Path_14772" data-name="Path 14772" d="M66.157,144.67l.045.045-.025,1.922Z" fill="#455a64"/>
    <path id="Path_14773" data-name="Path 14773" d="M66.264,139l-.021,1.93v1.146l-.025,1.934-.058-.087v-5.146l.1.223Z" fill="#455a64"/>
    <path id="Path_14774" data-name="Path 14774" d="M66.355,130.79l-.033,2.755-.045,4.2c-.066-.091-.132-.186-.2-.272L66.054,135v-1.431l-.033-3.1.256.252.078.074Z" fill="#455a64"/>
    <path id="Path_14775" data-name="Path 14775" d="M66.936,121.536c0,.412-.2.668-.478.652l-.029,2.829v1.216l-.033,3.014-.384-.412-.029-2.664-.025-2.062v-2.223a1.893,1.893,0,0,1-.478-1.2c0-.544.334-.8.742-.561a1.785,1.785,0,0,1,.713,1.414h0Z" fill="#455a64"/>
    <path id="Path_14776" data-name="Path 14776" d="M68.495,125.932a5.154,5.154,0,0,0-1.9-1.357v1.484a7.093,7.093,0,0,1,1.65.936.973.973,0,0,0,.115.672c.2.318,1.047,1.369,1.447,1.46s.107-1.521-1.316-3.2h0Zm.454,1.649a.412.412,0,0,1-.169-.318c0-.124.078-.181.169-.128a.412.412,0,0,1,.165.317c0,.111-.074.165-.165.115v.012Zm-2.4,2.119c-.062-.062-.12-.128-.177-.19-.128-.144-.256-.28-.375-.412l-.181-.206a3.123,3.123,0,0,1-.907-1.8c0-.849.367-1.159.874-1.171v-1.587c-1.122-.2-2.091.218-2.091,1.8s1.072,2.821,2.152,3.909l.177.177.355.346.177.173c.825.825,1.5,1.526,1.5,2.219,0,.788-.726.825-1.53.862v.9c1.027-.025,2.206,0,2.206-1.385s-1.155-2.54-2.177-3.649v.012Zm-.095,8.565c-.058-.082-.115-.161-.177-.239s-.124-.177-.19-.264-.12-.165-.177-.252a4.006,4.006,0,0,1-.92-2.025c0-.524.375-.68.891-.738v-.915c-.775.045-1.46.235-1.46,1.2a5.777,5.777,0,0,0,1.509,3.241c.058.082.12.161.177.235l.177.231.173.235a2.959,2.959,0,0,1,.722,1.505c0,.553-.346.647-.746.7v.623c.569-.058,1.237-.058,1.237-1.171a5.229,5.229,0,0,0-1.216-2.379v.012Zm-.07,6.243c-.058-.07-.12-.144-.173-.218l-.054-.07a3.085,3.085,0,0,1-.177-.273,2.631,2.631,0,0,1-.412-1.377.635.635,0,0,1,.371-.676v-.643c-.388.083-.713.276-.713.961a3.464,3.464,0,0,0,.742,1.992c.058.078.12.148.181.218l.045.054a2.465,2.465,0,0,0,.177.181,2.792,2.792,0,0,0,.532.412,6.8,6.8,0,0,1-.52-.573Z" fill="#455a64"/>
    <path id="Path_14777" data-name="Path 14777" d="M70.066,117.116l-8.016-4.631L66.7,109.8l8.016,4.627Z" fill="#ff2d2d" opacity="0.2"/>
    <g id="Group_13261" data-name="Group 13261">
      <path id="Path_14778" data-name="Path 14778" d="M95.245,26.236,93.9,23.708l1.08-3.122v-1.9l-3.3,1.913v1.922L93.109,25a.194.194,0,0,0,.095.087l2.041,1.151Z" fill="#ff2d2d"/>
      <path id="Path_14779" data-name="Path 14779" d="M95.246,26.3,93.9,23.771l1.08-3.122v-1.9l-3.3,1.913v1.922l1.427,2.474a.194.194,0,0,0,.095.087L95.246,26.3Z" opacity="0.2"/>
      <path id="Path_14780" data-name="Path 14780" d="M103.149,3.5a2.186,2.186,0,0,0-.994-1.72l-.825-.466a2.185,2.185,0,0,0-1.983,0L86.976,8.48a2.194,2.194,0,0,0-.994,1.72V23.836a2.2,2.2,0,0,0,.994,1.72l.825.466a2.186,2.186,0,0,0,1.983,0l3.988-2.305,1.418,2.474a.21.21,0,0,0,.384-.037l1.464-4.346,5.105-2.957a2.194,2.194,0,0,0,.99-1.715L103.149,3.5Z" fill="#ff2d2d"/>
      <path id="Path_14781" data-name="Path 14781" d="M99.983,12.834v-1.55c0-.28-.194-.392-.437-.252l-2.656,1.53V9.5c0-.28-.2-.412-.441-.256l-1.34.775a.973.973,0,0,0-.441.763v3.084L92.012,15.4a.969.969,0,0,0-.437.763v1.546c0,.28.194.412.437.256l2.656-1.534v3.064c0,.285.2.412.441.256l1.34-.775a.969.969,0,0,0,.441-.759V15.148l2.656-1.534a.961.961,0,0,0,.437-.779h0Z" fill="#fafafa"/>
      <path id="Path_14782" data-name="Path 14782" d="M85.979,23.836a2.2,2.2,0,0,0,.994,1.72l.825.466a2.223,2.223,0,0,0,1.814.078c-.466.177-.825-.087-.825-.652V11.8a2,2,0,0,1,.293-.977l-2.8-1.612a2.037,2.037,0,0,0-.289.977l-.017,13.645Z" opacity="0.2"/>
      <path id="Path_14783" data-name="Path 14783" d="M103.117,3.214c-.115-.412-.5-.557-.957-.293l-12.4,7.171a1.967,1.967,0,0,0-.7.743L86.272,9.223a2.029,2.029,0,0,1,.7-.742L99.344,1.314a2.185,2.185,0,0,1,1.983,0l.825.466a2.181,2.181,0,0,1,.965,1.435Z" fill="#fff" opacity="0.3"/>
    </g>
  </g>
</svg>
