<svg xmlns="http://www.w3.org/2000/svg" width="146.286" height="169.855" viewBox="0 0 146.286 169.855">
  <g id="opinion" transform="translate(0.164 0.152)">
    <path id="Path_14784" data-name="Path 14784" d="M30.557,15.292c-3.723-3.5-9.863-4.167-12.162-.528s-.986,7.486-5.7,11.521c-3.206,2.757-.829,11.205,17.458,10.431,8.655-.365,5.726-9.37,5.494-13.626s-.247-9.464-5.09-7.8Z" fill="#263238"/>
    <path id="Path_14785" data-name="Path 14785" d="M23.352,163.758l-4.429.173-.084-4.794,4.429-.173Z" fill="#b55b52"/>
    <path id="Path_14786" data-name="Path 14786" d="M18.647,163.013h5.006a.385.385,0,0,1,.38.3l.868,3.97a.661.661,0,0,1-.656.794c-1.751-.03-2.6-.133-4.8-.133-1.356,0-4.873.143-6.747.143s-2.111-1.854-1.346-2.022c3.452-.755,5.459-1.79,6.564-2.782a1.085,1.085,0,0,1,.734-.271h0Z" fill="#263238"/>
    <path id="Path_14787" data-name="Path 14787" d="M18.84,159.142l.039,2.229,4.429-.192-.039-2.209-4.429.173Z" opacity="0.2"/>
    <path id="Path_14788" data-name="Path 14788" d="M12.31,67.209c-.986,5.316.148,31.3,1.652,42.778,2,15.239,4.074,50.624,4.074,50.624l5.918-.355s1.48-37.264.271-49.5C24.911,95.009,26.607,67.5,26.607,67.5l-14.3-.3Z" fill="#407bff"/>
    <path id="Path_14789" data-name="Path 14789" d="M25.626,84.642c.207-3.99-2.619-7.536-3.758,0-.72,4.789.769,13.183,2.722,19.111.3-6.17.686-13.04,1.036-19.111Z" opacity="0.2"/>
    <path id="Path_14790" data-name="Path 14790" d="M55.892,148.849l-2.88,2.752-3.9-4.182,2.875-2.747,3.906,4.177Z" fill="#b55b52"/>
    <path id="Path_14791" data-name="Path 14791" d="M52.257,151.675l2.959-4.054a.335.335,0,0,1,.449-.1l3.452,2.032a.76.76,0,0,1,.212,1.053l-.015.022c-1.05,1.4-1.628,2.012-2.925,3.8-.8,1.095-1.721,2.6-2.821,4.123s-2.6.429-2.278-.306c1.479-3.3.853-4.217.774-5.79a1.223,1.223,0,0,1,.192-.779h0Z" fill="#263238"/>
    <path id="Path_14792" data-name="Path 14792" d="M49.111,147.424l2.012,2.15,2.855-2.772-1.987-2.131-2.88,2.752Z" opacity="0.2"/>
    <path id="Path_14793" data-name="Path 14793" d="M19.175,67.352s6.372,33.536,8.029,46.556c.986,7.777,22.735,35.76,22.735,35.76l3.714-3.911s-7.96-20.487-17.547-32.638c-.38-14.243,1.238-37.689-4.266-45.505l-12.665-.261Z" fill="#407bff"/>
    <path id="Path_14794" data-name="Path 14794" d="M13.582,41.637c0,2.88-.133,5.706-.345,8.562s-.493,5.7-.952,8.557l-.084.538-.113.607q-.128.6-.281,1.169c-.217.755-.493,1.479-.74,2.18a41.506,41.506,0,0,1-1.835,4.024,58.625,58.625,0,0,1-4.582,7.343,1.223,1.223,0,0,1-2.1-1.233v-.03c1.159-2.505,2.283-5.075,3.265-7.62q.731-1.884,1.307-3.822c.178-.631.335-1.258.459-1.869.064-.306.109-.607.153-.9l.049-.439.049-.493c.251-2.732.4-5.5.538-8.28s.2-5.578.281-8.33v-.025a2.466,2.466,0,0,1,4.932.079l0-.015Z" fill="#b55b52"/>
    <path id="Path_14795" data-name="Path 14795" d="M11.975,38.032C5.918,39.8,6.7,50.82,6.7,50.82l8.611,2.318s1.43-8.068,1.3-10.963c-.128-3.008-1.3-5.114-4.636-4.143Z" fill="#407bff"/>
    <path id="Path_14796" data-name="Path 14796" d="M3.2,72.747.163,75.326l4.251,1.736a5.2,5.2,0,0,0,.705-3.911l-1.923-.4Z" fill="#b55b52"/>
    <path id="Path_14797" data-name="Path 14797" d="M.7,79.262l1.938.242A.986.986,0,0,0,3.674,78.9l.74-1.835L.163,75.326l-.321,2.846A.986.986,0,0,0,.7,79.262h0Z" fill="#b55b52"/>
    <path id="Path_14798" data-name="Path 14798" d="M10.017,40.9c-.271,11.047,2.269,19.111,2.3,26.311l19.525.4C31.7,60.4,31.756,55.7,34.858,42.777a4.162,4.162,0,0,0-3.078-5.018q-.185-.044-.374-.072c-1.169-.173-2.466-.335-3.783-.424a62.326,62.326,0,0,0-8.877-.187c-2.081.148-4.32.453-5.918.7A3.3,3.3,0,0,0,10.017,40.9h0Z" fill="#407bff"/>
    <path id="Path_14799" data-name="Path 14799" d="M28.215,51.106l-5.79-.039a.4.4,0,0,1-.414-.444l.321-2.742a.528.528,0,0,1,.518-.439l5.785.039a.395.395,0,0,1,.414.439l-.321,2.747a.523.523,0,0,1-.513.439h0Z" fill="#fff"/>
    <path id="Path_14800" data-name="Path 14800" d="M18.776,37.081s-3.186,2.229.182,7.822a115.418,115.418,0,0,1,8.685-7.639l-8.867-.182Z" fill="#fff" opacity="0.4"/>
    <path id="Path_14801" data-name="Path 14801" d="M26.972,27.261c-.616,2.841-1.287,8.059.671,10a27.939,27.939,0,0,0-8.384,5.168c-2.165-3.975-.493-5.356-.493-5.356,3.2-.69,3.166-3.053,2.658-5.282l5.548-4.532Z" fill="#b55b52"/>
    <path id="Path_14802" data-name="Path 14802" d="M26.37,27.755a11.92,11.92,0,0,1-1.287,4.873c-.538,1.041-1.973,1.479-3.418,1.563a7.772,7.772,0,0,0-.232-2.4l4.937-4.039Z" opacity="0.2"/>
    <path id="Path_14803" data-name="Path 14803" d="M31.593,23.785c-1.48,4.547-1.973,6.5-4.932,8.275-4.414,2.668-9.676-.118-9.607-5.006.069-4.4,2.466-11.092,7.432-11.777a6.51,6.51,0,0,1,7.106,8.508Z" fill="#b55b52"/>
    <path id="Path_14804" data-name="Path 14804" d="M19.535,17.812c2.466.7,8.473,1.213,9.676.493-1.129,1.736-.054,6.48,1.692,7.629,2.352-1.889,2.875-6.456.7-8.719s-9.05-4.971-12.068.6h0Z" fill="#263238"/>
    <path id="Path_14805" data-name="Path 14805" d="M32.284,26.566a3.452,3.452,0,0,1-1.815,1.973c-1.115.493-1.854-.454-1.7-1.6.143-1.031.9-2.535,2.091-2.555a1.569,1.569,0,0,1,1.42,2.185h0Z" fill="#b55b52"/>
    <path id="Path_14806" data-name="Path 14806" d="M32.155,66.474,33,68.245c.064.133-.1.271-.325.266L12.2,68.082c-.173,0-.316-.094-.325-.207l-.143-1.751c0-.118.148-.217.34-.217l19.776.414a.35.35,0,0,1,.311.152Z" fill="#ff2d2d"/>
    <path id="Path_14807" data-name="Path 14807" d="M29.458,68.629h.528c.1,0,.187-.054.182-.118l-.2-2.278c0-.064-.1-.123-.2-.123h-.533c-.1,0-.182.049-.178.118l.2,2.273c.01.074.1.129.207.129h0Z" fill="#407bff"/>
    <path id="Path_14808" data-name="Path 14808" d="M13.681,68.3h.533c.1,0,.187-.049.182-.118l-.2-2.278c0-.064-.1-.118-.2-.123h-.533c-.1,0-.187.049-.178.118l.2,2.273c.01.069.1.124.2.129h0Z" fill="#407bff"/>
    <path id="Path_14809" data-name="Path 14809" d="M21.567,68.466H22.1c.1,0,.187-.049.182-.118l-.2-2.273c0-.069-.1-.123-.2-.123h-.533c-.1,0-.182.054-.178.118l.2,2.278c.01.059.1.118.2.118Z" fill="#407bff"/>
    <path id="Path_14810" data-name="Path 14810" d="M24.5,23.4c-.1.375-.375.631-.621.567s-.365-.419-.271-.794.375-.631.621-.567S24.59,23.03,24.5,23.4Z" fill="#263238"/>
    <path id="Path_14811" data-name="Path 14811" d="M20.245,22.319c-.094.38-.37.631-.616.567s-.37-.414-.271-.794.37-.626.616-.567S20.344,21.945,20.245,22.319Z" fill="#263238"/>
    <path id="Path_14812" data-name="Path 14812" d="M20.077,21.575l-.838-.493S19.525,21.91,20.077,21.575Z" fill="#263238"/>
    <path id="Path_14813" data-name="Path 14813" d="M21.187,23.252a10.4,10.4,0,0,1-1.948,2.061,1.667,1.667,0,0,0,1.272.592Z" fill="#a02724"/>
    <path id="Path_14814" data-name="Path 14814" d="M21.424,27.38a.123.123,0,0,1-.039-.123.113.113,0,0,1,.142-.074h0a3.082,3.082,0,0,0,2.742-.454.114.114,0,1,1,.148.173,3.24,3.24,0,0,1-2.959.493l-.035-.015Z" fill="#263238"/>
    <path id="Path_14815" data-name="Path 14815" d="M26.814,21.674a.346.346,0,0,1-.074-.094,1.8,1.8,0,0,0-1.223-1.1.228.228,0,0,1,.079-.449A2.273,2.273,0,0,1,27.165,21.4a.232.232,0,0,1-.35.271h0Z" fill="#263238"/>
    <path id="Path_14816" data-name="Path 14816" d="M19.407,19.923l-.03-.03a.227.227,0,0,1,0-.321A2.273,2.273,0,0,1,21.35,19a.229.229,0,1,1-.113.444,1.8,1.8,0,0,0-1.578.468.227.227,0,0,1-.252.015Z" fill="#263238"/>
    <path id="Path_14817" data-name="Path 14817" d="M34.853,41.174c1.435,1.9,2.777,3.812,4.079,5.8.646.986,1.287,1.973,1.894,3.038a30.648,30.648,0,0,1,1.756,3.344,10.02,10.02,0,0,1,.4,1.1,5.028,5.028,0,0,1,.168.883,2.655,2.655,0,0,1,0,.36v.222a2.465,2.465,0,0,1-.044.291l-.035.153v.123l-.039.109c-.232.592-.414,1.189-.69,1.761a22.093,22.093,0,0,1-1.8,3.368,16.813,16.813,0,0,1-2.5,2.959,12.138,12.138,0,0,1-1.544,1.228c-.281.182-.567.36-.863.523l-.468.227c-.178.079-.306.133-.562.227l-.937-2.249a2.178,2.178,0,0,1,.212-.182l.271-.237c.182-.163.36-.34.533-.523a13.407,13.407,0,0,0,.986-1.189,17.323,17.323,0,0,0,1.569-2.688c.207-.493.434-.957.607-1.479s.365-.986.523-1.48.281-1.036.434-1.549h0a1.282,1.282,0,0,1-.03.182.887.887,0,0,0,0,.113v.173a3.75,3.75,0,0,0-.242-.523c-.449-.843-1.05-1.815-1.667-2.742s-1.258-1.879-1.914-2.811c-1.307-1.869-2.653-3.758-3.975-5.613l3.866-2.919Z" fill="#b55b52"/>
    <path id="Path_14818" data-name="Path 14818" d="M35.923,66.306l-3.8,2.688-1.706-3.886s2.308-1.238,4.128-.409Z" fill="#b55b52"/>
    <path id="Path_14819" data-name="Path 14819" d="M29.472,69.314l-.952-1.326a1.2,1.2,0,0,1,.261-1.657l1.632-1.223,1.706,3.886-1.045.646a1.2,1.2,0,0,1-1.6-.326Z" fill="#b55b52"/>
    <path id="Path_14820" data-name="Path 14820" d="M27.243,40c-1.292,5.134,6.678,13.922,6.678,13.922l6.7-6.959s-3.063-6.54-7.062-8.591c-2.791-1.43-5.746-.636-6.318,1.627h0Z" fill="#407bff"/>
    <path id="Path_14821" data-name="Path 14821" d="M24.329,22.66l-.838-.493S23.771,23,24.329,22.66Z" fill="#263238"/>
    <path id="Path_14822" data-name="Path 14822" d="M15.762,53.715a.182.182,0,0,1-.168-.113.178.178,0,0,1,.1-.227l.769-.3a3.773,3.773,0,0,0,2.466-3.521l.054-7.21a2.4,2.4,0,0,0-4.557-1.1L11.1,47.654a3.788,3.788,0,0,0,.493,4.261l.543.616a.178.178,0,1,1-.266.232l-.543-.671a4.118,4.118,0,0,1-.558-4.656L14.1,41.026a2.747,2.747,0,0,1,5.183,1.292l-.054,7.21a4.133,4.133,0,0,1-2.673,3.847l-.769.291-.024.049Z" fill="#263238"/>
    <path id="Path_14823" data-name="Path 14823" d="M19.111,43.955a.182.182,0,0,1-.178-.173A2.841,2.841,0,0,0,13.789,42.5a.178.178,0,1,1-.311-.173h0a3.2,3.2,0,0,1,5.824,1.45.182.182,0,0,1-.173.182h-.02Z" fill="#263238"/>
    <path id="Path_14824" data-name="Path 14824" d="M17.187,40.015a.182.182,0,0,1-.148-.079,1.548,1.548,0,0,1,0-1.272A2.786,2.786,0,0,1,18.7,36.913a.168.168,0,0,1,.217.1l0,.013a.178.178,0,0,1-.109.222,2.5,2.5,0,0,0-1.425,1.534,1.287,1.287,0,0,0-.054.986.178.178,0,0,1-.053.246h0a.2.2,0,0,1-.094,0Z" fill="#263238"/>
    <path id="Path_14825" data-name="Path 14825" d="M15.358,53.444c-.084.321,0,.626.237.681s.454-.168.533-.493-.03-.631-.242-.681-.449.168-.528.493Z" fill="#263238"/>
    <path id="Path_14826" data-name="Path 14826" d="M29.354,44.927c.158.745.69,1.258,1.179,1.154s.755-.8.592-1.539-.69-1.262-1.179-1.154S29.191,44.2,29.354,44.927Z" fill="#263238"/>
    <path id="Path_14827" data-name="Path 14827" d="M30.9,44.7a.173.173,0,0,1-.178-.167h0c-.1-2.727-1.139-6.115-3.156-7.117a.178.178,0,0,1-.079-.237.173.173,0,0,1,.23-.082l.007,0c2.16,1.07,3.24,4.5,3.349,7.4a.168.168,0,0,1-.152.182H30.9l0,.02Z" fill="#263238"/>
    <path id="Path_14828" data-name="Path 14828" d="M28.826,44.991c.1.636.562,1.09,1.026,1.016a1.049,1.049,0,0,0,.656-1.292c-.1-.641-.567-1.09-1.031-1.016s-.754.651-.651,1.292h0Z" fill="#fff"/>
    <path id="Path_14829" data-name="Path 14829" d="M28.787,45.045c.148.789.562,1.371.922,1.3s.523-.76.375-1.549-.562-1.371-.922-1.3S28.634,44.256,28.787,45.045Z" fill="#263238"/>
    <path id="Path_14830" data-name="Path 14830" d="M11.629,52.512c-.079.325.03.631.242.681s.449-.163.533-.493-.03-.626-.242-.681-.449.173-.533.493Z" fill="#263238"/>
    <path id="Path_14831" data-name="Path 14831" d="M65.652,12.353c-3.122.558-3.516.271-3.556-1.973s-1.174-5.987.4-7.161a.853.853,0,0,1,1.415.414,1.026,1.026,0,0,1,1.287-.6c.064-.464.138-1.652.986-1.973a1.711,1.711,0,0,1,1.628.449S67.753-.318,68.986-.14A1.854,1.854,0,0,1,70.5,1.3S71.215.26,72.177.669a1.518,1.518,0,0,1,.76,1.613,1.9,1.9,0,0,1,1.78.064,1.1,1.1,0,0,1,.207,1.45S75.614,2.02,76.931,3c1.183.888.108,2.279.108,2.279s1.3-.212,1.618.444c1.065,2.234-2.994,4.73-3.127,8.5-6.234,2.357-9.879-1.874-9.879-1.874h0Z" fill="#263238"/>
    <path id="Path_14832" data-name="Path 14832" d="M43.153,72.313l-2.081-.385L38.32,74.557a1.479,1.479,0,0,0-.459,1.11l.039,2.15a1.479,1.479,0,0,0,1.356,1.455l.957.084a1.479,1.479,0,0,0,1.569-1.09l.493-1.756s2.717-3.21.877-4.2h0Z" fill="#407bff"/>
    <path id="Path_14833" data-name="Path 14833" d="M64.172,32.987c-1.4,3.615-2.786,7.245-4.128,10.884s-2.673,7.294-3.921,10.889l-.222.666-.153.434c-.059.163-.118.33-.173.459-.232.587-.464,1.07-.7,1.558-.464.986-.932,1.869-1.406,2.762-.952,1.775-1.933,3.487-2.925,5.193-1.973,3.418-3.945,6.757-5.987,10.145l-6.278-3.906c2.071-3.22,4.069-6.544,5.982-9.864.942-1.667,1.869-3.339,2.732-5,.429-.829.843-1.657,1.208-2.466.173-.39.345-.789.459-1.115.039-.094.054-.158.079-.222l.079-.256.227-.72c1.189-3.788,2.436-7.447,3.64-11.161l3.61-11.1,7.871,2.816Z" fill="#407bff"/>
    <path id="Path_14834" data-name="Path 14834" d="M64.172,32.987c-1.4,3.615-2.786,7.245-4.128,10.884s-2.673,7.294-3.921,10.889l-.222.666-.153.434c-.059.163-.118.33-.173.459-.232.587-.464,1.07-.7,1.558-.464.986-.932,1.869-1.406,2.762-.952,1.775-1.933,3.487-2.925,5.193-1.973,3.418-3.945,6.757-5.987,10.145l-6.278-3.906c2.071-3.22,4.069-6.544,5.982-9.864.942-1.667,1.869-3.339,2.732-5,.429-.829.843-1.657,1.208-2.466.173-.39.345-.789.459-1.115.039-.094.054-.158.079-.222l.079-.256.227-.72c1.189-3.788,2.436-7.447,3.64-11.161l3.61-11.1,7.871,2.816Z" fill="#fff" opacity="0.6"/>
    <path id="Path_14835" data-name="Path 14835" d="M45.363,164.986l-4.424.217,2.091-11.521,4.207.967-1.874,10.337Z" fill="#ffb573"/>
    <path id="Path_14836" data-name="Path 14836" d="M77.1,165.153H72.675l.015-10.243h4.419l-.01,10.243Z" fill="#ffb573"/>
    <path id="Path_14837" data-name="Path 14837" d="M72.255,164.64h5.39a.365.365,0,0,1,.365.3l.71,3.945a.681.681,0,0,1-.676.789c-1.736-.03-3-.133-5.183-.133-1.341,0-5.425.138-7.26.138s-2.022-1.835-1.258-2c3.452-.745,6.051-1.771,7.181-2.752a1.1,1.1,0,0,1,.73-.286h0Z" fill="#263238"/>
    <path id="Path_14838" data-name="Path 14838" d="M43.03,153.687l-.967,5.326,4.207.966.967-5.326Z" opacity="0.2"/>
    <path id="Path_14839" data-name="Path 14839" d="M72.685,154.91h4.424v5.277H72.685Z" opacity="0.2"/>
    <path id="Path_14840" data-name="Path 14840" d="M80.669,32.859c-3.452,15.53-2.535,30.858-2.9,34.177L54.156,65.478c-2.466-18.741.286-30.7,1.849-35.6a4.438,4.438,0,0,1,3.669-3.072,67.942,67.942,0,0,1,10.574-.33,39.453,39.453,0,0,1,7.082,1.075,4.439,4.439,0,0,1,3.339,5.307Z" fill="#407bff"/>
    <path id="Path_14841" data-name="Path 14841" d="M73.552,15.953c-.779,2.925-1.7,8.1-.217,10.722.232.409-.212.76-.232,1.233-.054,1.45-2.017,1.884-5.529,1.9s-5.016-1.445-4.059-2.826a.987.987,0,0,1,.621-.4c3.289-.735,3.354-3.314,2.9-5.775l6.51-4.853Z" fill="#ffb573"/>
    <path id="Path_14842" data-name="Path 14842" d="M67.324,29.007a9.425,9.425,0,0,1,1.7,4.345C72.532,31.7,74.2,27.705,74.2,27.705l-1.055-1.129s-3.9.735-5.824,2.431Z" opacity="0.4"/>
    <path id="Path_14843" data-name="Path 14843" d="M66.978,29.022a13.749,13.749,0,0,0-3.216,3.768c-2.451-1.519-1.642-5.849-1.642-5.849l2-.395s.892.824,2.86,2.476Z" opacity="0.4"/>
    <path id="Path_14844" data-name="Path 14844" d="M67.136,28.913l-.755.074-1.277.843a2.313,2.313,0,0,0,.256,1.48,9.051,9.051,0,0,0,2.254.153,2.382,2.382,0,0,0,1.139-1.174l-.937-1.2-.681-.178Z" fill="#ff2d2d"/>
    <path id="Path_14845" data-name="Path 14845" d="M67.136,28.913a12.669,12.669,0,0,1,2.145,3.975c3.507-1.647,5.548-5.583,5.548-5.583l-1.692-1.48s-4.074,1.4-6,3.087h0Z" fill="#407bff"/>
    <path id="Path_14846" data-name="Path 14846" d="M67.136,28.913a12.976,12.976,0,0,0-3.492,3.235c-2.466-1.514-1.524-5.593-1.524-5.593l2-.395a39.825,39.825,0,0,0,3.018,2.752h0Z" fill="#407bff"/>
    <path id="Path_14847" data-name="Path 14847" d="M70.9,17.931,67.052,20.8a10.356,10.356,0,0,1,.192,1.8c1.386-.1,3.378-1.48,3.62-2.92a4.933,4.933,0,0,0,.035-1.751Z" opacity="0.2"/>
    <path id="Path_14848" data-name="Path 14848" d="M74.258,11.12c-.558,4.355-.661,6.9-3.018,9.03-3.546,3.151-8.808.794-9.563-3.64-.681-3.99.345-10.441,4.739-11.9a5.987,5.987,0,0,1,7.842,6.5Z" fill="#ffb573"/>
    <path id="Path_14849" data-name="Path 14849" d="M73.192,15.055c-.986-.952-.37-5.509.128-6.816-2.466.237-10.436.227-10.134-1.973s3.2-4.069,7.94-2.525C75.072,5.029,76.058,7,76.058,8.6c.059,3.3-2.866,6.451-2.866,6.451h0Z" fill="#263238"/>
    <path id="Path_14850" data-name="Path 14850" d="M75.787,15.1a3.866,3.866,0,0,1-2.229,1.884c-1.258.39-1.879-.769-1.524-2.012.316-1.115,1.356-2.668,2.614-2.51A1.721,1.721,0,0,1,75.787,15.1h0Z" fill="#ffb573"/>
    <path id="Path_14851" data-name="Path 14851" d="M40.623,157.662l7.314,1.613s7.112-27.869,9.222-41.491c.646-4.143,2.145-10.056,3.512-16.275,1.721-7.842,3.886-16.324,5.662-22.967,1.874-7,3.265-12.028,3.265-12.028L54.156,65.492s-7.186,36.451-8.636,49.87c-1.514,13.947-4.9,42.3-4.9,42.3h0Z" fill="#263238"/>
    <path id="Path_14852" data-name="Path 14852" d="M60.671,101.5c1.721-7.841,3.886-16.324,5.662-22.967L64.71,75.08c-3.832,4.576-4.813,18.736-4.039,26.42h0Z" opacity="0.2"/>
    <path id="Path_14853" data-name="Path 14853" d="M61.514,65.966s3.2,37.25,4.439,50.146c1.381,14.124,5.085,43.059,5.085,43.059h7.427s.335-30.814-.986-44.455c-.187-26.819.281-47.675.281-47.675L61.514,65.966Z" fill="#263238"/>
    <path id="Path_14854" data-name="Path 14854" d="M70.09,159.344h9.538v-2.851l-9.908-.547Z" fill="#ff2d2d"/>
    <path id="Path_14855" data-name="Path 14855" d="M39.666,157.632l8.714,1.924L49,156.74l-9.123-2.3-.212,3.191Z" fill="#ff2d2d"/>
    <path id="Path_14856" data-name="Path 14856" d="M67.891,11.9c0,.355-.232.631-.464.616s-.4-.316-.38-.671.232-.631.464-.616S67.915,11.544,67.891,11.9Z" fill="#263238"/>
    <path id="Path_14857" data-name="Path 14857" d="M63.867,11.652c0,.355-.232.631-.464.616s-.4-.316-.38-.671.232-.631.464-.616S63.891,11.278,63.867,11.652Z" fill="#263238"/>
    <path id="Path_14858" data-name="Path 14858" d="M64.789,11.9a12.9,12.9,0,0,1-1.9,2.929,2.047,2.047,0,0,0,1.677.434l.222-3.363Z" fill="#ed893e"/>
    <path id="Path_14859" data-name="Path 14859" d="M66.007,16.313a2.959,2.959,0,0,0,2.086-1.036.1.1,0,0,0,0-.143.109.109,0,0,0-.148,0,2.836,2.836,0,0,1-2.372.957.1.1,0,0,0-.113.093h0a.109.109,0,0,0,.1.113,3.711,3.711,0,0,0,.449.015Z" fill="#263238"/>
    <path id="Path_14860" data-name="Path 14860" d="M68.872,10.666a.237.237,0,0,0,.1-.035.212.212,0,0,0,.064-.291,2.1,2.1,0,0,0-1.647-.986.212.212,0,0,0,0,.419,1.667,1.667,0,0,1,1.3.789.2.2,0,0,0,.187.1h0Z" fill="#263238"/>
    <path id="Path_14861" data-name="Path 14861" d="M61.879,10.138a.212.212,0,0,0,.168-.1,1.662,1.662,0,0,1,1.243-.848.217.217,0,0,0,.2-.222.212.212,0,0,0-.222-.2,2.081,2.081,0,0,0-1.583,1.08.207.207,0,0,0,.079.281.178.178,0,0,0,.118.01h0Z" fill="#263238"/>
    <path id="Path_14862" data-name="Path 14862" d="M70.761,165.41a5.312,5.312,0,0,0,1.164-.158.1.1,0,0,0,.079-.084.094.094,0,0,0-.039-.1c-.158-.1-1.549-.986-2.052-.73a.35.35,0,0,0-.187.3.611.611,0,0,0,.192.557,1.3,1.3,0,0,0,.843.222h0Zm.863-.306a2.1,2.1,0,0,1-1.563-.079.4.4,0,0,1-.128-.38.123.123,0,0,1,.069-.123c.261-.128,1.06.247,1.623.582h0Z" fill="#407bff"/>
    <path id="Path_14863" data-name="Path 14863" d="M71.9,165.257a.074.074,0,0,0,.054,0,.1.1,0,0,0,.054-.094c0-.054-.054-1.332-.552-1.751a.558.558,0,0,0-.444-.133.35.35,0,0,0-.34.271c-.113.493.73,1.48,1.179,1.711a.084.084,0,0,0,.049-.005h0Zm-.819-1.8a.355.355,0,0,1,.237.094,2.422,2.422,0,0,1,.464,1.386c-.439-.345-.986-1.08-.907-1.371,0-.025,0-.089.158-.1h.049Z" fill="#407bff"/>
    <path id="Path_14864" data-name="Path 14864" d="M40.278,163.255l5.188,1.479a.37.37,0,0,1,.266.39l-.385,3.98a.685.685,0,0,1-.868.572c-1.662-.493-2.846-.942-4.932-1.539a36.086,36.086,0,0,1-7.033-2.92c-1.534-1.045-.631-2.658.094-2.362,3.26,1.322,5.553,1.11,6.9.493a1.119,1.119,0,0,1,.764-.094h0Z" fill="#263238"/>
    <path id="Path_14865" data-name="Path 14865" d="M38.626,163.59a5.622,5.622,0,0,0,1.164.163.109.109,0,0,0,.1-.059.1.1,0,0,0,0-.113c-.123-.138-1.223-1.361-1.771-1.258a.365.365,0,0,0-.266.237.617.617,0,0,0,.035.582,1.322,1.322,0,0,0,.735.449Zm.917-.059a2.136,2.136,0,0,1-1.48-.493.419.419,0,0,1,0-.4c.03-.079.069-.094.1-.1.281-.064.922.518,1.376,1.011v-.02Z" fill="#407bff"/>
    <path id="Path_14866" data-name="Path 14866" d="M39.765,163.748a.118.118,0,0,0,.059,0,.108.108,0,0,0,.079-.079c0-.049.306-1.292-.054-1.835a.567.567,0,0,0-.39-.247.355.355,0,0,0-.4.168c-.247.444.306,1.608.666,1.973a.1.1,0,0,0,.044.019Zm-.3-1.948a.345.345,0,0,1,.2.153,2.475,2.475,0,0,1,.074,1.479c-.33-.449-.646-1.3-.493-1.563,0-.025.044-.079.182-.059l.035-.01Z" fill="#407bff"/>
    <path id="Path_14867" data-name="Path 14867" d="M73.626,26.29a.35.35,0,0,0-.4.375c.173,2.643-3.945,7.4-4.932,21.635-.587,8.66-1.124,35.662-.73,49.708A1.213,1.213,0,0,0,69.1,99.137c7.279-2.032,10.717,2.895,12.117-2.915-.074-6.959-2.18-31.943-1.637-37.866s2.8-22.015,3.359-26.306c.5-3.728-7.279-5.39-9.316-5.76h0Z" fill="#407bff"/>
    <path id="Path_14868" data-name="Path 14868" d="M73.626,26.29a.35.35,0,0,0-.4.375c.173,2.643-3.945,7.4-4.932,21.635-.587,8.66-1.124,35.662-.73,49.708A1.213,1.213,0,0,0,69.1,99.137c7.279-2.032,10.717,2.895,12.117-2.915-.074-6.959-2.18-31.943-1.637-37.866s2.8-22.015,3.359-26.306c.5-3.728-7.279-5.39-9.316-5.76h0Z" fill="#fff" opacity="0.7"/>
    <path id="Path_14869" data-name="Path 14869" d="M78.425,38.358c-.321,2.2-.444,11.087,1.672,15.362.355-2.959.819-6.475,1.267-9.864l-2.939-5.5Z" fill="#407bff" opacity="0.2"/>
    <path id="Path_14870" data-name="Path 14870" d="M81.448,76.791l-2.1.246-1.859,3.319a1.479,1.479,0,0,0-.118,1.194l.671,2.042a1.48,1.48,0,0,0,1.726.986l.937-.2a1.479,1.479,0,0,0,1.184-1.509l-.059-1.815s1.667-3.852-.38-4.266h0Z" fill="#407bff"/>
    <path id="Path_14871" data-name="Path 14871" d="M82.6,30.393c.671,1.973,1.292,3.921,1.909,5.893s1.233,3.945,1.815,5.918,1.144,3.99,1.662,6.046c.256,1.031.493,2.071.72,3.161.1.547.207,1.1.291,1.7.039.306.084.587.109.927l.044.493.025.558a5.374,5.374,0,0,1,0,.562,3.608,3.608,0,0,1-.025.538l-.044.493-.054.444c-.069.6-.158,1.139-.247,1.682-.178,1.075-.385,2.111-.6,3.137-.424,2.052-.9,4.059-1.376,6.056s-.986,3.99-1.479,5.977l-1.48,5.962L76.733,78c1.1-3.852,2.111-7.772,3.043-11.669.454-1.973.878-3.906,1.258-5.834.187-.986.365-1.923.493-2.851.074-.464.133-.922.173-1.336a6.451,6.451,0,0,0,.039-.986v-.207L81.7,54.85a4.526,4.526,0,0,0-.089-.582c-.069-.414-.158-.853-.256-1.3-.2-.9-.444-1.825-.705-2.757-.493-1.869-1.12-3.763-1.756-5.647-1.258-3.768-2.673-7.56-4.133-11.25L82.6,30.393Z" fill="#407bff"/>
    <path id="Path_14872" data-name="Path 14872" d="M82.6,30.393c.671,1.973,1.292,3.921,1.909,5.893s1.233,3.945,1.815,5.918,1.144,3.99,1.662,6.046c.256,1.031.493,2.071.72,3.161.1.547.207,1.1.291,1.7.039.306.084.587.109.927l.044.493.025.558a5.374,5.374,0,0,1,0,.562,3.608,3.608,0,0,1-.025.538l-.044.493-.054.444c-.069.6-.158,1.139-.247,1.682-.178,1.075-.385,2.111-.6,3.137-.424,2.052-.9,4.059-1.376,6.056s-.986,3.99-1.479,5.977l-1.48,5.962L76.733,78c1.1-3.852,2.111-7.772,3.043-11.669.454-1.973.878-3.906,1.258-5.834.187-.986.365-1.923.493-2.851.074-.464.133-.922.173-1.336a6.451,6.451,0,0,0,.039-.986v-.207L81.7,54.85a4.526,4.526,0,0,0-.089-.582c-.069-.414-.158-.853-.256-1.3-.2-.9-.444-1.825-.705-2.757-.493-1.869-1.12-3.763-1.756-5.647-1.258-3.768-2.673-7.56-4.133-11.25L82.6,30.393Z" fill="#fff" opacity="0.7"/>
    <path id="Path_14873" data-name="Path 14873" d="M64.034,25.92a.572.572,0,0,1,.449.932c-1.174,1.361-1.914,3.23-3.3,9.227-1.677,7.235-5.247,43.636-5.918,61.474a1.026,1.026,0,0,1-1.208.986c-3.482-.641-5.869,1.046-6.249-1.189-.419-2.466,1.144-26.02,4.069-37.1-.458-9.824,1.2-29.531,4.508-32.15,1.8-1.455,5.613-2.15,7.654-2.185h0Z" fill="#407bff"/>
    <path id="Path_14874" data-name="Path 14874" d="M64.034,25.92a.572.572,0,0,1,.449.932c-1.174,1.361-1.914,3.23-3.3,9.227-1.677,7.235-5.247,43.636-5.918,61.474a1.026,1.026,0,0,1-1.208.986c-3.482-.641-5.869,1.046-6.249-1.189-.419-2.466,1.144-26.02,4.069-37.1-.458-9.824,1.2-29.531,4.508-32.15,1.8-1.455,5.613-2.15,7.654-2.185h0Z" fill="#fff" opacity="0.7"/>
    <path id="Path_14875" data-name="Path 14875" d="M65.953,30.807s-4.261,11.969-5.76,22A30.338,30.338,0,0,0,62.422,63.12c2.195-4.779,3.566-7.595,3.783-10.312.35-4.088.927-21.922.927-21.922l-1.179-.079Z" fill="#ff2d2d"/>
    <path id="Path_14876" data-name="Path 14876" d="M74.869,45.045a.2.2,0,0,1-.089-.37l.809-.424a4.177,4.177,0,0,0,2.239-4.192l-.878-7.95a2.653,2.653,0,0,0-5.119-.651l-2.84,7.472a4.182,4.182,0,0,0,1.11,4.621l.681.616a.2.2,0,0,1-.276.276h0l-.68-.611a4.577,4.577,0,0,1-1.2-5.055l2.865-7.457a3.048,3.048,0,0,1,5.874.75l.878,7.945A4.577,4.577,0,0,1,75.777,44.6l-.809.419a.158.158,0,0,1-.1.025h0Z" fill="#263238"/>
    <path id="Path_14877" data-name="Path 14877" d="M77.315,33.845a.192.192,0,0,1-.192-.168,3.152,3.152,0,0,0-5.849-.75.2.2,0,1,1-.365-.148,3.541,3.541,0,0,1,6.6.843.192.192,0,0,1-.163.217l-.03,0Z" fill="#263238"/>
    <path id="Path_14878" data-name="Path 14878" d="M74.662,29.767a.192.192,0,0,1-.183-.2V29.56c.059-.962-.079-2.712-.986-3.166a.2.2,0,0,1,.183-.35h0c1.312.676,1.193,3.25,1.174,3.541A.192.192,0,0,1,74.662,29.767Z" fill="#263238"/>
    <path id="Path_14879" data-name="Path 14879" d="M71.087,44.365c-.049.37-.281.641-.523.607s-.4-.35-.35-.715.276-.641.518-.607.4.35.355.715h0Z" fill="#263238"/>
    <path id="Path_14880" data-name="Path 14880" d="M59.62,36.37c-.311.784-.986,1.258-1.479,1.055s-.686-.986-.375-1.79.986-1.258,1.479-1.055S59.926,35.586,59.62,36.37Z" fill="#263238"/>
    <path id="Path_14881" data-name="Path 14881" d="M58,35.862h-.039a.2.2,0,0,1-.153-.232c.651-3.24,3.344-8.384,5.716-9.864a.2.2,0,1,1,.207.33c-2.293,1.445-4.9,6.411-5.538,9.6a.2.2,0,0,1-.192.163h0Z" fill="#263238"/>
    <path id="Path_14882" data-name="Path 14882" d="M60.182,36.533c-.227.676-.809,1.095-1.3.932a1.17,1.17,0,0,1-.493-1.529c.222-.681.809-1.095,1.3-.932a1.165,1.165,0,0,1,.493,1.529Z" fill="#fff"/>
    <path id="Path_14883" data-name="Path 14883" d="M60.217,36.6c-.3.833-.858,1.4-1.238,1.262s-.444-.927-.138-1.766.858-1.4,1.238-1.262S60.523,35.764,60.217,36.6Z" fill="#263238"/>
    <path id="Path_14884" data-name="Path 14884" d="M75.308,44.907c-.044.365-.281.636-.523.607s-.4-.355-.35-.72.281-.636.523-.607S75.358,44.537,75.308,44.907Z" fill="#263238"/>
    <path id="Path_14885" data-name="Path 14885" d="M103.271,23.538c1.647,4.5-2.732,6.766-5.6,13.4s4.054,14.544,14.682,14.716,10.963-10.007,9.316-17.311,1.8-8.492,1.065-14.07c-.937-7.329-11.5-12.882-15.688-6.155-3.728-.35-5.213,5.484-3.773,9.42h0Z" fill="#263238"/>
    <path id="Path_14886" data-name="Path 14886" d="M134.751,84.149v-.572a1.908,1.908,0,0,0-.2-.789l-1.785-3.521-2.091-.395c-1.479,1.593,0,4.769,0,4.769v.508a1.913,1.913,0,0,0,1.391,1.84l.281.084a1.918,1.918,0,0,0,2.407-1.923h0Z" fill="#ffb7af"/>
    <path id="Path_14887" data-name="Path 14887" d="M125.888,38.851l.769,5.4.809,5.381c.266,1.8.547,3.591.833,5.385l.853,5.346.1.528c.035.173.094.395.138.587l.148.607.173.626c.222.829.494,1.687.73,2.535.493,1.7,1.06,3.423,1.618,5.134,1.134,3.418,2.318,6.85,3.58,10.224l-6.973,2.466-3.492-10.426c-.577-1.741-1.164-3.482-1.721-5.257-.276-.893-.552-1.775-.814-2.7l-.2-.686-.192-.715c-.064-.247-.133-.464-.192-.735l-.182-.809-1.031-5.425q-.493-2.683-1.031-5.366l-1.055-5.366-1.1-5.326,8.231-1.406Z" fill="#407bff"/>
    <path id="Path_14888" data-name="Path 14888" d="M125.888,38.851l.769,5.4.809,5.381c.266,1.8.547,3.591.833,5.385l.853,5.346.1.528c.035.173.094.395.138.587l.148.607.173.626c.222.829.494,1.687.73,2.535.493,1.7,1.06,3.423,1.618,5.134,1.134,3.418,2.318,6.85,3.58,10.224l-6.973,2.466-3.492-10.426c-.577-1.741-1.164-3.482-1.721-5.257-.276-.893-.552-1.775-.814-2.7l-.2-.686-.192-.715c-.064-.247-.133-.464-.192-.735l-.182-.809-1.031-5.425q-.493-2.683-1.031-5.366l-1.055-5.366-1.1-5.326,8.231-1.406Z" fill="#fff" opacity="0.6"/>
    <path id="Path_14889" data-name="Path 14889" d="M124.779,38.437c.232,2.629.025,9.168-2.614,25.379H103.918c.291-7.043.311-11.53-2.712-24.97a2.269,2.269,0,0,1,1.709-2.715q.07-.016.14-.027a49.981,49.981,0,0,1,5.381-.587,58.139,58.139,0,0,1,8.3,0c2.269.207,4.73.616,6.219.888a2.259,2.259,0,0,1,1.829,2.032h0Z" fill="#263238"/>
    <path id="Path_14890" data-name="Path 14890" d="M109.239,26.176c.523,2.668,1.045,7.56-.824,9.341a8.389,8.389,0,0,0,5.918,2.841c3.58,0,2.382-2.84,2.382-2.84-2.959-.71-2.9-2.92-2.382-4.991Z" fill="#ffb7af"/>
    <path id="Path_14891" data-name="Path 14891" d="M111.315,27.952l3.013,2.569A8.72,8.72,0,0,0,114.072,32c-1.139-.163-2.925-1.134-3.171-2.372a3.558,3.558,0,0,1,.414-1.677h0Z" opacity="0.2"/>
    <path id="Path_14892" data-name="Path 14892" d="M106.1,20.939c.7,4.409.9,6.288,3.354,8.349,3.7,3.1,8.961,1.282,9.6-3.245.572-4.074-.666-10.6-5.173-11.95a6.09,6.09,0,0,0-7.777,6.845Z" fill="#ffb7af"/>
    <path id="Path_14893" data-name="Path 14893" d="M106.832,24.115c2.525-2.5,3.393-5.977,3.156-7.4,2.431.676,4.217-.281,4.108-.7,1.716,1.677,4.828,3,4.478,1.2s-2.653-5.134-7.457-3.945a9.072,9.072,0,0,0-6.584,8.123c.069,2,2.3,2.717,2.3,2.717Z" fill="#263238"/>
    <path id="Path_14894" data-name="Path 14894" d="M112.425,21.437c.035.365.251.636.493.616s.4-.335.365-.7-.256-.636-.493-.616S112.425,21.077,112.425,21.437Z" fill="#263238"/>
    <path id="Path_14895" data-name="Path 14895" d="M116.523,21.047c.035.36.256.636.493.611s.4-.33.365-.69-.256-.636-.493-.616S116.489,20.687,116.523,21.047Z" fill="#263238"/>
    <path id="Path_14896" data-name="Path 14896" d="M116.789,20.382l.843-.33S117.248,20.771,116.789,20.382Z" fill="#263238"/>
    <path id="Path_14897" data-name="Path 14897" d="M115.329,21.817a9.675,9.675,0,0,0,1.5,2.185,1.568,1.568,0,0,1-1.262.365l-.242-2.55Z" fill="#ed847e"/>
    <path id="Path_14898" data-name="Path 14898" d="M113.736,25.954a3.945,3.945,0,0,0,.538,0,.108.108,0,0,0,.094-.118.1.1,0,0,0-.1-.095h-.011a2.885,2.885,0,0,1-2.441-.9.109.109,0,0,0-.168.133,3,3,0,0,0,2.091.977h0Z" fill="#263238"/>
    <path id="Path_14899" data-name="Path 14899" d="M105.121,24.524a3.279,3.279,0,0,0,1.756,1.771c1.055.434,1.721-.493,1.539-1.544-.163-.986-.912-2.352-2.027-2.333a1.48,1.48,0,0,0-1.267,2.106Z" fill="#ffb7af"/>
    <path id="Path_14900" data-name="Path 14900" d="M111.019,19.543a.217.217,0,0,0,.242-.069,2.529,2.529,0,0,1,1.9-.69.217.217,0,0,0,.227-.2.207.207,0,0,0-.186-.226h-.011a2.924,2.924,0,0,0-2.259.848.217.217,0,0,0,.03.3l.059.034Z" fill="#263238"/>
    <path id="Path_14901" data-name="Path 14901" d="M118.007,19.094a.212.212,0,0,0,.128-.39,2.126,2.126,0,0,0-1.923-.271.217.217,0,0,0-.113.281.212.212,0,0,0,.277.115l0,0a1.687,1.687,0,0,1,1.519.232A.217.217,0,0,0,118.007,19.094Z" fill="#263238"/>
    <path id="Path_14902" data-name="Path 14902" d="M133.5,165.913l4.542-.217L136.7,155.438l-4.537.222,1.342,10.253Z" fill="#ffb7af"/>
    <g id="Group_13262" data-name="Group 13262" opacity="0.2">
      <path id="Path_14903" data-name="Path 14903" d="M136.7,155.443l.7,5.287-4.542.217-.7-5.287Z"/>
    </g>
    <path id="Path_14904" data-name="Path 14904" d="M122.165,63.816s5.716,34.645,8.043,48.154c2.426,14.046,7.891,47.1,7.891,47.1l-6.007.986s-8.1-33.092-11.343-46.852C117.228,98.19,108.7,78.054,108.785,63.855l13.38-.039Z" fill="#19468b"/>
    <path id="Path_14905" data-name="Path 14905" d="M112.987,74.448c-.858-1.248-2.51-3-3.778-4.439,1.149,8.828,4.439,19.071,7.442,28.718.8-7.348.345-18.494-3.664-24.279Z" opacity="0.2"/>
    <path id="Path_14906" data-name="Path 14906" d="M105.481,165.217h4.5l.3-10.416h-4.5l-.3,10.416Z" fill="#ffb7af"/>
    <path id="Path_14907" data-name="Path 14907" d="M110.19,164.537h-5.055a.36.36,0,0,0-.36.311l-.577,3.995a.73.73,0,0,0,.725.8c1.761-.035,2.609-.138,4.833-.138,1.366,0,4.192.143,6.081.143s1.973-1.864,1.2-2.037a12.041,12.041,0,0,1-6.1-2.8,1.184,1.184,0,0,0-.75-.276h0Z" fill="#263238"/>
    <g id="Group_13263" data-name="Group 13263" opacity="0.2">
      <path id="Path_14908" data-name="Path 14908" d="M110.274,154.806l-.153,5.371h-4.5l.153-5.371Z"/>
    </g>
    <path id="Path_14909" data-name="Path 14909" d="M117.031,63.816s-1.825,35.09-3.058,48.75c-1.287,14.213-2.836,46.423-2.836,46.423h-6.086s-1.085-32.086-.661-46.1c.459-15.288-3.215-34.872-.735-49.071h13.375Z" fill="#19468b"/>
    <path id="Path_14910" data-name="Path 14910" d="M104.524,159.206l7.136.133.109-4.35-7.274.454.029,3.763Z" fill="#263238"/>
    <path id="Path_14911" data-name="Path 14911" d="M111.877,165.341a1.687,1.687,0,0,0,1.09-.276.592.592,0,0,0,.192-.523.345.345,0,0,0-.178-.281c-.552-.306-2.347.612-2.55.72a.108.108,0,0,0-.054.109.1.1,0,0,0,.084.089,7.456,7.456,0,0,0,1.416.163Zm.8-.932a.455.455,0,0,1,.2.039.128.128,0,0,1,.069.113.365.365,0,0,1-.123.34,2.842,2.842,0,0,1-2.007.123A5.765,5.765,0,0,1,112.681,164.409Z" fill="#407bff"/>
    <path id="Path_14912" data-name="Path 14912" d="M110.482,165.183h.044c.538-.242,1.6-1.213,1.514-1.721,0-.123-.1-.271-.4-.3a.769.769,0,0,0-.592.182,3.018,3.018,0,0,0-.671,1.731.108.108,0,0,0,.044.1.123.123,0,0,0,.059.01h0Zm1.075-1.825h.064c.192,0,.207.094.207.123.054.306-.666,1.065-1.213,1.4a2.466,2.466,0,0,1,.572-1.386.558.558,0,0,1,.37-.133Z" fill="#407bff"/>
    <path id="Path_14913" data-name="Path 14913" d="M137.991,164.537h-5.055a.276.276,0,0,0-.291.311l.256,3.995a.932.932,0,0,0,.888.8c1.756-.035,2.584-.138,4.8-.138,1.371,0,4.227.143,6.115.143s1.6-1.864.779-2.037a15.306,15.306,0,0,1-6.688-2.8,1.425,1.425,0,0,0-.809-.276h0Z" fill="#263238"/>
    <path id="Path_14914" data-name="Path 14914" d="M139.678,165.341a1.7,1.7,0,0,0,1.095-.276.6.6,0,0,0,.192-.523.35.35,0,0,0-.183-.281c-.552-.306-2.343.612-2.545.72a.108.108,0,0,0-.059.109.113.113,0,0,0,.084.089,7.451,7.451,0,0,0,1.415.163h0Zm.8-.932a.425.425,0,0,1,.2.039.133.133,0,0,1,.074.113.39.39,0,0,1-.123.34,2.862,2.862,0,0,1-2.012.123,5.8,5.8,0,0,1,1.864-.617Z" fill="#407bff"/>
    <path id="Path_14915" data-name="Path 14915" d="M138.287,165.183h.044c.533-.242,1.593-1.213,1.509-1.721,0-.123-.1-.271-.4-.3a.76.76,0,0,0-.587.183,3,3,0,0,0-.676,1.731.123.123,0,0,0,.044.1.138.138,0,0,0,.064.01h0Zm1.07-1.825h.064c.192,0,.207.094.212.123.049.306-.671,1.065-1.218,1.4a2.5,2.5,0,0,1,.572-1.386.567.567,0,0,1,.37-.133h0Z" fill="#407bff"/>
    <path id="Path_14916" data-name="Path 14916" d="M131.589,160.34l7.048-1.134-.794-3.768-6.983,1.647Z" fill="#263238"/>
    <path id="Path_14917" data-name="Path 14917" d="M112.706,20.771l.843-.33S113.17,21.161,112.706,20.771Z" fill="#263238"/>
    <path id="Path_14918" data-name="Path 14918" d="M103.621,62.745l-.464,1.637c-.064.123.084.256.3.256h18.8c.168,0,.3-.084.311-.187l.168-1.632c0-.113-.133-.212-.311-.212h-18.5a.335.335,0,0,0-.3.138h0Z" fill="#263238"/>
    <path id="Path_14919" data-name="Path 14919" d="M106.171,64.812h-.493c-.1,0-.173-.049-.168-.108l.232-2.126c0-.064.094-.113.192-.113h.493c.1,0,.173.049.168.113l-.237,2.126c0,.059-.089.108-.187.108Z" fill="#407bff"/>
    <path id="Path_14920" data-name="Path 14920" d="M120.863,64.812h-.493c-.1,0-.178-.049-.168-.108l.232-2.126c0-.064.094-.113.192-.113h.493c.1,0,.173.049.168.113l-.232,2.126C121.045,64.762,120.962,64.812,120.863,64.812Z" fill="#407bff"/>
    <path id="Path_14921" data-name="Path 14921" d="M113.544,64.812h-.493c-.1,0-.173-.049-.168-.108l.232-2.126c0-.064.094-.113.192-.113h.493c.1,0,.173.049.163.113l-.232,2.126C113.731,64.762,113.643,64.812,113.544,64.812Z" fill="#407bff"/>
    <path id="Path_14922" data-name="Path 14922" d="M107.626,35.369c-2.865.261-7.245-.281-7.112,4.113s-.72,16.033-.493,21.483-1.193,40.736,1.1,50.965c.4,1.8,15.249,1.569,17.044,1.4V111.7s10.786-1.45,13.454-.986c-.232-6.145-6.2-37.186-6.436-45.9s.75-23.7.69-26.079-4.784-3.423-7.679-3.363c.641,2.145-.774,6.175-3.038,10.668-5.568-5.425-7.21-8.118-7.536-10.667h0Z" fill="#407bff"/>
    <path id="Path_14923" data-name="Path 14923" d="M107.626,35.369c-2.865.261-7.245-.281-7.112,4.113s-.72,16.033-.493,21.483-1.193,40.736,1.1,50.965c.4,1.8,15.249,1.569,17.044,1.4V111.7s10.786-1.45,13.454-.986c-.232-6.145-6.2-37.186-6.436-45.9s.75-23.7.69-26.079-4.784-3.423-7.679-3.363c.641,2.145-.774,6.175-3.038,10.668-5.568-5.425-7.21-8.118-7.536-10.667h0Z" fill="#fff" opacity="0.7"/>
    <path id="Path_14924" data-name="Path 14924" d="M102.172,45.79l-1.835,1.3c-.143,3.8-.335,8.054-.355,11.343,1.707-3.773,2.668-9.217,2.19-12.64h0Z" fill="#407bff" opacity="0.2"/>
    <path id="Path_14925" data-name="Path 14925" d="M108.016,41.849a4.7,4.7,0,0,1-.3.4l-.1.118-.054.059-.1.1-.2.212-.395.439c-.266.291-.523.592-.779.9q-.769.917-1.48,1.869a45.775,45.775,0,0,0-2.7,3.945A25.669,25.669,0,0,0,98.429,58.1a13.871,13.871,0,0,0-.232,1.973,2.51,2.51,0,0,0,.281.942,22.687,22.687,0,0,0,2.249,3.768c.912,1.3,1.948,2.569,3.008,3.822.533.631,1.085,1.243,1.642,1.849s1.139,1.228,1.682,1.766l-5.316,5.139c-.646-.705-1.218-1.346-1.815-2.022L98.187,73.3c-1.154-1.366-2.264-2.786-3.359-4.276a29.438,29.438,0,0,1-3.067-5.04,13.812,13.812,0,0,1-.636-1.7,8.524,8.524,0,0,1-.242-1.05,5.523,5.523,0,0,1-.079-.617,6.086,6.086,0,0,1-.025-.651,21.293,21.293,0,0,1,.271-3.161A28.052,28.052,0,0,1,92.7,51.047a43.3,43.3,0,0,1,2.466-5.119c.907-1.627,1.9-3.181,2.934-4.7.523-.76,1.055-1.5,1.613-2.239l.843-1.1.439-.552.222-.276.113-.133.049-.064-.069.079c-.089.113-.173.227-.252.345l6.959,4.562Z" fill="#407bff"/>
    <path id="Path_14926" data-name="Path 14926" d="M108.016,41.849a4.7,4.7,0,0,1-.3.4l-.1.118-.054.059-.1.1-.2.212-.395.439c-.266.291-.523.592-.779.9q-.769.917-1.48,1.869a45.775,45.775,0,0,0-2.7,3.945A25.669,25.669,0,0,0,98.429,58.1a13.871,13.871,0,0,0-.232,1.973,2.51,2.51,0,0,0,.281.942,22.687,22.687,0,0,0,2.249,3.768c.912,1.3,1.948,2.569,3.008,3.822.533.631,1.085,1.243,1.642,1.849s1.139,1.228,1.682,1.766l-5.316,5.139c-.646-.705-1.218-1.346-1.815-2.022L98.187,73.3c-1.154-1.366-2.264-2.786-3.359-4.276a29.438,29.438,0,0,1-3.067-5.04,13.812,13.812,0,0,1-.636-1.7,8.524,8.524,0,0,1-.242-1.05,5.523,5.523,0,0,1-.079-.617,6.086,6.086,0,0,1-.025-.651,21.293,21.293,0,0,1,.271-3.161A28.052,28.052,0,0,1,92.7,51.047a43.3,43.3,0,0,1,2.466-5.119c.907-1.627,1.9-3.181,2.934-4.7.523-.76,1.055-1.5,1.613-2.239l.843-1.1.439-.552.222-.276.113-.133.049-.064-.069.079c-.089.113-.173.227-.252.345l6.959,4.562Z" fill="#fff" opacity="0.7"/>
    <path id="Path_14927" data-name="Path 14927" d="M115.167,46.037c.518,10.524,3.329,47.227,3.008,65.666l.858-.113S117.7,83.232,117.1,70.824s-1.933-24.787-1.933-24.787h0Z" fill="#407bff" opacity="0.3"/>
    <path id="Path_14928" data-name="Path 14928" d="M106.645,72.313l-5.267,5.7c0,1.913-1.336,5.741,2.2,7.131s3.634-8.7,3.063-12.832Z" fill="#407bff" opacity="0.3"/>
    <path id="Path_14929" data-name="Path 14929" d="M123.817,72.135l2.318,5.81c.069,1.973.745,5.918-.626,7.422s-1.77-8.956-1.692-13.232Z" fill="#407bff" opacity="0.3"/>
    <path id="Path_14930" data-name="Path 14930" d="M118.062,49.7l5.785-.039a.4.4,0,0,0,.414-.444l-.321-2.742a.523.523,0,0,0-.493-.439l-5.79.035a.4.4,0,0,0-.414.444l.321,2.747a.528.528,0,0,0,.5.439h0Z" fill="#fff" stroke="#ff2d2d" stroke-miterlimit="10" stroke-width="0.5"/>
  </g>
</svg>
