<svg xmlns="http://www.w3.org/2000/svg" xmlns:xlink="http://www.w3.org/1999/xlink" width="191.676" height="170" viewBox="0 0 191.676 170">
  <defs>
    <clipPath id="clip-path">
      <path id="Path_15056" data-name="Path 15056" d="M163.949,115.685c0-2.384-1.574-4.773-4.712-6.6-6.3-3.638-16.525-3.638-22.83,0-3.152,1.819-4.712,4.208-4.712,6.6v7.153c0,2.384,1.574,4.773,4.712,6.6,6.3,3.638,16.525,3.638,22.83,0,3.152-1.819,4.712-4.208,4.712-6.6v-7.153Z" transform="translate(-131.695 -106.36)" fill="none"/>
    </clipPath>
  </defs>
  <g id="pharmacy" transform="translate(0.108 0.028)">
    <path id="Path_14931" data-name="Path 14931" d="M192.15,143.9V73.62a7.228,7.228,0,0,0-3.266-5.654l-33.3-19.249c-1.8-1.041-3.27-.2-3.27,1.885V120.92a7.223,7.223,0,0,0,3.27,5.654l33.3,19.211c1.8,1.06,3.266.217,3.266-1.885h0Z" transform="translate(-0.583 -0.517)" fill="#e0e0e0"/>
    <path id="Path_14932" data-name="Path 14932" d="M190.633,144.8v-70.3a7.21,7.21,0,0,0-3.265-5.654l-33.3-19.23c-1.8-1.041-3.27-.2-3.27,1.885v70.3a7.224,7.224,0,0,0,3.27,5.654l33.267,19.23c1.824,1.042,3.3.2,3.3-1.885h0Z" transform="translate(-0.583 -0.517)" fill="#f5f5f5"/>
    <path id="Path_14933" data-name="Path 14933" d="M187.335,68.852l-30.03-17.34c8.92,5.763,26.858,16.139,29.1,17.906s3.4,2.921,3.4,8.623.825,62.891.825,62.891V74.492a7.21,7.21,0,0,0-3.3-5.64Z" transform="translate(-0.583 -0.329)" fill="#fafafa"/>
    <path id="Path_14934" data-name="Path 14934" d="M169.552,61.939a.9.9,0,0,1,.4.716v70.072c0,.269-.174.382-.4.259a.909.909,0,0,1-.391-.716V62.2c0-.287.174-.382.391-.259h0Z" transform="translate(-0.583 -0.322)" fill="#e0e0e0"/>
    <path id="Path_14935" data-name="Path 14935" d="M166.131,120.406a3.871,3.871,0,0,0-.057-.664,1.729,1.729,0,0,0-.042-.25,7.21,7.21,0,0,0-3.171-4.509l-5.72-3.3-.052-.024a4.081,4.081,0,0,0-6.281,3.44,3.87,3.87,0,0,0,.061.664,2.468,2.468,0,0,0,.047.25,7.2,7.2,0,0,0,3.157,4.509l5.725,3.3.047.024a4.081,4.081,0,0,0,6.286-3.44h0Z" transform="translate(-0.583 -0.366)" fill="#fafafa" opacity="0.7"/>
    <path id="Path_14936" data-name="Path 14936" d="M153.846,113.329a7,7,0,0,0,3.27,5.424l5.72,3.3c1.8,1.041,3.27.3,3.27-1.654a7,7,0,0,0-3.27-5.424l-5.72-3.3C155.293,110.638,153.846,111.388,153.846,113.329Z" transform="translate(-0.583 -0.361)" fill="#e0e0e0"/>
    <path id="Path_14937" data-name="Path 14937" d="M154.7,111.02a4.081,4.081,0,0,0-3.916,4.076,3.884,3.884,0,0,0,.061.664,2.468,2.468,0,0,0,.047.25,7.383,7.383,0,0,0,2.516,4.066c-1.579-2.186-2.469-3.581-2.087-5.749A4.137,4.137,0,0,1,154.7,111.02Z" transform="translate(-0.467 -0.356)" fill="#fff"/>
    <path id="Path_14938" data-name="Path 14938" d="M157.418,121.212a1.691,1.691,0,0,1-.7-1.55,5.278,5.278,0,0,1,2.389-4.137,1.682,1.682,0,0,1,1.692-.17l3.072,1.781a3.388,3.388,0,1,1-3.366,5.88l-.031-.018-3.058-1.786Z" transform="translate(-0.583 -0.367)" fill="#f5f5f5"/>
    <path id="Path_14939" data-name="Path 14939" d="M153.182,118.762a3.388,3.388,0,1,1,3.388-5.867l4.24,2.46a1.682,1.682,0,0,0-1.691.17,5.278,5.278,0,0,0-2.389,4.137,1.692,1.692,0,0,0,.7,1.55l-4.245-2.45Z" transform="translate(-0.483 -0.36)" fill="#407bff"/>
    <path id="Path_14940" data-name="Path 14940" d="M153.945,113.795a1.3,1.3,0,0,0,.471,1.767l5.117,2.969a4.877,4.877,0,0,0,.7-2.356v-.235l-4.514-2.62a1.291,1.291,0,0,0-1.767.46l-.009.016Z" transform="translate(-0.583 -0.354)" fill="#fff" opacity="0.4"/>
    <path id="Path_14941" data-name="Path 14941" d="M157.418,121.212a1.691,1.691,0,0,1-.7-1.55,5.278,5.278,0,0,1,2.389-4.137,1.682,1.682,0,0,1,1.692-.17l3.072,1.781a3.388,3.388,0,1,1-3.366,5.88l-.031-.018-3.058-1.786Z" transform="translate(-0.583 -0.367)" fill="#f5f5f5"/>
    <path id="Path_14942" data-name="Path 14942" d="M159.11,115.524a5.278,5.278,0,0,0-2.389,4.137,1.692,1.692,0,0,0,.7,1.55l-.24-.141-.184-.1a1.682,1.682,0,0,1-.7-1.55,5.277,5.277,0,0,1,2.389-4.137,1.682,1.682,0,0,1,1.692-.17l.424.245a1.682,1.682,0,0,0-1.692.17Z" transform="translate(-0.583 -0.362)" opacity="0.1"/>
    <path id="Path_14943" data-name="Path 14943" d="M165.541,119.709a3.379,3.379,0,0,1-5.056,3.3l-3.068-1.786a1.691,1.691,0,0,1-.7-1.55,3.98,3.98,0,0,1,.146-1.032L162,121.608C163.685,122.569,165.522,120.812,165.541,119.709Z" transform="translate(-0.583 -0.37)" fill="#e0e0e0"/>
    <path id="Path_14944" data-name="Path 14944" d="M164.373,119.836a1.291,1.291,0,0,1-1.764.473l0,0-5.183-3a4.91,4.91,0,0,1,1.692-1.786,2.162,2.162,0,0,1,.207-.108l4.585,2.653a1.3,1.3,0,0,1,.466,1.772h0Z" transform="translate(-0.583 -0.361)" fill="#fff"/>
    <path id="Path_14945" data-name="Path 14945" d="M152.183,113.781c.038-.052.08-.1.122-.151l.09-.1c.033-.038.071-.071.108-.108l.113-.113.066-.052a3.238,3.238,0,0,1,.58-.4l.231-.113c-.942.575-1.55,3.039.137,4.015.575.335,1.437.848,3.223,1.885a3.981,3.981,0,0,0-.146,1.032,1.691,1.691,0,0,0,.7,1.55l-4.241-2.45a3.393,3.393,0,0,1-1.239-4.627c.057-.09.113-.179.174-.264l.085-.1Z" transform="translate(-0.474 -0.36)" opacity="0.1"/>
    <path id="Path_14946" data-name="Path 14946" d="M187.551,132.676a4.422,4.422,0,0,0-.052-.664,1.684,1.684,0,0,0-.047-.25,7.2,7.2,0,0,0-3.166-4.509l-5.725-3.3-.052-.024a4.081,4.081,0,0,0-6.281,3.44,3.874,3.874,0,0,0,.061.664,2.477,2.477,0,0,0,.047.25,7.2,7.2,0,0,0,3.157,4.509l5.725,3.3h.047a4.081,4.081,0,0,0,6.286-3.44v.024Z" transform="translate(-0.583 -0.406)" fill="#fafafa" opacity="0.7"/>
    <path id="Path_14947" data-name="Path 14947" d="M175.295,125.6a7.006,7.006,0,0,0,3.265,5.428l5.725,3.3c1.8,1.041,3.265.3,3.265-1.654a7.01,7.01,0,0,0-3.265-5.424l-5.725-3.3c-1.8-1.041-3.265-.311-3.265,1.649Z" transform="translate(-0.583 -0.401)" fill="#e0e0e0"/>
    <path id="Path_14948" data-name="Path 14948" d="M176.143,123.29a4.085,4.085,0,0,0-3.916,4.076,3.873,3.873,0,0,0,.061.664,2.477,2.477,0,0,0,.047.25,7.384,7.384,0,0,0,2.516,4.066c-1.574-2.186-2.469-3.581-2.087-5.744A4.147,4.147,0,0,1,176.143,123.29Z" transform="translate(-0.583 -0.395)" fill="#fff"/>
    <path id="Path_14949" data-name="Path 14949" d="M178.853,133.482a1.687,1.687,0,0,1-.7-1.545,5.287,5.287,0,0,1,2.389-4.142,1.682,1.682,0,0,1,1.692-.17l3.072,1.781a3.385,3.385,0,0,1-3.383,5.865l-.005,0-3.068-1.786Z" transform="translate(-0.583 -0.406)" fill="#f5f5f5"/>
    <path id="Path_14950" data-name="Path 14950" d="M174.612,131.032A3.385,3.385,0,0,1,178,125.17l4.241,2.455a1.682,1.682,0,0,0-1.692.17,5.286,5.286,0,0,0-2.389,4.142,1.687,1.687,0,0,0,.7,1.546Z" transform="translate(-0.583 -0.399)" fill="#ff2d2d"/>
    <path id="Path_14951" data-name="Path 14951" d="M175.39,126.065a1.291,1.291,0,0,0,.468,1.765l0,0,5.117,2.973a4.911,4.911,0,0,0,.7-2.356v-.235l-4.514-2.62a1.291,1.291,0,0,0-1.768.457l-.008.014Z" transform="translate(-0.583 -0.393)" fill="#fff" opacity="0.4"/>
    <path id="Path_14952" data-name="Path 14952" d="M178.853,133.482a1.687,1.687,0,0,1-.7-1.545,5.287,5.287,0,0,1,2.389-4.142,1.682,1.682,0,0,1,1.692-.17l3.072,1.781a3.385,3.385,0,0,1-3.383,5.865l-.005,0-3.068-1.786Z" transform="translate(-0.583 -0.406)" fill="#f5f5f5"/>
    <path id="Path_14953" data-name="Path 14953" d="M180.554,127.794a5.287,5.287,0,0,0-2.389,4.142,1.687,1.687,0,0,0,.7,1.545l-.24-.137-.184-.108a1.678,1.678,0,0,1-.7-1.545,5.287,5.287,0,0,1,2.389-4.142,1.682,1.682,0,0,1,1.692-.17l.424.245a1.682,1.682,0,0,0-1.692.169h0Z" transform="translate(-0.583 -0.401)" opacity="0.1"/>
    <path id="Path_14954" data-name="Path 14954" d="M186.986,131.979a3.379,3.379,0,0,1-5.056,3.3l-3.077-1.8a1.687,1.687,0,0,1-.7-1.545,4.007,4.007,0,0,1,.146-1.037c1.8,1.032,3.986,2.3,5.131,2.969,1.7.976,3.534-.782,3.553-1.889Z" transform="translate(-0.583 -0.409)" fill="#e0e0e0"/>
    <path id="Path_14955" data-name="Path 14955" d="M185.817,132.12a1.291,1.291,0,0,1-1.764.473l0,0-5.183-3a4.909,4.909,0,0,1,1.692-1.786c.071-.042.141-.075.207-.108l4.585,2.653a1.3,1.3,0,0,1,.466,1.772h0Z" transform="translate(-0.583 -0.399)" fill="#fff"/>
    <path id="Path_14956" data-name="Path 14956" d="M173.627,126.055a1.881,1.881,0,0,1,.123-.151.942.942,0,0,1,.09-.1l.108-.113a1.291,1.291,0,0,1,.118-.108.329.329,0,0,1,.075-.057,3.256,3.256,0,0,1,.58-.4,2.5,2.5,0,0,1,.226-.108c-.942.57-1.55,3.039.137,4.01.575.335,1.442.848,3.223,1.885a4.011,4.011,0,0,0-.146,1.037,1.687,1.687,0,0,0,.7,1.546l-4.241-2.45a3.388,3.388,0,0,1-1.234-4.627,3.131,3.131,0,0,1,.17-.264l.076-.094Z" transform="translate(-0.583 -0.399)" opacity="0.1"/>
    <path id="Path_14957" data-name="Path 14957" d="M166.131,102.717a3.921,3.921,0,0,0-.057-.669,1.656,1.656,0,0,0-.042-.245,7.2,7.2,0,0,0-3.171-4.514l-5.72-3.3h-.052a4.081,4.081,0,0,0-6.281,3.44,3.873,3.873,0,0,0,.061.664,2.059,2.059,0,0,0,.047.25,7.214,7.214,0,0,0,3.157,4.514l5.725,3.3h.047a4.081,4.081,0,0,0,6.286-3.44h0Z" transform="translate(-0.583 -0.307)" fill="#fafafa" opacity="0.7"/>
    <path id="Path_14958" data-name="Path 14958" d="M153.846,95.64a7.011,7.011,0,0,0,3.27,5.424l5.72,3.3c1.8,1.041,3.27.3,3.27-1.649a7.026,7.026,0,0,0-3.27-5.428l-5.72-3.3c-1.824-1.041-3.27-.3-3.27,1.654h0Z" transform="translate(-0.583 -0.304)" fill="#e0e0e0"/>
    <path id="Path_14959" data-name="Path 14959" d="M154.7,93.326a4.085,4.085,0,0,0-3.916,4.076,3.875,3.875,0,0,0,.061.664,2.074,2.074,0,0,0,.047.25,7.384,7.384,0,0,0,2.516,4.066c-1.579-2.186-2.469-3.581-2.087-5.744a4.147,4.147,0,0,1,3.379-3.312Z" transform="translate(-0.467 -0.299)" fill="#fff"/>
    <path id="Path_14960" data-name="Path 14960" d="M157.418,103.518a1.682,1.682,0,0,1-.712-1.555,5.287,5.287,0,0,1,2.389-4.142,1.678,1.678,0,0,1,1.692-.165l3.072,1.776a3.39,3.39,0,0,1-3.383,5.876h0l-3.058-1.791Z" transform="translate(-0.583 -0.311)" fill="#f5f5f5"/>
    <path id="Path_14961" data-name="Path 14961" d="M153.182,101.068A3.385,3.385,0,0,1,156.56,95.2l.01.006,4.241,2.46a1.677,1.677,0,0,0-1.692.165,5.287,5.287,0,0,0-2.413,4.132,1.682,1.682,0,0,0,.7,1.546l-4.222-2.441Z" transform="translate(-0.483 -0.303)" fill="#ff2d2d"/>
    <path id="Path_14962" data-name="Path 14962" d="M153.945,96.1a1.3,1.3,0,0,0,.471,1.772l5.117,2.968a4.89,4.89,0,0,0,.7-2.356v-.231l-4.514-2.62a1.291,1.291,0,0,0-1.769.454l-.008.013h0Z" transform="translate(-0.583 -0.299)" fill="#fff" opacity="0.4"/>
    <path id="Path_14963" data-name="Path 14963" d="M157.418,103.518a1.682,1.682,0,0,1-.712-1.555,5.287,5.287,0,0,1,2.389-4.142,1.678,1.678,0,0,1,1.692-.165l3.072,1.776a3.39,3.39,0,0,1-3.383,5.876h0l-3.058-1.791Z" transform="translate(-0.583 -0.311)" fill="#f5f5f5"/>
    <path id="Path_14964" data-name="Path 14964" d="M159.109,97.831a5.287,5.287,0,0,0-2.4,4.133,1.682,1.682,0,0,0,.7,1.545l-.226-.132-.184-.108a1.673,1.673,0,0,1-.7-1.546,5.287,5.287,0,0,1,2.389-4.142,1.678,1.678,0,0,1,1.692-.165l.424.245a1.678,1.678,0,0,0-1.692.17Z" transform="translate(-0.583 -0.306)" opacity="0.1"/>
    <path id="Path_14965" data-name="Path 14965" d="M165.541,102.015a3.378,3.378,0,0,1-5.056,3.3l-3.068-1.791a1.682,1.682,0,0,1-.712-1.56,4.045,4.045,0,0,1,.146-1.037l5.131,2.969c1.7.985,3.539-.768,3.557-1.88Z" transform="translate(-0.583 -0.315)" fill="#e0e0e0"/>
    <path id="Path_14966" data-name="Path 14966" d="M164.373,102.147a1.3,1.3,0,0,1-1.767.471l-5.183-3a4.887,4.887,0,0,1,1.692-1.791l.207-.108,4.585,2.653a1.3,1.3,0,0,1,.466,1.776Z" transform="translate(-0.583 -0.305)" fill="#fff"/>
    <path id="Path_14967" data-name="Path 14967" d="M152.183,96.092a1.9,1.9,0,0,1,.123-.151.935.935,0,0,1,.09-.1,1.172,1.172,0,0,1,.108-.108l.113-.113.066-.052a3.257,3.257,0,0,1,.58-.4l.231-.108c-.942.57-1.55,3.039.137,4.015.575.33,1.437.843,3.223,1.885a4.041,4.041,0,0,0-.146,1.008,1.682,1.682,0,0,0,.7,1.545l-4.241-2.45a3.388,3.388,0,0,1-1.239-4.622q.081-.136.174-.264a.627.627,0,0,1,.085-.08Z" transform="translate(-0.474 -0.303)" opacity="0.1"/>
    <path id="Path_14968" data-name="Path 14968" d="M187.551,114.987a4.475,4.475,0,0,0-.052-.669,1.743,1.743,0,0,0-.047-.245,7.19,7.19,0,0,0-3.166-4.509l-5.725-3.3-.052-.024a4.085,4.085,0,0,0-6.281,3.445,3.818,3.818,0,0,0,.061.66,2.083,2.083,0,0,0,.047.25,7.2,7.2,0,0,0,3.158,4.514l5.725,3.3.047.024a4.081,4.081,0,0,0,6.286-3.44Z" transform="translate(-0.583 -0.348)" fill="#fafafa" opacity="0.7"/>
    <path id="Path_14969" data-name="Path 14969" d="M175.295,107.91a7,7,0,0,0,3.265,5.424l5.725,3.3c1.8,1.041,3.265.3,3.265-1.649a7.018,7.018,0,0,0-3.265-5.424l-5.725-3.3c-1.8-1.046-3.265-.306-3.265,1.649Z" transform="translate(-0.583 -0.344)" fill="#e0e0e0"/>
    <path id="Path_14970" data-name="Path 14970" d="M176.144,105.6a4.081,4.081,0,0,0-3.916,4.076,3.825,3.825,0,0,0,.061.66,2.071,2.071,0,0,0,.047.25,7.365,7.365,0,0,0,2.516,4.066c-1.574-2.186-2.469-3.576-2.087-5.744a4.137,4.137,0,0,1,3.379-3.307Z" transform="translate(-0.583 -0.338)" fill="#fff"/>
    <path id="Path_14971" data-name="Path 14971" d="M178.853,115.793a1.692,1.692,0,0,1-.7-1.55,5.291,5.291,0,0,1,2.389-4.142,1.677,1.677,0,0,1,1.692-.165l3.072,1.776a3.388,3.388,0,1,1-3.388,5.867h0Z" transform="translate(-0.583 -0.35)" fill="#f5f5f5"/>
    <path id="Path_14972" data-name="Path 14972" d="M174.612,113.338A3.385,3.385,0,0,1,178,107.476l4.241,2.46a1.677,1.677,0,0,0-1.692.165,5.291,5.291,0,0,0-2.389,4.142,1.691,1.691,0,0,0,.7,1.55l-4.246-2.455Z" transform="translate(-0.583 -0.342)" fill="#ff2d2d"/>
    <path id="Path_14973" data-name="Path 14973" d="M175.39,108.372a1.3,1.3,0,0,0,.471,1.772l5.117,2.968a4.891,4.891,0,0,0,.7-2.356v-.231l-4.514-2.62a1.3,1.3,0,0,0-1.773.461l0,.005h0Z" transform="translate(-0.583 -0.337)" fill="#fff" opacity="0.4"/>
    <path id="Path_14974" data-name="Path 14974" d="M178.853,115.793a1.692,1.692,0,0,1-.7-1.55,5.291,5.291,0,0,1,2.389-4.142,1.677,1.677,0,0,1,1.692-.165l3.072,1.776a3.388,3.388,0,1,1-3.388,5.867h0Z" transform="translate(-0.583 -0.35)" fill="#f5f5f5"/>
    <path id="Path_14975" data-name="Path 14975" d="M180.554,110.1a5.292,5.292,0,0,0-2.389,4.142,1.692,1.692,0,0,0,.7,1.55l-.24-.141-.184-.108a1.668,1.668,0,0,1-.7-1.546,5.291,5.291,0,0,1,2.389-4.142,1.677,1.677,0,0,1,1.692-.165l.424.245a1.677,1.677,0,0,0-1.692.165h0Z" transform="translate(-0.583 -0.345)" opacity="0.1"/>
    <path id="Path_14976" data-name="Path 14976" d="M186.986,114.29a3.379,3.379,0,0,1-5.056,3.289l-3.077-1.786a1.692,1.692,0,0,1-.7-1.55,4.041,4.041,0,0,1,.146-1.037l5.131,2.968c1.7.975,3.534-.777,3.553-1.885Z" transform="translate(-0.583 -0.353)" fill="#e0e0e0"/>
    <path id="Path_14977" data-name="Path 14977" d="M185.817,114.417a1.291,1.291,0,0,1-1.764.473l0,0-5.183-3a4.923,4.923,0,0,1,1.692-1.791l.207-.1,4.585,2.653a1.291,1.291,0,0,1,.471,1.764l0,.007h0Z" transform="translate(-0.583 -0.344)" fill="#fff"/>
    <path id="Path_14978" data-name="Path 14978" d="M173.627,108.362a1.9,1.9,0,0,1,.122-.151c.028-.033.057-.071.09-.1l.108-.108.118-.113.061-.052a3.231,3.231,0,0,1,.58-.4,1.682,1.682,0,0,1,.226-.113c-.942.57-1.55,3.039.137,4.015.575.335,1.442.848,3.223,1.885a4.036,4.036,0,0,0-.146,1.037,1.691,1.691,0,0,0,.7,1.55l-4.241-2.455a3.378,3.378,0,0,1-1.239-4.614l0-.008a3.1,3.1,0,0,1,.17-.264l.089-.108Z" transform="translate(-0.583 -0.343)" opacity="0.1"/>
    <path id="Path_14979" data-name="Path 14979" d="M166.131,85.024a3.871,3.871,0,0,0-.057-.664,1.731,1.731,0,0,0-.042-.25,7.21,7.21,0,0,0-3.171-4.509l-5.72-3.3-.052-.024a4.081,4.081,0,0,0-6.281,3.44,3.873,3.873,0,0,0,.061.664,2.478,2.478,0,0,0,.047.25,7.2,7.2,0,0,0,3.157,4.509l5.725,3.3h.047A4.081,4.081,0,0,0,166.131,85Z" transform="translate(-0.583 -0.249)" fill="#fafafa" opacity="0.7"/>
    <path id="Path_14980" data-name="Path 14980" d="M153.846,77.932a7,7,0,0,0,3.27,5.424l5.72,3.3c1.8,1.041,3.27.3,3.27-1.654a7,7,0,0,0-3.27-5.424l-5.72-3.3C155.293,75.256,153.846,76,153.846,77.932Z" transform="translate(-0.583 -0.246)" fill="#e0e0e0"/>
    <path id="Path_14981" data-name="Path 14981" d="M154.7,75.637a4.081,4.081,0,0,0-3.916,4.076,3.882,3.882,0,0,0,.061.664,2.468,2.468,0,0,0,.047.25,7.384,7.384,0,0,0,2.516,4.066c-1.579-2.186-2.469-3.581-2.087-5.749a4.137,4.137,0,0,1,3.379-3.307Z" transform="translate(-0.467 -0.242)" fill="#fff"/>
    <path id="Path_14982" data-name="Path 14982" d="M157.418,85.829a1.691,1.691,0,0,1-.7-1.55,5.277,5.277,0,0,1,2.389-4.137,1.682,1.682,0,0,1,1.692-.17l3.072,1.781a3.388,3.388,0,0,1-3.378,5.873l-.02-.011-3.058-1.786Z" transform="translate(-0.583 -0.254)" fill="#f5f5f5"/>
    <path id="Path_14983" data-name="Path 14983" d="M153.182,83.379a3.388,3.388,0,1,1,3.388-5.867h0l4.24,2.46a1.682,1.682,0,0,0-1.692.17,5.278,5.278,0,0,0-2.389,4.137,1.692,1.692,0,0,0,.7,1.55Z" transform="translate(-0.483 -0.246)" fill="#ff2d2d"/>
    <path id="Path_14984" data-name="Path 14984" d="M153.945,78.4a1.3,1.3,0,0,0,.471,1.767l5.117,2.969a4.877,4.877,0,0,0,.7-2.356v-.235l-4.524-2.615a1.291,1.291,0,0,0-1.765.468l0,0h0Z" transform="translate(-0.583 -0.244)" fill="#fff" opacity="0.4"/>
    <path id="Path_14985" data-name="Path 14985" d="M157.418,85.829a1.691,1.691,0,0,1-.7-1.55,5.277,5.277,0,0,1,2.389-4.137,1.682,1.682,0,0,1,1.692-.17l3.072,1.781a3.388,3.388,0,0,1-3.378,5.873l-.02-.011-3.058-1.786Z" transform="translate(-0.583 -0.254)" fill="#f5f5f5"/>
    <path id="Path_14986" data-name="Path 14986" d="M159.11,80.142a5.278,5.278,0,0,0-2.389,4.137,1.692,1.692,0,0,0,.7,1.55l-.24-.141-.184-.1a1.682,1.682,0,0,1-.7-1.55,5.277,5.277,0,0,1,2.389-4.137,1.682,1.682,0,0,1,1.692-.17l.424.245a1.682,1.682,0,0,0-1.691.169h0Z" transform="translate(-0.583 -0.251)" opacity="0.1"/>
    <path id="Path_14987" data-name="Path 14987" d="M165.541,84.326a3.379,3.379,0,0,1-5.056,3.3l-3.068-1.786a1.691,1.691,0,0,1-.7-1.55,3.98,3.98,0,0,1,.146-1.032L162,86.225c1.687.962,3.525-.791,3.544-1.9Z" transform="translate(-0.583 -0.26)" fill="#e0e0e0"/>
    <path id="Path_14988" data-name="Path 14988" d="M164.373,84.453a1.291,1.291,0,0,1-1.764.473l0,0-5.183-3a4.91,4.91,0,0,1,1.692-1.786,2.171,2.171,0,0,1,.207-.108l4.585,2.653a1.3,1.3,0,0,1,.466,1.772h0Z" transform="translate(-0.583 -0.25)" fill="#fff"/>
    <path id="Path_14989" data-name="Path 14989" d="M152.183,78.4l.122-.151.09-.1.108-.108.113-.113.066-.052a3.5,3.5,0,0,1,.58-.4l.231-.113c-.942.575-1.55,3.039.137,4.015.575.335,1.437.848,3.223,1.885a3.984,3.984,0,0,0-.146,1.032,1.692,1.692,0,0,0,.7,1.55l-4.241-2.45a3.393,3.393,0,0,1-1.239-4.627c.057-.09.113-.179.174-.264l.085-.1Z" transform="translate(-0.474 -0.247)" opacity="0.1"/>
    <path id="Path_14990" data-name="Path 14990" d="M187.551,97.294a4.42,4.42,0,0,0-.052-.664,1.681,1.681,0,0,0-.047-.25,7.2,7.2,0,0,0-3.166-4.509l-5.725-3.3h-.052a4.081,4.081,0,0,0-6.281,3.44,3.873,3.873,0,0,0,.061.664,2.478,2.478,0,0,0,.047.25,7.2,7.2,0,0,0,3.157,4.509l5.725,3.3h.047a4.081,4.081,0,0,0,6.286-3.44h0Z" transform="translate(-0.583 -0.29)" fill="#fafafa" opacity="0.7"/>
    <path id="Path_14991" data-name="Path 14991" d="M175.295,90.221a7,7,0,0,0,3.265,5.424l5.725,3.3c1.8,1.041,3.265.3,3.265-1.654a7.01,7.01,0,0,0-3.265-5.424l-5.725-3.3c-1.8-1.041-3.265-.3-3.265,1.654Z" transform="translate(-0.583 -0.286)" fill="#e0e0e0"/>
    <path id="Path_14992" data-name="Path 14992" d="M176.143,87.907a4.085,4.085,0,0,0-3.916,4.076,3.872,3.872,0,0,0,.061.664,2.468,2.468,0,0,0,.047.25,7.383,7.383,0,0,0,2.516,4.066c-1.574-2.186-2.469-3.581-2.087-5.744a4.147,4.147,0,0,1,3.379-3.312Z" transform="translate(-0.583 -0.282)" fill="#fff"/>
    <path id="Path_14993" data-name="Path 14993" d="M178.853,98.1a1.687,1.687,0,0,1-.7-1.545,5.287,5.287,0,0,1,2.389-4.142,1.682,1.682,0,0,1,1.692-.17l3.072,1.781a3.385,3.385,0,0,1-3.378,5.867l-.01-.006L178.853,98.1Z" transform="translate(-0.583 -0.294)" fill="#f5f5f5"/>
    <path id="Path_14994" data-name="Path 14994" d="M174.612,95.649A3.385,3.385,0,0,1,178,89.787l4.241,2.455a1.682,1.682,0,0,0-1.692.17,5.287,5.287,0,0,0-2.389,4.142,1.687,1.687,0,0,0,.693,1.545Z" transform="translate(-0.583 -0.286)" fill="#ff2d2d"/>
    <path id="Path_14995" data-name="Path 14995" d="M175.39,90.683a1.3,1.3,0,0,0,.471,1.772l5.117,2.968a4.91,4.91,0,0,0,.7-2.356v-.235l-4.514-2.62a1.291,1.291,0,0,0-1.768.457l-.008.014h0Z" transform="translate(-0.583 -0.282)" fill="#fff" opacity="0.4"/>
    <path id="Path_14996" data-name="Path 14996" d="M178.853,98.1a1.687,1.687,0,0,1-.7-1.545,5.287,5.287,0,0,1,2.389-4.142,1.682,1.682,0,0,1,1.692-.17l3.072,1.781a3.385,3.385,0,0,1-3.378,5.867l-.01-.006L178.853,98.1Z" transform="translate(-0.583 -0.294)" fill="#f5f5f5"/>
    <path id="Path_14997" data-name="Path 14997" d="M180.554,92.412a5.287,5.287,0,0,0-2.389,4.142,1.687,1.687,0,0,0,.688,1.546l-.24-.137-.184-.108a1.677,1.677,0,0,1-.7-1.546,5.287,5.287,0,0,1,2.389-4.142,1.682,1.682,0,0,1,1.692-.17l.424.245a1.682,1.682,0,0,0-1.682.17h0Z" transform="translate(-0.583 -0.289)" opacity="0.1"/>
    <path id="Path_14998" data-name="Path 14998" d="M186.986,96.6a3.379,3.379,0,0,1-5.056,3.3l-3.077-1.8a1.687,1.687,0,0,1-.7-1.546,4.007,4.007,0,0,1,.146-1.037c1.8,1.032,3.986,2.309,5.131,2.969,1.7.976,3.534-.763,3.553-1.889h0Z" transform="translate(-0.583 -0.298)" fill="#e0e0e0"/>
    <path id="Path_14999" data-name="Path 14999" d="M185.817,96.728a1.291,1.291,0,0,1-1.764.473l0,0-5.183-3a4.909,4.909,0,0,1,1.692-1.786c.071-.042.141-.075.207-.108l4.585,2.653a1.3,1.3,0,0,1,.466,1.772h0Z" transform="translate(-0.583 -0.289)" fill="#fff"/>
    <path id="Path_15000" data-name="Path 15000" d="M173.627,90.654a1.881,1.881,0,0,1,.123-.151.942.942,0,0,1,.09-.1l.108-.113a1.3,1.3,0,0,1,.118-.108.328.328,0,0,1,.061-.052,3.259,3.259,0,0,1,.58-.4q.11-.06.226-.108c-.942.57-1.55,3.039.137,4.01.575.335,1.442.848,3.223,1.885a4.019,4.019,0,0,0-.146,1.037,1.687,1.687,0,0,0,.707,1.55l-4.241-2.45a3.383,3.383,0,0,1-1.234-4.622,2.59,2.59,0,0,1,.17-.269l.08-.1Z" transform="translate(-0.583 -0.286)" opacity="0.1"/>
    <path id="Path_15001" data-name="Path 15001" d="M166.131,67.335a3.933,3.933,0,0,0-.057-.669,1.645,1.645,0,0,0-.042-.245,7.2,7.2,0,0,0-3.2-4.509l-5.72-3.3h-.052a4.085,4.085,0,0,0-6.281,3.44,3.871,3.871,0,0,0,.061.664,2.082,2.082,0,0,0,.047.25,7.214,7.214,0,0,0,3.157,4.514l5.725,3.3.047.024a4.081,4.081,0,0,0,6.286-3.44l.028-.028Z" transform="translate(-0.583 -0.191)" fill="#fafafa" opacity="0.7"/>
    <path id="Path_15002" data-name="Path 15002" d="M153.846,60.257a7,7,0,0,0,3.27,5.424l5.716,3.3c1.8,1.041,3.27.3,3.27-1.649a7.011,7.011,0,0,0-3.27-5.424l-5.72-3.3c-1.819-1.046-3.265-.306-3.265,1.649h0Z" transform="translate(-0.583 -0.189)" fill="#e0e0e0"/>
    <path id="Path_15003" data-name="Path 15003" d="M154.7,57.944a4.085,4.085,0,0,0-3.916,4.076,3.876,3.876,0,0,0,.061.664,2.075,2.075,0,0,0,.047.25A7.365,7.365,0,0,0,153.408,67c-1.579-2.186-2.469-3.581-2.087-5.744a4.146,4.146,0,0,1,3.379-3.312h0Z" transform="translate(-0.467 -0.186)" fill="#fff"/>
    <path id="Path_15004" data-name="Path 15004" d="M157.418,68.136a1.682,1.682,0,0,1-.7-1.545,5.287,5.287,0,0,1,2.389-4.142,1.677,1.677,0,0,1,1.692-.165l3.072,1.776a3.388,3.388,0,1,1-3.387,5.868l-.01-.006Z" transform="translate(-0.583 -0.198)" fill="#f5f5f5"/>
    <path id="Path_15005" data-name="Path 15005" d="M153.182,65.681a3.385,3.385,0,0,1,3.357-5.88l.031.018,4.241,2.46a1.677,1.677,0,0,0-1.692.165,5.287,5.287,0,0,0-2.389,4.142,1.682,1.682,0,0,0,.7,1.546Z" transform="translate(-0.483 -0.19)" fill="#ff2d2d"/>
    <path id="Path_15006" data-name="Path 15006" d="M153.945,60.719a1.3,1.3,0,0,0,.471,1.772l5.117,2.969a4.891,4.891,0,0,0,.7-2.356v-.231l-4.514-2.62a1.291,1.291,0,0,0-1.769.454l-.008.013h0Z" transform="translate(-0.583 -0.188)" fill="#fff" opacity="0.4"/>
    <path id="Path_15007" data-name="Path 15007" d="M157.418,68.136a1.682,1.682,0,0,1-.7-1.545,5.287,5.287,0,0,1,2.389-4.142,1.677,1.677,0,0,1,1.692-.165l3.072,1.776a3.388,3.388,0,1,1-3.387,5.868l-.01-.006Z" transform="translate(-0.583 -0.198)" fill="#f5f5f5"/>
    <path id="Path_15008" data-name="Path 15008" d="M159.109,62.448a5.287,5.287,0,0,0-2.389,4.142,1.682,1.682,0,0,0,.7,1.545l-.24-.137-.184-.108a1.673,1.673,0,0,1-.7-1.545,5.287,5.287,0,0,1,2.389-4.142,1.677,1.677,0,0,1,1.692-.165l.424.245a1.678,1.678,0,0,0-1.692.165h0Z" transform="translate(-0.583 -0.195)" opacity="0.1"/>
    <path id="Path_15009" data-name="Path 15009" d="M165.541,66.623a3.355,3.355,0,0,1-.429,2.05,3.393,3.393,0,0,1-4.632,1.251l0,0-3.067-1.79a1.682,1.682,0,0,1-.7-1.546,4.042,4.042,0,0,1,.146-1.037l5.131,2.969c1.7.98,3.534-.773,3.553-1.894h0Z" transform="translate(-0.583 -0.205)" fill="#e0e0e0"/>
    <path id="Path_15010" data-name="Path 15010" d="M164.373,66.765a1.3,1.3,0,0,1-1.767.471l-5.183-3a4.887,4.887,0,0,1,1.692-1.791l.207-.108,4.585,2.653a1.3,1.3,0,0,1,.466,1.776h0Z" transform="translate(-0.583 -0.195)" fill="#fff"/>
    <path id="Path_15011" data-name="Path 15011" d="M152.183,60.71a1.889,1.889,0,0,1,.122-.151.946.946,0,0,1,.09-.1l.108-.108.113-.113.066-.052a3.253,3.253,0,0,1,.58-.4,2.1,2.1,0,0,1,.231-.113c-.942.57-1.55,3.039.137,4.015.575.33,1.437.848,3.223,1.885a4.043,4.043,0,0,0-.146,1.037,1.682,1.682,0,0,0,.7,1.545l-4.241-2.45a3.388,3.388,0,0,1-1.239-4.622c.057-.094.113-.179.174-.264a.626.626,0,0,1,.085-.1h0Z" transform="translate(-0.474 -0.19)" opacity="0.1"/>
    <path id="Path_15012" data-name="Path 15012" d="M187.551,79.6a4.475,4.475,0,0,0-.052-.669,1.743,1.743,0,0,0-.047-.245,7.191,7.191,0,0,0-3.166-4.509l-5.725-3.3-.052-.024a4.085,4.085,0,0,0-6.281,3.444,3.819,3.819,0,0,0,.061.66,2.08,2.08,0,0,0,.047.25,7.205,7.205,0,0,0,3.157,4.514l5.725,3.3h.047a4.081,4.081,0,0,0,6.286-3.44V79.6Z" transform="translate(-0.583 -0.231)" fill="#fafafa" opacity="0.7"/>
    <path id="Path_15013" data-name="Path 15013" d="M175.295,72.527a7,7,0,0,0,3.265,5.424l5.725,3.3c1.8,1.041,3.265.3,3.265-1.654a7.01,7.01,0,0,0-3.265-5.423l-5.725-3.3c-1.8-1.041-3.265-.3-3.265,1.654h0Z" transform="translate(-0.583 -0.229)" fill="#e0e0e0"/>
    <path id="Path_15014" data-name="Path 15014" d="M176.144,70.219a4.081,4.081,0,0,0-3.916,4.076,3.825,3.825,0,0,0,.061.66,2.071,2.071,0,0,0,.047.25,7.365,7.365,0,0,0,2.516,4.066c-1.574-2.186-2.469-3.576-2.087-5.744a4.137,4.137,0,0,1,3.379-3.307Z" transform="translate(-0.583 -0.225)" fill="#fff"/>
    <path id="Path_15015" data-name="Path 15015" d="M178.853,80.411a1.692,1.692,0,0,1-.7-1.55,5.291,5.291,0,0,1,2.389-4.142,1.692,1.692,0,0,1,1.692-.165l3.072,1.781a3.385,3.385,0,1,1-3.388,5.862h0l-3.068-1.786Z" transform="translate(-0.583 -0.237)" fill="#f5f5f5"/>
    <path id="Path_15016" data-name="Path 15016" d="M174.612,77.956A3.385,3.385,0,0,1,178,72.094l4.241,2.46a1.692,1.692,0,0,0-1.692.165,5.291,5.291,0,0,0-2.389,4.142,1.691,1.691,0,0,0,.7,1.55l-4.246-2.455Z" transform="translate(-0.583 -0.229)" fill="#ff2d2d"/>
    <path id="Path_15017" data-name="Path 15017" d="M175.39,72.989a1.3,1.3,0,0,0,.471,1.772l5.117,2.969a4.89,4.89,0,0,0,.7-2.356v-.231l-4.514-2.62a1.3,1.3,0,0,0-1.773.461l0,.005Z" transform="translate(-0.583 -0.227)" fill="#fff" opacity="0.4"/>
    <path id="Path_15018" data-name="Path 15018" d="M178.853,80.411a1.692,1.692,0,0,1-.7-1.55,5.291,5.291,0,0,1,2.389-4.142,1.692,1.692,0,0,1,1.692-.165l3.072,1.781a3.385,3.385,0,1,1-3.388,5.862h0l-3.068-1.786Z" transform="translate(-0.583 -0.237)" fill="#f5f5f5"/>
    <path id="Path_15019" data-name="Path 15019" d="M180.554,74.718a5.291,5.291,0,0,0-2.389,4.142,1.692,1.692,0,0,0,.7,1.55l-.24-.141-.184-.1a1.682,1.682,0,0,1-.7-1.55,5.292,5.292,0,0,1,2.389-4.142,1.677,1.677,0,0,1,1.692-.165l.424.245a1.692,1.692,0,0,0-1.692.165h0Z" transform="translate(-0.583 -0.234)" opacity="0.1"/>
    <path id="Path_15020" data-name="Path 15020" d="M186.986,78.907A3.379,3.379,0,0,1,181.93,82.2l-3.077-1.786a1.692,1.692,0,0,1-.7-1.55,4.041,4.041,0,0,1,.146-1.037l5.131,2.969c1.7.976,3.534-.777,3.553-1.884Z" transform="translate(-0.583 -0.243)" fill="#e0e0e0"/>
    <path id="Path_15021" data-name="Path 15021" d="M185.817,79.035a1.291,1.291,0,0,1-1.764.473l0,0-5.2-2.987a4.925,4.925,0,0,1,1.692-1.791l.207-.1,4.585,2.653a1.3,1.3,0,0,1,.481,1.758h0Z" transform="translate(-0.583 -0.233)" fill="#fff"/>
    <path id="Path_15022" data-name="Path 15022" d="M173.627,72.979a1.888,1.888,0,0,1,.122-.151c.028-.033.057-.071.09-.1l.108-.108.118-.113.061-.052a3.239,3.239,0,0,1,.58-.4,1.686,1.686,0,0,1,.226-.113c-.942.575-1.55,3.039.137,4.015.575.335,1.442.848,3.223,1.885a4.037,4.037,0,0,0-.146,1.037,1.691,1.691,0,0,0,.7,1.55L174.6,77.974a3.378,3.378,0,0,1-1.239-4.614l0-.009a3.1,3.1,0,0,1,.17-.264l.09-.109Z" transform="translate(-0.583 -0.23)" opacity="0.1"/>
    <g id="Group_13264" data-name="Group 13264" transform="translate(82.463 26.328)">
      <path id="Path_15023" data-name="Path 15023" d="M136.469,53.1a32.626,32.626,0,0,0-4.241-2.04,7.224,7.224,0,0,1-4.622-6.672V36.245H101.02v8.142a7.214,7.214,0,0,1-4.627,6.686,32.626,32.626,0,0,0-4.241,2.04c-6.126,3.534-9.174,8.166-9.174,12.793v61.4c0,4.627,3.058,9.259,9.174,12.793,12.251,7.068,32.075,7.068,44.293,0,6.126-3.534,9.179-8.161,9.179-12.793V65.893c.023-4.632-3.054-9.259-9.156-12.793h0Z" transform="translate(-82.837 -26.845)" fill="#407bff"/>
      <path id="Path_15024" data-name="Path 15024" d="M136.469,53.1a32.626,32.626,0,0,0-4.241-2.04,7.224,7.224,0,0,1-4.622-6.672V36.245H101.02v8.142a7.214,7.214,0,0,1-4.627,6.686,32.626,32.626,0,0,0-4.241,2.04c-6.126,3.534-9.174,8.166-9.174,12.793v61.4c0,4.627,3.058,9.259,9.174,12.793,12.251,7.068,32.075,7.068,44.293,0,6.126-3.534,9.179-8.161,9.179-12.793V65.893c.023-4.632-3.054-9.259-9.156-12.793h0Z" transform="translate(-82.837 -26.845)" fill="#fff" opacity="0.7"/>
      <ellipse id="Ellipse_63" data-name="Ellipse 63" cx="31.311" cy="17.901" rx="31.311" ry="17.901" transform="translate(0.184 82.738)" fill="#407bff"/>
      <ellipse id="Ellipse_64" data-name="Ellipse 64" cx="31.311" cy="17.901" rx="31.311" ry="17.901" transform="translate(0.184 82.738)" fill="#fff" opacity="0.5"/>
      <path id="Path_15025" data-name="Path 15025" d="M130.145,44.807c-5.763-3.327-13.9-4.458-21.294-3.378V36.245H101.02v8.138a7.21,7.21,0,0,1-4.627,6.691,34.122,34.122,0,0,0-4.241,2.04c-.052,0-.094.061-.151.085-6.022,3.525-9.023,8.114-9.023,12.722v61.364c0,4.637,3.058,9.259,9.174,12.793,8.8,5.084,21.534,6.488,32.541,4.264-25.473,1.748-31.6-9.052-31.6-16.864v-59.7c0-2.757.415-5.032,2.356-6.95a16.788,16.788,0,0,0,3.1,2.243c8.741,5.042,22.9,5.042,31.632,0s8.708-13.217-.033-18.268Z" transform="translate(-82.837 -26.845)" fill="#fff" opacity="0.4"/>
      <path id="Path_15026" data-name="Path 15026" d="M136.469,53.1a32.626,32.626,0,0,0-4.241-2.04,7.223,7.223,0,0,1-4.622-6.672V36.245h-2.9v10.9c0,2.512,2.163,4.9,4.665,6.267s10.456,4.82,12.383,8.6c1.838,3.6,1.24,10.743,1.24,19.225v43.35c0,5.5-2.295,13.467-12.515,18.254a35.765,35.765,0,0,0,6-2.686c6.126-3.534,9.174-7.977,9.174-12.85V65.893c0-4.632-3.077-9.259-9.179-12.793h0Z" transform="translate(-82.837 -26.845)" fill="#fff" opacity="0.4"/>
      <path id="Path_15027" data-name="Path 15027" d="M136.7,47.672V49.99c0,3.3-2.172,6.625-6.559,9.165-8.731,5.037-22.886,5.037-31.641,0A15.078,15.078,0,0,1,93.6,54.876a8.345,8.345,0,0,1-1.63-4.844V47.625a5.815,5.815,0,0,1,.174-1.5c.542-2.8,2.672-5.513,6.361-7.643a2.466,2.466,0,0,1,.33-.174c8.769-4.863,22.688-4.8,31.311.174,3.69,2.13,5.843,4.844,6.385,7.624a6.3,6.3,0,0,1,.175,1.564h0Z" transform="translate(-82.837 -26.845)" fill="#f0f0f0"/>
      <path id="Path_15028" data-name="Path 15028" d="M116.183,60.526V52.294c0-3.256.825,1.15-4.886,1.15-4.952,0-9.358-11.422-12.44-15.135a2.465,2.465,0,0,0-.33.174c-3.69,2.13-5.819,4.844-6.361,7.643a5.814,5.814,0,0,0-.174,1.5v2.408a8.346,8.346,0,0,0,1.63,4.844,15.079,15.079,0,0,0,4.905,4.278c8.755,5.037,22.91,5.037,31.641,0-6.192,2.431-13.986,4.476-13.986,1.371h0Z" transform="translate(-82.837 -26.845)" fill="#e0e0e0"/>
      <ellipse id="Ellipse_65" data-name="Ellipse 65" cx="22.368" cy="12.916" rx="22.368" ry="12.916" transform="translate(9.127 7.86)" fill="#455a64"/>
      <path id="Path_15029" data-name="Path 15029" d="M136.7,39.916v4.627a6.327,6.327,0,0,1-.174,1.564c-.542,2.78-2.7,5.494-6.385,7.62a31.1,31.1,0,0,1-13.985,3.718c-6.319.3-12.812-.942-17.656-3.737A15.338,15.338,0,0,1,93.6,49.467a8.482,8.482,0,0,1-1.447-3.341,5.96,5.96,0,0,1-.174-1.517V39.873c0-3.3,2.172-6.6,6.536-9.141.391-.217.782-.434,1.2-.631,8.793-4.406,22.1-4.189,30.444.631,4.377,2.54,6.568,5.862,6.55,9.184h0Z" transform="translate(-82.837 -26.845)" fill="#f0f0f0"/>
      <ellipse id="Ellipse_66" data-name="Ellipse 66" cx="22.368" cy="12.916" rx="22.368" ry="12.916" transform="translate(9.127)" fill="#fafafa"/>
      <path id="Path_15030" data-name="Path 15030" d="M93.6,49.453A15.338,15.338,0,0,0,98.5,53.694c4.844,2.8,11.337,4.038,17.656,3.737.061-1.626.971-2.87-4.886-4-4.863-.942-12.053-2.959-15.408-8.274-3.082-4.886-1.31-11.309,3.836-15.078-.415.2-.806.415-1.2.631-4.363,2.521-6.536,5.819-6.536,9.141v4.736a5.958,5.958,0,0,0,.174,1.517,8.481,8.481,0,0,0,1.456,3.35Z" transform="translate(-82.837 -26.845)" fill="#e0e0e0"/>
      <path id="Path_15031" data-name="Path 15031" d="M136.577,88.077c-12.294,7.03-32.225,7.03-44.519,0-6.149-3.511-9.221-8.119-9.221-12.722v30.4c0,4.6,3.072,9.212,9.221,12.722,12.294,7.03,32.225,7.03,44.519,0,6.149-3.511,9.221-8.119,9.221-12.723v-30.4c0,4.6-3.072,9.212-9.221,12.722h0Z" transform="translate(-82.837 -26.845)" fill="#ff2d2d"/>
      <path id="Path_15032" data-name="Path 15032" d="M136.577,85.165c-12.294,7.026-32.225,7.026-44.519,0-6.149-3.515-9.221-8.119-9.221-12.722v30.4c0,4.608,3.072,9.212,9.221,12.722,12.294,7.026,32.225,7.026,44.519,0,6.149-3.515,9.221-8.119,9.221-12.722V72.438c0,4.608-3.072,9.212-9.221,12.727h0Z" transform="translate(-82.837 -26.845)" fill="#fafafa"/>
      <path id="Path_15033" data-name="Path 15033" d="M104.106,103.089a14.277,14.277,0,0,0-1.2-5.523v-.038a9.583,9.583,0,0,0-3.539-4.467c-2.05-1.178-3.77.759-4.453,3.468-.066.273-.386.287-.429,0-.622-3.534-2.413-7.676-4.523-8.882a2.618,2.618,0,0,0-3.534.405,6.381,6.381,0,0,0-1.187,4.156c0,5.768,3.482,10.946,6.394,16.4l3.143,5.263,2.987-1.743c2.865-2.078,6.347-3.27,6.337-9.038h0Z" transform="translate(-82.837 -26.845)" fill="#ff2d2d"/>
      <path id="Path_15034" data-name="Path 15034" d="M90.376,101.205l1.343-3.52a.537.537,0,0,1,.518-.386.514.514,0,0,1,.5.41l2.078,8.081,1.654-4.523a.513.513,0,0,1,.98.038l1.23,4.373,4.274,2.464-.1.151a7.217,7.217,0,0,1-.471.589l-.089.1-4.34-2.507a.514.514,0,0,1-.24-.311l-.848-3.011-1.72,4.712a.52.52,0,0,1-1-.066l-1.993-7.774-.942,2.116a.518.518,0,0,1-.306.344.533.533,0,0,1-.471-.028l-3.416-1.974-.024-.047c-.165-.372-.325-.74-.471-1.112l-.179-.443,4.034,2.323Z" transform="translate(-82.837 -26.845)" fill="#fafafa"/>
      <path id="Path_15035" data-name="Path 15035" d="M114.553,106.265c-1.2,0-2.413-.038-3.642-.113a.47.47,0,0,1,.061-.938h0a47.945,47.945,0,0,0,22.41-3.6.472.472,0,1,1,.386.862h0a47.07,47.07,0,0,1-19.216,3.793Z" transform="translate(-82.837 -26.845)" fill="#e0e0e0"/>
      <path id="Path_15036" data-name="Path 15036" d="M114.553,111.387q-1.822,0-3.642-.113a.472.472,0,0,1,.061-.942h0a47.891,47.891,0,0,0,22.41-3.6.472.472,0,0,1,.386.862,47.225,47.225,0,0,1-19.216,3.793h0Z" transform="translate(-82.837 -26.845)" fill="#e0e0e0"/>
    </g>
    <g id="Group_13268" data-name="Group 13268" transform="translate(131.08 105.843)">
      <path id="Path_15037" data-name="Path 15037" d="M163.025,122.635c0-2.248-1.484-4.5-4.457-6.215-5.942-3.43-15.578-3.43-21.52,0-2.973,1.715-4.458,3.968-4.458,6.215V161.7c0,2.248,1.484,4.5,4.458,6.21,5.942,3.435,15.578,3.435,21.52,0,2.973-1.715,4.457-3.963,4.457-6.21V122.635Z" transform="translate(-131.663 -106.36)" fill="#407bff"/>
      <path id="Path_15038" data-name="Path 15038" d="M157.178,115.718v52.9a14.778,14.778,0,0,0,1.414-.688,11.308,11.308,0,0,0,2.417-1.833V118.258a11.45,11.45,0,0,0-2.417-1.838c-.471-.254-.942-.485-1.414-.7h0Z" transform="translate(-131.663 -106.36)" fill="#fff" opacity="0.4"/>
      <path id="Path_15039" data-name="Path 15039" d="M153.187,169.915a22.612,22.612,0,0,0,2.191-.6v-54.3a21.381,21.381,0,0,0-2.191-.6v55.493Z" transform="translate(-131.663 -106.36)" fill="#fff" opacity="0.4"/>
      <path id="Path_15040" data-name="Path 15040" d="M162.761,121.014a10.961,10.961,0,0,0-3.539-3.077c-5.866-3.388-15.121-3.619-21.458-.7v-1.187c-.24.123-.471.24-.716.372-2.973,1.715-4.458,3.968-4.458,6.215V161.7c0,2.248,1.484,4.5,4.458,6.21,5.942,3.435,15.578,3.435,21.52,0a11.271,11.271,0,0,0,2.714-2.12c-2.827,2.644-9.9,4.1-15.111,3.068s-8.406-4.368-8.406-6.743V154.38a22.753,22.753,0,0,0,10.527,2.356v-15.8a22.753,22.753,0,0,1-10.527-2.158v-6.955c6.338,2.917,15.592,2.686,21.458-.7a10.367,10.367,0,0,0,3.8-3.511v-4.971a5.216,5.216,0,0,0-.264-1.621h0Z" transform="translate(-131.663 -106.36)" opacity="0.1"/>
      <path id="Path_15041" data-name="Path 15041" d="M135.158,162.79V117.748a6.531,6.531,0,0,0-2.568,4.886V161.7c0,2.248,1.484,4.5,4.458,6.21a19.087,19.087,0,0,0,5.777,2.083c-5.715-1.55-7.667-5.456-7.667-7.2h0Z" transform="translate(-131.663 -106.36)" opacity="0.1"/>
      <path id="Path_15042" data-name="Path 15042" d="M163.949,115.685c0-2.384-1.574-4.773-4.712-6.6-6.3-3.638-16.525-3.638-22.83,0-3.152,1.819-4.712,4.208-4.712,6.6v7.153c0,2.384,1.574,4.773,4.712,6.6,6.3,3.638,16.525,3.638,22.83,0,3.152-1.819,4.712-4.208,4.712-6.6v-7.153Z" transform="translate(-131.663 -106.36)" fill="#e0e0e0"/>
      <g id="Group_13267" data-name="Group 13267" transform="translate(0.033)" clip-path="url(#clip-path)">
        <g id="Group_13266" data-name="Group 13266" transform="translate(-0.414 5.8)">
          <g id="Group_13265" data-name="Group 13265" transform="translate(0 2.201)" opacity="0.2">
            <path id="Path_15043" data-name="Path 15043" d="M163.562,115.02h.773v11.13h-.773Z" transform="translate(-131.281 -114.361)"/>
            <path id="Path_15044" data-name="Path 15044" d="M161.781,118.026h.773v11.191h-.773V118.026Z" transform="translate(-131.281 -114.361)"/>
            <path id="Path_15045" data-name="Path 15045" d="M159.086,120.1h.773v11.247h-.773Z" transform="translate(-131.281 -114.361)"/>
            <path id="Path_15046" data-name="Path 15046" d="M156.014,121.381h.773V132.69h-.773V121.381Z" transform="translate(-131.281 -114.361)"/>
            <path id="Path_15047" data-name="Path 15047" d="M152.635,122.239h.773v11.37h-.773Z" transform="translate(-131.281 -114.361)"/>
            <path id="Path_15048" data-name="Path 15048" d="M149.059,122.668h.773V134.1h-.773V122.668Z" transform="translate(-131.281 -114.361)"/>
            <path id="Path_15049" data-name="Path 15049" d="M145.426,122.654h.773v11.488h-.773Z" transform="translate(-131.281 -114.361)"/>
            <path id="Path_15050" data-name="Path 15050" d="M141.883,122.182h.773v11.549h-.773V122.182Z" transform="translate(-131.281 -114.361)"/>
            <path id="Path_15051" data-name="Path 15051" d="M138.561,121.226h.773v11.61h-.773v-11.61Z" transform="translate(-131.281 -114.361)"/>
            <path id="Path_15052" data-name="Path 15052" d="M135.55,119.746h.773v11.672h-.773Z" transform="translate(-131.281 -114.361)"/>
            <path id="Path_15053" data-name="Path 15053" d="M133.161,117.687h.773v11.728h-.773V117.687Z" transform="translate(-131.281 -114.361)"/>
            <path id="Path_15054" data-name="Path 15054" d="M131.281,114.361h.773V126.15h-.773Z" transform="translate(-131.281 -114.361)"/>
          </g>
          <path id="Path_15055" data-name="Path 15055" d="M151.669,131.875c-7.987.047-12.2-2.549-13.481-4.665-.975-1.612-1.14-4.58-1.14-7.539,0,0-.9-6.71-.726-6.729s-1.918-.471-3.468-.782a6.051,6.051,0,0,0-1.187,3.511v7.166c0,2.384,1.574,4.773,4.712,6.6,4.156,2.384,9.989,3.195,15.29,2.441h0Z" transform="translate(-131.281 -112.16)" opacity="0.1"/>
        </g>
      </g>
      <ellipse id="Ellipse_67" data-name="Ellipse 67" cx="16.143" cy="9.32" rx="16.143" ry="9.32" transform="translate(0 0.005)" fill="#ebebeb"/>
      <path id="Path_15057" data-name="Path 15057" d="M160.09,121.721c5.409-3.661,5.127-9.165-.867-12.628a23.152,23.152,0,0,0-11.106-2.719,17.943,17.943,0,0,0-5.89,2.007c-5.447,3.115-5.447,9.334,0,12.449,4.863,2.78,12.421,3.073,17.863.891h0Z" transform="translate(-131.663 -106.36)" fill="#f5f5f5"/>
      <path id="Path_15058" data-name="Path 15058" d="M137.925,167.22c5.456,2.742,14.31,2.742,19.767,0s5.461-7.19,0-9.933-14.31-2.742-19.767,0S132.464,164.478,137.925,167.22Z" transform="translate(-131.663 -106.36)" opacity="0.1"/>
      <path id="Path_15059" data-name="Path 15059" d="M132.59,132.9c0,2.248,1.484,4.5,4.458,6.21a22,22,0,0,0,10.757,2.573v15.488a21.987,21.987,0,0,1-10.758-2.573c-2.969-1.715-4.458-3.963-4.458-6.21V132.9Z" transform="translate(-131.663 -106.36)" fill="#fff"/>
      <path id="Path_15060" data-name="Path 15060" d="M132.9,119.261s5.249,5.287,15.389,5.009,14.2-5.815,14.734-7.539a6.333,6.333,0,0,0-1.367-5.843,6.729,6.729,0,0,1,2.29,4.787v7.162c0,.6.311,2.686-2.964,5.381,0,0,1.923-2.182,1.923-4.279v-4.948s-3.591,6-14.607,6-14.842-4.835-15.4-5.735h0Z" transform="translate(-131.663 -106.36)" fill="#fff"/>
    </g>
    <g id="Group_13270" data-name="Group 13270" transform="translate(-0.108 6.843)">
      <path id="Path_15061" data-name="Path 15061" d="M65.237,133.256c-.071-1.776,1.348-19.291,1.348-19.291L58.1,119.582c.9,10.249,1.475,13.457,1.508,15.168a1.352,1.352,0,0,0-.047.438c0,2.026,2.516,3.119,4.476,4.472a36.906,36.906,0,0,0,5.3,3.152c1.414.65,4.311.712,4.67-.123a66.082,66.082,0,0,1-7.747-6.036c-.919-.9-.966-1.621-1.023-3.4h0Z" transform="translate(0.108 -7.36)" fill="#ffa8a7"/>
      <path id="Path_15062" data-name="Path 15062" d="M78.054,144.871a1.612,1.612,0,0,1-.358,1.748,8.77,8.77,0,0,1-5.984,1.239,11,11,0,0,1-5.772-2.1c-1.192-.909-2.855-2.186-4.2-2.455a8.559,8.559,0,0,1-3-1.117c-.4-.349-.344-1.918-.344-1.918l19.658,4.6Z" transform="translate(0.108 -7.36)" fill="#455a64"/>
      <path id="Path_15063" data-name="Path 15063" d="M59.578,134.255a.471.471,0,0,0-.471.363c-.094.434-.193,1.687-.386,2.394a11.5,11.5,0,0,0-.292,3.8c.16.8,2.2,1.357,3.5,1.809a16.882,16.882,0,0,1,4.212,2.427,12.645,12.645,0,0,0,6.272,2.13c2.29,0,4.872-.693,5.461-1.659.73-1.2.16-1.885-3.237-3.327-.646-.273-2.9-1.494-3.675-1.937a11.984,11.984,0,0,1-5.1-4.971,1.159,1.159,0,0,0-.471-.646,1.173,1.173,0,0,0-.664-.057,6.1,6.1,0,0,0-1.635.448c-.471.2-1.1.429-1.093.942a1.663,1.663,0,0,0,.132.542c.038.108.071.254-.033.316a.285.285,0,0,1-.32-.08,8.365,8.365,0,0,1-.914-1,3,3,0,0,0-.537-.5,6.24,6.24,0,0,1-.579-.344c-.2-.17-.151-.4-.16-.65h0Z" transform="translate(0.108 -7.36)" fill="#407bff"/>
      <path id="Path_15064" data-name="Path 15064" d="M59.578,134.255a.471.471,0,0,0-.471.363c-.094.434-.193,1.687-.386,2.394a11.5,11.5,0,0,0-.292,3.8c.16.8,2.2,1.357,3.5,1.809a16.882,16.882,0,0,1,4.212,2.427,12.645,12.645,0,0,0,6.272,2.13c2.29,0,4.872-.693,5.461-1.659.73-1.2.16-1.885-3.237-3.327-.646-.273-2.9-1.494-3.675-1.937a11.984,11.984,0,0,1-5.1-4.971,1.159,1.159,0,0,0-.471-.646,1.173,1.173,0,0,0-.664-.057,6.1,6.1,0,0,0-1.635.448c-.471.2-1.1.429-1.093.942a1.663,1.663,0,0,0,.132.542c.038.108.071.254-.033.316a.285.285,0,0,1-.32-.08,8.365,8.365,0,0,1-.914-1,3,3,0,0,0-.537-.5,6.24,6.24,0,0,1-.579-.344c-.2-.17-.151-.4-.16-.65h0Z" transform="translate(0.108 -7.36)" fill="#fff" opacity="0.9"/>
      <path id="Path_15065" data-name="Path 15065" d="M66.161,145.045c-.589-.443-1.22-.877-1.852-1.258S68.3,146,69.921,145a1.253,1.253,0,0,0,.518-1.687c-.024-.25,2.54-1.329,3.553-1.437.278.141.514.254.664.32,3.4,1.414,3.967,2.125,3.237,3.327-.589.966-2.46,1.725-5.419,1.725a13.013,13.013,0,0,1-6.314-2.2Z" transform="translate(0.108 -7.36)" fill="#ff2d2d"/>
      <path id="Path_15066" data-name="Path 15066" d="M66.161,144.993c-.589-.443-1.22-.877-1.852-1.258s4,2.215,5.612,1.211a1.253,1.253,0,0,0,.518-1.687c-.024-.25,2.54-1.329,3.553-1.437.278.141.514.254.664.32,3.4,1.414,3.967,2.125,3.237,3.327-.589.966-2.46,1.725-5.419,1.725a13.013,13.013,0,0,1-6.314-2.2Z" transform="translate(0.108 -7.36)" fill="#fff" opacity="0.29"/>
      <path id="Path_15067" data-name="Path 15067" d="M70.161,142.571c2.111.773,1.211,1.131.617,1.211s-4.147-1.819-6.314-3.383c-2.262-1.63-3.69-3.416-4.528-4.015a11,11,0,0,1-.942-.754c.057-.424.1-.81.146-1.013a.471.471,0,0,1,.471-.363c0,.25-.038.471.17.669a6.266,6.266,0,0,0,.58.344,3,3,0,0,1,.537.5,8.352,8.352,0,0,0,.914,1,26.837,26.837,0,0,0,8.35,5.805h0Z" transform="translate(0.108 -7.36)" fill="#ff2d2d"/>
      <path id="Path_15068" data-name="Path 15068" d="M70.628,143.495a.241.241,0,0,1-.132-.042.179.179,0,0,1-.044-.25l.015-.019a5.3,5.3,0,0,1,3.868-1.414.2.2,0,0,1,.188.212.207.207,0,0,1-.231.17,4.872,4.872,0,0,0-3.5,1.253.235.235,0,0,1-.165.09Z" transform="translate(0.108 -7.36)" fill="#fafafa"/>
      <path id="Path_15069" data-name="Path 15069" d="M68.785,142.486a.231.231,0,0,1-.132-.042.179.179,0,0,1-.044-.25l.015-.019a5.282,5.282,0,0,1,3.869-1.414.193.193,0,0,1,.189.2s0,.007,0,.01a.2.2,0,0,1-.231.17,4.891,4.891,0,0,0-3.5,1.253.222.222,0,0,1-.165.094h0Z" transform="translate(0.108 -7.36)" fill="#fafafa"/>
      <path id="Path_15070" data-name="Path 15070" d="M66.943,141.483a.222.222,0,0,1-.132-.042.179.179,0,0,1-.044-.25l.015-.019a5.282,5.282,0,0,1,3.869-1.39.188.188,0,0,1,.185.191.186.186,0,0,1,0,.021.193.193,0,0,1-.216.166l-.01,0a4.891,4.891,0,0,0-3.5,1.253.222.222,0,0,1-.165.071h0Z" transform="translate(0.108 -7.36)" fill="#fafafa"/>
      <path id="Path_15071" data-name="Path 15071" d="M65.237,140.366a.222.222,0,0,1-.132-.042.184.184,0,0,1-.043-.256l.01-.012a5.306,5.306,0,0,1,3.873-1.39.193.193,0,0,1,.184.2v.006a.2.2,0,0,1-.231.17h0a4.9,4.9,0,0,0-3.5,1.253.212.212,0,0,1-.16.071h0Z" transform="translate(0.108 -7.36)" fill="#fafafa"/>
      <path id="Path_15072" data-name="Path 15072" d="M63.564,139.249a.222.222,0,0,1-.132-.042.184.184,0,0,1-.043-.256l.01-.012a5.449,5.449,0,0,1,4.241-1.414.193.193,0,0,1,.184.2v.005a.2.2,0,0,1-.231.17h0a5.028,5.028,0,0,0-3.854,1.268.208.208,0,0,1-.174.08Z" transform="translate(0.108 -7.36)" fill="#fafafa"/>
      <path id="Path_15073" data-name="Path 15073" d="M48.8,120.2l-8.6-.16c.127,5.744,1.041,12.115,1.187,17.5.028,1.018,0,7.878.358,9.966.575,3.134,4.293,2.709,4.491.834s-.24-9.9-.226-10.715c-.033-3.454,1.583-9.283,2.436-15.484.056-.3.353-1.64.353-1.937h0Z" transform="translate(0.108 -7.36)" fill="#ffa8a7"/>
      <path id="Path_15074" data-name="Path 15074" d="M48.034,149.644a7.918,7.918,0,0,1-.693,4.241,3.055,3.055,0,0,1-3.3,1.414c-1.39-.189-3.251-.891-3.821-2.445a9.236,9.236,0,0,1-.471-4.359Z" transform="translate(0.108 -7.36)" fill="#455a64"/>
      <path id="Path_15075" data-name="Path 15075" d="M41.126,136.884c-.561.09-.471,2.563-.5,5.056-.057,2.667-.8,3.84-.876,6.031-.08,2.5.184,3.6,1.305,5s4.655,2.568,6.083.273c1.164-1.885,1-3.807.608-6.262a57.35,57.35,0,0,1-.824-6.272c-.094-1.885-.155-3.666-.664-3.826v.891c0,.269.047,1.216-.269,1.253a3.77,3.77,0,0,1-.08-.693.782.782,0,0,0-.221-.584,1.136,1.136,0,0,0-.655-.2c-.565-.047-1.131-.085-1.7-.08a8.381,8.381,0,0,0-.843.042,2.409,2.409,0,0,0-.707.16.471.471,0,0,0-.273.278.711.711,0,0,0,0,.282,1.887,1.887,0,0,1,0,.514c0,.075-.057.17-.141.16s-.1-.08-.108-.141c-.033-.3,0-.518-.042-.867v-.542c0-.16-.08-.32-.085-.476Z" transform="translate(0.108 -7.36)" fill="#407bff"/>
      <path id="Path_15076" data-name="Path 15076" d="M41.126,136.884c-.561.09-.471,2.563-.5,5.056-.057,2.667-.8,3.84-.876,6.031-.08,2.5.184,3.6,1.305,5s4.655,2.568,6.083.273c1.164-1.885,1-3.807.608-6.262a57.35,57.35,0,0,1-.824-6.272c-.094-1.885-.155-3.666-.664-3.826v.891c0,.269.047,1.216-.269,1.253a3.77,3.77,0,0,1-.08-.693.782.782,0,0,0-.221-.584,1.136,1.136,0,0,0-.655-.2c-.565-.047-1.131-.085-1.7-.08a8.381,8.381,0,0,0-.843.042,2.409,2.409,0,0,0-.707.16.471.471,0,0,0-.273.278.711.711,0,0,0,0,.282,1.887,1.887,0,0,1,0,.514c0,.075-.057.17-.141.16s-.1-.08-.108-.141c-.033-.3,0-.518-.042-.867v-.542c0-.16-.08-.32-.085-.476Z" transform="translate(0.108 -7.36)" fill="#fff" opacity="0.9"/>
      <path id="Path_15077" data-name="Path 15077" d="M39.8,147.255c0,.363-.085,2.752.669,3.115s1.032-1.5,1.032-1.5A7.527,7.527,0,0,1,45.97,149c-.09.4.471,1.621,1.14,1.286s.664-3.063.664-3.1c.372,2.356.471,4.241-.641,6.05-1.414,2.295-4.966,1.136-6.083-.273s-1.385-2.5-1.305-5c.009-.25.028-.485.052-.716Z" transform="translate(0.108 -7.36)" fill="#ff2d2d"/>
      <path id="Path_15078" data-name="Path 15078" d="M39.8,147.235c0,.363-.085,2.752.669,3.115s1.032-1.5,1.032-1.5a7.527,7.527,0,0,1,4.472.137c-.09.4.471,1.621,1.14,1.286s.664-3.063.664-3.1c.372,2.356.471,4.241-.641,6.05-1.414,2.295-4.966,1.136-6.083-.273s-1.385-2.5-1.305-5c.009-.25.028-.485.052-.716Z" transform="translate(0.108 -7.36)" fill="#fff" opacity="0.33"/>
      <path id="Path_15079" data-name="Path 15079" d="M41.734,149c.09.9-.914.683-1.1-.575s.245-4.321,0-6.488c.052-2.493-.057-4.966.5-5.056a.579.579,0,0,0,0,.09l.061,1.258a5.261,5.261,0,0,0,.028.537c.188,1.824.3,5.372.306,7.068a27.867,27.867,0,0,0,.2,3.166Z" transform="translate(0.108 -7.36)" fill="#ff2d2d"/>
      <path id="Path_15080" data-name="Path 15080" d="M45.664,149a25.8,25.8,0,0,0,.188-3.181c0-1.668.118-5.183.306-7.011a4.145,4.145,0,0,0,.08-1.037v-.891c.372.123.5,1.107.584,2.356,0,.721,0,1.616-.075,2.7-.25,2.168.184,5.249,0,6.507s-1.168,1.447-1.084.551Z" transform="translate(0.108 -7.36)" fill="#ff2d2d"/>
      <path id="Path_15081" data-name="Path 15081" d="M46.036,149.083a.238.238,0,0,1-.08,0,7.313,7.313,0,0,0-4.382,0,.226.226,0,0,1-.273-.113.188.188,0,0,1,.112-.242l.01,0a7.685,7.685,0,0,1,4.688,0,.188.188,0,0,1,.123.236l0,.013a.217.217,0,0,1-.193.108h0Z" transform="translate(0.108 -7.36)" fill="#fafafa"/>
      <path id="Path_15082" data-name="Path 15082" d="M46.29,147.085a.187.187,0,0,1-.071,0,9.023,9.023,0,0,0-4.91,0,.221.221,0,0,1-.264-.123.184.184,0,0,1,.112-.234l.02-.006a9.4,9.4,0,0,1,5.183,0,.188.188,0,0,1,.132.232l0,.014a.217.217,0,0,1-.2.118h0Z" transform="translate(0.108 -7.36)" fill="#fafafa"/>
      <path id="Path_15083" data-name="Path 15083" d="M41.263,145.21a.217.217,0,0,1-.193-.113.184.184,0,0,1,.09-.244l.014-.006a7.89,7.89,0,0,1,5.183-.028.184.184,0,0,1,.124.228l-.006.017a.221.221,0,0,1-.273.108,7.679,7.679,0,0,0-4.844,0,.184.184,0,0,1-.094.038h0Z" transform="translate(0.108 -7.36)" fill="#fafafa"/>
      <path id="Path_15084" data-name="Path 15084" d="M41.2,143.462a.212.212,0,0,1-.188-.108.179.179,0,0,1,.072-.243l.027-.012a7.068,7.068,0,0,1,5.273-.052.179.179,0,0,1,.1.25.222.222,0,0,1-.278.094,6.728,6.728,0,0,0-4.915.052.306.306,0,0,1-.09.019h0Z" transform="translate(0.108 -7.36)" fill="#fafafa"/>
      <path id="Path_15085" data-name="Path 15085" d="M41.15,141.492a.217.217,0,0,1-.188-.1.179.179,0,0,1,.07-.243l.024-.011a7.372,7.372,0,0,1,5.32,0,.184.184,0,0,1,.115.233l-.007.017a.221.221,0,0,1-.278.1,7.15,7.15,0,0,0-4.962,0,.211.211,0,0,1-.094.01Z" transform="translate(0.108 -7.36)" fill="#ebebeb"/>
      <path id="Path_15086" data-name="Path 15086" d="M44.528,60.818a35.34,35.34,0,0,0-2.7,10.131c-.975,12.722-1.47,31.151-1.47,31.151-.108,1.329-.942,4.345-1.517,10.187-.669,6.9,1.187,30.1,1.187,30.1s4.132,2.46,7.346-.344c0,0,3.732-32.164,4.6-39.025.759-5.994,2.87-18.956,2.87-18.956l1.626,19.828s-.231,5.39-.071,8.873c.188,4.052,2.168,24.031,2.168,24.031s5.654,1.918,8.213-.806c0,0,.6-28.639.688-33.516.165-9.57-.335-27.4-.674-37.121L44.528,60.818Z" transform="translate(0.108 -7.36)" fill="#ff2d2d"/>
      <path id="Path_15087" data-name="Path 15087" d="M44.528,60.072a35.34,35.34,0,0,0-2.7,10.131c-.975,12.722-1.47,31.151-1.47,31.151-.108,1.329-.942,4.345-1.517,10.187-.669,6.9,1.187,30.1,1.187,30.1s4.132,2.46,7.346-.344c0,0,3.732-32.164,4.6-39.025.759-5.994,2.87-18.956,2.87-18.956l1.626,19.828s-.231,5.39-.071,8.873c.188,4.052,2.168,24.031,2.168,24.031s5.654,1.918,8.213-.806c0,0,.6-28.639.688-33.516.165-9.57-.335-27.4-.674-37.121L44.528,60.072Z" transform="translate(0.108 -7.36)" fill="#fff" opacity="0.2"/>
      <path id="Path_15088" data-name="Path 15088" d="M54.843,84.058l.886-6.1s5.155-.688,7.487-2.884a8.449,8.449,0,0,1-6.069,3.836l-.914,5.518-.061,17.156L54.843,84.058Z" transform="translate(0.108 -7.132)" opacity="0.2"/>
      <path id="Path_15089" data-name="Path 15089" d="M71.368,62.59l-4.024,4.976s-2.8-4.641-2.686-4.641S68.2,57.3,68.2,57.3l3.166,5.292Z" transform="translate(0.108 -7.032)" fill="#ffa8a7"/>
      <path id="Path_15090" data-name="Path 15090" d="M58.48,31.095c3.157-.052,6.663-.137,9.711,3.492,2.356,2.827,8.774,11.554,10.06,13.792,1.456,2.526,1.659,3.553.518,5.442-1.084,1.8-7.982,9.735-7.982,9.735a11.8,11.8,0,0,1-3.449-5.08l4.028-6.729L63.63,40.321l-5.15-9.226Z" transform="translate(0.108 -6.951)" fill="#ff2d2d"/>
      <path id="Path_15091" data-name="Path 15091" d="M58.557,31.09c3.157-.052,6.663-.137,9.711,3.492,2.356,2.827,8.774,11.554,10.06,13.792,1.456,2.526,1.659,3.553.518,5.442-1.084,1.8-7.982,9.735-7.982,9.735a11.8,11.8,0,0,1-3.449-5.08l4.028-6.729L63.707,40.316l-5.15-9.226Z" transform="translate(0.108 -6.951)" opacity="0.4"/>
      <path id="Path_15092" data-name="Path 15092" d="M58.278,30.953c4.919-.419,7.068.278,8.953,2.266C68.55,34.633,76.6,45.372,76.6,45.372s-.339,2.12-6.319,5.306l-6.531-7.643L58.278,30.953Z" transform="translate(0.108 -6.939)" fill="#ff2d2d"/>
      <path id="Path_15093" data-name="Path 15093" d="M50.611,31.18c-1.107.269-5.065.269-7.68,1.2-1.414.509-1.734,2.276-1.908,4.3a101.389,101.389,0,0,0,.306,12.487l-.066,20.756c3.6,2.62,18.377,3.953,25.94-1.574,0,0-.942-24.729-.942-28.578s-2.14-8.482-8.044-8.816l-7.605.226Z" transform="translate(0.108 -6.959)" fill="#ff2d2d"/>
      <path id="Path_15094" data-name="Path 15094" d="M57.755,32.292c-1.315,1.065-4.825,1.371-7.261.386a62.479,62.479,0,0,0,7.454,7.035,11.119,11.119,0,0,0-.193-7.421Z" transform="translate(0.108 -6.936)" fill="#455a64"/>
      <path id="Path_15095" data-name="Path 15095" d="M51.827,14.791a6.931,6.931,0,1,0,6.936-6.927h-.008a6.931,6.931,0,0,0-6.928,6.927Z" transform="translate(0.108 -6.843)" fill="#263238"/>
      <path id="Path_15096" data-name="Path 15096" d="M46.776,19.7a59.557,59.557,0,0,0,1.574,6.126,2.408,2.408,0,0,0,1.381,1.117l-.08-3.713L46.776,19.7Z" transform="translate(0.108 -6.843)" fill="#263238"/>
      <path id="Path_15097" data-name="Path 15097" d="M48.185,12.143a2.6,2.6,0,0,0-2.149.754c-.942.942-.41,3.906.74,6.8l2.116.24-.706-7.8Z" transform="translate(0.108 -6.843)" fill="#263238"/>
      <path id="Path_15098" data-name="Path 15098" d="M49.528,19.946c-.424.254-1.032-.561-1.555-1.112a1.84,1.84,0,0,0-3.082.5c-.853,1.791.754,4.241,2.1,4.67,2.318.726,2.662-.759,2.662-.759l.175,8.613a58.477,58.477,0,0,0,8.138,7.855,11.291,11.291,0,0,0-.594-8.331V28.838a14.824,14.824,0,0,0,3.124.16c1.706-.264,2.775-1.607,3.3-3.454.829-2.959,1.145-5.353.438-11.177-.768-6.385-8.2-6.451-12.209-3.93s-2.493,9.509-2.493,9.509Z" transform="translate(0.108 -6.843)" fill="#ffb7af"/>
      <path id="Path_15099" data-name="Path 15099" d="M64.092,11.517a6.847,6.847,0,0,1-5.018,1.842A12.119,12.119,0,0,1,53.7,12.3a3.52,3.52,0,0,1-.8,1.753A5.315,5.315,0,0,1,51.017,15.3c-.146,1.145-.141,2.62-.212,3.77-.024.386,0,2.422-.942,1.842a4.912,4.912,0,0,1-.806-.909,14.023,14.023,0,0,0-1.065-1.183c-.73-.664.212-6.691.212-6.691a2.926,2.926,0,0,1,.5-3.256c1-1.1,2.4-2.45,6.95-1.913,3.242.386,6.766,1.414,9.617,0a5.044,5.044,0,0,1-1.183,4.552h0Z" transform="translate(0.108 -6.843)" fill="#263238"/>
      <path id="Path_15100" data-name="Path 15100" d="M48.189,12.61l-2.563-1.376a1.414,1.414,0,0,1,1.883-.67l.058.029A1.531,1.531,0,0,1,48.189,12.61Z" transform="translate(0.108 -6.843)" fill="#263238"/>
      <path id="Path_15101" data-name="Path 15101" d="M57.359,28.838a29.193,29.193,0,0,1-5.131-1.475,4.363,4.363,0,0,1-1.838-1.819,6,6,0,0,0,1.046,2.149c.971,1.239,5.923,2.158,5.923,2.158Z" transform="translate(0.108 -6.843)" fill="#f28f8f"/>
      <path id="Path_15102" data-name="Path 15102" d="M56.567,18.971a.745.745,0,0,1-.73.759h0a.763.763,0,1,1,.73-.8q0,.018,0,.037Z" transform="translate(0.108 -6.843)" fill="#263238"/>
      <path id="Path_15103" data-name="Path 15103" d="M55.837,16.205l-1.692.942a1.013,1.013,0,0,1,.4-1.343.942.942,0,0,1,1.28.371l.016.03Z" transform="translate(0.108 -6.843)" fill="#263238"/>
      <path id="Path_15104" data-name="Path 15104" d="M56.021,23.744l2.761,1.037a1.447,1.447,0,0,1-1.818.937l-.066-.023A1.55,1.55,0,0,1,56.021,23.744Z" transform="translate(0.108 -6.843)" fill="#f28f8f"/>
      <path id="Path_15105" data-name="Path 15105" d="M63.541,16.827,62,15.639a.942.942,0,0,1,1.314-.22l.024.018a1.022,1.022,0,0,1,.207,1.39h0Z" transform="translate(0.108 -6.843)" fill="#263238"/>
      <path id="Path_15106" data-name="Path 15106" d="M62.938,18.881a.712.712,0,1,1-.712-.74.726.726,0,0,1,.712.74h0Z" transform="translate(0.108 -6.843)" fill="#263238"/>
      <path id="Path_15107" data-name="Path 15107" d="M59.135,17.793l.269,4.971,2.6-.886Z" transform="translate(0.108 -6.843)" fill="#f28f8f"/>
      <path id="Path_15108" data-name="Path 15108" d="M49.212,31.726c-1,.217-1.277,4.467-1.037,9.617.042.853.1,1.522.085,1.885l-.575-.024c0-.306-.028-.966-.08-1.8-.259-4.071-.288-9.989,1.489-10.258a2.4,2.4,0,0,1,.716-.066v.608l-.6.038Z" transform="translate(0.108 -6.935)" fill="#e0e0e0"/>
      <path id="Path_15109" data-name="Path 15109" d="M49.212,31.731c-1,.217-1.277,4.467-1.037,9.617.042.853.1,1.522.085,1.885l-.575-.024c0-.306-.028-.966-.08-1.8-.259-4.071-.288-9.989,1.489-10.258a2.4,2.4,0,0,1,.716-.066v.608l-.6.038Z" transform="translate(0.108 -6.935)" opacity="0.2"/>
      <path id="Path_15110" data-name="Path 15110" d="M46.861,56.686h-.047v-.4a2.573,2.573,0,0,0,1.319-.471,4.822,4.822,0,0,1-1.1-.994c-.646-.834-2.064-6.814-1.626-8.208.368-1.169,1.513-3.741,2.535-3.77h.028c1.018,0,2.356,2.431,2.827,3.558.556,1.352-.349,7.426-.942,8.317A4.989,4.989,0,0,1,48.849,55.8a2.586,2.586,0,0,0,1.357.377l.047.4a3.133,3.133,0,0,1-1.758-.509,3.228,3.228,0,0,1-1.635.623h0ZM47.987,43.2c-.6,0-1.678,1.937-2.172,3.506-.4,1.277.942,7.068,1.564,7.841a4.532,4.532,0,0,0,1.131.989,4.645,4.645,0,0,0,1.041-1.079c.532-.825,1.414-6.705.891-7.949C49.815,45,48.595,43.2,47.987,43.2Z" transform="translate(0.108 -6.981)" fill="#455a64"/>
      <path id="Path_15111" data-name="Path 15111" d="M50.842,56.313a.589.589,0,1,1-.189-.41.589.589,0,0,1,.189.41Z" transform="translate(0.108 -7.014)" fill="#263238"/>
      <path id="Path_15112" data-name="Path 15112" d="M47.412,56.459a.589.589,0,1,1-.191-.411A.589.589,0,0,1,47.412,56.459Z" transform="translate(0.108 -7.015)" fill="#263238"/>
      <path id="Path_15113" data-name="Path 15113" d="M50.9,49l-.335-.024a.132.132,0,0,1-.123-.141h0a7,7,0,0,0-.1-2.281c-.6-1.447-1.828-3.265-2.356-3.247s-1.607,1.941-2.073,3.435A6.734,6.734,0,0,0,46,49.019a.132.132,0,0,1-.11.15h0l-.335.052a.132.132,0,0,1-.15-.11v0a6.779,6.779,0,0,1-.066-2.549c.25-.8,1.414-3.807,2.625-3.854s2.625,2.827,2.945,3.619a6.833,6.833,0,0,1,.146,2.544.132.132,0,0,1-.135.129H50.9Z" transform="translate(0.108 -6.973)" fill="#e0e0e0"/>
      <g id="Group_13269" data-name="Group 13269" transform="translate(45.326 35.73)" opacity="0.2">
        <path id="Path_15114" data-name="Path 15114" d="M50.874,48.994l-.335-.024a.132.132,0,0,1-.123-.141h0a7,7,0,0,0-.1-2.281c-.6-1.447-1.828-3.265-2.356-3.247s-1.607,1.941-2.073,3.435a6.734,6.734,0,0,0,.09,2.281.132.132,0,0,1-.11.15h0l-.335.052a.132.132,0,0,1-.15-.11v0a6.779,6.779,0,0,1-.066-2.549c.25-.8,1.414-3.807,2.625-3.854s2.625,2.827,2.945,3.619a6.833,6.833,0,0,1,.146,2.544.132.132,0,0,1-.135.129h-.016Z" transform="translate(-45.218 -42.703)"/>
      </g>
      <path id="Path_15115" data-name="Path 15115" d="M57.359,30.492c.909.122,3.7,1.5,5.023,5.654s1.244,10.649,1.2,12.468-.165,3.181-.165,3.181h-.65s.094-2.314.118-3.477c.094-5.108-.226-9.462-1.239-12.1-1.206-3.138-2.611-4.142-4.288-4.943v-.787Z" transform="translate(0.108 -6.939)" fill="#e0e0e0"/>
      <path id="Path_15116" data-name="Path 15116" d="M57.359,30.491c.909.122,3.7,1.5,5.023,5.654s1.244,10.649,1.2,12.468-.165,3.181-.165,3.181h-.65s.094-2.314.118-3.477c.094-5.108-.226-9.462-1.239-12.1-1.206-3.138-2.611-4.142-4.288-4.943v-.787Z" transform="translate(0.108 -6.939)" opacity="0.2"/>
      <path id="Path_15117" data-name="Path 15117" d="M60.634,52.1A2.356,2.356,0,1,0,62.99,49.74,2.356,2.356,0,0,0,60.634,52.1Z" transform="translate(0.108 -6.997)" fill="#455a64"/>
      <circle id="Ellipse_68" data-name="Ellipse 68" cx="1.334" cy="1.334" r="1.334" transform="translate(61.755 43.764)" fill="#37474f"/>
      <path id="Path_15118" data-name="Path 15118" d="M42.921,32.292c-2.874.594-3.85,1.272-5.273,3.576S30.83,54.443,30.83,54.443L14.192,57.43c-1.235.141-3.124-.617-5.461-.688C6.074,56.657,4.49,54.9,4.49,56.45c0,1.249,2.789,2.356,2.789,2.356a27.9,27.9,0,0,1-4.712.547C.994,59.376-.368,60.385-.066,61.52A5.263,5.263,0,0,0,1.6,64.39c2.318,1.843,7.412.848,11.959-.259,3.5-.853,12.223-1.315,16.714-1.96,5.183-.561,6.06-1.338,7.817-4.67,1.225-2.356,5.226-14.282,5.226-14.282.773-5.631.386-8.731-.4-10.927h0Z" transform="translate(0.108 -6.957)" fill="#ffa8a7"/>
      <path id="Path_15119" data-name="Path 15119" d="M43.732,32.132c-1.979.141-4.519-.212-6.96,4.995s-6.159,16.94-6.159,16.94L19.182,56.535a44.609,44.609,0,0,1,.839,6.672s11.78-.839,14.315-1.258,2.285-.881,4.359-4.877,5.037-13.278,5.037-13.278,1.559-6.611,0-11.662h0Z" transform="translate(0.108 -6.954)" fill="#ff2d2d"/>
      <path id="Path_15120" data-name="Path 15120" d="M43.732,32.132c-1.979.141-4.519-.212-6.96,4.995s-6.159,16.94-6.159,16.94L19.182,56.535a44.609,44.609,0,0,1,.839,6.672s11.78-.839,14.315-1.258,2.285-.881,4.359-4.877,5.037-13.278,5.037-13.278,1.559-6.611,0-11.662Z" transform="translate(0.108 -6.954)" opacity="0.4"/>
      <path id="Path_15121" data-name="Path 15121" d="M44.754,31.9c-1.381.1-4.665-.071-6.408,2.29-1.583,2.144-6.545,14.1-6.545,14.1s2.309,3.685,9.108,4.74c0,0,2.413-6.333,3.515-9.038a21.75,21.75,0,0,0,.33-12.1h0Z" transform="translate(0.108 -6.945)" fill="#ff2d2d"/>
    </g>
    <g id="Group_13274" data-name="Group 13274" transform="translate(0.476 -0.028)">
      <path id="Path_15122" data-name="Path 15122" d="M18.612,33.239a17.136,17.136,0,0,0-15.418,1.72C1.206,36.424.32,38.153.5,39.765l7.393,66.222h.028c.311,1.47,1.522,2.827,3.619,3.737A17.148,17.148,0,0,0,26.957,108c1.842-1.357,2.728-2.94,2.709-4.443h.028L22.3,37.333c-.179-1.612-1.423-3.105-3.69-4.095h0Z" transform="translate(-0.476 -0.186)" fill="#407bff"/>
      <path id="Path_15123" data-name="Path 15123" d="M18.612,33.239a17.136,17.136,0,0,0-15.418,1.72C1.206,36.424.32,38.153.5,39.765l7.393,66.222h.028c.311,1.47,1.522,2.827,3.619,3.737A17.148,17.148,0,0,0,26.957,108c1.842-1.357,2.728-2.94,2.709-4.443h.028L22.3,37.333c-.179-1.612-1.423-3.105-3.69-4.095h0Z" transform="translate(-0.476 -0.186)" fill="#fff" opacity="0.7"/>
      <path id="Path_15124" data-name="Path 15124" d="M4.189,43.86c-4.533-1.984-4.976-5.979-.994-8.9a17.179,17.179,0,0,1,15.418-1.72c4.528,1.984,4.981,5.965.975,8.882S8.722,45.843,4.189,43.86h0Z" transform="translate(-0.476 -0.088)" fill="#407bff"/>
      <path id="Path_15125" data-name="Path 15125" d="M4.189,43.86c-4.533-1.984-4.976-5.979-.994-8.9a17.179,17.179,0,0,1,15.418-1.72c4.528,1.984,4.981,5.965.975,8.882S8.722,45.843,4.189,43.86h0Z" transform="translate(-0.476 -0.088)" fill="#fff" opacity="0.8"/>
      <path id="Path_15126" data-name="Path 15126" d="M16.628,155.322c-4.528-1.984-4.976-5.97-.99-8.9A17.166,17.166,0,0,1,31.056,144.7c4.533,1.979,4.976,5.97.989,8.9a17.166,17.166,0,0,1-15.418,1.725h0Z" transform="translate(-0.476 -0.489)" fill="#407bff"/>
      <path id="Path_15127" data-name="Path 15127" d="M16.628,155.322c-4.528-1.984-4.976-5.97-.99-8.9A17.166,17.166,0,0,1,31.056,144.7c4.533,1.979,4.976,5.97.989,8.9a17.166,17.166,0,0,1-15.418,1.725h0Z" transform="translate(-0.476 -0.489)" fill="#fff" opacity="0.7"/>
      <path id="Path_15128" data-name="Path 15128" d="M22.957,143.74a15.714,15.714,0,0,0-7.318,2.681c-3.986,2.931-3.538,6.917.99,8.9a15.819,15.819,0,0,0,7.732,1l-1.4-12.581Z" transform="translate(-0.476 -0.489)" fill="#407bff"/>
      <ellipse id="Ellipse_69" data-name="Ellipse 69" cx="10.969" cy="6.333" rx="10.969" ry="6.333" transform="translate(11.624 143.152) rotate(-6.37)" fill="#407bff"/>
      <ellipse id="Ellipse_70" data-name="Ellipse 70" cx="10.969" cy="6.333" rx="10.969" ry="6.333" transform="translate(11.624 143.152) rotate(-6.37)" fill="#fff" opacity="0.8"/>
      <path id="Path_15129" data-name="Path 15129" d="M22.415,104.494A1.718,1.718,0,0,0,21.194,103a5.716,5.716,0,0,0-5.141.57,1.823,1.823,0,0,0-.9,1.607l4.905,43.949a1.824,1.824,0,0,0,1.23,1.367,5.716,5.716,0,0,0,5.141-.575,1.727,1.727,0,0,0,.862-1.729l-4.877-43.695Z" transform="translate(-0.476 -0.489)" fill="#407bff"/>
      <path id="Path_15130" data-name="Path 15130" d="M22.415,104.494A1.718,1.718,0,0,0,21.194,103a5.716,5.716,0,0,0-5.141.57,1.823,1.823,0,0,0-.9,1.607l4.905,43.949a1.824,1.824,0,0,0,1.23,1.367,5.716,5.716,0,0,0,5.141-.575,1.727,1.727,0,0,0,.862-1.729l-4.877-43.695Z" transform="translate(-0.476 -0.489)" fill="#fff" opacity="0.7"/>
      <g id="Group_13271" data-name="Group 13271" transform="translate(18.518 102.151)" opacity="0.3">
        <path id="Path_15131" data-name="Path 15131" d="M21.548,103.184A3.024,3.024,0,0,0,21.2,103a3.75,3.75,0,0,0-.405-.141l5.277,47.285c.123-.075.25-.141.363-.226a3.4,3.4,0,0,0,.3-.254l-5.188-46.479Z" transform="translate(-18.994 -102.641)" fill="#fff"/>
        <path id="Path_15132" data-name="Path 15132" d="M20.1,102.7a6.132,6.132,0,0,0-1.1-.052l5.367,48.1c.174-.033.349-.071.518-.118h.066a4.251,4.251,0,0,0,.471-.16L20.1,102.7Z" transform="translate(-18.994 -102.641)" fill="#fff"/>
      </g>
      <path id="Path_15133" data-name="Path 15133" d="M22.019,149.427c-.509-.693-.66-3.468-.99-6.418-.17-1.522-3.958-35.453-4.439-39.764a4.568,4.568,0,0,0-.532.325,1.823,1.823,0,0,0-.9,1.607l4.9,43.949a1.824,1.824,0,0,0,1.23,1.366,5.716,5.716,0,0,0,5.141-.575l.146-.118a6.568,6.568,0,0,0,.471-.533c-.99.89-4.269,1.187-5.028.16h0Z" transform="translate(-0.476 -0.489)" fill="#407bff"/>
      <path id="Path_15134" data-name="Path 15134" d="M21.2,103a5.716,5.716,0,0,0-5.141.57,1.823,1.823,0,0,0-.9,1.607l.622,5.565a18.6,18.6,0,0,0,7.247-.806l-.613-5.442c0-.584-.4-1.117-1.216-1.494h0Z" transform="translate(-0.476 -0.33)" fill="#407bff"/>
      <g id="Group_13272" data-name="Group 13272" transform="translate(18.518 102.311)" opacity="0.3">
        <path id="Path_15135" data-name="Path 15135" d="M21.548,103.184A3.024,3.024,0,0,0,21.2,103a3.75,3.75,0,0,0-.405-.141l.829,7.459c.235-.052.471-.108.7-.174l-.777-6.96Z" transform="translate(-18.994 -102.64)" fill="#fff"/>
        <path id="Path_15136" data-name="Path 15136" d="M19.884,110.638c.363-.047.721-.108,1.079-.179L20.1,102.7a6.132,6.132,0,0,0-1.1-.052Z" transform="translate(-18.994 -102.64)" fill="#fff"/>
      </g>
      <path id="Path_15137" data-name="Path 15137" d="M16.59,103.245a4.577,4.577,0,0,0-.532.325,1.824,1.824,0,0,0-.9,1.607l.622,5.565a16.046,16.046,0,0,0,1.654.066c-.235-2.139-.551-4.943-.843-7.563Z" transform="translate(-0.476 -0.331)" opacity="0.05"/>
      <path id="Path_15138" data-name="Path 15138" d="M21.425,95.593A1.713,1.713,0,0,0,20.2,94.1a5.716,5.716,0,0,0-5.141.57,1.823,1.823,0,0,0-.9,1.6l.994,8.906a1.819,1.819,0,0,0,1.23,1.362,5.716,5.716,0,0,0,5.141-.575,1.724,1.724,0,0,0,.862-1.725l-.966-8.647Z" transform="translate(-0.476 -0.311)" fill="#407bff"/>
      <path id="Path_15139" data-name="Path 15139" d="M21.425,95.593A1.713,1.713,0,0,0,20.2,94.1a5.716,5.716,0,0,0-5.141.57,1.823,1.823,0,0,0-.9,1.6l.994,8.906a1.819,1.819,0,0,0,1.23,1.362,5.716,5.716,0,0,0,5.141-.575,1.724,1.724,0,0,0,.862-1.725l-.966-8.647Z" transform="translate(-0.476 -0.311)" fill="#fff" opacity="0.5"/>
      <path id="Path_15140" data-name="Path 15140" d="M21.425,95.593A1.713,1.713,0,0,0,20.2,94.1a5.716,5.716,0,0,0-5.141.57,1.823,1.823,0,0,0-.9,1.6l.994,8.906a1.819,1.819,0,0,0,1.23,1.362,5.716,5.716,0,0,0,5.141-.575,1.724,1.724,0,0,0,.862-1.725l-.966-8.647Z" transform="translate(-0.476 -0.311)" opacity="0.05"/>
      <g id="Group_13273" data-name="Group 13273" transform="translate(18.023 96.956)" opacity="0.3">
        <path id="Path_15141" data-name="Path 15141" d="M21.166,106.2a3.577,3.577,0,0,0,.363-.226,2.764,2.764,0,0,0,.3-.254l-.943-8.453-.712.08.99,8.854Z" transform="translate(-18.499 -97.27)" fill="#fff"/>
        <path id="Path_15142" data-name="Path 15142" d="M20.53,106.5l-.942-8.632-1.088.122.985,8.807a6.311,6.311,0,0,0,1.046-.3h0Z" transform="translate(-18.499 -97.27)" fill="#fff"/>
      </g>
      <path id="Path_15143" data-name="Path 15143" d="M16.388,106.539a3.53,3.53,0,0,0,.594.2c-.415-3.713-.942-8.651-1.164-10.409a4.034,4.034,0,0,0-.532.33,1.823,1.823,0,0,0-.9,1.6l.773,6.912a1.819,1.819,0,0,0,1.23,1.362h0Z" transform="translate(-0.476 -0.313)" opacity="0.1"/>
      <path id="Path_15144" data-name="Path 15144" d="M10.96,92.874c-3.3,2.445-2.95,5.767.825,7.421a14.353,14.353,0,0,0,12.85-1.414c3.322-2.422,2.964-5.786-.806-7.44A14.339,14.339,0,0,0,10.96,92.874h0Z" transform="translate(-0.476 -0.293)" fill="#263238"/>
      <path id="Path_15145" data-name="Path 15145" d="M10.87,92.068c-3.3,2.445-2.95,5.763.825,7.417a14.338,14.338,0,0,0,12.85-1.414c3.322-2.427,2.954-5.767-.825-7.421a14.321,14.321,0,0,0-12.85,1.418h0Z" transform="translate(-0.476 -0.291)" fill="#37474f"/>
      <path id="Path_15146" data-name="Path 15146" d="M20.487,37.536c-.141-1.235-1.164-2.356-3.044-3.115A15.486,15.486,0,0,0,4.6,35.835c-1.673,1.136-2.422,2.469-2.285,3.7L8.547,95.376c.151,1.343,1.187,2.587,3.072,3.411a14.354,14.354,0,0,0,12.85-1.414c1.659-1.225,2.4-2.667,2.248-4.01L20.487,37.536Z" transform="translate(-0.476 -0.165)" fill="#ff2d2d"/>
      <path id="Path_15147" data-name="Path 15147" d="M4.189,43.86c4.533,1.984,11.436,1.211,15.4-1.739a9.113,9.113,0,0,0,1.268-1.126l-.386-3.477c-.141-1.235-1.164-2.356-3.044-3.115A15.485,15.485,0,0,0,4.58,35.816c-1.673,1.136-2.422,2.469-2.285,3.7L2.686,43a8.825,8.825,0,0,0,1.5.862Z" transform="translate(-0.476 -0.092)" fill="#ff2d2d"/>
      <path id="Path_15148" data-name="Path 15148" d="M4,43.889C8.535,45.873,15.438,45.1,19.4,42.15a9.113,9.113,0,0,0,1.268-1.126l-.386-3.477c-.141-1.235-1.164-2.356-3.044-3.115A15.485,15.485,0,0,0,4.393,35.845c-1.673,1.136-2.422,2.469-2.285,3.7L2.5,43.027a8.825,8.825,0,0,0,1.5.862H4Z" transform="translate(-0.476 -0.092)" fill="#fff" opacity="0.2"/>
      <path id="Path_15149" data-name="Path 15149" d="M10.8,91.446c-1.659,1.22-2.394,2.662-2.248,4.005s1.187,2.587,3.072,3.411a14.354,14.354,0,0,0,12.85-1.414c1.659-1.225,2.4-2.667,2.248-4.01s-1.183-2.582-3.072-3.411-4.514-3.251-6.837-2.992-4.349,3.185-6.013,4.41h0Z" transform="translate(-0.476 -0.285)" fill="#455a64"/>
      <path id="Path_15150" data-name="Path 15150" d="M11.2,95.838c.118-1.838,2.3-3,3.383-5.471,1.046-2.394,2.017-3.242,3.209-3.327a3.816,3.816,0,0,0-.98-.038c-2.328.259-4.349,3.2-6.012,4.429s-2.394,2.662-2.248,4.005,1.187,2.587,3.072,3.411A14.217,14.217,0,0,0,24.5,97.393c-8.538,4-13.425.391-13.3-1.555h0Z" transform="translate(-0.476 -0.285)" opacity="0.2"/>
      <path id="Path_15151" data-name="Path 15151" d="M10.8,91.446c-1.659,1.22-2.394,2.662-2.248,4.005s1.187,2.587,3.072,3.411a14.354,14.354,0,0,0,12.85-1.414c1.659-1.225,2.4-2.667,2.248-4.01s-1.183-2.582-3.072-3.411-4.514-3.251-6.837-2.992-4.349,3.185-6.013,4.41h0Z" transform="translate(-0.476 -0.285)" fill="#ff2d2d"/>
      <path id="Path_15152" data-name="Path 15152" d="M23.253,98.128a9.751,9.751,0,0,0,1.216-.749,7.415,7.415,0,0,0,1.183-1.069l-6.6-58.9-2.568.287,6.766,60.431Z" transform="translate(-0.476 -0.174)" fill="#fff" opacity="0.3"/>
      <path id="Path_15153" data-name="Path 15153" d="M20.775,99.136q.693-.207,1.343-.471L15.441,38.846,14.065,39Z" transform="translate(-0.476 -0.181)" fill="#fff" opacity="0.3"/>
      <path id="Path_15154" data-name="Path 15154" d="M23.178,98.194c-6.215,2.215-10.569-1.517-10.889-4.41s-5-44.844-5.895-52.873l-3.416-3.5a3.176,3.176,0,0,0-.664,2.177L8.547,95.423c.151,1.343,1.187,2.587,3.072,3.411a14.571,14.571,0,0,0,11.559-.641Z" transform="translate(-0.476 -0.178)" opacity="0.1"/>
      <path id="Path_15155" data-name="Path 15155" d="M4.6,35.859c-3.341,2.276-3,5.329.754,6.814A15.5,15.5,0,0,0,18.2,41.259c3.341-2.257,3-5.329-.759-6.818A15.386,15.386,0,0,0,4.6,35.859h0Z" transform="translate(-0.476 -0.091)" fill="#ff2d2d"/>
      <path id="Path_15156" data-name="Path 15156" d="M4.578,35.829c-3.341,2.276-3,5.329.754,6.814a15.5,15.5,0,0,0,12.85-1.414c3.341-2.257,3-5.329-.759-6.818A15.386,15.386,0,0,0,4.578,35.829Z" transform="translate(-0.476 -0.091)" fill="#fff" opacity="0.3"/>
      <path id="Path_15157" data-name="Path 15157" d="M16.19,32a2.719,2.719,0,0,0-1.847-2.045,8.569,8.569,0,0,0-7.709.858,2.782,2.782,0,0,0-1.348,2.4l.664,5.937A2.721,2.721,0,0,0,7.793,41.2a8.566,8.566,0,0,0,7.709-.858,2.726,2.726,0,0,0,1.352-2.4L16.19,32Z" transform="translate(-0.476 -0.078)" fill="#407bff"/>
      <path id="Path_15158" data-name="Path 15158" d="M16.19,32a2.719,2.719,0,0,0-1.847-2.045,8.569,8.569,0,0,0-7.709.858,2.782,2.782,0,0,0-1.348,2.4l.664,5.937A2.721,2.721,0,0,0,7.793,41.2a8.566,8.566,0,0,0,7.709-.858,2.726,2.726,0,0,0,1.352-2.4L16.19,32Z" transform="translate(-0.476 -0.078)" fill="#fff" opacity="0.7"/>
      <path id="Path_15159" data-name="Path 15159" d="M15.215,40.519c.094-.061.2-.108.287-.174a4.457,4.457,0,0,0,.7-.641l-.942-8.481L14.2,31.34l1.018,9.179Z" transform="translate(-0.476 -0.082)" fill="#fff" opacity="0.4"/>
      <path id="Path_15160" data-name="Path 15160" d="M13.867,41.178a7.068,7.068,0,0,0,.745-.32l-1-8.952-.773.085,1.027,9.188Z" transform="translate(-0.476 -0.084)" fill="#fff" opacity="0.4"/>
      <path id="Path_15161" data-name="Path 15161" d="M7.93,39.11c-.094-.848-.165-1.494-.514-4.622L6,31.368a2.356,2.356,0,0,0-.73,1.852l.664,5.937A2.72,2.72,0,0,0,7.779,41.2a8.566,8.566,0,0,0,7.709-.858,4.457,4.457,0,0,0,.7-.641c-3.2,2.351-8.058,1.22-8.26-.594Z" transform="translate(-0.476 -0.083)" fill="#407bff"/>
      <path id="Path_15162" data-name="Path 15162" d="M6.634,30.812c-1.988,1.47-1.767,3.464.5,4.453a8.569,8.569,0,0,0,7.709-.862c1.993-1.47,1.767-3.459-.5-4.448a8.6,8.6,0,0,0-7.709.858h0Z" transform="translate(-0.476 -0.074)" fill="#407bff"/>
      <path id="Path_15163" data-name="Path 15163" d="M6.634,30.812c-1.988,1.47-1.767,3.464.5,4.453a8.569,8.569,0,0,0,7.709-.862c1.993-1.47,1.767-3.459-.5-4.448a8.6,8.6,0,0,0-7.709.858h0Z" transform="translate(-0.476 -0.074)" fill="#fff" opacity="0.8"/>
      <path id="Path_15164" data-name="Path 15164" d="M11.775,25.426a4.052,4.052,0,0,0-3.633.405,1.286,1.286,0,0,0-.636,1.136L8.17,32.9a1.286,1.286,0,0,0,.867.942,4.048,4.048,0,0,0,3.638-.405,1.286,1.286,0,0,0,.631-1.136l-.66-5.932a1.291,1.291,0,0,0-.872-.942h0Z" transform="translate(-0.476 -0.06)" fill="#407bff"/>
      <path id="Path_15165" data-name="Path 15165" d="M11.775,25.426a4.052,4.052,0,0,0-3.633.405,1.286,1.286,0,0,0-.636,1.136L8.17,32.9a1.286,1.286,0,0,0,.867.942,4.048,4.048,0,0,0,3.638-.405,1.286,1.286,0,0,0,.631-1.136l-.66-5.932a1.291,1.291,0,0,0-.872-.942h0Z" transform="translate(-0.476 -0.06)" fill="#fff" opacity="0.7"/>
      <path id="Path_15166" data-name="Path 15166" d="M11.992,33.823a3.143,3.143,0,0,0,.683-.363c.042-.033.071-.066.113-.1l-.74-6.521-.834.094.777,6.894Z" transform="translate(-0.476 -0.065)" fill="#fff" opacity="0.4"/>
      <path id="Path_15167" data-name="Path 15167" d="M10.9,34.111a5.049,5.049,0,0,0,.6-.113l-.735-6.6-.608.071.74,6.639Z" transform="translate(-0.476 -0.067)" fill="#fff" opacity="0.4"/>
      <path id="Path_15168" data-name="Path 15168" d="M13.1,33.022a2.794,2.794,0,0,1-3,.424c-.942-.471-.942-1.121-1.037-2.149s-.292-2.61-.518-4.622L7.869,26.1a1.126,1.126,0,0,0-.363.891l.664,5.932a1.286,1.286,0,0,0,.867.942,4.048,4.048,0,0,0,3.638-.405,1.848,1.848,0,0,0,.424-.438Z" transform="translate(-0.476 -0.063)" fill="#407bff"/>
      <path id="Path_15169" data-name="Path 15169" d="M8.142,25.831a1.116,1.116,0,0,0,.235,2.1,4.038,4.038,0,0,0,3.633-.41,1.113,1.113,0,0,0-.235-2.1,4.052,4.052,0,0,0-3.633.406h0Z" transform="translate(-0.476 0.028)" fill="#407bff"/>
      <path id="Path_15170" data-name="Path 15170" d="M8.142,25.831a1.116,1.116,0,0,0,.235,2.1,4.038,4.038,0,0,0,3.633-.41,1.113,1.113,0,0,0-.235-2.1,4.052,4.052,0,0,0-3.633.406h0Z" transform="translate(-0.476 0.028)" fill="#fff" opacity="0.8"/>
      <path id="Path_15171" data-name="Path 15171" d="M9.692,26.416a4.476,4.476,0,0,1-.123-.844l-.33-3.025c-.132-1.253-.306-2.714-.471-4.279l-.457-4.891L7.431,4.161c-.118-1.253-.222-2.3-.288-3.029C7.105.764,7.077.476,7.058.283s0-.306.038-.311.08.1.1.292.061.471.108.848c.09.73.226,1.772.382,3.02.32,2.5.744,5.829,1.169,9.165.207,1.663.415,3.331.613,4.9s.349,3.02.471,4.274.264,2.295.349,3.025a4.439,4.439,0,0,1,.066.848.471.471,0,0,1-.662.077l0,0h0Z" transform="translate(-0.476 0.028)" fill="#455a64"/>
      <path id="Path_15172" data-name="Path 15172" d="M17.811,34.582c3.19,1.781,2.45,4.439-.372,6.474S9.165,43.582,7.237,43.2A15.68,15.68,0,0,0,18.2,41.235c3.223-2.2,3.011-5.113-.391-6.653h0Z" transform="translate(-0.476 -0.093)" fill="#fff" opacity="0.5"/>
      <path id="Path_15173" data-name="Path 15173" d="M25.713,108.786c-4.066,2.262-10.079,2.728-14.174.942-2.092-.942-3.3-2.271-3.619-3.741H7.888L.5,39.765c.179,1.616,1.414,3.11,3.69,4.1l6.8,60.926c.372,3.369,5.466,6.536,14.72,4h0Z" transform="translate(-0.476 -0.213)" fill="#407bff"/>
      <path id="Path_15174" data-name="Path 15174" d="M9.07,44.948a17.014,17.014,0,0,0,10.536-2.794c3.981-2.936,3.539-6.922-.994-8.9a11.351,11.351,0,0,0-1.239-.471c2.389.867,4.924,3.077,4.118,5.97s-5.5,6.05-12.421,6.2h0Z" transform="translate(-0.476 -0.09)" fill="#fff" opacity="0.3"/>
      <path id="Path_15175" data-name="Path 15175" d="M22.3,37.329l7.393,66.222h-.033c.024,1.5-.858,3.086-2.7,4.443l-.264.179c2.954-2.6,2.172-4.891,1.767-8.482L21.774,39.765a4.109,4.109,0,0,0,.528-2.436h0Z" transform="translate(-0.476 -0.198)" fill="#fff" opacity="0.4"/>
      <path id="Path_15176" data-name="Path 15176" d="M14.343,29.959c-.066-.033-.141-.047-.212-.075,1.126.58,2.2,1.885,1.211,3.346S10.3,36.561,6.1,34.643a3.892,3.892,0,0,0,1.032.636,8.568,8.568,0,0,0,7.709-.862c1.993-1.47,1.767-3.468-.5-4.457Z" transform="translate(-0.476 -0.075)" fill="#fff" opacity="0.3"/>
      <path id="Path_15177" data-name="Path 15177" d="M11.775,25.426a3.077,3.077,0,0,0-.716-.2c.716.235,1.465.872,1.2,1.583-.226.613-1.71,1.758-4.062,1.022a2.033,2.033,0,0,0,.179.1,4.038,4.038,0,0,0,3.633-.41,1.113,1.113,0,0,0-.236-2.1Z" transform="translate(-0.476 0.028)" fill="#fff" opacity="0.3"/>
      <path id="Path_15178" data-name="Path 15178" d="M30.9,143.429c-.335-.146-.688-.273-1.051-.391,6.851,2.332,4.316,8.406-1.621,10.512-6.05,2.144-12.166.415-13.806-.759a8.2,8.2,0,0,0,2.054,1.258,17.133,17.133,0,0,0,15.418-1.72c3.982-2.936,3.553-6.936-.994-8.9Z" transform="translate(-0.476 -0.489)" fill="#fff" opacity="0.4"/>
    </g>
  </g>
</svg>
