<svg xmlns="http://www.w3.org/2000/svg" width="141.571" height="170" viewBox="0 0 141.571 170">
  <g id="tele-consult" transform="translate(-0.079 -0.269)">
    <g id="Group_13275" data-name="Group 13275" transform="translate(93.127 105.452)">
      <circle id="Ellipse_71" data-name="Ellipse 71" cx="15.27" cy="15.27" r="15.27" transform="translate(0.193 0.188)" fill="#fff"/>
      <path id="Path_15179" data-name="Path 15179" d="M107.533,135.409a15.458,15.458,0,1,1,15.453-15.463v.006a15.458,15.458,0,0,1-15.453,15.457Zm0-30.535a15.082,15.082,0,1,0,15.082,15.082h0a15.082,15.082,0,0,0-15.082-15.08h0Z" transform="translate(-92.07 -104.493)" fill="#bfd5ff"/>
      <path id="Path_15180" data-name="Path 15180" d="M105.075,111.295h4.916v17.314h-4.916V111.3Z" transform="translate(-92.07 -104.493)" fill="#ff2d2d"/>
      <path id="Path_15181" data-name="Path 15181" d="M116.19,117.5v4.916H98.876V117.5Z" transform="translate(-92.07 -104.493)" fill="#ff2d2d"/>
    </g>
    <g id="Group_13276" data-name="Group 13276" transform="translate(0.08 0.269)">
      <path id="Path_15182" data-name="Path 15182" d="M4.095,4.525l-.328-.352a14.822,14.822,0,0,1,8.1-3.9l.068.482A14.335,14.335,0,0,0,4.095,4.525h0Z" transform="translate(-0.08 -0.269)" fill="#bfd5ff"/>
      <path id="Path_15183" data-name="Path 15183" d="M.528,9.793.08,9.62A14.831,14.831,0,0,1,2.007,6.178l.385.289A14.576,14.576,0,0,0,.528,9.793Z" transform="translate(-0.08 -0.269)" fill="#bfd5ff"/>
      <circle id="Ellipse_72" data-name="Ellipse 72" cx="13.226" cy="13.226" r="13.226" transform="translate(0.67 1.538)" fill="#bfd5ff"/>
      <path id="Path_15184" data-name="Path 15184" d="M21.876,9.075a5.524,5.524,0,0,0-7.811-.146L13.991,9A5.519,5.519,0,0,0,6.185,9l-.076.077a5.644,5.644,0,0,0,.2,7.866l6.266,6.266a2.024,2.024,0,0,0,2.863,0h0L21.7,16.941a5.644,5.644,0,0,0,.174-7.866Z" transform="translate(-0.08 -0.269)" fill="#ff2d2d"/>
      <path id="Path_15185" data-name="Path 15185" d="M13.976,20.812a.482.482,0,0,1-.439-.323l-2.791-8.16L9.58,15.741a.482.482,0,0,1-.458.323H4.451a.482.482,0,0,1,0-.964H8.789L10.3,10.68a.482.482,0,0,1,.911,0l2.839,8.3,2.757-6.493a.48.48,0,0,1,.863-.048L19.128,15.1h4.391a.482.482,0,0,1,0,.964H18.849a.482.482,0,0,1-.424-.246L17.282,13.77l-2.863,6.748a.482.482,0,0,1-.443.294h0Z" transform="translate(-0.08 -0.269)" fill="#bfd5ff"/>
    </g>
    <path id="Path_15186" data-name="Path 15186" d="M87.361,153.351H37.054a5.936,5.936,0,0,1-5.975-5.9q0-.262.017-.524L39.228,25.279a6.988,6.988,0,0,1,6.82-6.447H96.365a5.936,5.936,0,0,1,5.977,5.9q0,.275-.019.55L94.176,146.928a6.983,6.983,0,0,1-6.815,6.423h0Z" transform="translate(0.473 0)" fill="#263238"/>
    <path id="Path_15187" data-name="Path 15187" d="M98.515,67.9H97.247a1.649,1.649,0,0,1-1.668-1.628q0-.078.005-.155l1.557-23.035a1.928,1.928,0,0,1,1.9-1.783h1.268a1.648,1.648,0,0,1,1.668,1.628q0,.078-.005.155l-1.557,23.035a1.928,1.928,0,0,1-1.9,1.783Z" transform="translate(0.752 0.366)" fill="#263238"/>
    <path id="Path_15188" data-name="Path 15188" d="M38.5,52.538H37.232a1.35,1.35,0,0,1-1.367-1.332q0-.057,0-.114l.564-8.319a1.591,1.591,0,0,1,1.557-1.446h1.268a1.354,1.354,0,0,1,1.362,1.346q0,.05,0,.1l-.564,8.319A1.585,1.585,0,0,1,38.5,52.538h0Z" transform="translate(0.278 0.331)" fill="#407bff"/>
    <path id="Path_15189" data-name="Path 15189" d="M37.493,67.393H36.225a1.35,1.35,0,0,1-1.363-1.337q0-.055,0-.109l.564-8.319a1.591,1.591,0,0,1,1.557-1.446h1.277a1.354,1.354,0,0,1,1.362,1.347q0,.05,0,.1l-.564,8.319a1.585,1.585,0,0,1-1.567,1.446h0Z" transform="translate(0.271 0.45)" fill="#407bff"/>
    <path id="Path_15190" data-name="Path 15190" d="M86.3,153.351H35.989a5.936,5.936,0,0,1-5.975-5.9q0-.262.017-.524L38.167,25.278a6.988,6.988,0,0,1,6.845-6.428H95.3a5.936,5.936,0,0,1,5.975,5.9q0,.265-.017.529L93.116,146.928a6.983,6.983,0,0,1-6.82,6.423h0Z" transform="translate(0.457)" fill="#bfd5ff"/>
    <path id="Path_15191" data-name="Path 15191" d="M30.144,144.377,38.087,26.786H100.3L92.351,144.377Z" transform="translate(0.451 1.269)" fill="#fff" opacity="0.3"/>
    <path id="Path_15192" data-name="Path 15192" d="M55.12,144.37l22.2-117.591H91.256L69.055,144.37H55.12Z" transform="translate(0.557 1.269)" fill="#bfd5ff" opacity="0.1"/>
    <path id="Path_15193" data-name="Path 15193" d="M44.593,144.37l22.2-117.591h7.061L51.654,144.37H44.593Z" transform="translate(0.423 1.269)" fill="#fff" opacity="0.1"/>
    <path id="Path_15194" data-name="Path 15194" d="M63.878,21.805H76.01a.723.723,0,0,1,.733.786.858.858,0,0,1-.839.79H63.772a.728.728,0,0,1-.735-.72q0-.035,0-.07a.853.853,0,0,1,.839-.786h0Z" transform="translate(0.525)" fill="#ff2d2d"/>
    <path id="Path_15195" data-name="Path 15195" d="M61.352,163.674l-4.251.4-1.533-9.809,4.251-.41Z" transform="translate(0.435 1.269)" fill="#ffb573"/>
    <path id="Path_15196" data-name="Path 15196" d="M56.614,162l4.454-1.383a.313.313,0,0,1,.4.183l1.446,3.533a.733.733,0,0,1-.425.945l-.056.019a34.925,34.925,0,0,0-5.085,1.446c-2.27.964-3.22,2.256-5.664,2.256-1.75,0-2.145-1.605-1.4-1.827,3.374-1.022,2.931-1.861,5.379-4.5a2.256,2.256,0,0,1,.959-.674h0Z" transform="translate(0.413 1.269)" fill="#263238"/>
    <path id="Path_15197" data-name="Path 15197" d="M55.568,154.27l.791,5.061,4.256-.41-.79-5.061-4.256.41Z" transform="translate(0.433 1.269)" opacity="0.2"/>
    <path id="Path_15198" data-name="Path 15198" d="M58.643,30.327a54.049,54.049,0,0,0-16.692.863,4.449,4.449,0,0,0-3.572,3.856c-.6,5.331-1.292,17.28,1.4,35.1l22.789-1.928c.044-3.234-2.256-17.969-.357-33.258a4.083,4.083,0,0,0-3.459-4.623l-.108-.014h0Z" transform="translate(0.344 0.293)" fill="#fff"/>
    <path id="Path_15199" data-name="Path 15199" d="M45.374,34.9l.815,1.629a.482.482,0,0,0,.429.28l.882.048a.684.684,0,0,0,.439-.135l1.518-1.133-1.875-1.364-2.208.675Z" transform="translate(0.351 0.259)" fill="#263238"/>
    <path id="Path_15200" data-name="Path 15200" d="M47.528,36.386A1.485,1.485,0,0,0,46.5,36.3a80.134,80.134,0,0,0-1.585,13.014c2.179,6.348,2.892,6.989,2.892,6.989l1.1-7.64s-1.239-7.813-1.384-12.281Z" transform="translate(0.347 0.307)" fill="#263238"/>
    <path id="Path_15201" data-name="Path 15201" d="M53.818,19.337c-.521,3.143-.964,8.883,1.292,10.913-1.653,1.735-3.818,3.745-7.529,3.972s-3.138-2.343-2.2-3.716C48.849,29.58,48.68,27,48,24.581l5.818-5.244Z" transform="translate(0.362)" fill="#ffb573"/>
    <path id="Path_15202" data-name="Path 15202" d="M56.055,29.975a4.628,4.628,0,0,0-.815-.265.323.323,0,0,0-.361.149c-.357.607-1.446,3.321-7.3,4.362A12.128,12.128,0,0,1,50.372,37.4c1.755-.911,6.319-3.634,5.885-7.158a.357.357,0,0,0-.2-.27h0Z" transform="translate(0.381 0.232)" fill="#f5f5f5"/>
    <path id="Path_15203" data-name="Path 15203" d="M45.417,30.65a.337.337,0,0,0-.4-.4,4.53,4.53,0,0,0-.6.159.482.482,0,0,0-.125.072c-.448.414-2.892,3.943-.6,6.8a8.343,8.343,0,0,1,3.885-3.051,3.238,3.238,0,0,1-2.164-3.572Z" transform="translate(0.332 0.235)" fill="#f5f5f5"/>
    <path id="Path_15204" data-name="Path 15204" d="M51.447,21.477l-3.442,3.1a9.939,9.939,0,0,1,.347,1.716c1.33-.227,3.118-1.735,3.215-3.133a4.569,4.569,0,0,0-.121-1.687h0Z" transform="translate(0.37)" opacity="0.2"/>
    <path id="Path_15205" data-name="Path 15205" d="M46.848,9.837c-2.969,1.162-3.162,3.6-2.892,6.266s3.172.9,3.818-.766,3.186-7.11-.925-5.5Z" transform="translate(0.342)" fill="#263238"/>
    <path id="Path_15206" data-name="Path 15206" d="M56.32,15.153c-.824,4.2-1.1,6.69-3.5,8.623a5.521,5.521,0,0,1-8.956-3.933c-.39-3.9,1.022-10.122,5.346-11.337a5.649,5.649,0,0,1,7.11,6.647h0Z" transform="translate(0.361)" fill="#ffb573"/>
    <path id="Path_15207" data-name="Path 15207" d="M56.147,18.629c-3.533.188-2.786-1.817-2.145-2.969s-.665-3.056.188-4.044c-1.523.607-3.128.106-5.167-1.311-1.581-1.1-3.562,3.307-5.49,1.094-1.822-2.087-.13-5.235,4.246-5.741s5.172,2.588,8.045,2.314,1.875,2.092,1.311,2.574c2.41.159,3.726,2.463-.988,8.084Z" transform="translate(0.364)" fill="#263238"/>
    <path id="Path_15208" data-name="Path 15208" d="M56.58,10.839a3.538,3.538,0,0,0,1.836-3.08C59.371,9.432,59.27,11.331,56.58,10.839Z" transform="translate(0.432)" fill="#263238"/>
    <path id="Path_15209" data-name="Path 15209" d="M47.422,19.636a2.892,2.892,0,0,0,2.207-.521.1.1,0,0,0,0-.136l0,0a.1.1,0,0,0-.14,0,2.781,2.781,0,0,1-2.453.381.111.111,0,0,0-.13.068.1.1,0,0,0,.068.125,2.549,2.549,0,0,0,.449.087h0Z" transform="translate(0.359)" fill="#263238"/>
    <path id="Path_15210" data-name="Path 15210" d="M57.173,19.916a4.107,4.107,0,0,1-2.694,1.552c-1.4.183-1.87-1.123-1.282-2.343.535-1.1,1.928-2.516,3.22-2.135a1.793,1.793,0,0,1,.757,2.926h0Z" transform="translate(0.411)" fill="#ffb573"/>
    <path id="Path_15211" data-name="Path 15211" d="M55.78,111.193c.168-12.585,1.778-42.561,1.778-42.561l-17.767,1.5s3.533,30.892,5.664,43.733c2.217,13.347,9.018,44.615,9.018,44.615l7.23-.617s-2.641-36.936-5.923-46.668h0Z" transform="translate(0.354 1.269)" fill="#263238"/>
    <path id="Path_15212" data-name="Path 15212" d="M54.04,158.676l8.575-.728-.338-2.767-8.936.6.7,2.9Z" transform="translate(0.429 1.269)" fill="#ff2d2d"/>
    <path id="Path_15213" data-name="Path 15213" d="M49.986,15.4c-.044.342-.265.6-.482.578s-.366-.323-.318-.67.265-.6.482-.578S50.035,15.062,49.986,15.4Z" transform="translate(0.371)" fill="#263238"/>
    <path id="Path_15214" data-name="Path 15214" d="M46.053,15.1c-.044.347-.265.6-.482.578s-.366-.323-.318-.665.265-.6.482-.578S46.1,14.734,46.053,15.1Z" transform="translate(0.342)" fill="#263238"/>
    <path id="Path_15215" data-name="Path 15215" d="M47.162,15.5a11.963,11.963,0,0,1-2.073,2.41,2.1,2.1,0,0,0,1.567.39l.506-2.8Z" transform="translate(0.343)" fill="#ed893e"/>
    <path id="Path_15216" data-name="Path 15216" d="M43.566,15.182c-.072.549.482,1.007,1.248,1.1a1.312,1.312,0,0,0,1.542-.872" transform="translate(0.334)" fill="#407bff" opacity="0.4"/>
    <path id="Path_15217" data-name="Path 15217" d="M48.121,15.693c-.106.545.429,1.036,1.181,1.181a1.318,1.318,0,0,0,1.591-.781" transform="translate(0.368)" fill="#407bff" opacity="0.4"/>
    <path id="Path_15218" data-name="Path 15218" d="M49.6,17.024a2.353,2.353,0,0,1-.26,0,1.832,1.832,0,0,1-1-.448A1,1,0,0,1,48,15.722a2.41,2.41,0,0,0-.771-.193,1.682,1.682,0,0,0-.815,0c-.067.588-.8.993-1.62.892a1.793,1.793,0,0,1-1-.443,1.012,1.012,0,0,1-.347-.853l.231.029a.776.776,0,0,0,.275.656,1.562,1.562,0,0,0,.867.381c.694.092,1.311-.231,1.374-.713.034-.27.593-.251,1.056-.193s1.012.188.964.453a.771.771,0,0,0,.275.656,1.658,1.658,0,0,0,1.807.231.771.771,0,0,0,.434-.564v-.116l5.948.766-.029.231L50.921,16.2a1.036,1.036,0,0,1-.53.622,1.7,1.7,0,0,1-.79.2h0Z" transform="translate(0.36)" fill="#263238"/>
    <path id="Path_15219" data-name="Path 15219" d="M51.5,13.891a.173.173,0,0,0,.1-.029.207.207,0,0,0,.077-.28A1.928,1.928,0,0,0,50.16,12.57a.207.207,0,0,0-.217.193.2.2,0,0,0,.188.212,1.547,1.547,0,0,1,1.191.819.2.2,0,0,0,.178.1h0Z" transform="translate(0.38)" fill="#263238"/>
    <path id="Path_15220" data-name="Path 15220" d="M44.781,13.346a.207.207,0,0,0,.178-.072,1.644,1.644,0,0,1,1.33-.646.2.2,0,0,0,.222-.181v0a.2.2,0,0,0-.17-.221h0a2.073,2.073,0,0,0-1.687.8.2.2,0,0,0,.024.284.245.245,0,0,0,.106.043h0Z" transform="translate(0.339)" fill="#263238"/>
    <path id="Path_15221" data-name="Path 15221" d="M70.583,109.164c-3.688-18.952-4.516-33.774-8.016-40.971L45.355,70.121s10.252,28.241,15.26,40.3c5.2,12.532,15.468,33.943,15.468,33.943h8.6s-8.025-26.563-14.1-35.2Z" transform="translate(0.473 1.269)" fill="#263238"/>
    <path id="Path_15222" data-name="Path 15222" d="M16.024,37.417l-1.861-1.176a1.552,1.552,0,0,0-1.957.227L10.944,37.8A1.446,1.446,0,0,0,11,39.842q.034.032.07.062l.9.771a7.351,7.351,0,0,0,2.685,1.446l2.723.8L19.167,41c.544-2.01-3.143-3.581-3.143-3.581Z" transform="translate(0 0.28)" fill="#ffb573"/>
    <path id="Path_15223" data-name="Path 15223" d="M43.566,36.516c-.674,1.649-1.335,3.181-2.053,4.748s-1.446,3.114-2.251,4.651-1.663,3.066-2.637,4.6A26.438,26.438,0,0,1,35,52.8a14.625,14.625,0,0,1-2.217,2.3,7.959,7.959,0,0,1-1.778,1.1c-.2.077-.39.154-.612.222l-.337.092a4.023,4.023,0,0,1-.516.092,4.819,4.819,0,0,1-1.755-.125,7.143,7.143,0,0,1-2.015-.921,11.565,11.565,0,0,1-1.326-.964,31.674,31.674,0,0,1-3.832-3.986c-1.123-1.35-2.183-2.7-3.2-4.087s-2-2.743-3-4.193l5.331-3.442a71.9,71.9,0,0,0,5.572,7.784,26.238,26.238,0,0,0,3.07,3.176,6.057,6.057,0,0,0,.68.482c.178.12.357.169.231.125a1.233,1.233,0,0,0-.521-.029,1.144,1.144,0,0,0-.207.039H28.5a2.917,2.917,0,0,0,.313-.236,8.892,8.892,0,0,0,1.191-1.321c.41-.549.819-1.166,1.21-1.807A44.207,44.207,0,0,0,33.4,42.984c.674-1.446,1.326-2.892,1.928-4.4S36.5,35.556,36.987,34.1l6.579,2.42Z" transform="translate(0 0.294)" fill="#407bff"/>
    <g id="Group_13277" data-name="Group 13277" transform="translate(14.415 34.389)" opacity="0.6">
      <path id="Path_15224" data-name="Path 15224" d="M43.566,36.516c-.674,1.649-1.335,3.181-2.053,4.748s-1.446,3.114-2.251,4.651-1.663,3.066-2.637,4.6A26.438,26.438,0,0,1,35,52.8a14.625,14.625,0,0,1-2.217,2.3,7.959,7.959,0,0,1-1.778,1.1c-.2.077-.39.154-.612.222l-.337.092a4.023,4.023,0,0,1-.516.092,4.819,4.819,0,0,1-1.755-.125,7.143,7.143,0,0,1-2.015-.921,11.565,11.565,0,0,1-1.326-.964,31.674,31.674,0,0,1-3.832-3.986c-1.123-1.35-2.183-2.7-3.2-4.087s-2-2.743-3-4.193l5.331-3.442a71.9,71.9,0,0,0,5.572,7.784,26.238,26.238,0,0,0,3.07,3.176,6.057,6.057,0,0,0,.68.482c.178.12.357.169.231.125a1.233,1.233,0,0,0-.521-.029,1.144,1.144,0,0,0-.207.039H28.5a2.917,2.917,0,0,0,.313-.236,8.892,8.892,0,0,0,1.191-1.321c.41-.549.819-1.166,1.21-1.807A44.207,44.207,0,0,0,33.4,42.984c.674-1.446,1.326-2.892,1.928-4.4S36.5,35.556,36.987,34.1l6.579,2.42Z" transform="translate(-14.415 -34.096)" fill="#19468b"/>
    </g>
    <path id="Path_15225" data-name="Path 15225" d="M56.185,29.117c-1.807,3.374-8.243,16.229-9.023,24.163-2.849-7.23-2.227-23.223-2.227-23.223A21.417,21.417,0,0,0,39.021,31.5a3.572,3.572,0,0,0-2.2,3.017A126.318,126.318,0,0,0,37.6,59.329c2,15.569,3.856,39.78,3.856,39.78s15.93-.665,28.222-3.258C68.177,83.95,63.048,64,63,58.664c-.058-6.873.1-20.312.318-25.922a3.321,3.321,0,0,0-2.661-3.407,16.663,16.663,0,0,0-4.473-.217h0Z" transform="translate(0.359 0.37)" fill="#407bff"/>
    <path id="Path_15226" data-name="Path 15226" d="M56.185,29.117c-1.807,3.374-8.243,16.229-9.023,24.163-2.849-7.23-2.227-23.223-2.227-23.223A21.417,21.417,0,0,0,39.021,31.5a3.572,3.572,0,0,0-2.2,3.017A126.319,126.319,0,0,0,37.6,59.329c2,15.569,3.856,39.78,3.856,39.78s15.93-.665,28.222-3.258C68.177,83.95,63.048,64,63,58.664c-.058-6.873.1-20.317.318-25.927a3.268,3.268,0,0,0-2.511-3.374,16.538,16.538,0,0,0-4.623-.246h0Z" transform="translate(0.359 0.37)" fill="#19468b" opacity="0.7"/>
    <path id="Path_15227" data-name="Path 15227" d="M52.43,96.526c-2.767-15.265-4.96-37.664-5.138-40.359h.246c.178,2.694,2.376,25.064,5.138,40.33Z" transform="translate(0.369 0.552)" fill="#fff"/>
    <path id="Path_15228" data-name="Path 15228" d="M51.052,69.37H36.36a1.374,1.374,0,0,1-1.272-1.046L30.176,45.491A.819.819,0,0,1,31,44.445H45.682a1.374,1.374,0,0,1,1.277,1.046l4.912,22.833a.819.819,0,0,1-.819,1.046h0Z" transform="translate(0.267 0.39)" fill="#fff"/>
    <path id="Path_15229" data-name="Path 15229" d="M50.594,69.562H35.652a1.4,1.4,0,0,1-1.3-1.065l-5-23.218a.839.839,0,0,1,.839-1.065H45.137a1.4,1.4,0,0,1,1.3,1.065L51.427,68.5a.834.834,0,0,1-.834,1.065h0Z" transform="translate(0.261 0.389)" fill="#ff2d2d"/>
    <path id="Path_15230" data-name="Path 15230" d="M52.3,56.461l-3.716-.14a3.187,3.187,0,0,0-1.306.231l-1.928.771a1.446,1.446,0,0,0-.812,1.877l.022.052.771,1.668a1.562,1.562,0,0,0,1.783.839l2.126-.53s3.991-.318,4.136-2.41L52.3,56.461Z" transform="translate(0.356 0.436)" fill="#ffb573"/>
    <path id="Path_15231" data-name="Path 15231" d="M62.567,31.185c.921,1.446,1.764,2.767,2.593,4.184s1.644,2.82,2.41,4.285,1.494,2.979,2.155,4.6a23.407,23.407,0,0,1,.877,2.6,10.888,10.888,0,0,1,.424,3.311v.188a.94.94,0,0,1,0,.1,2.783,2.783,0,0,1-.082.521c-.034.174-.077.308-.125.482a3.322,3.322,0,0,1-.154.4,5.385,5.385,0,0,1-.7,1.166,8.413,8.413,0,0,1-1.335,1.33,17.551,17.551,0,0,1-2.41,1.6,45.914,45.914,0,0,1-4.589,2.188c-1.518.646-3.032,1.234-4.555,1.788s-3.022,1.089-4.608,1.62l-1.837-6.073c1.446-.4,2.921-.882,4.362-1.374s2.892-1.041,4.261-1.615a37.554,37.554,0,0,0,3.924-1.894A11.324,11.324,0,0,0,64.7,49.564a1.838,1.838,0,0,0,.337-.333.516.516,0,0,0-.1.159.317.317,0,0,1-.048.125,1.143,1.143,0,0,0-.044.174,1.171,1.171,0,0,0-.039.227v-.01a5.667,5.667,0,0,0-.265-1.345,17.382,17.382,0,0,0-.684-1.856,37.644,37.644,0,0,0-2-3.89c-.752-1.292-1.552-2.584-2.41-3.856s-1.735-2.54-2.617-3.7l5.727-4.078Z" transform="translate(0.445 0.283)" fill="#407bff"/>
    <g id="Group_13278" data-name="Group 13278" transform="translate(51.072 31.468)" opacity="0.7">
      <path id="Path_15232" data-name="Path 15232" d="M62.567,31.185c.921,1.446,1.764,2.767,2.593,4.184s1.644,2.82,2.41,4.285,1.494,2.979,2.155,4.6a23.407,23.407,0,0,1,.877,2.6,10.888,10.888,0,0,1,.424,3.311v.188a.94.94,0,0,1,0,.1,2.783,2.783,0,0,1-.082.521c-.034.174-.077.308-.125.482a3.322,3.322,0,0,1-.154.4,5.385,5.385,0,0,1-.7,1.166,8.413,8.413,0,0,1-1.335,1.33,17.551,17.551,0,0,1-2.41,1.6,45.914,45.914,0,0,1-4.589,2.188c-1.518.646-3.032,1.234-4.555,1.788s-3.022,1.089-4.608,1.62l-1.837-6.073c1.446-.4,2.921-.882,4.362-1.374s2.892-1.041,4.261-1.615a37.554,37.554,0,0,0,3.924-1.894A11.324,11.324,0,0,0,64.7,49.564a1.838,1.838,0,0,0,.337-.333.516.516,0,0,0-.1.159.317.317,0,0,1-.048.125,1.143,1.143,0,0,0-.044.174,1.171,1.171,0,0,0-.039.227v-.01a5.667,5.667,0,0,0-.265-1.345,17.382,17.382,0,0,0-.684-1.856,37.644,37.644,0,0,0-2-3.89c-.752-1.292-1.552-2.584-2.41-3.856s-1.735-2.54-2.617-3.7l5.727-4.078Z" transform="translate(-50.627 -31.185)" fill="#19468b"/>
    </g>
    <path id="Path_15233" data-name="Path 15233" d="M57.689,47.91a.193.193,0,0,1-.1-.357l.752-.482A4.1,4.1,0,0,0,60.171,42.8l-1.514-7.664a2.593,2.593,0,0,0-5.042-.212L51.471,42.44a4.083,4.083,0,0,0,1.446,4.406l.714.539a.193.193,0,0,1,.034.27.188.188,0,0,1-.264.035h0l-.674-.535a4.473,4.473,0,0,1-1.605-4.82l2.15-7.515a2.979,2.979,0,0,1,5.784.241l1.513,7.669a4.473,4.473,0,0,1-2,4.666l-.757.482a.159.159,0,0,1-.121.034h0Z" transform="translate(0.411 0.268)" fill="#263238"/>
    <path id="Path_15234" data-name="Path 15234" d="M58.846,35.3l-5.413-.227a.193.193,0,0,1-.183-.2h0a.2.2,0,0,1,.2-.183l5.408.227a.193.193,0,0,1,.183.2h0a.188.188,0,0,1-.192.183h0Z" transform="translate(0.417 0.26)" fill="#263238"/>
    <path id="Path_15235" data-name="Path 15235" d="M56.214,33.05a.2.2,0,0,1-.193-.188c0-.964-.3-2.637-1.2-3a.193.193,0,1,1,.126-.364l.019.008c1.335.549,1.446,3.066,1.446,3.374a.2.2,0,0,1-.188.2l-.01-.024Z" transform="translate(0.416)" fill="#263238"/>
    <path id="Path_15236" data-name="Path 15236" d="M39.657,39.6h-.039a.193.193,0,0,1-.149-.227c.636-3.167,3.268-8.165,5.586-9.64a.188.188,0,0,1,.259.061v0a.183.183,0,0,1-.049.254l-.009.006c-2.241,1.417-4.8,6.266-5.413,9.385a.193.193,0,0,1-.188.159h0Z" transform="translate(0.309 0.235)" fill="#263238"/>
    <path id="Path_15237" data-name="Path 15237" d="M41.238,40.1c-.3.766-.964,1.229-1.446,1.032s-.67-.964-.371-1.75.964-1.229,1.446-1.027.675.979.371,1.745Z" transform="translate(0.299 0.291)" fill="#fff"/>
    <path id="Path_15238" data-name="Path 15238" d="M53.963,47.563c0,.357-.222.641-.458.631s-.419-.308-.4-.67.222-.646.458-.631.419.309.4.67h0Z" transform="translate(0.401 0.353)" fill="#fff"/>
    <path id="Path_15239" data-name="Path 15239" d="M58.118,47.737c0,.357-.217.641-.458.631s-.414-.308-.4-.67.217-.641.482-.631.391.323.376.67Z" transform="translate(0.433 0.355)" fill="#fff"/>
    <path id="Path_15240" data-name="Path 15240" d="M139.857,41.052l-.482-.029a7.428,7.428,0,0,0-6.827-7.984q-.319-.025-.639-.022v-.482a7.9,7.9,0,0,1,7.972,7.838q0,.34-.023.68h0Z" transform="translate(1.056 0.255)" fill="#407bff"/>
    <path id="Path_15241" data-name="Path 15241" d="M139.832,47.063l.279-3.991.482.034-.279,3.991-.482-.034Z" transform="translate(1.056 0.33)" fill="#407bff"/>
    <path id="Path_15242" data-name="Path 15242" d="M131.908,34.222H98.649a7.317,7.317,0,0,0-7.172,6.719l-.3,4.478a6.223,6.223,0,0,0,5.706,6.7q.279.022.56.02H130.7l6.449,3.977,1.022-15.174a6.218,6.218,0,0,0-5.7-6.7q-.282-.023-.565-.02h0Z" transform="translate(1.056 0.293)" fill="#407bff"/>
    <path id="Path_15243" data-name="Path 15243" d="M99.416,40.637h30.805v1.118H99.416V40.637Z" transform="translate(1.056 0.306)" fill="#fff"/>
    <path id="Path_15244" data-name="Path 15244" d="M107.08,44.6h22.871v1.118H107.08Z" transform="translate(1.056 0.336)" fill="#fff"/>
    <path id="Path_15245" data-name="Path 15245" d="M81.876,58.177h33.991a6.358,6.358,0,0,1,6.426,6.288q0,.29-.02.58l-.308,4.579a7.486,7.486,0,0,1-7.332,6.869h-34l-7.143,4.073,1.051-15.521a7.481,7.481,0,0,1,7.332-6.869h0Z" transform="translate(1.056 0.502)" fill="#fff"/>
    <path id="Path_15246" data-name="Path 15246" d="M81.876,58.177h33.991a6.358,6.358,0,0,1,6.426,6.288q0,.29-.02.58l-.308,4.579a7.486,7.486,0,0,1-7.332,6.869h-34l-7.143,4.073,1.051-15.521a7.481,7.481,0,0,1,7.332-6.869h0Z" transform="translate(1.056 0.502)" fill="#407bff" opacity="0.15"/>
    <path id="Path_15247" data-name="Path 15247" d="M82.638,64.737h31.5v1.147h-31.5Z" transform="translate(0.8 0.488)" fill="#ff2d2d" opacity="0.71"/>
    <path id="Path_15248" data-name="Path 15248" d="M82.363,68.791h12.45v1.147H82.363Z" transform="translate(0.679 0.519)" fill="#ff2d2d" opacity="0.71"/>
    <path id="Path_15249" data-name="Path 15249" d="M97.864,68.791h7.953v1.147H97.864Z" transform="translate(0.779 0.519)" fill="#ff2d2d" opacity="0.71"/>
  </g>
</svg>
