<svg xmlns="http://www.w3.org/2000/svg" width="1080" height="323.359"><defs><clipPath id="k"><path data-name="Rectangle 19" fill="#63acdc" d="M0 0h169.066v127.418H0z"/></clipPath><clipPath id="a"><path data-name="Path 54" d="M1223 892.287s-210.41 186.928-468.9 8.762S143 763.774 143 763.774v318.361h1080Z" transform="translate(-143 -759.727)" fill="#bfd5ff"/></clipPath><clipPath id="c"><path data-name="Rectangle 2" fill="#63acdc" d="M0 0h88.602v76.647H0z"/></clipPath><clipPath id="d"><path data-name="Rectangle 3" fill="none" d="M0 0h88.602v76.647H0z"/></clipPath><clipPath id="e"><path data-name="Rectangle 4" fill="#63acdc" d="M0 0h88.602v76.646H0z"/></clipPath><clipPath id="f"><path data-name="Rectangle 5" fill="#63acdc" d="M0 0h88.603v76.647H0z"/></clipPath><clipPath id="g"><path data-name="Rectangle 11" fill="#63acdc" d="M0 0h88.603v76.646H0z"/></clipPath><clipPath id="h"><path data-name="Rectangle 16" fill="none" d="M0 0h243.392v210.655H0z"/></clipPath><clipPath id="i"><path data-name="Rectangle 12" fill="none" d="M0 0h95.214v83.361H0z"/></clipPath><clipPath id="j"><path data-name="Rectangle 13" fill="none" d="M0 0h95.213v83.361H0z"/></clipPath><clipPath id="b"><path data-name="Path 95" d="M1223 891.942s-167.006 101.591-438.176-37.511C519.834 663.234 143 697.093 143 697.093v321.043h1080Z" transform="translate(-18147.313 -13214.778)" fill="#e6efff"/></clipPath><clipPath id="l"><path data-name="Rectangle 17" fill="#63acdc" d="M0 0h95.213v83.361H0z"/></clipPath><clipPath id="m"><path data-name="Rectangle 23" fill="#63acdc" d="M0 0h244.687v127.171H0z"/></clipPath><clipPath id="n"><path data-name="Rectangle 20" fill="#63acdc" d="M0 0h95.214v83.361H0z"/></clipPath><clipPath id="o"><path data-name="Rectangle 31" fill="#1471af" d="M0 0h540.317v481.633H0z"/></clipPath><clipPath id="p"><path data-name="Rectangle 24" fill="#1471af" d="M0 0h124.78v144.244H0z"/></clipPath><clipPath id="q"><path data-name="Rectangle 25" fill="#1471af" d="M0 0h101.784v117.661H0z"/></clipPath><clipPath id="r"><path data-name="Rectangle 29" fill="#1471af" d="M0 0h124.78v144.243H0z"/></clipPath><clipPath id="s"><path data-name="Rectangle 32" fill="none" d="M0 0h51.311v51.368H0z"/></clipPath><clipPath id="t"><path data-name="Rectangle 33" fill="none" d="M0 0h36.347v36.386H0z"/></clipPath><clipPath id="u"><path data-name="Rectangle 34" fill="none" d="M0 0h44.358v44.406H0z"/></clipPath></defs><g data-name="Group 1075"><g data-name="Mask Group 2" transform="translate(0 .951)" clip-path="url(#a)"><path data-name="Path 52" d="M1080 132.56s-187.96 201.588-468.9 8.762S0 4.047 0 4.047v318.361h1080Z" fill="#63acdc"/><path data-name="Path 53" d="M1080 196.56s-219.737 107.7-476.315-68.9S0 2.507 0 2.507v383.9h1080Z" fill="#e6efff"/><path data-name="Path 90" d="m537.019-41.36 206.366 245.937-219.226 183.952-206.366-245.937Z" fill="none"/></g><g data-name="Mask Group 5" transform="translate(18004.313 12520.002)" opacity=".2" clip-path="url(#b)" style="mix-blend-mode:multiply;isolation:isolate"><g data-name="Group 6" opacity=".26" style="mix-blend-mode:multiply;isolation:isolate"><g data-name="Group 5"><g data-name="Group 4" clip-path="url(#c)" transform="translate(-17684.891 -12338.773)"><path data-name="Path 18" d="M66.452 0h-44.3L.001 38.323l22.151 38.324h44.3l22.151-38.324Z" fill="#63acdc"/></g></g></g><g data-name="Group 9" opacity=".25" style="mix-blend-mode:multiply;isolation:isolate"><g data-name="Group 8"><g data-name="Group 7" clip-path="url(#d)" transform="translate(-17758.277 -12463.725)"><path data-name="Path 19" d="M66.452 0h-44.3L.001 38.323l22.151 38.324h44.3l22.151-38.324Z" fill="#83d6db"/></g></g></g><g data-name="Group 12" opacity=".25" style="mix-blend-mode:multiply;isolation:isolate"><g data-name="Group 11"><g data-name="Group 10" clip-path="url(#e)" transform="translate(-17526.199 -12286.938)"><path data-name="Path 20" d="M66.451 0h-44.3L-.001 38.323 22.15 76.647h44.3l22.151-38.324Z" fill="#63acdc"/></g></g></g><g data-name="Group 15" opacity=".25" style="mix-blend-mode:multiply;isolation:isolate"><g data-name="Group 14"><g data-name="Group 13" clip-path="url(#f)" transform="translate(-17830.512 -12338.773)"><path data-name="Path 21" d="M66.452 0H22.147L-.004 38.323l22.151 38.324h44.3l22.151-38.324Z" fill="#63acdc"/></g></g></g><g data-name="Group 18" opacity=".25" style="mix-blend-mode:multiply;isolation:isolate"><g data-name="Group 17"><g data-name="Group 16" clip-path="url(#e)" transform="translate(-17684.891 -12256.203)"><path data-name="Path 22" d="M66.452-.001h-44.3L.001 38.322l22.151 38.324h44.3l22.151-38.324Z" fill="#63acdc"/></g></g></g><g data-name="Group 21" opacity=".26" style="mix-blend-mode:multiply;isolation:isolate"><g data-name="Group 20"><g data-name="Group 19" clip-path="url(#e)" transform="translate(-17758.277 -12298.646)"><path data-name="Path 23" d="M66.452-.001h-44.3L.001 38.322l22.151 38.324h44.3l22.151-38.324Z" fill="#63acdc"/></g></g></g><g data-name="Group 24" opacity=".45" style="mix-blend-mode:multiply;isolation:isolate"><g data-name="Group 23"><g data-name="Group 22" clip-path="url(#e)" transform="translate(-17902.691 -12380.396)"><path data-name="Path 24" d="M66.451 0h-44.3L0 38.323l22.151 38.324h44.3l22.151-38.324Z" fill="#63acdc"/></g></g></g><g data-name="Group 27" opacity=".45" style="mix-blend-mode:multiply;isolation:isolate"><g data-name="Group 26"><g data-name="Group 25" clip-path="url(#e)" transform="translate(-17983.688 -12330.295)"><path data-name="Path 25" d="M66.452 0h-44.3L0 38.323l22.151 38.324h44.3l22.151-38.324Z" fill="#63acdc"/></g></g></g><g data-name="Group 30" opacity=".45" style="mix-blend-mode:multiply;isolation:isolate"><g data-name="Group 29"><g data-name="Group 28" clip-path="url(#e)" transform="translate(-17982.418 -12244.45)"><path data-name="Path 26" d="M66.452 0h-44.3L-.001 38.323l22.153 38.324h44.3l22.151-38.324Z" fill="#63acdc"/></g></g></g><g data-name="Group 33" opacity=".45" style="mix-blend-mode:multiply;isolation:isolate"><g data-name="Group 32"><g data-name="Group 31" clip-path="url(#g)" transform="translate(-17830.512 -12256.203)"><path data-name="Path 27" d="M66.452-.001H22.147L-.004 38.322l22.151 38.324h44.3l22.151-38.324Z" fill="#63acdc"/></g></g></g><g data-name="Group 48" opacity=".38" style="mix-blend-mode:multiply;isolation:isolate"><g data-name="Group 47"><g data-name="Group 46" clip-path="url(#h)" transform="translate(-17909.035 -12296.144)"><g data-name="Group 36" style="mix-blend-mode:screen;isolation:isolate"><g data-name="Group 35"><g data-name="Group 34" clip-path="url(#i)" transform="translate(0 85.614)"><path data-name="Path 28" d="M91.496 37.965a3.726 3.726 0 0 0-.782.086l-18.4-31.829a3.705 3.705 0 1 0-6.247-3.647H29.184a3.707 3.707 0 1 0-6.271 3.618L4.5 38.051a3.714 3.714 0 1 0 0 7.257l18.413 31.857a3.7 3.7 0 1 0 6.271 3.619h36.887a3.707 3.707 0 1 0 6.247-3.647l18.4-31.829a3.714 3.714 0 1 0 .782-7.343M69.6 75.932a3.7 3.7 0 0 0-3.521 2.576H29.184a3.682 3.682 0 0 0-4.3-2.49L6.471 44.165a3.659 3.659 0 0 0 0-4.961L24.885 7.346a3.682 3.682 0 0 0 4.3-2.49h36.886a3.7 3.7 0 0 0 4.269 2.5l18.407 31.848a3.662 3.662 0 0 0 0 4.961L70.34 76.012a3.766 3.766 0 0 0-.748-.075" fill="#59595b"/></g></g></g><g data-name="Group 39" style="mix-blend-mode:screen;isolation:isolate"><g data-name="Group 38"><g data-name="Group 37" clip-path="url(#j)" transform="translate(73.83 127.294)"><path data-name="Path 29" d="M91.496 37.966a3.726 3.726 0 0 0-.782.086l-18.4-31.829a3.705 3.705 0 1 0-6.247-3.647H29.184a3.707 3.707 0 1 0-6.271 3.618L4.5 38.052a3.714 3.714 0 1 0 0 7.257l18.413 31.857a3.7 3.7 0 1 0 6.271 3.619H66.07a3.707 3.707 0 1 0 6.247-3.647l18.4-31.829a3.714 3.714 0 1 0 .783-7.343M69.6 75.933a3.7 3.7 0 0 0-3.521 2.576H29.184a3.682 3.682 0 0 0-4.3-2.49L6.47 44.161a3.659 3.659 0 0 0 0-4.961L24.884 7.342a3.682 3.682 0 0 0 4.3-2.49H66.07a3.7 3.7 0 0 0 4.269 2.5L88.741 39.2a3.659 3.659 0 0 0 0 4.961l-18.4 31.847a3.764 3.764 0 0 0-.748-.075" fill="#59595b"/></g></g></g><g data-name="Group 42" style="mix-blend-mode:screen;isolation:isolate"><g data-name="Group 41"><g data-name="Group 40" clip-path="url(#i)"><path data-name="Path 30" d="M91.496 37.966a3.724 3.724 0 0 0-.782.086l-18.4-31.829a3.705 3.705 0 1 0-6.243-3.644H29.184a3.707 3.707 0 1 0-6.271 3.618L4.5 38.055a3.713 3.713 0 1 0 0 7.257l18.413 31.857a3.7 3.7 0 1 0 6.271 3.619h36.887a3.707 3.707 0 1 0 6.247-3.647l18.4-31.829a3.714 3.714 0 1 0 .782-7.343M69.6 75.936a3.7 3.7 0 0 0-3.521 2.576H29.184a3.687 3.687 0 0 0-4.3-2.491L6.471 44.161a3.659 3.659 0 0 0 0-4.961L24.885 7.342a3.682 3.682 0 0 0 4.3-2.49h36.886a3.7 3.7 0 0 0 4.269 2.5L88.747 39.2a3.662 3.662 0 0 0 0 4.961L70.34 76.008a3.764 3.764 0 0 0-.748-.075" fill="#59595b"/></g></g></g><g data-name="Group 45" style="mix-blend-mode:screen;isolation:isolate"><g data-name="Group 44"><g data-name="Group 43" clip-path="url(#j)" transform="translate(148.179 85.614)"><path data-name="Path 31" d="M91.492 37.965a3.726 3.726 0 0 0-.782.086L72.31 6.222a3.705 3.705 0 1 0-6.247-3.647h-36.88a3.707 3.707 0 1 0-6.271 3.618L4.499 38.051a3.714 3.714 0 1 0 0 7.257l18.413 31.857a3.7 3.7 0 1 0 6.271 3.619h36.886a3.707 3.707 0 1 0 6.247-3.647l18.4-31.829a3.714 3.714 0 1 0 .782-7.343M69.592 75.933a3.7 3.7 0 0 0-3.521 2.576H29.183a3.682 3.682 0 0 0-4.3-2.49L6.466 44.165a3.659 3.659 0 0 0 0-4.961L24.88 7.346a3.682 3.682 0 0 0 4.3-2.49h36.886a3.7 3.7 0 0 0 4.269 2.5l18.407 31.848a3.659 3.659 0 0 0 0 4.961L70.335 76.012a3.767 3.767 0 0 0-.748-.075" fill="#59595b"/></g></g></g></g></g></g><g data-name="Group 57" opacity=".29" style="mix-blend-mode:multiply;isolation:isolate"><g data-name="Group 56"><g data-name="Group 55" clip-path="url(#k)" transform="translate(-17798.51 -12413.714)"><g data-name="Group 51" style="mix-blend-mode:screen;isolation:isolate"><g data-name="Group 50"><g data-name="Group 49" clip-path="url(#l)" transform="translate(0 44.057)"><path data-name="Path 32" d="M91.495 37.966a3.722 3.722 0 0 0-.781.086l-18.4-31.829a3.705 3.705 0 1 0-6.247-3.647H29.184a3.707 3.707 0 1 0-6.271 3.618L4.5 38.052a3.713 3.713 0 1 0 0 7.257l18.413 31.857a3.7 3.7 0 1 0 6.271 3.619H66.07a3.707 3.707 0 1 0 6.247-3.647l18.4-31.829a3.714 3.714 0 1 0 .782-7.343m-21.9 37.967a3.706 3.706 0 0 0-3.522 2.576H29.184a3.687 3.687 0 0 0-4.3-2.491L6.47 44.161a3.659 3.659 0 0 0 0-4.961L24.884 7.342a3.682 3.682 0 0 0 4.3-2.49H66.07a3.7 3.7 0 0 0 4.269 2.5L88.745 39.2a3.659 3.659 0 0 0 0 4.961L70.338 76.008a3.764 3.764 0 0 0-.748-.075" fill="#63acdc"/></g></g></g><g data-name="Group 54" style="mix-blend-mode:screen;isolation:isolate"><g data-name="Group 53"><g data-name="Group 52" clip-path="url(#l)" transform="translate(73.853)"><path data-name="Path 33" d="M91.492 37.967a3.725 3.725 0 0 0-.782.085L72.31 6.223a3.705 3.705 0 1 0-6.247-3.647h-36.88a3.707 3.707 0 1 0-6.271 3.619L4.499 38.049a3.714 3.714 0 1 0 0 7.257l18.413 31.857a3.7 3.7 0 1 0 6.271 3.619h36.886a3.707 3.707 0 1 0 6.247-3.647l18.4-31.829a3.713 3.713 0 1 0 .782-7.342m-21.9 37.966a3.7 3.7 0 0 0-3.521 2.576H29.183a3.682 3.682 0 0 0-4.3-2.49L6.469 44.158a3.659 3.659 0 0 0 0-4.961L24.883 7.339a3.682 3.682 0 0 0 4.3-2.49h36.886a3.7 3.7 0 0 0 4.269 2.5l18.407 31.848a3.659 3.659 0 0 0 0 4.961L70.338 76.005a3.764 3.764 0 0 0-.748-.075" fill="#63acdc"/></g></g></g></g></g></g><g data-name="Group 69" opacity=".33" style="mix-blend-mode:multiply;isolation:isolate"><g data-name="Group 68"><g data-name="Group 67" clip-path="url(#m)" transform="translate(-18079.766 -12512.937)"><g data-name="Group 60" style="mix-blend-mode:screen;isolation:isolate"><g data-name="Group 59"><g data-name="Group 58" clip-path="url(#n)"><path data-name="Path 34" d="M91.5 37.966a3.723 3.723 0 0 0-.781.086l-18.4-31.829a3.705 3.705 0 1 0-6.249-3.651H29.184a3.707 3.707 0 1 0-6.271 3.618L4.5 38.052a3.714 3.714 0 1 0 0 7.257l18.413 31.857a3.7 3.7 0 1 0 6.271 3.619H66.07a3.707 3.707 0 1 0 6.247-3.647l18.4-31.829a3.714 3.714 0 1 0 .782-7.343m-21.9 37.967a3.706 3.706 0 0 0-3.522 2.576H29.184a3.7 3.7 0 0 0-3.522-2.576 3.657 3.657 0 0 0-.781.086L6.467 44.161a3.659 3.659 0 0 0 0-4.961L24.881 7.342a3.682 3.682 0 0 0 4.3-2.49H66.07a3.7 3.7 0 0 0 4.269 2.5L88.746 39.2a3.659 3.659 0 0 0 0 4.961L70.339 76.008a3.764 3.764 0 0 0-.748-.075" fill="#63acdc"/></g></g></g><g data-name="Group 63" style="mix-blend-mode:screen;isolation:isolate"><g data-name="Group 62"><g data-name="Group 61" clip-path="url(#l)" transform="translate(74.935 43.81)"><path data-name="Path 35" d="M91.496 37.962a3.725 3.725 0 0 0-.782.086l-18.4-31.829a3.705 3.705 0 1 0-6.247-3.647H29.184a3.707 3.707 0 1 0-6.271 3.618L4.5 38.052a3.714 3.714 0 1 0 0 7.257l18.413 31.853a3.7 3.7 0 1 0 6.271 3.619H66.07a3.707 3.707 0 1 0 6.247-3.647l18.4-31.829a3.714 3.714 0 1 0 .782-7.343m-21.9 37.967a3.7 3.7 0 0 0-3.521 2.576H29.184a3.7 3.7 0 0 0-3.522-2.576 3.657 3.657 0 0 0-.781.086L6.465 44.162a3.659 3.659 0 0 0 0-4.961L24.881 7.342a3.682 3.682 0 0 0 4.3-2.49h36.886a3.7 3.7 0 0 0 4.269 2.5L88.743 39.2a3.659 3.659 0 0 0 0 4.961L70.336 76.008a3.766 3.766 0 0 0-.748-.075" fill="#63acdc"/></g></g></g><g data-name="Group 66" style="mix-blend-mode:screen;isolation:isolate"><g data-name="Group 65"><g data-name="Group 64" clip-path="url(#n)" transform="translate(149.473)"><path data-name="Path 36" d="M91.495 37.966a3.723 3.723 0 0 0-.781.086l-18.4-31.829a3.705 3.705 0 1 0-6.247-3.647H29.184a3.707 3.707 0 1 0-6.271 3.618L4.5 38.052a3.714 3.714 0 1 0 0 7.257l18.413 31.857a3.7 3.7 0 1 0 6.271 3.619H66.07a3.707 3.707 0 1 0 6.247-3.647l18.4-31.829a3.714 3.714 0 1 0 .781-7.343m-21.9 37.967a3.706 3.706 0 0 0-3.522 2.576H29.184a3.7 3.7 0 0 0-3.522-2.576 3.657 3.657 0 0 0-.781.086L6.467 44.161a3.659 3.659 0 0 0 0-4.961L24.881 7.342a3.682 3.682 0 0 0 4.3-2.49h36.886a3.7 3.7 0 0 0 4.269 2.5L88.743 39.2a3.659 3.659 0 0 0 0 4.961L70.336 76.008a3.764 3.764 0 0 0-.748-.075" fill="#63acdc"/></g></g></g></g></g></g><g data-name="Group 93" opacity=".45"><g data-name="Group 92"><g data-name="Group 91" clip-path="url(#o)" transform="translate(-17843.686 -12607.864)"><g data-name="Group 72" opacity=".75" style="mix-blend-mode:multiply;isolation:isolate"><g data-name="Group 71"><g data-name="Group 70" clip-path="url(#p)" transform="translate(247.294)"><path data-name="Path 37" d="M124.78 108.183V36.061L62.39 0 0 36.061v72.122l62.39 36.061Z" fill="#1471af"/></g></g></g><g data-name="Group 75" opacity=".45" style="mix-blend-mode:multiply;isolation:isolate"><g data-name="Group 74"><g data-name="Group 73" clip-path="url(#q)" transform="translate(0 51.968)"><path data-name="Path 38" d="M101.784 88.246V29.415L50.892 0 0 29.415v58.831l50.892 29.415Z" fill="#1471af"/></g></g></g><g data-name="Group 78" opacity=".45" style="mix-blend-mode:multiply;isolation:isolate"><g data-name="Group 77"><g data-name="Group 76" clip-path="url(#p)" transform="translate(110.743)"><path data-name="Path 39" d="M124.778 108.183V36.061L62.39 0 0 36.061v72.122l62.39 36.061Z" fill="#1471af"/></g></g></g><g data-name="Group 81" opacity=".25" style="mix-blend-mode:multiply;isolation:isolate"><g data-name="Group 80"><g data-name="Group 79" clip-path="url(#p)" transform="translate(415.537 227.602)"><path data-name="Path 40" d="M124.784 108.183V36.061L62.39-.002 0 36.059v72.122l62.39 36.061Z" fill="#1471af"/></g></g></g><g data-name="Group 84" opacity=".25" style="mix-blend-mode:multiply;isolation:isolate"><g data-name="Group 83"><g data-name="Group 82" clip-path="url(#p)" transform="translate(179.435 119.473)"><path data-name="Path 41" d="M124.78 108.183V36.061L62.386 0-.004 36.061v72.122l62.39 36.061Z" fill="#1471af"/></g></g></g><g data-name="Group 87" opacity=".25" style="mix-blend-mode:multiply;isolation:isolate"><g data-name="Group 86"><g data-name="Group 85" clip-path="url(#r)" transform="translate(325.626 337.39)"><path data-name="Path 42" d="M124.78 108.182V36.06L62.39-.001-.005 36.06v72.122l62.39 36.061Z" fill="#1471af"/></g></g></g><g data-name="Group 90" opacity=".38" style="mix-blend-mode:multiply;isolation:isolate"><g data-name="Group 89"><g data-name="Group 88" clip-path="url(#p)" transform="translate(353.449 98.308)"><path data-name="Path 43" d="M124.78 108.183V36.061L62.39 0 0 36.061v72.122l62.39 36.061Z" fill="#1471af"/></g></g></g></g></g></g><g data-name="Group 96" opacity=".45" style="mix-blend-mode:screen;isolation:isolate"><g data-name="Group 95"><g data-name="Group 94" clip-path="url(#s)" transform="translate(-17820.434 -12520.002)"><path data-name="Path 44" d="M34.015 51.368V34.08l2.328-.028h14.968V17.316h-17.3V0H17.297v17.316h-17.3v16.736h17.3v17.316Z" fill="#929496"/></g></g></g><g data-name="Group 99" opacity=".45" style="mix-blend-mode:screen;isolation:isolate"><g data-name="Group 98"><g data-name="Group 97" clip-path="url(#t)" transform="translate(-17732.066 -12275.544)"><path data-name="Path 45" d="M24.095 36.386V24.14l1.649-.02h10.6V12.265H24.095V-.001H12.253v12.266H.002V24.12h12.252v12.266Z" fill="#929496"/></g></g></g><g data-name="Group 102" opacity=".3" style="mix-blend-mode:screen;isolation:isolate"><g data-name="Group 101"><g data-name="Group 100" clip-path="url(#u)" transform="translate(-17880.568 -12365.626)"><path data-name="Path 46" d="M29.404 44.406V29.461l2.013-.024h12.939V14.969H29.404V0H14.953v14.969H.004v14.468h14.953v14.969Z" fill="#929496"/></g></g></g><path data-name="Rectangle 35" fill="none" d="M-18079.766-12607.864h1230.904v522.376h-1230.904z"/></g></g></svg>