<svg xmlns="http://www.w3.org/2000/svg" width="1082" height="296.796"><defs><clipPath id="a"><path data-name="Rectangle 123" transform="translate(28)" fill="#fff" stroke="#707070" d="M0 0h1082v296.796H0z"/></clipPath></defs><g data-name="Mask Group 6" transform="translate(-28)" opacity=".22" clip-path="url(#a)" style="mix-blend-mode:multiply;isolation:isolate"><g data-name="Group 234" fill="none" stroke-width="2"><path data-name="Path 92" d="M1309.534 87.432s-317.24-71.106-691 40.111-747.518 32.818-800.392-20.052 21.879 69.282 21.879 69.282S5.933 331.747 618.535 198.652s727.463 10.939 727.463 10.939" stroke="#97ccef"/><path data-name="Path 94" d="M1332.303 114.78s-337.909-71.106-736.02 40.111-796.222 32.818-852.543-20.052 23.3 69.282 23.3 69.282S-56.238 359.095 596.276 226s774.864 10.939 774.864 10.939" stroke="#e6efff"/><path data-name="Path 93" d="M1318.595 131.61s-317.24-71.106-691 40.111-747.518 32.818-800.392-20.052 21.879 69.282 21.879 69.282S14.994 375.925 627.596 242.83s727.463 10.939 727.463 10.939" stroke="#ff9494"/></g></g></svg>