<svg xmlns="http://www.w3.org/2000/svg" width="1080" height="344"><defs><clipPath id="a"><path data-name="Rectangle 123" fill="#fff" stroke="#707070" d="M0 0h1080v344H0z"/></clipPath></defs><g data-name="Mask Group 6" clip-path="url(#a)"><g data-name="Group 234" fill="none" stroke-width="2"><path data-name="Path 92" d="M-164.979 83.121s301.6-67.6 656.937 38.133 710.669 31.2 760.937-19.067-20.8 65.867-20.8 65.867-157.733 147.334-740.136 20.8-691.6 10.4-691.6 10.4" stroke="#97ccef"/><path data-name="Path 94" d="M-186.625 109.121s321.251-67.6 699.737 38.133 756.971 31.2 810.513-19.067-22.155 65.867-22.155 65.867-168.01 147.334-788.358 20.8-736.662 10.4-736.662 10.4" stroke="#e6efff"/><path data-name="Path 93" d="M-173.594 125.121s301.6-67.6 656.937 38.133 710.669 31.2 760.937-19.067-20.8 65.867-20.8 65.867-157.733 147.334-740.136 20.8-691.6 10.4-691.6 10.4" stroke="#ff9494"/></g></g></svg>